<svg width="40" height="40" viewBox="0 0 40 40" fill="none" xmlns="http://www.w3.org/2000/svg">
<path d="M21.1667 25.5L25.5 21.1667C25.8333 20.8333 26 20.4445 26 20C26 19.5556 25.8333 19.1667 25.5 18.8333L21.125 14.4583C20.8195 14.1528 20.4378 14.0067 19.98 14.02C19.5211 14.0345 19.1389 14.1945 18.8333 14.5C18.5278 14.8056 18.375 15.1945 18.375 15.6667C18.375 16.1389 18.5278 16.5278 18.8333 16.8333L20.3333 18.3333H14.9583C14.4861 18.3333 14.0972 18.4928 13.7917 18.8117C13.4861 19.1317 13.3333 19.5278 13.3333 20C13.3333 20.4722 13.4933 20.8678 13.8133 21.1867C14.1322 21.5067 14.5278 21.6667 15 21.6667H20.3333L18.7917 23.2083C18.4861 23.5139 18.34 23.8961 18.3533 24.355C18.3678 24.8128 18.5278 25.1945 18.8333 25.5C19.1389 25.8056 19.5278 25.9583 20 25.9583C20.4722 25.9583 20.8611 25.8056 21.1667 25.5ZM20 36.6667C17.6945 36.6667 15.5278 36.2289 13.5 35.3533C11.4722 34.4789 9.70834 33.2917 8.20834 31.7917C6.70834 30.2917 5.52112 28.5278 4.64668 26.5C3.77112 24.4722 3.33334 22.3056 3.33334 20C3.33334 17.6945 3.77112 15.5278 4.64668 13.5C5.52112 11.4722 6.70834 9.70834 8.20834 8.20834C9.70834 6.70834 11.4722 5.52057 13.5 4.64501C15.5278 3.77057 17.6945 3.33334 20 3.33334C22.3056 3.33334 24.4722 3.77057 26.5 4.64501C28.5278 5.52057 30.2917 6.70834 31.7917 8.20834C33.2917 9.70834 34.4789 11.4722 35.3533 13.5C36.2289 15.5278 36.6667 17.6945 36.6667 20C36.6667 22.3056 36.2289 24.4722 35.3533 26.5C34.4789 28.5278 33.2917 30.2917 31.7917 31.7917C30.2917 33.2917 28.5278 34.4789 26.5 35.3533C24.4722 36.2289 22.3056 36.6667 20 36.6667ZM20 33.3333C23.6945 33.3333 26.8406 32.035 29.4383 29.4383C32.035 26.8406 33.3333 23.6945 33.3333 20C33.3333 16.3056 32.035 13.1595 29.4383 10.5617C26.8406 7.96501 23.6945 6.66668 20 6.66668C16.3056 6.66668 13.16 7.96501 10.5633 10.5617C7.96557 13.1595 6.66668 16.3056 6.66668 20C6.66668 23.6945 7.96557 26.8406 10.5633 29.4383C13.16 32.035 16.3056 33.3333 20 33.3333Z" fill="black"/>
</svg>
