<svg width="182" height="162" viewBox="0 0 182 162" fill="none" xmlns="http://www.w3.org/2000/svg">
<path fill-rule="evenodd" clip-rule="evenodd" d="M49.0999 140.544C49.0999 140.544 44.3237 147.693 44.909 149.183C45.5697 150.904 50.3836 156.101 50.3836 156.101L64.1081 155.764L57.9915 153.813L54.6878 148.562L58.6711 141.715L49.0999 140.544Z" fill="#FCDA69" stroke="#1C2628" stroke-width="0.402105" stroke-linecap="round" stroke-linejoin="round"/>
<path fill-rule="evenodd" clip-rule="evenodd" d="M66.7133 155.622L58.3125 155.8L42.2283 155.587L43.7952 147.835L50.95 147.657C50.95 147.657 50.7046 145.884 52.5735 145.954C54.0083 146.008 58.237 150.123 62.1448 151.258C67.5062 152.82 66.7133 155.622 66.7133 155.622Z" fill="#F3A13B"/>
<path fill-rule="evenodd" clip-rule="evenodd" d="M66.6189 154.611L48.4392 154.523C47.9106 154.523 47.4953 154.877 47.4764 155.321V155.605C47.4764 156.048 47.8917 156.403 48.4203 156.403L66.6 156.492C67.1286 156.492 67.5439 156.137 67.5628 155.693V155.41C67.5628 154.966 67.1475 154.611 66.6189 154.611Z" fill="#1C2628" stroke="#1C2628" stroke-width="0.402105" stroke-linecap="round" stroke-linejoin="round"/>
<path fill-rule="evenodd" clip-rule="evenodd" d="M49.9683 156.421L41.3788 156.297L41.9073 152.057C41.9073 152.057 46.2682 151.826 47.7596 153.139C49.2698 154.487 49.9683 156.421 49.9683 156.421Z" fill="#1C2628" stroke="#1C2628" stroke-width="0.402105" stroke-linecap="round" stroke-linejoin="round"/>
<path fill-rule="evenodd" clip-rule="evenodd" d="M62.9943 151.507L52.9133 145.706C52.9133 145.706 51.3087 145.937 50.8934 146.558C50.478 147.161 51.2143 148.137 51.2143 148.137C51.2143 148.137 56.9721 151.755 59.4263 152.483C61.1442 152.997 62.9943 151.507 62.9943 151.507Z" fill="#1C2628" stroke="#1C2628" stroke-width="0.402105" stroke-linecap="round" stroke-linejoin="round"/>
<path d="M53.9328 149.219L50.4214 155.356" stroke="#1C2628" stroke-width="0.402105" stroke-linecap="round" stroke-linejoin="round"/>
<path d="M43.7952 147.835L42.9456 153.459" stroke="#1C2628" stroke-width="0.402105" stroke-linecap="round" stroke-linejoin="round"/>
<path d="M98.7306 75.4238C92.2932 84.2401 83.5903 93.6064 69.0164 100.968C54.4424 108.33 33.903 113.669 24.8226 105.988C15.7233 98.396 18.2152 77.6767 19.8199 61.6227C21.4245 45.6575 22.2552 34.3754 27.2579 25.0092C32.2606 15.7493 41.3599 8.3876 50.8367 7.60707C60.2003 6.80881 69.9225 12.6982 85.0628 12.8224C100.222 12.9466 120.799 7.30551 126.482 12.5563C132.164 17.8071 122.857 33.9497 116.136 46.101C109.435 58.2346 105.168 66.5897 98.7306 75.4238Z" fill="#FF6406"/>
<path fill-rule="evenodd" clip-rule="evenodd" d="M127.822 11.2436C126.519 10.0196 114.947 17.7716 114.947 17.7716C114.947 17.7716 107.679 37.196 105.885 40.9921C104.073 44.8238 97.5035 54.8996 97.5035 54.8996C97.5035 54.8996 84.2322 54.0836 77.9458 59.2635C74.2645 62.2968 69.9603 73.508 69.9603 73.508C69.9603 73.508 63.9948 74.5368 60.6722 71.6808C58.7656 70.0488 56.689 65.277 55.3297 63.0596C54.3103 61.4276 53.744 62.0308 53.744 62.0308L55.1598 70.8294L51.7617 70.1553L55.5185 75.8318C55.5185 75.8318 68.0347 86.0495 72.9619 82.9984C77.8891 79.9473 81.7025 74.5368 81.7025 74.5368L81.7214 87.5042L104.923 80.2843L105.187 66.2172C105.187 66.2172 113.191 54.4207 116.835 41.9323C118.553 36.0074 120.535 23.9803 120.535 23.9803C120.535 23.9803 128.143 21.7452 129.087 16.3347C129.691 12.8401 129.389 12.716 127.822 11.2436Z" fill="#FCDA69" stroke="#1C2628" stroke-width="0.402105" stroke-linecap="round" stroke-linejoin="round"/>
<path d="M127.142 12.9643C126.387 12.5918 125.538 12.5208 124.801 12.6805C124.367 12.7692 123.99 12.9288 123.669 13.1239C123.65 12.9466 123.612 12.7692 123.593 12.574C123.555 12.2193 123.518 11.8645 123.48 11.5097C123.839 11.2081 124.178 10.9066 124.499 10.5518C125.273 9.73577 125.84 8.74238 126.01 7.64256C126.179 6.56047 126.312 5.46064 125.991 4.46725C125.915 4.20116 125.821 4.04151 125.651 3.70447C125.594 3.58029 125.481 3.34969 125.33 3.15455C125.179 2.95942 124.896 2.79977 124.575 2.81751C123.952 2.88847 123.65 3.22551 123.442 3.47386C123.348 3.61577 123.272 3.73995 123.197 3.88186C123.159 3.95282 123.14 4.00603 123.102 4.05925L123.083 4.09473C123.065 4.13021 123.065 4.13021 123.065 4.16568L123.027 4.27212C122.838 4.82203 122.838 5.33647 122.857 5.83316C122.857 6.31212 122.876 6.79108 122.876 7.27003C122.857 8.01508 122.895 8.76012 122.932 9.48743C122.649 9.78899 122.366 10.0728 122.045 10.3389L121.479 10.8179C121.29 10.9775 121.082 11.1549 120.875 11.35C120.082 12.1128 119.402 12.9998 118.987 14.0286C118.553 15.0398 118.515 16.2815 119.025 17.2926C119.515 18.3038 120.422 19.0133 121.384 19.4213C122.328 19.8116 123.31 19.9713 124.273 19.9535C124.348 20.4325 124.405 20.8759 124.462 21.3194C124.707 22.4725 124.235 23.4659 123.461 23.7852C122.895 23.998 122.366 23.8561 122.026 23.6255C122.064 23.6255 122.102 23.6433 122.14 23.6433C122.706 23.6787 123.197 23.2885 123.235 22.7563C123.272 22.2241 122.857 21.7806 122.291 21.7274C121.724 21.692 121.252 22.0822 121.196 22.6144C121.196 22.6499 121.196 22.7031 121.196 22.7386C121.215 22.9337 121.29 23.1288 121.422 23.2707C121.46 23.3239 121.479 23.3594 121.535 23.4126C121.686 23.6078 121.932 23.8206 122.291 23.9626C122.649 24.1045 123.083 24.1754 123.574 24.0513C124.065 23.9271 124.537 23.5546 124.783 23.0224C124.896 22.7563 124.99 22.4725 125.009 22.1709C125.009 21.8516 124.99 21.5678 124.952 21.2662C124.896 20.8405 124.839 20.397 124.764 19.9358C125.613 19.8648 126.444 19.6342 127.18 19.2794C128.011 18.8359 128.671 18.1264 128.936 17.2926C129.238 16.4589 129.181 15.572 128.86 14.7914C128.52 14.0109 127.916 13.3368 127.142 12.9643ZM123.839 5.26551C124.009 4.89299 124.348 3.86412 124.971 4.07699C125.368 4.2189 125.387 4.7156 125.368 5.05264C125.311 5.81542 125.085 6.57821 124.65 7.23456C124.235 7.87316 123.82 8.45856 123.348 9.04395C123.329 8.47629 123.329 7.8909 123.367 7.32325C123.404 6.61369 123.574 5.90412 123.839 5.26551ZM121.781 18.7295C121.007 18.3038 120.346 17.6652 120.063 16.9024C119.78 16.1396 119.893 15.3236 120.29 14.5608C120.705 13.8158 121.366 13.1594 122.083 12.574C122.253 12.4321 122.442 12.2902 122.649 12.1483L122.951 11.9354C123.027 11.8822 123.102 11.829 123.159 11.7758C123.197 12.0596 123.216 12.3434 123.253 12.6095C123.291 12.8579 123.31 13.0885 123.348 13.3368C122.725 13.798 122.309 14.4189 122.14 14.9688C121.856 15.909 122.026 16.6363 122.196 17.0798C122.272 17.3104 122.366 17.47 122.423 17.5765C122.479 17.6829 122.517 17.7361 122.517 17.7361C122.517 17.7361 122.46 17.4878 122.442 17.0266C122.423 16.5831 122.442 15.909 122.819 15.2172C122.97 14.9333 123.197 14.6495 123.48 14.4189C123.612 15.43 123.763 16.4057 123.895 17.3281C123.99 18.0377 124.103 18.7295 124.197 19.3859C123.348 19.3504 122.517 19.1375 121.781 18.7295ZM128.369 17.1507C128.218 17.8603 127.69 18.5344 126.935 18.8892C126.274 19.2262 125.481 19.3859 124.669 19.4036C124.556 18.7295 124.443 18.02 124.311 17.2749C124.141 16.2993 123.971 15.2526 123.82 14.1706C124.16 13.9577 124.556 13.7803 125.028 13.7093C126.066 13.5674 127.293 14.0109 127.973 15.1462C128.313 15.7139 128.502 16.4412 128.369 17.1507Z" fill="#1C2628" stroke="#1C2628" stroke-width="0.402105" stroke-linecap="round" stroke-linejoin="round"/>
<path fill-rule="evenodd" clip-rule="evenodd" d="M130.899 10.995L130.748 10.658C130.521 10.1437 129.898 9.89543 129.351 10.1082L126.161 11.261C125.613 11.456 125.349 12.0235 125.575 12.5378L125.708 12.8748C125.934 13.3891 126.557 13.6374 127.105 13.4246L130.295 12.2718C130.861 12.059 131.126 11.4915 130.899 10.995Z" fill="#FCDA69" stroke="#1C2628" stroke-width="0.402105" stroke-linecap="round" stroke-linejoin="round"/>
<path fill-rule="evenodd" clip-rule="evenodd" d="M130.918 13.3365L130.767 12.9996C130.54 12.4853 129.917 12.237 129.37 12.4498L126.18 13.6025C125.632 13.7976 125.368 14.3651 125.594 14.8794L125.745 15.2163C125.972 15.7306 126.595 15.9789 127.142 15.7661L130.333 14.6134C130.88 14.4183 131.144 13.8508 130.918 13.3365Z" fill="#FCDA69" stroke="#1C2628" stroke-width="0.402105" stroke-linecap="round" stroke-linejoin="round"/>
<path fill-rule="evenodd" clip-rule="evenodd" d="M130.805 15.9266L130.654 15.5896C130.427 15.0754 129.804 14.8271 129.257 15.0399L126.066 16.1926C125.519 16.3877 125.254 16.9552 125.481 17.4695L125.632 17.8064C125.859 18.3207 126.482 18.569 127.029 18.3562L130.219 17.2035C130.748 17.0084 131.012 16.4409 130.805 15.9266Z" fill="#FCDA69" stroke="#1C2628" stroke-width="0.402105" stroke-linecap="round" stroke-linejoin="round"/>
<path fill-rule="evenodd" clip-rule="evenodd" d="M119.61 21.8693C119.799 20.6276 119.987 18.1264 119.044 17.133C118.1 16.1396 121.384 13.798 120.459 12.7159C118.93 10.942 115.268 17.7538 115.268 17.7538" fill="#FCDA69"/>
<path d="M119.61 21.8693C119.799 20.6276 119.987 18.1264 119.044 17.133C118.1 16.1396 121.384 13.798 120.459 12.7159C118.93 10.942 115.268 17.7538 115.268 17.7538" stroke="#1C2628" stroke-width="0.402105" stroke-linecap="round" stroke-linejoin="round"/>
<path fill-rule="evenodd" clip-rule="evenodd" d="M84.0246 45.4271C82.1934 39.857 84.6098 35.5641 93.0672 36.5753C94.0489 36.6994 95.2193 36.8059 96.1066 37.2848C100.109 39.4845 99.3536 42.0389 99.8445 42.5534C101.279 44.0967 101.959 50.0393 102.563 51.7067L82.7408 51.5116L84.0246 45.4271Z" fill="#1C2628" stroke="#1C2628" stroke-width="0.402105" stroke-linecap="round" stroke-linejoin="round"/>
<path fill-rule="evenodd" clip-rule="evenodd" d="M89.1217 126.104C89.1217 126.104 92.2554 140.81 95.0116 148.846C96.9938 154.629 97.9755 156.882 93.1993 157.343C88.4043 157.804 83.3261 157.13 83.3261 157.13L74.5855 158.017C74.5855 158.017 71.2629 157.911 74.661 155.711C78.0213 153.529 83.5148 153.086 84.9873 150.212C86.4409 147.303 77.0774 131.054 77.0774 131.054L89.1217 126.104Z" fill="#FCDA69" stroke="#1C2628" stroke-width="0.402105" stroke-linecap="round" stroke-linejoin="round"/>
<path fill-rule="evenodd" clip-rule="evenodd" d="M141.546 86.298C141.546 86.298 148.739 79.4507 152.779 74.395C156.026 70.315 156.403 68.754 159.971 70.3505C163.237 71.8051 176.112 66.4656 177.037 69.1442C178.094 72.2131 165.786 75.9738 157.838 81.2423C151.91 85.1627 149.872 91.2827 149.872 91.2827L141.546 86.298Z" fill="#FCDA69" stroke="#1C2628" stroke-width="0.402105" stroke-linecap="round" stroke-linejoin="round"/>
<path fill-rule="evenodd" clip-rule="evenodd" d="M5.24594 114.858C4.11325 115.656 2.71627 116.543 1.96114 117.732C1.88563 117.838 0.658549 118.92 1.09275 119.08C2.75403 119.701 5.22707 116.916 6.34088 116.206C6.79395 115.922 7.20927 115.568 7.66235 115.284C7.85113 115.16 8.30421 114.698 8.22869 114.911C7.87001 115.922 6.18985 116.667 5.51024 117.519C4.22652 119.133 6.4919 118.299 7.19039 117.732C7.5302 117.466 7.88889 117.235 8.22869 116.969C8.68177 116.632 9.07821 116.242 9.49353 115.887C10.1731 115.302 10.9094 114.787 11.6834 114.308" fill="#FCDA69"/>
<path d="M5.24594 114.858C4.11325 115.656 2.71627 116.543 1.96114 117.732C1.88563 117.838 0.658549 118.92 1.09275 119.08C2.75403 119.701 5.22706 116.916 6.34088 116.206C6.79395 115.922 7.20927 115.568 7.66235 115.284C7.85113 115.16 8.30421 114.698 8.22869 114.911C7.87001 115.922 6.18985 116.667 5.51024 117.519C4.22652 119.133 6.4919 118.299 7.19039 117.732C7.5302 117.466 7.88889 117.235 8.22869 116.969C8.68177 116.632 9.07821 116.242 9.49353 115.887C10.1731 115.302 10.9094 114.787 11.6834 114.308" stroke="#1C2628" stroke-width="0.402105" stroke-linecap="round" stroke-linejoin="round"/>
<path fill-rule="evenodd" clip-rule="evenodd" d="M32.6948 39.0586C32.7326 37.0718 29.3345 36.1139 26.465 37.5863C23.5955 39.0586 23.4256 43.3515 22.9159 44.2562C20.0842 49.3296 24.3318 53.3563 30.8447 54.1191C32.7326 54.332 38.9246 51.9727 38.6792 49.7908C38.4338 47.5911 31.5055 48.6732 31.0146 46.6687" fill="#1C2628"/>
<path d="M32.6948 39.0586C32.7326 37.0718 29.3345 36.1139 26.465 37.5863C23.5955 39.0586 23.4256 43.3515 22.9159 44.2562C20.0842 49.3296 24.3318 53.3563 30.8447 54.1191C32.7326 54.332 38.9246 51.9727 38.6792 49.7908C38.4338 47.5911 31.5055 48.6732 31.0146 46.6687" stroke="#1C2628" stroke-width="0.402105" stroke-linecap="round" stroke-linejoin="round"/>
<path fill-rule="evenodd" clip-rule="evenodd" d="M21.9343 92.7727C21.9343 92.7727 20.1219 112.073 18.3285 114.113C17.3469 115.23 4.49083 115.869 4.49083 115.869C4.49083 115.869 5.77454 116.774 5.83118 117.501C5.88781 118.228 5.35922 118.477 5.35922 118.477C5.35922 118.477 1.90452 117.536 1.4892 116.543C1.2249 115.904 4.09438 113.811 5.3781 113.102C8.68178 111.292 11.9855 111.221 12.7406 109.27C13.4957 107.319 15.1759 91.5664 15.1759 91.5664L21.9343 92.7727Z" fill="#FCDA69" stroke="#1C2628" stroke-width="0.402105" stroke-linecap="round" stroke-linejoin="round"/>
<path fill-rule="evenodd" clip-rule="evenodd" d="M34.1296 145.032C34.1296 145.032 26.7671 156.988 27.6166 159.046L48.7979 159.614L40.0007 153.582L43.7008 146.203L34.1296 145.032Z" fill="#FCDA69" stroke="#1C2628" stroke-width="0.402105" stroke-linecap="round" stroke-linejoin="round"/>
<path fill-rule="evenodd" clip-rule="evenodd" d="M94.4075 49.1876L94.332 54.0836L95.6535 55.5205C95.6535 55.5205 96.2954 60.3987 94.2376 61.5341C91.9911 62.7935 86.9318 60.3278 85.2139 59.9198C83.6659 59.5473 86.1389 56.4961 86.1389 56.4961L86.3088 50.8728L86.1578 48.6909L94.4075 49.1876Z" fill="#FCDA69" stroke="#1C2628" stroke-width="0.402105" stroke-linecap="round" stroke-linejoin="round"/>
<path fill-rule="evenodd" clip-rule="evenodd" d="M95.4647 46.2785C95.8234 45.0545 95.6913 42.6065 95.3703 41.4889C94.7851 39.4667 94.181 40.3536 91.9911 39.786C89.5559 39.1474 88.3665 38.2427 86.7808 40.0698C86.1578 40.7794 84.3266 43.4402 84.0434 44.3982C83.0429 47.8218 84.9685 51.3164 88.3477 52.2034C90.5186 52.771 92.2932 52.5936 93.879 51.139C94.804 50.3408 95.106 47.5025 95.4647 46.2785Z" fill="#FCDA69" stroke="#1C2628" stroke-width="0.402105" stroke-linecap="round" stroke-linejoin="round"/>
<path fill-rule="evenodd" clip-rule="evenodd" d="M90.5564 45.9591C90.7263 45.4802 90.2543 44.9125 89.5181 44.6819C88.7818 44.4513 88.0456 44.6464 87.8757 45.1254C87.7058 45.6044 88.1777 46.172 88.914 46.4026C89.6691 46.6332 90.3865 46.4381 90.5564 45.9591Z" fill="#FAFCFF" stroke="#1C2628" stroke-width="0.402105" stroke-linecap="round" stroke-linejoin="round"/>
<path fill-rule="evenodd" clip-rule="evenodd" d="M86.1578 44.0612C86.3277 43.5822 85.8557 43.0146 85.1195 42.784C84.3832 42.5534 83.647 42.7485 83.4771 43.2274C83.3072 43.7064 83.7791 44.2741 84.5154 44.5047C85.2705 44.7353 85.9879 44.5224 86.1578 44.0612Z" fill="#FAFCFF" stroke="#1C2628" stroke-width="0.402105" stroke-linecap="round" stroke-linejoin="round"/>
<path fill-rule="evenodd" clip-rule="evenodd" d="M93.6524 54.6514L94.181 49.6489C94.181 49.6489 89.8956 48.762 88.8573 49.8086C87.8379 50.8552 88.914 54.2966 88.914 54.2966L91.5003 54.6691" fill="#FB564C"/>
<path fill-rule="evenodd" clip-rule="evenodd" d="M98.051 45.764C97.0316 47.4669 95.3137 43.6353 95.3137 43.6353L88.3854 42.092L87.8946 38.7748L86.271 42.4823L83.798 42.429C83.798 42.429 85.7613 37.8169 86.2522 37.3734C88.2721 35.564 91.708 35.6527 93.9356 37.3911C95.8045 38.8457 100.165 42.2516 98.051 45.764Z" fill="#1C2628" stroke="#1C2628" stroke-width="0.402105" stroke-linecap="round" stroke-linejoin="round"/>
<path fill-rule="evenodd" clip-rule="evenodd" d="M94.7851 46.6332C95.2759 46.0834 96.2387 46.6332 96.4275 47.1652C96.8051 48.2648 95.9178 50.1269 94.0866 49.0096" fill="#FCDA69"/>
<path d="M94.7851 46.6332C95.2759 46.0834 96.2387 46.6332 96.4275 47.1652C96.8051 48.2648 95.9178 50.1269 94.0866 49.0096" stroke="#1C2628" stroke-width="0.402105" stroke-linecap="round" stroke-linejoin="round"/>
<path fill-rule="evenodd" clip-rule="evenodd" d="M88.2533 46.1534C88.6119 46.3661 89.0461 46.3129 89.2349 46.047C89.4237 45.7811 89.2727 45.3911 88.914 45.1784C88.5553 44.9657 88.1211 45.0188 87.9323 45.2847C87.7436 45.5507 87.8946 45.9406 88.2533 46.1534Z" fill="#1C2628" stroke="#1C2628" stroke-width="0.402105" stroke-linecap="round" stroke-linejoin="round"/>
<path fill-rule="evenodd" clip-rule="evenodd" d="M84.7797 44.1134C85.0062 43.7766 84.9496 43.2448 84.0057 43.0853C83.6659 43.0321 83.7036 43.1916 83.4582 43.5107C83.2317 43.8475 83.5337 44.2021 83.8169 44.3794C84.119 44.5566 84.5532 44.4503 84.7797 44.1134Z" fill="#1C2628" stroke="#1C2628" stroke-width="0.402105" stroke-linecap="round" stroke-linejoin="round"/>
<path fill-rule="evenodd" clip-rule="evenodd" d="M67.3363 96.9945C64.9576 98.0234 64.9765 93.8547 66.5811 92.8613C69.545 91.0342 72.4522 94.7949 67.3363 96.9945Z" fill="#FAF6EB"/>
<path d="M95.2759 47.7153C95.2382 47.7506 95.2004 47.7859 95.1815 47.8388" stroke="#1C2628" stroke-width="0.402105" stroke-linecap="round" stroke-linejoin="round"/>
<path fill-rule="evenodd" clip-rule="evenodd" d="M159.99 83.1404C159.99 83.1404 159.783 83.442 159.405 83.9741C156.781 87.7171 145.718 102.671 135.26 104.977C132.9 105.492 130.05 105.492 126.991 105.172C114.626 103.842 98.8439 97.0834 98.5985 96.9769L87.3282 112.02L95.5213 134.176L91.5003 134.744L77.606 136.73C77.606 136.73 66.449 118.619 66.8643 114.148C67.525 106.911 81.4571 83.3178 81.4571 83.3178L93.9545 80.0715L105.81 76.9849L117.93 82.5373L118.609 82.8388L134.203 87.7526L149.173 74.1821L159.99 83.1404Z" fill="#FAF6EB" stroke="#1C2628" stroke-width="0.402105" stroke-linecap="round" stroke-linejoin="round"/>
<path fill-rule="evenodd" clip-rule="evenodd" d="M109.151 73.242C109.151 73.242 103.129 74.3063 100.373 74.803C98.353 75.1578 96.0688 76.7366 91.236 77.9606C90.9151 78.0493 90.5752 78.1202 90.2354 78.2089C88.0267 78.7234 81.3249 79.8054 81.3249 79.8054L80.7964 72.2308L79.7392 69.5345C79.2483 68.275 79.2483 66.9091 79.7203 65.6496L81.9668 59.7957L83.4582 55.8753L86.1011 55.148L85.5348 59.3877L93.3881 59.37L95.3137 54.6868L97.8056 54.4385L97.9377 56.3898C98.1265 59.0861 99.6179 61.5696 101.959 63.1307L105.3 65.348L105.885 66.5366L109.151 73.242Z" fill="#FAF6EB" stroke="#1C2628" stroke-width="0.402105" stroke-linecap="round" stroke-linejoin="round"/>
<path fill-rule="evenodd" clip-rule="evenodd" d="M73.1507 118.086C71.3384 124.579 62.0315 142.371 62.0315 142.371L50.5724 141.342L47.7407 145.245L30.6371 144.819L32.8458 140.349L43.4365 118.867L28.2773 100.312L28.9192 91.0165L28.9569 90.4134L39.3777 89.4555L51.5352 87.6638C51.5352 87.6461 74.963 111.594 73.1507 118.086Z" fill="#47584E" stroke="#1C2628" stroke-width="0.402105" stroke-linecap="round" stroke-linejoin="round"/>
<path fill-rule="evenodd" clip-rule="evenodd" d="M48.4203 120.109C48.1183 122.61 47.1366 122.344 45.1355 127.648C43.4743 132.012 44.0784 132.384 42.7758 134.194C40.6048 137.209 37.2633 138.593 35.6776 139.267C34.4882 139.764 33.5821 140.136 32.8647 140.349L43.4554 118.867L28.2962 100.312L28.9381 91.0166C30.8636 91.2472 33.129 91.6907 35.8286 92.3648C39.1134 96.5157 39.6231 99.7088 39.3777 101.944C39.1889 103.682 38.547 104.853 39.2455 106.396C40.2272 108.596 42.5115 108.33 44.909 110.352C47.854 112.889 48.779 117.129 48.4203 120.109Z" fill="#1C2628" stroke="#1C2628" stroke-width="0.402105" stroke-linecap="round" stroke-linejoin="round"/>
<path fill-rule="evenodd" clip-rule="evenodd" d="M49.0433 143.471C49.9872 147.196 46.4004 147.374 46.4004 147.374L32.2984 147.232C31.0524 147.232 30.033 146.274 30.033 145.103C30.033 143.932 31.0524 142.974 32.2984 142.974" fill="#47584E"/>
<path d="M49.0433 143.471C49.9872 147.196 46.4004 147.374 46.4004 147.374L32.2984 147.232C31.0524 147.232 30.033 146.274 30.033 145.103C30.033 143.932 31.0524 142.974 32.2984 142.974" stroke="#1C2628" stroke-width="0.402105" stroke-linecap="round" stroke-linejoin="round"/>
<path fill-rule="evenodd" clip-rule="evenodd" d="M61.1442 139.249C62.2769 139.249 63.2019 140.118 63.2019 141.183C63.2019 142.247 62.2769 143.116 61.1442 143.116H51.5163C50.3836 143.116 50.5535 141.325 50.5535 141.325" fill="#47584E"/>
<path d="M61.1442 139.249C62.2769 139.249 63.2019 140.118 63.2019 141.183C63.2019 142.247 62.2769 143.116 61.1442 143.116H51.5163C50.3836 143.116 50.5535 141.325 50.5535 141.325" stroke="#1C2628" stroke-width="0.402105" stroke-linecap="round" stroke-linejoin="round"/>
<path fill-rule="evenodd" clip-rule="evenodd" d="M26.2573 95.7705L26.2762 95.9124L26.0497 100.844L48.7412 96.3027L49.1943 91.5486C47.5708 91.9211 44.6824 91.5486 40.0195 92.3468C34.0163 93.3757 32.355 95.6641 26.2573 95.7705Z" fill="#F3A140" stroke="#1C2628" stroke-width="0.402105" stroke-linecap="round" stroke-linejoin="round"/>
<path fill-rule="evenodd" clip-rule="evenodd" d="M49.4209 91.5134L51.0255 95.1854L58.4446 92.4359L57.9727 89.1187C55.1976 90.0766 52.3659 90.8216 49.4209 91.5134Z" fill="#F3A140" stroke="#1C2628" stroke-width="0.402105" stroke-linecap="round" stroke-linejoin="round"/>
<path fill-rule="evenodd" clip-rule="evenodd" d="M57.142 83.1402L56.2736 76.8783L55.9338 74.448L55.1598 68.8957L54.2537 62.4919C54.2537 62.4919 57.9538 56.1767 59.5207 47.6265C60.0304 44.8769 60.2381 41.4355 60.2947 38.0296C60.3136 37.1249 60.3136 36.2202 60.2947 35.3333C60.2569 29.2133 59.8039 23.8738 59.8039 23.8738L48.8545 24.3882C48.8545 24.3882 48.8545 32.903 47.382 40.1406C45.9095 47.3604 43.5875 53.2853 43.5875 53.2853L40.0384 56.1767L31.1657 58.0571C31.1657 58.0571 19.3857 60.2567 17.5734 65.4543C16.705 67.9201 15.9876 71.0421 15.4024 74.111C15.2891 74.6964 15.1947 75.2641 15.1004 75.8317C14.7605 77.7475 14.4963 79.5924 14.2886 81.1535C14.1942 81.7921 14.1187 82.3774 14.0621 82.9096C13.8355 84.6658 13.7222 85.7834 13.7222 85.7834L10.2109 105.846L22.1042 106.52L24.3695 93.3935L25.54 85.2512L26.2762 95.8237C32.3739 95.7173 35.5077 92.7194 41.5864 92.4355C46.5703 92.2049 47.5519 91.9921 49.1943 91.6195C49.1943 91.6195 55.2165 90.1294 57.9916 89.1538L57.142 83.1402Z" fill="#FAF6EB" stroke="#1C2628" stroke-width="0.402105" stroke-linecap="round" stroke-linejoin="round"/>
<path d="M49.3831 53.587L46.9289 52.0969L47.1743 54.8287L44.909 56.5672L47.7596 57.2058L48.8167 59.7602L50.327 57.4187L53.2531 57.259L51.3464 55.1835L52.0827 52.5227L49.3831 53.587Z" fill="#49574E"/>
<path d="M60.2947 38.0297L59.6906 37.9233L59.464 38.1007L58.2181 39.0763L58.1237 37.2847L56.5002 36.3268L58.2936 35.6881L58.7467 33.9497L59.7472 35.1382L59.936 35.3511L60.2758 35.3334C60.3135 36.2203 60.3135 37.125 60.2947 38.0297Z" fill="#49574E"/>
<path d="M57.142 83.1404C56.9155 83.1759 56.6512 83.1404 56.4624 82.9985L52.7623 80.586L49.8173 81.6326L48.5524 82.0938C48.2315 82.2002 47.8539 82.147 47.6085 81.9164C47.3442 81.6858 47.2498 81.3487 47.3631 81.0472L48.6657 76.9849L45.8529 73.6854C45.7207 73.5258 45.6452 73.3307 45.6452 73.1533C45.6452 73.0291 45.6641 72.9049 45.7207 72.7985C45.8717 72.4969 46.1738 72.3018 46.5325 72.3018L51.0444 72.2131L53.5174 68.683C53.7062 68.4169 54.046 68.2573 54.3858 68.2927C54.7256 68.3282 55.0277 68.5588 55.1409 68.8604L55.1598 68.9136L55.9338 74.466L55.6695 74.395C55.3863 74.3241 55.1409 74.1112 55.0465 73.8451L54.4613 72.3018L54.0082 71.0778L52.2903 73.5435C52.1204 73.7741 51.8372 73.9338 51.5352 73.9338L48.4014 73.987L50.3647 76.2931C50.5535 76.506 50.6102 76.8075 50.5346 77.0736L49.6285 79.8941L50.9311 79.4329L52.5735 78.8475C52.8567 78.7411 53.1776 78.7766 53.423 78.954L55.9904 80.6392L55.8394 77.6945C55.8394 77.5526 55.8583 77.4107 55.9149 77.2865C55.9716 77.1623 56.066 77.0559 56.1981 76.9672L56.2736 76.914L57.142 83.1404Z" fill="#49574E"/>
<path d="M35.3944 85.1093L32.6948 86.1737L30.2406 84.6836L30.4861 87.4154L28.2207 89.1716L30.5616 89.686L31.0713 89.7925L32.1285 92.3646L33.6576 90.0053L36.5648 89.8457L34.6581 87.7702L34.7903 87.2912L35.3944 85.1093Z" fill="#49574E"/>
<path d="M29.7498 65.4544L28.1451 64.4788L28.2962 66.2704L26.8237 67.4057L28.6737 67.8137L29.3722 69.4989L30.3728 67.9556L32.2795 67.8492L31.0335 66.4833L31.5055 64.7448L29.7498 65.4544Z" fill="#49574E"/>
<path d="M19.801 75.4947L17.0448 78.8474L18.4229 82.8742C18.5362 83.1935 18.4418 83.5306 18.1963 83.7612C17.9509 83.9918 17.5734 84.0627 17.2524 83.9563L14.0432 82.8742C14.1187 82.342 14.1942 81.7567 14.2697 81.118L16.1198 81.7389L15.157 78.9361C15.0626 78.67 15.1192 78.3685 15.308 78.1556L17.2147 75.8318H15.0815C15.1758 75.2641 15.2891 74.6965 15.3835 74.1111H19.0647C19.4046 74.1111 19.7255 74.3062 19.8765 74.59C20.0464 74.8739 20.0087 75.2286 19.801 75.4947Z" fill="#49574E"/>
<path fill-rule="evenodd" clip-rule="evenodd" d="M32.1096 50.0214L31.7509 57.3477C31.7509 57.3477 37.1689 58.0395 38.7547 57.4009C40.3405 56.7623 42.8135 55.5738 42.8135 55.5738L39.6797 48.6023L32.1096 50.0214Z" fill="#FCDA69" stroke="#1C2628" stroke-width="0.402105" stroke-linecap="round" stroke-linejoin="round"/>
<path d="M50.327 96.019C50.327 96.019 65.8826 114.734 65.0709 118.299C64.2591 121.865 49.0056 143.507 49.0056 143.507L35.9796 143.116" stroke="#1C2628" stroke-width="0.402105" stroke-linecap="round" stroke-linejoin="round"/>
<path fill-rule="evenodd" clip-rule="evenodd" d="M38.6226 59.8311L36.1684 61.3389L38.4904 62.1371L38.6226 59.8311Z" fill="#1C2628" stroke="#1C2628" stroke-width="0.402105" stroke-linecap="round" stroke-linejoin="round"/>
<path fill-rule="evenodd" clip-rule="evenodd" d="M38.7547 57.3833L31.6565 55.29L30.7881 57.6671C30.4672 58.554 30.958 59.5297 31.9019 59.849L36.1684 61.3213L38.6225 59.8313L38.7547 57.3833Z" fill="#FAF6EB" stroke="#1C2628" stroke-width="0.402105" stroke-linecap="round" stroke-linejoin="round"/>
<path fill-rule="evenodd" clip-rule="evenodd" d="M40.5859 61.6762L42.4926 59.9023L39.8307 59.6362L40.5859 61.6762Z" fill="#1C2628" stroke="#1C2628" stroke-width="0.402105" stroke-linecap="round" stroke-linejoin="round"/>
<path fill-rule="evenodd" clip-rule="evenodd" d="M42.5492 54.0837L38.9435 57.259L39.8118 59.6183L42.4926 59.9022L44.0028 58.5185C44.7013 57.8799 44.7957 56.8333 44.1916 56.106L42.5492 54.0837Z" fill="#FAF6EB" stroke="#1C2628" stroke-width="0.402105" stroke-linecap="round" stroke-linejoin="round"/>
<path d="M23.5389 69.783C23.5389 69.783 24.5772 71.6278 25.4833 77.2866C25.8043 79.2557 25.54 89.9701 25.54 89.9701" stroke="#1C2628" stroke-width="0.402105" stroke-linecap="round" stroke-linejoin="round"/>
<path fill-rule="evenodd" clip-rule="evenodd" d="M31.9397 51.9551C28.013 50.8021 25.7476 47.0946 26.8803 43.6709C27.4467 41.968 26.9936 39.8393 28.636 39.0943C30.2973 38.3492 34.0729 38.9878 36.0362 39.5555C39.9629 40.7085 42.2283 44.416 41.0956 47.8396C40.4726 49.7023 39.7552 51.4762 37.9052 52.1857C36.3383 52.7711 33.7331 52.4873 31.9397 51.9551Z" fill="#FCDA69" stroke="#1C2628" stroke-width="0.402105" stroke-linecap="round" stroke-linejoin="round"/>
<path fill-rule="evenodd" clip-rule="evenodd" d="M34.2428 40.6907C35.602 40.3714 38.4338 39.1296 38.9057 39.7505C39.5287 40.5665 37.7164 41.8792 37.4332 41.9501" fill="#FCDA69"/>
<path d="M34.2428 40.6907C35.602 40.3714 38.4338 39.1296 38.9057 39.7505C39.5287 40.5665 37.7164 41.8792 37.4332 41.9501" stroke="#1C2628" stroke-width="0.402105" stroke-linecap="round" stroke-linejoin="round"/>
<path fill-rule="evenodd" clip-rule="evenodd" d="M37.2633 47.6082C36.1873 48.158 34.9413 46.8102 34.9413 46.8102L37.7353 44.8417C37.7542 44.824 39.2833 46.5797 37.2633 47.6082Z" fill="#1C2628" stroke="#1C2628" stroke-width="0.402105" stroke-linecap="round" stroke-linejoin="round"/>
<path fill-rule="evenodd" clip-rule="evenodd" d="M31.4488 45.4441C30.958 45.1426 30.9391 44.3623 31.4111 43.7061C31.8642 43.0322 32.6382 42.7307 33.129 43.0322C33.6198 43.3337 33.6387 44.114 33.1668 44.7702C32.6948 45.4441 31.9397 45.7456 31.4488 45.4441Z" fill="#FAFCFF" stroke="#1C2628" stroke-width="0.402105" stroke-linecap="round" stroke-linejoin="round"/>
<path fill-rule="evenodd" clip-rule="evenodd" d="M33.9408 40.6373C33.4877 40.3713 33.4122 39.7326 33.7898 39.2005C34.1673 38.686 34.828 38.4732 35.3 38.757C35.7531 39.0231 35.8286 39.6617 35.451 40.1939C35.0735 40.7083 34.3938 40.9034 33.9408 40.6373Z" fill="#FAFCFF" stroke="#1C2628" stroke-width="0.402105" stroke-linecap="round" stroke-linejoin="round"/>
<path fill-rule="evenodd" clip-rule="evenodd" d="M32.2417 53.2501L31.9774 50.5892C31.9774 50.5892 35.1867 48.3364 36.5459 49.2056C37.9052 50.0925 37.6409 53.9597 37.6409 53.9597L34.9979 54.9353" fill="#FB564C"/>
<path fill-rule="evenodd" clip-rule="evenodd" d="M28.6926 37.941C29.3156 37.6217 27.8242 37.2137 28.5793 37.3024C30.9958 37.5507 31.0524 39.4665 30.2973 40.9921C29.5799 42.4467 28.4283 43.7062 28.4283 43.7062C28.4283 43.7062 31.6565 48.07 29.6743 49.9681C28.3717 51.2099 26.0497 50.9792 25.2945 49.5069C24.6716 48.3006 24.6338 46.9702 24.8415 45.6752C25.0491 44.3448 25.842 43.0853 25.993 41.7726" fill="#1C2628"/>
<path d="M28.6926 37.941C29.3156 37.6217 27.8242 37.2137 28.5793 37.3024C30.9958 37.5507 31.0524 39.4665 30.2973 40.9921C29.5799 42.4467 28.4283 43.7062 28.4283 43.7062C28.4283 43.7062 31.6565 48.07 29.6743 49.9681C28.3717 51.2099 26.0497 50.9792 25.2945 49.5069C24.6716 48.3006 24.6338 46.9702 24.8415 45.6752C25.0491 44.3448 25.842 43.0853 25.993 41.7726" stroke="#1C2628" stroke-width="0.402105" stroke-linecap="round" stroke-linejoin="round"/>
<path fill-rule="evenodd" clip-rule="evenodd" d="M26.3706 40.8856C20.6505 39.839 19.801 44.0077 22.3684 45.4446C19.2535 46.1542 18.9704 51.7597 24.3318 51.6888C23.5955 52.3096 26.9558 55.3253 28.2207 50.8905" fill="#1C2628"/>
<path d="M26.3706 40.8856C20.6505 39.839 19.801 44.0077 22.3684 45.4446C19.2535 46.1542 18.9704 51.7597 24.3318 51.6888C23.5955 52.3096 26.9558 55.3253 28.2207 50.8905" stroke="#1C2628" stroke-width="0.402105" stroke-linecap="round" stroke-linejoin="round"/>
<path fill-rule="evenodd" clip-rule="evenodd" d="M29.9952 49.5956C30.1274 49.4183 28.8437 49.8617 29.5799 51.3691C30.0896 52.4331 32.8647 52.7524 32.8081 50.8193" fill="#FCDA69"/>
<path d="M29.9952 49.5956C30.1274 49.4183 28.8437 49.8617 29.5799 51.3691C30.0896 52.4331 32.8647 52.7524 32.8081 50.8193" stroke="#1C2628" stroke-width="0.402105" stroke-linecap="round" stroke-linejoin="round"/>
<path d="M30.7126 50.9076L30.8825 50.9252H31.1657L31.4866 50.8196" stroke="#1C2628" stroke-width="0.402105" stroke-linecap="round" stroke-linejoin="round"/>
<path fill-rule="evenodd" clip-rule="evenodd" d="M32.978 43.2095C32.6382 43.0323 32.204 43.1563 32.0341 43.4932C31.8641 43.8123 31.9774 44.22 32.3361 44.3795C32.6759 44.5568 33.1101 44.4327 33.28 44.0959C33.4499 43.7768 33.3178 43.3691 32.978 43.2095Z" fill="#1C2628" stroke="#1C2628" stroke-width="0.402105" stroke-linecap="round" stroke-linejoin="round"/>
<path fill-rule="evenodd" clip-rule="evenodd" d="M35.1678 38.8991C34.8469 38.7395 34.4693 38.8104 34.3372 39.0763C34.1862 39.3245 34.3372 39.6613 34.6581 39.8209C34.979 39.9804 35.3566 39.9095 35.4887 39.6436C35.6398 39.3954 35.4887 39.0586 35.1678 38.8991Z" fill="#1C2628" stroke="#1C2628" stroke-width="0.402105" stroke-linecap="round" stroke-linejoin="round"/>
<path d="M30.7881 39.0053C30.9202 38.2957 30.184 37.6394 29.7309 37.1604" stroke="#FAF6EB" stroke-width="0.402105" stroke-linecap="round" stroke-linejoin="round"/>
<path d="M24.7471 48.8328C24.2563 47.8927 23.5389 44.469 24.7849 43.9014C25.9175 43.3692 26.4084 46.0301 25.8987 45.7285C23.9542 44.5577 25.4645 40.5309 27.1635 39.6794" stroke="#FAF6EB" stroke-width="0.402105" stroke-linecap="round" stroke-linejoin="round"/>
<path fill-rule="evenodd" clip-rule="evenodd" d="M36.2816 52.3625L40.4537 50.1812L41.2844 52.93C41.2844 52.93 39.8119 53.0364 38.4526 52.8058C37.1123 52.5753 36.2816 52.3625 36.2816 52.3625Z" fill="#1C2628" stroke="#1C2628" stroke-width="0.402105" stroke-linecap="round" stroke-linejoin="round"/>
<path fill-rule="evenodd" clip-rule="evenodd" d="M30.7315 50.3052C30.7315 49.7908 31.1846 49.3828 31.7509 49.3828C32.3172 49.3828 32.7703 49.7908 32.7703 50.3052C32.7703 50.8197 32.3172 51.2277 31.7509 51.2277C31.1846 51.2277 30.7315 50.8019 30.7315 50.3052Z" fill="#1C2628" stroke="#1C2628" stroke-width="0.402105" stroke-linecap="round" stroke-linejoin="round"/>
<path d="M32.3927 50.1987C33.8464 51.5646 35.9418 54.9351 37.3577 58.5006C38.6037 61.6582 33.5632 68.9135 33.3178 71.734C33.0346 74.7674 38.2261 84.0805 35.2433 89.4732C32.7137 94.0499 27.7298 93.5887 25.1246 98.7507C22.5195 103.913 19.9898 114.521 7.7756 116.1" stroke="#1C2628" stroke-width="0.402105" stroke-linecap="round" stroke-linejoin="round"/>
<path d="M83.6281 47.5911C85.346 51.5824 68.771 53.1257 61.182 61.8356C53.5929 70.5455 38.4526 62.013 36.1118 65.4012" stroke="#1C2628" stroke-width="0.402105" stroke-linecap="round" stroke-linejoin="round"/>
<path d="M52.3092 139.072C52.3092 139.072 58.7089 139.321 60.0682 139.161" stroke="#1C2628" stroke-width="0.402105" stroke-linecap="round" stroke-linejoin="round"/>
<path d="M10.966 101.341L21.2546 102.67" stroke="#1C2628" stroke-width="0.402105" stroke-linecap="round" stroke-linejoin="round"/>
<path d="M49.0433 28.5572L59.9926 28.2021" stroke="#1C2628" stroke-width="0.402105" stroke-linecap="round" stroke-linejoin="round"/>
<path fill-rule="evenodd" clip-rule="evenodd" d="M90.1411 47.7507C89.6691 48.6909 88.291 48.3716 87.3282 48.6909C87.3282 48.6909 88.0833 50.252 89.7257 49.436C90.8018 48.886 90.1411 47.7507 90.1411 47.7507Z" fill="#1C2628" stroke="#1C2628" stroke-width="0.402105" stroke-linecap="round" stroke-linejoin="round"/>
<path d="M86.1766 89.9521C86.1766 89.9521 89.8579 90.8214 91.0472 92.0099C92.4064 93.3935 96.975 96.0722 98.5985 96.9769" stroke="#1C2628" stroke-width="0.402105" stroke-linecap="round" stroke-linejoin="round"/>
<path d="M87.0828 45.4979C87.0828 44.1497 88.3288 43.0676 89.8768 43.0676C91.4248 43.0676 92.6707 44.1497 92.6707 45.4979C92.6707 46.8461 91.4248 47.9281 89.8768 47.9281C88.3288 47.9281 87.0828 46.8461 87.0828 45.4979Z" stroke="#FAF6EB" stroke-width="0.402105" stroke-linecap="round" stroke-linejoin="round"/>
<path d="M81.5326 43.919C81.5326 42.5709 82.7786 41.4888 84.3266 41.4888C85.8746 41.4888 87.1206 42.5709 87.1206 43.919C87.1206 45.2672 85.8746 46.3493 84.3266 46.3493C82.7786 46.3493 81.5326 45.2495 81.5326 43.919Z" stroke="#FAF6EB" stroke-width="0.402105" stroke-linecap="round" stroke-linejoin="round"/>
<path fill-rule="evenodd" clip-rule="evenodd" d="M86.5731 45.6575C85.3083 45.4446 84.1945 44.6109 83.798 45.214C83.2883 45.9945 84.9496 47.2718 85.2139 47.3427" fill="#FCDA69"/>
<path d="M86.5731 45.6575C85.3083 45.4446 84.1945 44.6109 83.798 45.214C83.2883 45.9945 84.9496 47.2718 85.2139 47.3427" stroke="#1C2628" stroke-width="0.402105" stroke-linecap="round" stroke-linejoin="round"/>
<path d="M88.5175 37.9233C89.6502 37.9233 89.6314 41.1696 89.839 42.3581" stroke="#FAF6EB" stroke-width="0.402105" stroke-linecap="round" stroke-linejoin="round"/>
<path d="M93.0483 36.5042C97.2015 40.2294 96.8239 45.4624 97.3525 48.1588" stroke="#FAF6EB" stroke-width="0.402105" stroke-linecap="round" stroke-linejoin="round"/>
<path d="M98.8439 43.9014C99.2403 45.9591 99.7501 47.9991 100.222 50.0568" stroke="#FAF6EB" stroke-width="0.402105" stroke-linecap="round" stroke-linejoin="round"/>
<path d="M86.9129 63.8225C86.4032 66.9801 84.5343 70.4215 82.7786 72.1954C82.4577 72.5147 82.0235 72.9049 81.5515 73.2243" stroke="#1C2628" stroke-width="0.402105" stroke-linecap="round" stroke-linejoin="round"/>
<path d="M80.7964 67.5477C82.9296 64.8336 89.065 58.9797 93.1238 61.8712C96.8428 64.5143 89.9145 74.1999 87.7058 76.9494" stroke="#1C2628" stroke-width="0.402105" stroke-linecap="round" stroke-linejoin="round"/>
<path d="M84.9118 76.8254C85.5914 75.3708 86.7619 73.7743 87.0451 73.4017C89.4048 70.2619 96.1255 62.2083 101.109 63.6984C101.204 63.7162 101.279 63.7516 101.355 63.7871" stroke="#1C2628" stroke-width="0.402105" stroke-linecap="round" stroke-linejoin="round"/>
<path d="M103.016 63.8225C103.054 64.4256 101.355 71.3262 98.3342 75.1401" stroke="#1C2628" stroke-width="0.402105" stroke-linecap="round" stroke-linejoin="round"/>
<path d="M95.5214 74.803C95.729 74.3063 95.9556 73.8096 96.201 73.3307C97.5602 70.5811 99.5802 67.5477 102.185 65.3835" stroke="#1C2628" stroke-width="0.402105" stroke-linecap="round" stroke-linejoin="round"/>
<path fill-rule="evenodd" clip-rule="evenodd" d="M5.0949 115.053H10.664C11.3247 115.053 11.8533 115.55 11.8533 116.171C11.8533 116.792 11.3247 117.288 10.664 117.288H5.0949C4.43417 117.288 3.90558 116.792 3.90558 116.171C3.90558 115.55 4.45304 115.053 5.0949 115.053Z" fill="#1C2628" stroke="#1C2628" stroke-width="0.402105" stroke-linecap="round" stroke-linejoin="round"/>
<path d="M109.85 85.8369C115.192 87.1673 131.956 94.3339 135.713 93.2164C139.47 92.0811 143.604 86.7593 147.266 84.7371" stroke="#1C2628" stroke-width="0.402105" stroke-linecap="round" stroke-linejoin="round"/>
<path d="M81.6081 90.6973C82.873 95.7352 73.0752 101.11 71.867 106.804C70.5833 112.853 76.7187 105.917 79.0785 105.917C81.4005 105.917 77.9835 111.896 77.5682 113.226C76.3411 117.164 76.6432 118.654 78.7575 122.273" stroke="#1C2628" stroke-width="0.402105" stroke-linecap="round" stroke-linejoin="round"/>
<path d="M36.2628 65.6488C35.5265 65.8793 34.8469 65.2234 35.5454 64.7802C36.527 64.1597 36.4893 65.5779 36.2628 65.6488Z" stroke="#1C2628" stroke-width="0.402105" stroke-linecap="round" stroke-linejoin="round"/>
<path fill-rule="evenodd" clip-rule="evenodd" d="M29.8442 130.327C28.9569 130.664 29.0702 131.941 28.6171 132.721C27.8054 134.158 26.2385 135.436 24.7849 136.287C23.0292 137.298 20.6694 139.782 20.0276 141.626C19.1969 144.039 20.6317 146.682 23.7088 146.008C26.6727 145.352 26.5216 141.751 27.5599 139.728C28.5794 137.742 34.8658 132.863 32.3172 130.557C31.5432 129.848 30.656 130.025 29.8442 130.327Z" fill="#F3A13B"/>
<path fill-rule="evenodd" clip-rule="evenodd" d="M67.997 68.6296C65.6183 69.9069 60.4079 67.2992 63.3529 64.6916C64.8443 63.3611 65.6372 65.0996 67.0153 64.6916C68.6011 64.2303 68.5633 62.0484 70.2246 61.5695C71.3006 61.2502 71.5461 62.7403 71.4517 63.3434C71.1119 65.2415 69.8093 67.654 67.997 68.6296Z" fill="#FAF6EB"/>
<path d="M88.14 84.1872L109.151 78.4929" stroke="#1C2628" stroke-width="0.402105" stroke-linecap="round" stroke-linejoin="round"/>
<path fill-rule="evenodd" clip-rule="evenodd" d="M83.9679 146.026L85.346 153.299L96.6352 152.323L93.9545 144.128L83.9679 146.026Z" fill="#F3A140" stroke="#1C2628" stroke-width="0.402105" stroke-linecap="round" stroke-linejoin="round"/>
<path fill-rule="evenodd" clip-rule="evenodd" d="M92.0478 144.482C93.0295 146.434 93.7846 150.07 94.4264 152.217L92.0478 144.482Z" fill="#FAF6EB"/>
<path d="M92.0478 144.482C93.0295 146.434 93.7846 150.07 94.4264 152.217" stroke="#1C2628" stroke-width="0.402105" stroke-linecap="round" stroke-linejoin="round"/>
<path fill-rule="evenodd" clip-rule="evenodd" d="M90.0656 144.979C90.8396 147.551 92.0855 150.407 92.4065 153.05L90.0656 144.979Z" fill="#FAF6EB"/>
<path d="M90.0656 144.979C90.8396 147.551 92.0855 150.407 92.4065 153.05" stroke="#1C2628" stroke-width="0.402105" stroke-linecap="round" stroke-linejoin="round"/>
<path fill-rule="evenodd" clip-rule="evenodd" d="M88.0645 145.299C88.8762 147.995 89.6691 150.904 90.311 153.636L88.0645 145.299Z" fill="#FAF6EB"/>
<path d="M88.0645 145.299C88.8762 147.995 89.6691 150.904 90.311 153.636" stroke="#1C2628" stroke-width="0.402105" stroke-linecap="round" stroke-linejoin="round"/>
<path fill-rule="evenodd" clip-rule="evenodd" d="M86.0256 145.635C86.7619 148.066 87.2527 150.886 87.8379 153.388L86.0256 145.635Z" fill="#FAF6EB"/>
<path d="M86.0256 145.635C86.7619 148.066 87.2527 150.886 87.8379 153.388" stroke="#1C2628" stroke-width="0.402105" stroke-linecap="round" stroke-linejoin="round"/>
<path fill-rule="evenodd" clip-rule="evenodd" d="M81.7969 151.117L83.8169 147.853C83.8169 147.853 86.6109 147.835 86.5165 148.509C86.4221 149.183 85.3272 152.022 85.3272 152.022L81.7969 151.117Z" fill="#FAF6EB" stroke="#1C2628" stroke-width="0.402105" stroke-linecap="round" stroke-linejoin="round"/>
<path fill-rule="evenodd" clip-rule="evenodd" d="M82.6464 149.946L88.0834 151.525C88.0834 151.525 92.784 152.5 93.7657 152.252C94.7662 151.986 94.5208 151.259 95.0683 150.851C95.6157 150.443 96.654 150.531 96.654 150.531C96.654 150.531 96.8806 151.418 97.0505 153.423C97.2204 155.427 96.4275 157.787 96.4275 157.787L79.6826 158.39L71.1496 158.425C71.1496 158.425 69.5639 155.427 71.9236 154.47C74.3212 153.494 76.5488 153.175 79.9091 151.88C81.5893 151.223 82.6464 149.946 82.6464 149.946Z" fill="#47584E" stroke="#1C2628" stroke-width="0.402105" stroke-linecap="round" stroke-linejoin="round"/>
<path fill-rule="evenodd" clip-rule="evenodd" d="M96.5219 157.113C96.0877 157.006 88.6686 156.9 88.6686 156.9C88.6686 156.9 87.3282 157.503 83.2128 157.946C79.0973 158.39 71.1496 158.301 71.1496 158.301C71.1496 158.301 72.8298 159.543 76.511 159.277C80.7775 158.975 96.3142 158.869 96.3142 158.869C96.3142 158.869 97.1637 158.532 97.2204 158.141C97.2393 157.751 96.9938 157.237 96.5219 157.113Z" fill="#FAF6EB" stroke="#1C2628" stroke-width="0.402105" stroke-linecap="round" stroke-linejoin="round"/>
<path d="M82.1934 151.933C82.1934 151.72 82.3822 151.542 82.6276 151.542C82.873 151.542 83.0618 151.72 83.0618 151.933C83.0618 152.146 82.873 152.323 82.6276 152.323C82.401 152.323 82.1934 152.146 82.1934 151.933Z" fill="#FAF6EB" stroke="#1C2628" stroke-width="0.402105" stroke-linecap="round" stroke-linejoin="round"/>
<path d="M79.5693 153.05C79.5693 152.838 79.7581 152.66 80.0035 152.66C80.2489 152.66 80.4377 152.838 80.4377 153.05C80.4377 153.263 80.2489 153.441 80.0035 153.441C79.777 153.441 79.5693 153.263 79.5693 153.05Z" fill="#FAF6EB" stroke="#1C2628" stroke-width="0.402105" stroke-linecap="round" stroke-linejoin="round"/>
<path d="M76.9075 154.026C76.9075 153.813 77.0963 153.636 77.3417 153.636C77.5871 153.636 77.7759 153.813 77.7759 154.026C77.7759 154.239 77.5871 154.416 77.3417 154.416C77.1151 154.416 76.9075 154.239 76.9075 154.026Z" fill="#FAF6EB" stroke="#1C2628" stroke-width="0.402105" stroke-linecap="round" stroke-linejoin="round"/>
<path fill-rule="evenodd" clip-rule="evenodd" d="M81.6459 150.514L82.4765 151.701L81.6459 150.514Z" fill="#FAF6EB"/>
<path d="M81.6459 150.514L82.4765 151.701" stroke="#1C2628" stroke-width="0.402105" stroke-linecap="round" stroke-linejoin="round"/>
<path fill-rule="evenodd" clip-rule="evenodd" d="M79.1162 151.631L79.9468 152.819L79.1162 151.631Z" fill="#FAF6EB"/>
<path d="M79.1162 151.631L79.9468 152.819" stroke="#1C2628" stroke-width="0.402105" stroke-linecap="round" stroke-linejoin="round"/>
<path fill-rule="evenodd" clip-rule="evenodd" d="M76.4544 152.572L77.285 153.759L76.4544 152.572Z" fill="#FAF6EB"/>
<path d="M76.4544 152.572L77.285 153.759" stroke="#1C2628" stroke-width="0.402105" stroke-linecap="round" stroke-linejoin="round"/>
<path fill-rule="evenodd" clip-rule="evenodd" d="M88.0078 151.471C88.0078 151.471 87.1017 152.873 88.1211 153.902C89.1405 154.913 91.5569 156.811 91.5569 156.811C91.5569 156.811 91.5192 155.374 92.6519 154.806C93.7846 154.256 96.8617 153.547 96.8617 153.547L97.0316 152.075L94.3887 152.039C94.3887 152.039 92.5764 152.234 91.0661 152.039C89.537 151.844 88.0078 151.471 88.0078 151.471Z" fill="#FAF6EB" stroke="#1C2628" stroke-width="0.402105" stroke-linecap="round" stroke-linejoin="round"/>
<path fill-rule="evenodd" clip-rule="evenodd" d="M70.791 155.338C70.791 155.338 71.5461 156.101 73.3017 156.048C75.0574 155.994 76.1335 155.959 76.1335 155.959L76.2279 155.037C76.2279 155.037 75.0197 155.214 74.9253 154.664C74.8309 154.115 74.5477 153.494 74.5477 153.494C74.5477 153.494 73.5472 153.742 71.9425 154.381C70.9986 154.753 70.791 155.338 70.791 155.338Z" fill="#FAF6EB" stroke="#1C2628" stroke-width="0.402105" stroke-linecap="round" stroke-linejoin="round"/>
<path d="M76.1146 155.037L81.7969 154.647L84.5909 157.68" stroke="#1C2628" stroke-width="0.402105" stroke-linecap="round" stroke-linejoin="round"/>
<path fill-rule="evenodd" clip-rule="evenodd" d="M159.594 80.2313L169.335 74.6967L158.386 67.4946L152.854 74.2887L159.594 80.2313Z" fill="#F3A140" stroke="#1C2628" stroke-width="0.402105" stroke-linecap="round" stroke-linejoin="round"/>
<path fill-rule="evenodd" clip-rule="evenodd" d="M154.27 75.548C155.384 73.6677 158.121 70.9891 159.594 69.2329L154.27 75.548Z" fill="#FAF6EB"/>
<path d="M154.27 75.548C155.384 73.6677 158.121 70.9891 159.594 69.2329" stroke="#1C2628" stroke-width="0.402105" stroke-linecap="round" stroke-linejoin="round"/>
<path fill-rule="evenodd" clip-rule="evenodd" d="M155.856 76.79C157.631 74.6968 161.595 71.3618 163.69 69.5879L155.856 76.79Z" fill="#FAF6EB"/>
<path d="M155.856 76.79C157.631 74.6968 161.595 71.3618 163.69 69.5879" stroke="#1C2628" stroke-width="0.402105" stroke-linecap="round" stroke-linejoin="round"/>
<path fill-rule="evenodd" clip-rule="evenodd" d="M157.291 78.1201C159.141 75.9382 163.03 73.3128 165.031 71.2373L157.291 78.1201Z" fill="#FAF6EB"/>
<path d="M157.291 78.1201C159.141 75.9382 163.03 73.3128 165.031 71.2373" stroke="#1C2628" stroke-width="0.402105" stroke-linecap="round" stroke-linejoin="round"/>
<path fill-rule="evenodd" clip-rule="evenodd" d="M158.763 79.4861C160.443 77.4993 165.182 75.0336 167.013 73.1355L158.763 79.4861Z" fill="#FAF6EB"/>
<path d="M158.763 79.4861C160.443 77.4993 165.182 75.0336 167.013 73.1355" stroke="#1C2628" stroke-width="0.402105" stroke-linecap="round" stroke-linejoin="round"/>
<path fill-rule="evenodd" clip-rule="evenodd" d="M169.354 74.6965L167.032 77.7654C167.032 77.7654 164.238 77.5525 164.408 76.8962C164.559 76.2221 165.918 73.4902 165.918 73.4902L169.354 74.6965Z" fill="#FAF6EB" stroke="#1C2628" stroke-width="0.402105" stroke-linecap="round" stroke-linejoin="round"/>
<path fill-rule="evenodd" clip-rule="evenodd" d="M168.41 75.7787L163.143 73.7564C163.143 73.7564 158.556 72.3905 157.555 72.5679C156.536 72.7453 156.705 73.4903 156.12 73.8451C155.535 74.1999 153.194 73.1887 153.194 73.1887C153.194 73.1887 154.365 73.1355 154.383 71.131C154.402 69.1265 155.422 66.8381 155.422 66.8381L172.167 67.6364L180.662 68.3105C180.662 68.3105 181.946 71.4148 179.51 72.1954C177.037 72.9581 174.772 73.1 171.317 74.1112C169.58 74.6079 168.41 75.7787 168.41 75.7787Z" fill="#47584E" stroke="#1C2628" stroke-width="0.402105" stroke-linecap="round" stroke-linejoin="round"/>
<path fill-rule="evenodd" clip-rule="evenodd" d="M155.271 67.4941C155.686 67.6359 163.067 68.3631 163.067 68.3631C163.067 68.3631 164.464 67.8665 168.599 67.7778C172.752 67.6891 180.643 68.434 180.643 68.434C180.643 68.434 179.095 67.0507 175.395 67.0152C171.11 66.962 155.648 65.7561 155.648 65.7561C155.648 65.7561 154.761 66.0221 154.686 66.3945C154.61 66.7847 154.799 67.3345 155.271 67.4941Z" fill="#FAF6EB" stroke="#1C2628" stroke-width="0.402105" stroke-linecap="round" stroke-linejoin="round"/>
<path d="M169.033 73.8451C169.014 74.0579 168.806 74.2176 168.561 74.1998C168.316 74.1821 168.146 73.987 168.165 73.7741C168.183 73.5612 168.391 73.4016 168.637 73.4193C168.882 73.4371 169.052 73.6322 169.033 73.8451Z" fill="#FAF6EB" stroke="#1C2628" stroke-width="0.402105" stroke-linecap="round" stroke-linejoin="round"/>
<path d="M171.751 72.9581C171.733 73.171 171.525 73.3306 171.279 73.3129C171.034 73.2951 170.864 73.1 170.883 72.8871C170.902 72.6743 171.11 72.5146 171.355 72.5324C171.6 72.5501 171.77 72.7275 171.751 72.9581Z" fill="#FAF6EB" stroke="#1C2628" stroke-width="0.402105" stroke-linecap="round" stroke-linejoin="round"/>
<path d="M174.508 72.1954C174.489 72.4083 174.281 72.5679 174.036 72.5502C173.79 72.5324 173.62 72.3373 173.639 72.1244C173.658 71.9116 173.866 71.7519 174.111 71.7697C174.338 71.7874 174.527 71.9825 174.508 72.1954Z" fill="#FAF6EB" stroke="#1C2628" stroke-width="0.402105" stroke-linecap="round" stroke-linejoin="round"/>
<path fill-rule="evenodd" clip-rule="evenodd" d="M169.448 75.3165L168.731 74.0579L169.448 75.3165Z" fill="#FAF6EB"/>
<path d="M169.448 75.3165L168.731 74.0579" stroke="#1C2628" stroke-width="0.402105" stroke-linecap="round" stroke-linejoin="round"/>
<path fill-rule="evenodd" clip-rule="evenodd" d="M172.072 74.3944L171.355 73.1357L172.072 74.3944Z" fill="#FAF6EB"/>
<path d="M172.072 74.3944L171.355 73.1357" stroke="#1C2628" stroke-width="0.402105" stroke-linecap="round" stroke-linejoin="round"/>
<path fill-rule="evenodd" clip-rule="evenodd" d="M174.829 73.6847L174.13 72.426L174.829 73.6847Z" fill="#FAF6EB"/>
<path d="M174.829 73.6847L174.13 72.426" stroke="#1C2628" stroke-width="0.402105" stroke-linecap="round" stroke-linejoin="round"/>
<path fill-rule="evenodd" clip-rule="evenodd" d="M163.2 73.8097C163.2 73.8097 164.238 72.4792 163.313 71.3794C162.388 70.2796 160.16 68.2041 160.16 68.2041C160.16 68.2041 160.066 69.641 158.877 70.1022C157.687 70.5634 154.572 71.0069 154.572 71.0069L154.27 72.4615L156.894 72.7098C156.894 72.7098 158.726 72.6566 160.198 72.9937C161.708 73.3307 163.2 73.8097 163.2 73.8097Z" fill="#FAF6EB" stroke="#1C2628" stroke-width="0.402105" stroke-linecap="round" stroke-linejoin="round"/>
<path fill-rule="evenodd" clip-rule="evenodd" d="M180.737 71.3968C180.737 71.3968 180.058 70.5633 178.302 70.4746C176.546 70.386 175.47 70.3328 175.47 70.3328L175.282 71.2372C175.282 71.2372 176.49 71.1663 176.546 71.716C176.584 72.2658 176.811 72.9042 176.811 72.9042C176.811 72.9042 177.83 72.7446 179.491 72.2481C180.473 71.9643 180.737 71.3968 180.737 71.3968Z" fill="#FAF6EB" stroke="#1C2628" stroke-width="0.402105" stroke-linecap="round" stroke-linejoin="round"/>
<path d="M175.376 71.2544L169.675 71.1657L167.202 67.9026" stroke="#1C2628" stroke-width="0.402105" stroke-linecap="round" stroke-linejoin="round"/>
<path fill-rule="evenodd" clip-rule="evenodd" d="M51.4408 160.11L43.04 160.288L26.9558 160.075L28.5227 152.323L35.6776 152.145C35.6776 152.145 35.4321 150.372 37.3011 150.443C38.7358 150.496 42.9645 154.611 46.8723 155.747C52.2337 157.325 51.4408 160.11 51.4408 160.11Z" fill="#F3A13B"/>
<path fill-rule="evenodd" clip-rule="evenodd" d="M51.3464 159.099L33.1667 159.01C32.6381 159.01 32.2228 159.365 32.2039 159.809V160.093C32.2039 160.536 32.6193 160.891 33.1479 160.891L51.3275 160.98C51.8561 160.98 52.2714 160.625 52.2903 160.181V159.897C52.2903 159.472 51.875 159.099 51.3464 159.099Z" fill="#1C2628" stroke="#1C2628" stroke-width="0.402105" stroke-linecap="round" stroke-linejoin="round"/>
<path fill-rule="evenodd" clip-rule="evenodd" d="M34.6959 160.908L26.1063 160.784L26.6349 156.545C26.6349 156.545 30.9958 156.314 32.4871 157.627C33.9974 158.993 34.6959 160.908 34.6959 160.908Z" fill="#1C2628" stroke="#1C2628" stroke-width="0.402105" stroke-linecap="round" stroke-linejoin="round"/>
<path fill-rule="evenodd" clip-rule="evenodd" d="M47.7218 156.013L37.6409 150.212C37.6409 150.212 36.0362 150.443 35.6209 151.063C35.2056 151.667 35.9418 152.642 35.9418 152.642C35.9418 152.642 41.6997 156.261 44.1538 156.988C45.8717 157.485 47.7218 156.013 47.7218 156.013Z" fill="#1C2628" stroke="#1C2628" stroke-width="0.402105" stroke-linecap="round" stroke-linejoin="round"/>
<path d="M38.6603 153.724L35.1678 159.862" stroke="#1C2628" stroke-width="0.402105" stroke-linecap="round" stroke-linejoin="round"/>
<path d="M28.5227 152.323L27.6732 157.946" stroke="#1C2628" stroke-width="0.402105" stroke-linecap="round" stroke-linejoin="round"/>
<path d="M28.2585 100.294L43.4176 118.849L39.2267 127.382" stroke="#1C2628" stroke-width="0.402105" stroke-linecap="round" stroke-linejoin="round"/>
<path fill-rule="evenodd" clip-rule="evenodd" d="M159.405 83.9741C156.781 87.717 145.718 102.671 135.26 104.977C132.9 105.492 130.05 105.492 126.991 105.172C128.822 103.416 131.786 102.37 134.429 101.447C139.205 99.7796 140.3 100.578 142.188 98.9814C144.737 96.8349 143.415 94.8304 145.869 90.9455C146.606 89.7748 149.626 85.3755 155.006 84.2756C156.026 84.0628 157.725 83.8676 159.405 83.9741Z" fill="#1C2628" stroke="#1C2628" stroke-width="0.402105" stroke-linecap="round" stroke-linejoin="round"/>
<path fill-rule="evenodd" clip-rule="evenodd" d="M98.5985 96.977L87.3282 112.02L95.5213 134.176L91.5003 134.744C87.4415 132.987 84.3832 129.422 83.9679 125.856C83.7414 123.87 84.572 123.887 84.421 121.351C84.1567 116.33 80.8908 115.39 81.4571 112.268C81.9857 109.341 84.9873 109.465 86.3277 105.421C87.1206 103.008 86.2899 102.263 87.045 100.312C87.7247 98.5913 89.4615 96.4626 94.2188 94.7773C95.4836 95.1676 97.1071 95.824 98.5985 96.977Z" fill="#1C2628" stroke="#1C2628" stroke-width="0.402105" stroke-linecap="round" stroke-linejoin="round"/>
<path fill-rule="evenodd" clip-rule="evenodd" d="M117.93 82.5195C115.778 83.5661 114.003 83.779 112.663 83.7257C109.34 83.5838 107.868 81.739 104.451 82.3066C101.827 82.7323 101.317 84.045 99.3914 83.9741C97.2015 83.9031 95.3703 82.1115 93.9545 80.0715L105.81 76.9849L117.93 82.5195Z" fill="#1C2628" stroke="#1C2628" stroke-width="0.402105" stroke-linecap="round" stroke-linejoin="round"/>
<path fill-rule="evenodd" clip-rule="evenodd" d="M109.151 73.2419C109.151 73.2419 103.129 74.3063 100.373 74.803C98.3531 75.1578 96.0689 76.7365 91.236 77.9605C91.085 77.4106 91.0284 76.8252 91.3304 76.3463C91.859 75.4771 93.0295 75.7609 95.0494 74.9271C97.1827 74.0402 96.9561 73.2951 98.5985 72.8517C100.751 72.284 101.676 73.4548 102.903 72.7985C104.413 71.9825 103.582 69.9247 104.809 67.8315C105.093 67.3525 105.451 66.9268 105.867 66.5188L109.151 73.2419Z" fill="#1C2628" stroke="#1C2628" stroke-width="0.402105" stroke-linecap="round" stroke-linejoin="round"/>
<path fill-rule="evenodd" clip-rule="evenodd" d="M55.4807 9.71809C55.4807 9.71809 55.9905 3.97061 54.518 2.46278C53.2909 1.22105 47.7785 -0.0561726 46.136 2.39183C44.4936 4.83983 48.2126 12.3435 48.2126 12.3435L49.5908 24.3529L59.8038 23.8739C58.1803 16.6186 55.4807 9.71809 55.4807 9.71809Z" fill="#FCDA69" stroke="#1C2628" stroke-width="0.402105" stroke-linecap="round" stroke-linejoin="round"/>
<path d="M48.7035 7.80212C50.1571 5.42507 48.6091 3.93499 48.6091 3.93499C48.6091 3.93499 51.7806 4.13012 52.2903 2.64003C52.97 0.60003 48.2315 1.09673 48.2315 1.09673" fill="#FCDA69"/>
<path d="M48.7035 7.80212C50.1571 5.42507 48.6091 3.93499 48.6091 3.93499C48.6091 3.93499 51.7806 4.13012 52.2903 2.64003C52.97 0.60003 48.2315 1.09673 48.2315 1.09673" stroke="#1C2628" stroke-width="0.402105" stroke-linecap="round" stroke-linejoin="round"/>
<path d="M51.5541 6.17017C51.7617 5.42513 51.4219 4.41399 51.1199 3.72217L51.5541 6.17017Z" fill="#FCDA69"/>
<path d="M51.5541 6.17017C51.7617 5.42513 51.4219 4.41399 51.1199 3.72217" stroke="#1C2628" stroke-width="0.402105" stroke-linecap="round" stroke-linejoin="round"/>
<path d="M53.3853 5.28235C53.5741 4.30696 53.3475 2.99462 52.5169 2.30298L53.3853 5.28235Z" fill="#FCDA69"/>
<path d="M53.3853 5.28235C53.5741 4.30696 53.3475 2.99462 52.5169 2.30298" stroke="#1C2628" stroke-width="0.402105" stroke-linecap="round" stroke-linejoin="round"/>
<path d="M104.13 16.6011L101.506 6.72036L101.657 6.6494L100.977 4.04175L90.462 9.04418L91.1794 11.776L91.3304 11.7051L93.7279 20.7875C93.0294 20.6101 92.161 20.7875 91.4059 21.3374C90.311 22.1534 89.9334 23.4306 90.5753 24.2111C91.2171 24.9917 92.633 24.9739 93.7468 24.1579C94.8606 23.3597 95.2193 22.0647 94.5774 21.2842C94.5586 21.2487 94.5208 21.231 94.483 21.1955L92.2366 12.7162L101.279 8.38784L103.337 16.1931C102.638 16.0157 101.751 16.1931 100.996 16.743C99.8822 17.559 99.5235 18.8362 100.165 19.6167C100.807 20.3972 102.223 20.3795 103.337 19.5635C104.451 18.7475 104.809 17.4703 104.168 16.6898C104.186 16.6365 104.149 16.6188 104.13 16.6011ZM92.1044 12.1131L91.9156 11.4035L100.939 7.00418L101.147 7.76697L92.1044 12.1131Z" fill="#1C2628" stroke="#1C2628" stroke-width="0.402105" stroke-linecap="round" stroke-linejoin="round"/>
<path d="M74.1324 26.9785C74.0569 26.9608 73.9625 26.9785 73.9247 27.0495C72.9619 28.309 71.9991 29.0008 71.0175 29.1072C70.8476 29.125 70.6966 29.125 70.5267 29.125C70.9986 28.8766 71.3195 28.4154 71.3573 27.8832C71.4139 27.0495 70.7154 26.3222 69.8282 26.2867C68.9409 26.2335 68.1669 26.8898 68.1291 27.7236C68.0725 28.5573 68.771 29.2846 69.6583 29.3201C69.696 29.3201 69.7338 29.3201 69.7715 29.3201C70.2057 29.462 70.6399 29.5152 71.0741 29.462C72.018 29.3556 72.9619 28.7525 73.8681 27.7058L73.6793 30.9876C72.7354 32.2116 71.7726 32.8857 70.8098 33.0098C70.6399 33.0276 70.4889 33.0276 70.319 33.0276C70.7909 32.7792 71.1119 32.318 71.1496 31.7858C71.1874 30.9521 70.5078 30.2248 69.6205 30.1893C68.7332 30.1538 67.9592 30.7925 67.9215 31.6262C67.8648 32.4599 68.5633 33.1872 69.4506 33.2227C69.4883 33.2227 69.5261 33.2227 69.5639 33.2227C69.8848 33.3292 70.1868 33.3824 70.5078 33.3824C70.621 33.3824 70.7343 33.3824 70.8665 33.3646C71.8104 33.2582 72.7543 32.6551 73.6604 31.6085L73.3395 37.3559L73.6982 37.3737L74.2834 27.1737C74.2456 27.085 74.2079 27.014 74.1324 26.9785Z" fill="#1C2628" stroke="#1C2628" stroke-width="0.402105" stroke-linecap="round" stroke-linejoin="round"/>
<path d="M112.115 49.1521C110.718 52.6467 109.133 56.0881 107.377 59.4408" stroke="#1C2628" stroke-width="0.402105" stroke-linecap="round" stroke-linejoin="round"/>
<path d="M115.041 41.4001C115.022 42.1097 114.871 42.837 114.607 43.4934C114.437 43.8836 114.23 44.2916 114.267 44.6996C114.702 44.8593 115.249 44.469 115.211 44.0255C115.117 43.9723 114.985 44.0433 114.909 44.132C114.154 44.8948 113.72 45.9059 113.701 46.9348" stroke="#1C2628" stroke-width="0.402105" stroke-linecap="round" stroke-linejoin="round"/>
<path d="M111.908 44.0256C110.869 46.3672 109.85 48.691 108.812 51.0326" stroke="#1C2628" stroke-width="0.402105" stroke-linecap="round" stroke-linejoin="round"/>
<path d="M35.9796 133.963L31.4677 143.117" stroke="#1C2628" stroke-width="0.402105" stroke-linecap="round" stroke-linejoin="round"/>
<path d="M119.572 100.95C120.29 101.181 121.026 101.34 121.762 101.429C122.951 101.571 124.197 101.553 125.33 101.943" stroke="#1C2628" stroke-width="0.402105" stroke-linecap="round" stroke-linejoin="round"/>
<path d="M125.349 100.719C127.105 100.684 128.86 100.489 130.503 99.9211C131.314 99.6374 132.088 99.2649 132.881 98.9457C134.882 98.1477 137.034 97.722 139.168 97.4028" stroke="#1C2628" stroke-width="0.402105" stroke-linecap="round" stroke-linejoin="round"/>
<path d="M138.167 96.0366C135.165 97.3671 131.862 98.0944 128.539 98.1653" stroke="#1C2628" stroke-width="0.402105" stroke-linecap="round" stroke-linejoin="round"/>
<path d="M35.3 130.628C35.1301 130.61 34.9791 130.717 34.8469 130.841C34.3372 131.302 34.7903 131.817 34.3939 132.384" stroke="white" stroke-width="0.402105" stroke-linecap="round" stroke-linejoin="round"/>
<path d="M41.0767 102.654C42.115 104.587 39.6231 105.51 44.7957 108.117" stroke="#1C2628" stroke-width="0.402105" stroke-linecap="round" stroke-linejoin="round"/>
</svg>
