<svg width="56" height="56" viewBox="0 0 56 56" fill="none" xmlns="http://www.w3.org/2000/svg">
<path d="M46.6667 39.6667C47.9043 39.6667 49.0913 39.175 49.9665 38.2998C50.8417 37.4247 51.3333 36.2377 51.3333 35V9.33332C51.3333 8.09565 50.8417 6.90866 49.9665 6.03349C49.0913 5.15832 47.9043 4.66666 46.6667 4.66666H22.0733C22.89 6.08999 23.3333 7.69999 23.3333 9.33332H46.6667V35H25.6667V39.6667M35 16.3333V21H21V51.3333H16.3333V37.3333H11.6667V51.3333H7V32.6667H3.5V21C3.5 19.7623 3.99167 18.5753 4.86683 17.7002C5.742 16.825 6.92899 16.3333 8.16667 16.3333H35ZM18.6667 9.33332C18.6667 10.571 18.175 11.758 17.2998 12.6332C16.4247 13.5083 15.2377 14 14 14C12.7623 14 11.5753 13.5083 10.7002 12.6332C9.825 11.758 9.33333 10.571 9.33333 9.33332C9.33333 8.09565 9.825 6.90866 10.7002 6.03349C11.5753 5.15832 12.7623 4.66666 14 4.66666C15.2377 4.66666 16.4247 5.15832 17.2998 6.03349C18.175 6.90866 18.6667 8.09565 18.6667 9.33332Z" fill="black"/>
</svg>
