<svg width="32" height="58" viewBox="0 0 32 58" fill="none" xmlns="http://www.w3.org/2000/svg">
<path d="M25.449 12C27.6857 15.1833 29.9945 18.672 28.5515 22.0297C27.3971 24.8206 23.8617 27.0446 20.3263 28.9633C18.5226 29.9227 16.6466 30.9257 14.3378 31.3181C12.029 31.7542 9.21509 31.4926 7.69992 30.3588C6.04045 29.1378 6.47335 27.2626 7.69992 25.8672C8.63788 24.777 10.2252 23.8176 12.1733 23.4688C15.5644 22.8583 19.1719 24.3845 20.5428 26.3469C21.9136 28.3092 21.5529 30.5332 20.8314 32.6264C17.8732 41.1734 9.86445 48.6739 2 56" stroke="#1C2628" stroke-width="2.13" stroke-linecap="round" stroke-linejoin="round"/>
<path d="M29 17V10.1L20 15L9 9L20 3L31 9V17H29ZM20 21L13 17.2V12.2L20 16L27 12.2V17.2L20 21Z" fill="black"/>
</svg>
