<svg width="156" height="160" viewBox="0 0 156 160" fill="none" xmlns="http://www.w3.org/2000/svg">
<path d="M99.8683 41.4676C110.322 48.6931 123.567 50.0228 135.725 56.5208C147.983 62.9937 159.227 74.5094 155.05 83.8424C150.874 93.075 131.253 100.025 120.676 109.358C110.223 118.59 108.715 130.106 102.438 139.238C94.7529 144.883 83.8302 152.485 74.9586 153.238C64.9008 151.331 56.128 140.668 46.4656 133.342C36.902 125.916 26.5477 121.927 19.9743 114.601C13.302 107.376 10.5096 96.7129 6.62978 84.0431C2.74999 71.298 -2.143 56.4455 1.73679 44.6287C5.71543 32.9123 18.368 24.2567 31.9102 18.6369C45.3535 13.017 59.4888 10.5332 70.5598 15.7768C81.532 21.0956 89.4151 34.242 99.8683 41.4676Z" fill="#F3A13B"/>
<path fill-rule="evenodd" clip-rule="evenodd" d="M61.54 11.7126C61.7871 11.5118 62.6273 11.3362 62.7756 11.0853C63.4181 10.0316 65.4939 7.72346 64.629 5.84181C63.7888 3.96016 62.5779 4.63755 62.5779 4.63755C62.5779 4.63755 62.4296 0.698627 58.3521 3.45838C57.8579 3.78454 57.7096 3.1824 57.4131 3.73436C57.1907 4.13577 57.0177 4.61246 56.8447 5.03897" fill="#1C2628"/>
<path d="M61.54 11.7126C61.7871 11.5118 62.6273 11.3362 62.7756 11.0853C63.4181 10.0316 65.4939 7.72346 64.629 5.84181C63.7888 3.96016 62.5779 4.63755 62.5779 4.63755C62.5779 4.63755 62.4296 0.698627 58.3521 3.45838C57.8579 3.78454 57.7096 3.1824 57.4131 3.73436C57.1907 4.13577 57.0177 4.61246 56.8447 5.03897" stroke="#1C2628" stroke-width="2.13" stroke-linecap="round" stroke-linejoin="round"/>
<path fill-rule="evenodd" clip-rule="evenodd" d="M46.4162 12.6658C46.2679 12.9668 45.576 13.4686 45.5513 13.7446C45.3783 14.9739 44.464 17.9595 46.0208 19.3143C47.553 20.6691 48.3685 19.5401 48.3685 19.5401C48.3685 19.5401 50.0983 23.0525 52.6931 18.8376C52.9896 18.3358 53.385 18.8125 53.4344 18.1853C53.4839 17.7086 53.4344 17.2319 53.4097 16.7552" fill="#1C2628"/>
<path d="M46.4162 12.6658C46.2679 12.9668 45.576 13.4686 45.5513 13.7446C45.3783 14.9739 44.464 17.9595 46.0208 19.3143C47.553 20.6691 48.3685 19.5401 48.3685 19.5401C48.3685 19.5401 50.0983 23.0525 52.6931 18.8376C52.9896 18.3358 53.385 18.8125 53.4344 18.1853C53.4839 17.7086 53.4344 17.2319 53.4097 16.7552" stroke="#1C2628" stroke-width="2.13" stroke-linecap="round" stroke-linejoin="round"/>
<path fill-rule="evenodd" clip-rule="evenodd" d="M39.7439 33.4141C42.3634 28.4466 44.3898 24.7585 44.3898 24.7585L48.7391 23.0274L51.2103 17.7588L60.1561 19.9917L59.217 22.4504L57.6354 28.296C57.6354 28.296 58.9699 33.3389 57.1906 33.2385C56.9929 33.2385 56.6717 34.7438 56.2763 37.2025C50.9138 36.7258 44.5134 35.9732 39.7439 33.4141Z" fill="#FAF6EB" stroke="#1C2628" stroke-width="2.13" stroke-linecap="round" stroke-linejoin="round"/>
<path fill-rule="evenodd" clip-rule="evenodd" d="M63.2945 14.9992C63.9864 8.60155 62.2566 9.70545 61.9106 7.94924C61.2434 4.46191 60.2302 3.28274 53.9039 3.68416C52.7919 3.75943 51.4821 3.80961 50.4689 4.31138C45.8478 6.66972 45.9219 10.3828 45.9219 10.3828C45.9219 10.3828 43.4754 19.0134 52.9154 19.8915C62.3801 20.7445 52.9649 19.7409 58.0308 18.4865C63.0721 17.2321 63.2945 14.9992 63.2945 14.9992Z" fill="#1C2628" stroke="#1C2628" stroke-width="2.13" stroke-linecap="round" stroke-linejoin="round"/>
<path fill-rule="evenodd" clip-rule="evenodd" d="M52.7178 15.4507C52.4212 13.9453 54.9913 9.95624 55.4361 8.62654C56.2269 6.24312 52.1741 7.22158 54.6453 6.69472C57.4131 6.11768 59.8843 6.01732 61.5152 8.35057C62.1578 9.25376 63.0474 13.8199 63.2945 14.9991C64.1594 19.214 61.7624 22.0239 57.932 22.8518C55.4608 23.3787 53.5085 23.0274 51.8528 21.196C50.9138 20.1423 53.0143 16.956 52.7178 15.4507Z" fill="#FAF6EB" stroke="#1C2628" stroke-width="2.13" stroke-linecap="round" stroke-linejoin="round"/>
<path fill-rule="evenodd" clip-rule="evenodd" d="M60.6997 12.8916C60.848 13.4436 60.3043 14.0457 59.4394 14.2464C58.5992 14.4471 57.7837 14.1711 57.6354 13.6192" fill="#FAF6EB"/>
<path d="M60.6997 12.8916C60.848 13.4436 60.3043 14.0457 59.4394 14.2464C58.5992 14.4471 57.7837 14.1711 57.6354 13.6192" stroke="#1C2628" stroke-width="2.13" stroke-linecap="round" stroke-linejoin="round"/>
<path fill-rule="evenodd" clip-rule="evenodd" d="M51.3586 21.1961L52.3965 18.7876C52.3965 18.7876 56.4987 18.5869 57.5613 19.9417C58.6239 21.2714 57.1659 25.3357 57.1659 25.3357L54.2746 25.5866" fill="#FAF6EB"/>
<path fill-rule="evenodd" clip-rule="evenodd" d="M54.3487 13.9955C53.8545 13.293 52.7177 13.8951 52.4953 14.5223C52.0011 15.8269 53.212 18.11 55.3619 16.5796" fill="#FAF6EB"/>
<path d="M54.3487 13.9955C53.8545 13.293 52.7177 13.8951 52.4953 14.5223C52.0011 15.8269 53.212 18.11 55.3619 16.5796" stroke="#1C2628" stroke-width="2.13" stroke-linecap="round" stroke-linejoin="round"/>
<path d="M54.1511 15.4007C54.1511 15.4007 53.9039 15.0744 53.9534 15.1246" stroke="#1C2628" stroke-width="2.13" stroke-linecap="round" stroke-linejoin="round"/>
<path fill-rule="evenodd" clip-rule="evenodd" d="M59.2417 16.6299C59.6371 17.2822 60.1066 17.8091 60.9715 18.0599C60.9715 18.0599 59.8348 19.6656 58.3768 19.0384C57.413 18.637 59.2417 16.6299 59.2417 16.6299Z" fill="#1C2628" stroke="#1C2628" stroke-width="2.13" stroke-linecap="round" stroke-linejoin="round"/>
<path fill-rule="evenodd" clip-rule="evenodd" d="M62.2072 14.3218C62.2072 14.3218 65.049 15.8271 65.0738 16.3289C65.2467 18.3109 62.8497 16.9812 62.6025 17.1568" fill="#FAF6EB"/>
<path d="M62.2072 14.3218C62.2072 14.3218 65.049 15.8271 65.0738 16.3289C65.2467 18.3109 62.8497 16.9812 62.6025 17.1568" stroke="#1C2628" stroke-width="2.13" stroke-linecap="round" stroke-linejoin="round"/>
<path fill-rule="evenodd" clip-rule="evenodd" d="M59.8349 5.18946L61.5153 8.35064C59.3159 5.16437 58.0309 13.82 51.8776 13.3935C51.7046 13.3935 48.3438 14.0207 48.3932 13.7949C48.4426 13.5189 48.9369 13.5942 49.1593 13.3935C49.6535 12.9419 49.8265 12.415 49.9995 11.7878C50.1972 11.0351 49.6288 9.35418 50.3207 8.80223C51.4328 7.89904 53.1626 4.63751 54.3735 4.83822L59.8349 5.18946Z" fill="#1C2628" stroke="#1C2628" stroke-width="2.13" stroke-linecap="round" stroke-linejoin="round"/>
<path fill-rule="evenodd" clip-rule="evenodd" d="M53.5332 5.33982C53.2614 5.13911 52.866 4.38645 52.5942 4.31118C51.408 3.98503 48.6402 2.63024 47.1081 4.01012C45.576 5.36491 46.5397 6.34337 46.5397 6.34337C46.5397 6.34337 42.8823 7.5978 46.6386 10.8092C47.0834 11.1855 46.5644 11.5116 47.1575 11.6622C47.6023 11.7625 48.0966 11.7876 48.5661 11.8378" fill="#1C2628"/>
<path d="M53.5332 5.33982C53.2614 5.13911 52.866 4.38645 52.5942 4.31118C51.408 3.98503 48.6402 2.63024 47.1081 4.01012C45.576 5.36491 46.5397 6.34337 46.5397 6.34337C46.5397 6.34337 42.8823 7.5978 46.6386 10.8092C47.0834 11.1855 46.5644 11.5116 47.1575 11.6622C47.6023 11.7625 48.0966 11.7876 48.5661 11.8378" stroke="#1C2628" stroke-width="2.13" stroke-linecap="round" stroke-linejoin="round"/>
<path fill-rule="evenodd" clip-rule="evenodd" d="M58.8711 7.37211C58.8711 7.04596 59.2664 6.2933 59.1923 6.01733C58.7969 4.83816 58.3521 1.75225 56.3751 1.22539C54.3982 0.698525 54.1511 2.0784 54.1511 2.0784C54.1511 2.0784 51.0621 -0.305021 50.5678 4.66254C50.5184 5.23958 49.95 5.01378 50.1724 5.56573C50.3454 6.01733 50.5925 6.41875 50.8149 6.84525" fill="#1C2628"/>
<path d="M58.8711 7.37211C58.8711 7.04596 59.2664 6.2933 59.1923 6.01733C58.7969 4.83816 58.3521 1.75225 56.3751 1.22539C54.3982 0.698525 54.1511 2.0784 54.1511 2.0784C54.1511 2.0784 51.0621 -0.305021 50.5678 4.66254C50.5184 5.23958 49.95 5.01378 50.1724 5.56573C50.3454 6.01733 50.5925 6.41875 50.8149 6.84525" stroke="#1C2628" stroke-width="2.13" stroke-linecap="round" stroke-linejoin="round"/>
<path fill-rule="evenodd" clip-rule="evenodd" d="M50.0241 9.12837C49.7029 9.07819 49.0357 8.55133 48.7638 8.60151C47.5529 8.80222 44.4886 8.77713 43.6484 10.6839C42.8082 12.5906 44.118 13.0422 44.118 13.0422C44.118 13.0422 41.3255 15.7518 46.0455 17.0313C46.6139 17.1818 46.2926 17.7087 46.861 17.5833C47.3058 17.4829 47.7506 17.3073 48.1954 17.1567" fill="#1C2628"/>
<path d="M50.0241 9.12837C49.7029 9.07819 49.0357 8.55133 48.7638 8.60151C47.5529 8.80222 44.4886 8.77713 43.6484 10.6839C42.8082 12.5906 44.118 13.0422 44.118 13.0422C44.118 13.0422 41.3255 15.7518 46.0455 17.0313C46.6139 17.1818 46.2926 17.7087 46.861 17.5833C47.3058 17.4829 47.7506 17.3073 48.1954 17.1567" stroke="#1C2628" stroke-width="2.13" stroke-linecap="round" stroke-linejoin="round"/>
<path fill-rule="evenodd" clip-rule="evenodd" d="M103.254 51.9045L112.743 33.3138C112.743 33.3138 111.335 33.088 110.742 33.2887C110.149 33.4894 108.073 37.5287 108.073 37.5287L106.911 33.8407C106.911 33.8407 106.121 33.4141 106.096 35.4463C106.071 37.4785 106.046 39.5107 106.046 39.5107L102.784 43.9514C102.784 43.9514 101.796 42.9228 102.216 42.1199C102.636 41.3171 103.254 39.0842 103.674 38.2814C104.094 37.4785 103.279 37.052 103.279 37.052L98.9787 42.4962L97.7431 47.6645L71.4001 52.3059L77.5781 65.9542L103.254 51.9045Z" fill="#FAF6EB" stroke="#1C2628" stroke-width="2.13" stroke-linecap="round" stroke-linejoin="round"/>
<path d="M107.455 41.7937C108.023 40.5141 108.147 38.8332 108.122 37.4282" stroke="#1C2628" stroke-width="2.13" stroke-linecap="round" stroke-linejoin="round"/>
<path fill-rule="evenodd" clip-rule="evenodd" d="M24.373 65.2016C32.2068 65.1765 50.2465 70.2444 58.4509 70.6207L58.6981 59.3057C58.6981 59.3057 67.3967 68.162 71.5483 67.4595C78.8137 66.2302 87.1169 63.5959 87.1169 63.5959L85.1894 56.4205L83.2618 49.2452L73.204 49.1448C73.204 49.1448 67.9157 32.2601 65.6174 31.8085L59.0687 28.3212C59.0687 28.3212 52.693 30.6544 44.3651 24.7837C39.2497 21.1709 27.6597 29.0739 27.9316 35.9983C28.2775 43.3995 24.2001 57.3739 24.373 65.2016Z" fill="#1C2628" stroke="#1C2628" stroke-width="2.13" stroke-linecap="round" stroke-linejoin="round"/>
<path d="M63.283 135.313C63.3199 134.496 58.9954 133.632 53.6239 133.381C48.2525 133.131 43.8682 133.591 43.8313 134.407C43.7944 135.224 48.1189 136.089 53.4903 136.339C58.8618 136.589 63.2461 136.13 63.283 135.313Z" fill="#1C2628" stroke="#1C2628" stroke-width="2.13" stroke-linecap="round" stroke-linejoin="round"/>
<path fill-rule="evenodd" clip-rule="evenodd" d="M18.9611 127.999C19.7271 127.723 22.9644 128.651 25.6086 133.066C28.2528 137.457 30.0568 142.65 29.3648 143.077C28.6729 143.503 25.7569 138.987 23.1127 134.597C20.4685 130.206 16.8358 128.776 18.9611 127.999Z" fill="#1C2628" stroke="#1C2628" stroke-width="2.13" stroke-linecap="round" stroke-linejoin="round"/>
<path d="M34.678 89.0357C36.309 86.6774 36.3831 84.5198 36.0372 82.9141C35.79 81.8353 35.5182 75.1366 35.2217 74.6599L31.0947 76.09" fill="#FAF6EB"/>
<path d="M34.678 89.0357C36.309 86.6774 36.3831 84.5198 36.0372 82.9141C35.79 81.8353 35.5182 75.1366 35.2217 74.6599L31.0947 76.09" stroke="#1C2628" stroke-width="2.13" stroke-linecap="round" stroke-linejoin="round"/>
<path fill-rule="evenodd" clip-rule="evenodd" d="M59.9584 138.862C57.9568 130.633 71.6967 107.15 71.6967 107.15L48.665 117.035L46.6881 143.127L56.5976 147.969L67.545 145.711C67.545 145.711 60.5515 141.346 59.9584 138.862Z" fill="#FAF6EB" stroke="#1C2628" stroke-width="2.13" stroke-linecap="round" stroke-linejoin="round"/>
<path fill-rule="evenodd" clip-rule="evenodd" d="M22.9398 81.6347C19.2824 77.8212 24.5955 67.5098 24.5955 67.5098C24.5955 67.5098 44.3404 70.9469 44.2416 70.9218C43.9697 70.8717 73.2535 72.1261 82.1745 77.3194C86.3509 79.753 86.0543 88.785 84.2751 93.326L62.9239 134.973C62.9239 134.973 58.624 133.794 57.1412 133.644C53.9287 133.317 44.2168 133.945 44.2168 133.945L57.0671 98.3187L33.5165 92.3476C29.4885 91.2437 25.8558 84.6955 22.9398 81.6347Z" fill="#47584E" stroke="#1C2628" stroke-width="2.13" stroke-linecap="round" stroke-linejoin="round"/>
<path fill-rule="evenodd" clip-rule="evenodd" d="M57.3142 142.6L59.5136 139.389C59.5136 139.389 63.6405 141.245 67.7921 143.127C64.5054 144.632 60.6997 144.181 57.3142 142.6Z" fill="#1C2628" stroke="#1C2628" stroke-width="2.13" stroke-linecap="round" stroke-linejoin="round"/>
<path fill-rule="evenodd" clip-rule="evenodd" d="M45.9219 140.618C45.9219 140.618 48.6897 138.385 50.1477 141.396C50.6667 142.45 54.67 144.733 56.1033 144.382L57.3389 142.6C60.7245 144.181 64.5301 144.657 67.8168 143.127C70.3622 144.281 72.9075 145.46 74.5138 146.188C79.0855 148.295 77.7263 152.159 77.7263 152.159L58.5251 152.284L44.6616 151.457L45.9219 140.618Z" fill="#F45B49" stroke="#1C2628" stroke-width="2.13" stroke-linecap="round" stroke-linejoin="round"/>
<path d="M30.2051 79.0755L34.9745 77.2942" stroke="#1C2628" stroke-width="2.13" stroke-linecap="round" stroke-linejoin="round"/>
<path fill-rule="evenodd" clip-rule="evenodd" d="M24.9661 139.539C28.1046 134.597 44.8099 127.396 44.8099 127.396L30.8229 118.766L14.2658 132.364L15.6991 141.923L23.78 149.75C23.7552 149.775 23.5823 141.697 24.9661 139.539Z" fill="#FAF6EB" stroke="#1C2628" stroke-width="2.13" stroke-linecap="round" stroke-linejoin="round"/>
<path fill-rule="evenodd" clip-rule="evenodd" d="M30.6005 94.4299L47.3305 106.247L19.1341 127.848L18.9364 127.999C18.9364 127.999 21.8524 129.403 24.0518 132.264C25.9546 134.722 29.3154 143.077 29.3154 143.077L47.6271 130.658L70.9305 114.877L72.5368 113.798C75.2798 111.315 76.8367 106.472 76.2189 102.508C76.0212 101.279 75.6505 100.15 75.0327 99.1967C69.5219 90.6415 51.4574 79.1509 50.8891 78.8247C51.0373 78.8749 51.2103 78.0971 51.3833 76.9431C51.8034 74.2837 52.2235 69.7175 52.2235 69.7175L25.3615 64.198C25.3615 64.198 13.6974 82.588 20.8392 89.5125C23.8788 92.4479 28.5741 92.5482 30.6005 94.4299Z" fill="#47584E" stroke="#1C2628" stroke-width="2.13" stroke-linecap="round" stroke-linejoin="round"/>
<path fill-rule="evenodd" clip-rule="evenodd" d="M19.1588 127.848C20.7403 128.35 21.9265 128.224 22.8161 127.898C25.4603 126.92 25.1638 124.16 28.4752 122.504C33.0222 120.246 37.0503 123.708 39.4226 121.3C41.276 119.418 39.4968 116.583 41.4243 114.877C43.3271 113.196 61.7623 107.125 46.8362 99.046C38.9531 94.7809 37.0256 89.9137 29.6861 88.559C27.116 88.0823 25.1885 88.2579 23.8046 88.559C22.7173 88.7848 21.7288 89.1109 20.8392 89.5123C24.2989 91.8707 28.574 92.5731 30.5757 94.4297L47.3058 106.246L19.1588 127.848Z" fill="#1C2628" stroke="#1C2628" stroke-width="2.13" stroke-linecap="round" stroke-linejoin="round"/>
<path d="M18.6399 82.4624C22.9398 81.7348 26.4736 78.8998 26.869 77.5199C27.1408 76.5916 29.9086 71.2728 29.8592 70.7962L25.5346 70.2693" stroke="#1C2628" stroke-width="2.13" stroke-linecap="round" stroke-linejoin="round"/>
<path fill-rule="evenodd" clip-rule="evenodd" d="M20.9381 141.145L25.1885 141.12C25.1885 141.12 25.238 144.833 26.004 148.872C23.3104 147.618 21.976 144.206 20.9381 141.145Z" fill="#1C2628" stroke="#1C2628" stroke-width="2.13" stroke-linecap="round" stroke-linejoin="round"/>
<path fill-rule="evenodd" clip-rule="evenodd" d="M15.7732 130.507C15.7732 130.507 19.1588 131.536 17.5525 134.471C17.0089 135.5 17.429 140.141 18.541 141.12H20.9381C21.9513 144.181 23.3104 147.618 26.004 148.872C26.2512 150.227 26.523 151.632 26.7701 152.937C27.0914 154.693 28.2528 153.388 30.6993 154.843C31.7867 155.496 31.416 158.682 31.416 158.682L20.6168 157.653L14.3894 148.496L11.3992 143.453L7.71712 137.206L15.7732 130.507Z" fill="#F45B49" stroke="#1C2628" stroke-width="2.13" stroke-linecap="round" stroke-linejoin="round"/>
<path fill-rule="evenodd" clip-rule="evenodd" d="M26.4489 64.1729L52.2482 69.6924C52.2482 69.6924 47.5282 72.7281 45.0323 73.3553C42.5117 74.0076 40.0158 73.556 38.4342 73.1295C36.8279 72.6779 30.6005 70.6457 27.7833 72.9037C22.7915 74.4843 23.3846 69.3662 23.3846 69.3662L26.4489 64.1729Z" fill="#1C2628" stroke="#1C2628" stroke-width="2.13" stroke-linecap="round" stroke-linejoin="round"/>
<path d="M46.861 124.21C45.7242 127.497 44.8593 131.034 42.7588 133.794" stroke="#1C2628" stroke-width="2.13" stroke-linecap="round" stroke-linejoin="round"/>
<path d="M22.0006 71.4485L27.0419 72.0757" stroke="#1C2628" stroke-width="2.13" stroke-linecap="round" stroke-linejoin="round"/>
<path d="M46.4903 74.5344L50.889 78.7995" stroke="#1C2628" stroke-width="2.13" stroke-linecap="round" stroke-linejoin="round"/>
<path d="M52.4212 106.774L47.3305 106.272" stroke="#1C2628" stroke-width="2.13" stroke-linecap="round" stroke-linejoin="round"/>
<path d="M41.8197 89.9641L58.1049 106.021L24.719 127.873L32.4291 139.59" stroke="#1C2628" stroke-width="2.13" stroke-linecap="round" stroke-linejoin="round"/>
<path d="M60.7739 46.7615L58.6734 59.2807" stroke="#1C2628" stroke-width="2.13" stroke-linecap="round" stroke-linejoin="round"/>
<path d="M98.5586 43.3745L27.8327 106.723" stroke="#1C2628" stroke-width="2.13" stroke-linecap="round" stroke-linejoin="round"/>
<path d="M112.447 30.9304L104.144 38.3818" stroke="#1C2628" stroke-width="2.13" stroke-linecap="round" stroke-linejoin="round"/>
<path fill-rule="evenodd" clip-rule="evenodd" d="M45.4277 91.1435C44.3897 96.2866 36.0865 102.509 36.0865 102.509C36.0865 102.509 34.2578 101.48 35.0486 100.226C35.8394 98.9461 38.4341 95.9856 38.4341 95.9856C38.4341 95.9856 36.902 96.3368 36.7784 95.81C36.6549 95.2831 37.075 94.6559 37.075 94.6559C37.075 94.6559 36.4572 94.2545 35.8147 93.8531C35.1969 93.4516 36.1112 92.699 36.1112 92.699C36.1112 92.699 34.2331 91.4947 33.6153 91.0682C32.9975 90.6668 32.2561 89.7385 32.2561 89.7385C32.2561 89.7385 32.9481 87.9572 33.5659 88.3586C34.1837 88.76 35.9629 89.4625 35.9629 89.4625L29.5378 82.6635L32.1079 78.8751L37.6186 76.1655C41.9433 82.2621 45.9219 88.7099 45.4277 91.1435Z" fill="#FAF6EB" stroke="#1C2628" stroke-width="2.13" stroke-linecap="round" stroke-linejoin="round"/>
<path fill-rule="evenodd" clip-rule="evenodd" d="M18.4174 70.9219L27.9315 84.3193C27.9315 84.3193 30.6499 81.1079 31.7372 80.2549C32.0584 80.004 32.5033 79.7029 33.0222 79.3517C35.2463 77.8965 38.8295 75.8644 38.8295 75.8644C36.6796 73.205 28.747 62.6928 28.747 62.6928L42.5858 43.5752L44.9581 42.1452L46.0208 41.4929L28.5988 32.8875L15.2048 57.0729C14.5376 61.037 15.6991 68.0367 18.4174 70.9219Z" fill="#1C2628" stroke="#1C2628" stroke-width="2.13" stroke-linecap="round" stroke-linejoin="round"/>
<path d="M41.4491 94.5806C41.0784 95.0573 40.5594 95.3834 39.991 95.6092C39.4227 95.835 38.8296 95.9354 38.2365 96.0357" stroke="#1C2628" stroke-width="2.13" stroke-linecap="round" stroke-linejoin="round"/>
<path d="M40.0899 93.301C39.1508 94.129 37.8905 94.5555 36.6302 94.4802" stroke="#1C2628" stroke-width="2.13" stroke-linecap="round" stroke-linejoin="round"/>
<path d="M39.1756 91.3943C38.6566 91.7957 38.0882 92.1469 37.4952 92.3978C37.2233 92.5233 36.9268 92.6236 36.6302 92.6236C36.3337 92.6487 36.0124 92.5735 35.79 92.3477" stroke="#1C2628" stroke-width="2.13" stroke-linecap="round" stroke-linejoin="round"/>
<path d="M51.4822 149.249L44.9087 149.274" stroke="#1C2628" stroke-width="2.13" stroke-linecap="round" stroke-linejoin="round"/>
<path d="M77.578 149.173H54.6453" stroke="#1C2628" stroke-width="2.13" stroke-linecap="round" stroke-linejoin="round"/>
<path d="M12.9561 141.145L9.37288 135.876" stroke="#1C2628" stroke-width="2.13" stroke-linecap="round" stroke-linejoin="round"/>
<path d="M31.4654 156.499L22.4702 155.069L14.2658 143.052" stroke="#1C2628" stroke-width="2.13" stroke-linecap="round" stroke-linejoin="round"/>
<path fill-rule="evenodd" clip-rule="evenodd" d="M59.1676 28.3213L65.6422 31.7835C67.9157 32.2351 73.2288 49.1198 73.2288 49.1198L83.2866 49.2202L85.2141 56.3955C80.9884 57.0478 77.9488 52.1806 75.2305 52.6573C70.9553 53.41 69.7197 54.4135 68.4347 52.8079C66.9272 50.9262 70.7576 47.2131 67.5203 44.1021C64.3819 41.0663 61.6389 43.8763 60.4527 37.7546C60.1067 35.9733 62.2319 33.5146 61.1693 32.0344C59.6372 29.927 55.6338 31.2818 54.8678 29.6259C54.7936 29.4754 54.0028 28.8231 53.9781 28.6224C55.4855 28.798 58.4016 28.4718 59.1676 28.3213Z" fill="#FAF6EB"/>
<path fill-rule="evenodd" clip-rule="evenodd" d="M27.7833 72.9037C29.6861 75.2871 31.4407 77.4447 33.0223 79.3515C35.2464 77.8963 38.8296 75.8641 38.8296 75.8641C36.6797 73.2047 28.7471 62.6926 28.7471 62.6926L42.5858 43.575L44.9582 42.1449C43.599 41.016 41.8198 39.9873 39.6451 39.8368C34.2826 39.4855 28.8954 44.6538 28.4011 49.3454C28.154 51.6787 29.2908 52.1553 28.7965 54.2628C27.7833 58.578 22.4949 58.5028 21.5559 61.965C20.9875 63.9219 22.1243 65.8036 27.7833 72.9037Z" fill="#FAF6EB"/>
<path fill-rule="evenodd" clip-rule="evenodd" d="M61.4411 36.8012C62.8991 39.7115 63.6899 40.2634 64.1594 40.1631C64.7772 40.0125 65.2714 38.5574 64.7031 37.5037C64.1347 36.4499 62.6273 36.0234 61.4411 36.8012Z" fill="#1C2628" stroke="#1C2628" stroke-width="2.13" stroke-linecap="round" stroke-linejoin="round"/>
<path fill-rule="evenodd" clip-rule="evenodd" d="M66.5317 41.869C66.8777 41.7435 66.9765 40.5142 66.5812 40.3385C66.334 40.2131 65.8151 40.4891 65.7162 40.9156C65.5927 41.4675 66.2599 41.9693 66.5317 41.869Z" fill="#1C2628" stroke="#1C2628" stroke-width="2.13" stroke-linecap="round" stroke-linejoin="round"/>
<path fill-rule="evenodd" clip-rule="evenodd" d="M31.9596 51.1518C32.7257 50.926 32.9728 49.9475 32.9728 49.3956C32.9975 48.3419 32.2067 47.2129 31.4901 47.238C30.6004 47.263 29.6367 49.0694 30.2297 50.2235C30.5263 50.8006 31.2677 51.3525 31.9596 51.1518Z" fill="#1C2628" stroke="#1C2628" stroke-width="2.13" stroke-linecap="round" stroke-linejoin="round"/>
<path fill-rule="evenodd" clip-rule="evenodd" d="M50.9137 78.7995C51.4821 79.1257 69.5219 90.6163 75.0574 99.1716C75.6752 100.125 76.0706 101.279 76.2436 102.483C77.4297 101.68 78.3688 100.652 78.7889 99.3472C79.6785 96.6627 78.27 93.2005 76.1447 91.2435C73.031 88.3834 69.6455 90.0393 66.8283 86.8781C65.1726 85.0215 65.7409 83.742 64.5548 81.8604C62.2318 78.1472 55.8314 76.3409 51.3833 76.9179C51.235 78.072 51.062 78.8748 50.9137 78.7995Z" fill="#1C2628" stroke="#1C2628" stroke-width="2.13" stroke-linecap="round" stroke-linejoin="round"/>
<path fill-rule="evenodd" clip-rule="evenodd" d="M47.6765 130.658C48.9616 131.11 50.296 131.31 51.5316 131.185C53.6816 130.934 54.0028 129.805 58.5004 127.146C64.0112 123.884 65.1232 124.637 67.2238 122.605C69.2749 120.623 70.5599 117.612 70.98 114.877L47.6765 130.658Z" fill="#1C2628" stroke="#1C2628" stroke-width="2.13" stroke-linecap="round" stroke-linejoin="round"/>
<path fill-rule="evenodd" clip-rule="evenodd" d="M104.86 36.3495L106.145 37.5036C107.183 38.4319 108.789 38.3315 109.704 37.3029L113.608 32.8622C114.523 31.8085 114.424 30.1777 113.411 29.2494L112.125 28.0953C111.088 27.1671 109.481 27.2674 108.567 28.2961L104.662 32.7368C103.723 33.7905 103.822 35.4212 104.86 36.3495Z" fill="#1C2628" stroke="#1C2628" stroke-width="2.13" stroke-linecap="round" stroke-linejoin="round"/>
<path d="M113.608 33.0126L108.641 28.7476" stroke="#FAF6EB" stroke-width="2.13" stroke-linecap="round" stroke-linejoin="round"/>
<path d="M110.321 36.9768L105.28 32.4106" stroke="#FAF6EB" stroke-width="2.13" stroke-linecap="round" stroke-linejoin="round"/>
<path d="M113.534 30.4788L107.356 37.4032" stroke="#FAF6EB" stroke-width="2.13" stroke-linecap="round" stroke-linejoin="round"/>
<path d="M111.063 28.1707L104.687 35.1704" stroke="#FAF6EB" stroke-width="2.13" stroke-linecap="round" stroke-linejoin="round"/>
<path d="M35.9136 72.126L38.8296 75.8642L35.4441 77.8462" stroke="#1C2628" stroke-width="2.13" stroke-linecap="round" stroke-linejoin="round"/>
<path d="M40.1393 50.4495L31.5148 62.5171" stroke="white" stroke-width="2.13" stroke-linecap="round" stroke-linejoin="round"/>
<path d="M43.9203 49.22L35.9383 60.3593" stroke="white" stroke-width="2.13" stroke-linecap="round" stroke-linejoin="round"/>
<path d="M59.2911 48.7935C58.7969 52.055 59.044 59.5816 58.9699 59.6819" stroke="white" stroke-width="2.13" stroke-linecap="round" stroke-linejoin="round"/>
<path d="M20.0484 55.6677C20.7651 56.32 21.2593 57.3487 21.0369 58.302C20.9381 58.7285 20.7157 59.1049 20.518 59.4812C19.0352 62.4919 19.4059 66.3555 21.4817 68.9647C22.3961 70.1439 23.6317 71.0722 24.4719 72.3015" stroke="white" stroke-width="2.13" stroke-linecap="round" stroke-linejoin="round"/>
<path d="M19.1341 67.8608C19.7767 71.2227 22.7174 73.556 24.4225 76.4913" stroke="white" stroke-width="2.13" stroke-linecap="round" stroke-linejoin="round"/>
<path d="M66.8284 32.9626C69.8185 39.1094 73.2041 49.0947 73.2041 49.0947L83.2619 49.195" stroke="#1C2628" stroke-width="2.13" stroke-linecap="round" stroke-linejoin="round"/>
<path d="M60.7985 58.854C62.1577 60.1335 63.591 61.3127 65.1973 62.241C67.6685 63.671 74.3655 65.7785 74.3655 65.7785C76.1447 63.9721 78.3935 64.9505 80.0739 65.5527" stroke="white" stroke-width="2.13" stroke-linecap="round" stroke-linejoin="round"/>
<path d="M74.1431 63.9974C72.3391 64.3235 70.7081 62.768 68.8794 62.5422" stroke="white" stroke-width="2.13" stroke-linecap="round" stroke-linejoin="round"/>
<path d="M49.9747 28.5219C49.0109 28.6222 48.1213 28.0452 47.2317 27.6187C45.6748 26.8911 43.7967 26.5148 42.8082 25.0847C40.7324 25.2352 38.2118 25.6116 36.3584 26.59C35.7406 26.9162 35.1475 27.3176 34.6779 27.8696C34.0107 28.6473 33.5659 29.701 32.6516 30.1526" stroke="white" stroke-width="2.13" stroke-linecap="round" stroke-linejoin="round"/>
<path d="M73.7725 103.512C74.1184 105.343 74.4397 107.401 73.4512 108.981C73.0064 109.684 72.3392 110.211 71.6966 110.712C67.7921 113.798 63.8135 116.759 59.7854 119.644" stroke="#1C2628" stroke-width="2.13" stroke-linecap="round" stroke-linejoin="round"/>
<path d="M64.9255 112.644C62.0342 114.526 59.2911 116.633 56.6964 118.942C55.4855 120.02 54.2746 121.149 52.7919 121.827" stroke="#1C2628" stroke-width="2.13" stroke-linecap="round" stroke-linejoin="round"/>
<path d="M57.0917 116.232C55.6584 117.988 53.6568 119.167 51.7045 120.271C50.6913 120.848 49.6781 121.425 48.6896 122.002" stroke="#1C2628" stroke-width="2.13" stroke-linecap="round" stroke-linejoin="round"/>
<path d="M65.5927 126.092C64.6784 127.848 62.479 131.411 61.3423 133.016" stroke="#1C2628" stroke-width="2.13" stroke-linecap="round" stroke-linejoin="round"/>
<path d="M62.2072 127.547C61.9353 128.751 61.4905 129.905 60.848 130.959" stroke="#1C2628" stroke-width="2.13" stroke-linecap="round" stroke-linejoin="round"/>
</svg>
