<svg width="203" height="258" viewBox="0 0 203 258" fill="none" xmlns="http://www.w3.org/2000/svg">
<path d="M146.977 70.3768C104.331 102.286 53.4532 138.919 14.2342 228.729" stroke="#1C2628" stroke-width="2.13" stroke-linecap="round" stroke-linejoin="round"/>
<path fill-rule="evenodd" clip-rule="evenodd" d="M171.61 26.6266C174.439 29.3602 173.751 37.1603 171.403 44.451C176.386 41.6644 181.637 39.7304 185.154 40.1837C194.412 41.3029 190.408 49.2892 183.033 55.9462C187.511 56.1768 191.561 57.1305 193.954 58.7798C202.614 64.7051 192.334 70.3201 180.93 72.2139C185.965 75.2575 190.173 78.9501 191.576 82.2217C195.621 91.8049 183.876 90.8253 173.048 86.2028C175.569 91.3882 177.245 96.7175 176.56 100.203C174.685 110.191 165.193 103.107 158.578 93.5476C157.85 99.1324 156.242 104.453 153.779 106.905C146.621 114.105 142.49 103.201 142.137 91.7953C138.453 96.0276 134.069 99.5277 130.556 100.279C120.447 102.414 122.947 91.1375 129.069 81.5378C123.485 83.0084 117.947 83.5845 114.56 82.3526C104.714 78.615 113.212 70.762 123.745 66.097C118.183 64.3605 113.067 61.8035 110.885 58.889C104.573 50.5902 116.192 48.6361 127.691 50.4731C123.912 46.0573 121.027 41.2057 120.799 37.6511C120.053 27.3766 131.08 32.0361 139.845 39.7874C139.147 34.1381 139.361 28.5581 141.092 25.5684C146.155 16.7755 152.953 26.4691 156.04 37.4799C158.528 32.4231 161.83 28.0194 165.076 26.4151C168.172 25.0842 170.296 25.2783 171.61 26.6266ZM157.557 60.3416C155.832 60.2215 154.603 59.5915 153.754 58.5305C152.28 59.3604 150.921 59.5091 149.659 59.0738C148.901 60.5385 147.842 61.3451 146.65 61.7255C146.887 63.3753 146.46 64.7009 145.584 65.6419C146.7 66.9532 147.086 68.3295 146.874 69.5948C148.534 70.1042 149.615 71.0076 150.233 72.2264C151.84 71.8227 153.25 71.9846 154.364 72.6934C155.488 71.4974 156.713 70.9224 158.056 70.8711C158.233 69.198 158.942 68.0253 160.084 67.3344C159.384 65.9999 159.38 64.7949 159.674 63.6455C158.311 62.5891 157.661 61.5651 157.557 60.3416Z" fill="#C6FCDB" stroke="#1C2628" stroke-width="2.13" stroke-linecap="round" stroke-linejoin="round"/>
<path fill-rule="evenodd" clip-rule="evenodd" d="M164.323 74.6788C168.637 68.4422 166.838 59.7345 160.219 55.2747C153.599 50.8148 144.695 52.1859 140.381 58.4225C136.066 64.659 137.865 73.3667 144.485 77.8266C151.104 82.2864 160.008 80.9153 164.323 74.6788Z" fill="#1C2628" stroke="#1C2628" stroke-width="2.13" stroke-linecap="round" stroke-linejoin="round"/>
<path fill-rule="evenodd" clip-rule="evenodd" d="M53.3876 154.119C63.1267 121.249 48.2694 84.1159 26.4195 77.6411C27.1531 82.5152 33.709 97.0385 35.2709 100.05C24.6471 91.9291 21.8476 93.2241 21.8476 93.2241C21.8476 93.2241 28.7507 111.844 36.4506 118.918C26.0836 117.902 24.9364 119.201 24.9364 119.201C24.9364 119.201 42.8541 142.99 53.3876 154.119Z" fill="#FAF6EB" stroke="#1C2628" stroke-width="2.13" stroke-linecap="round" stroke-linejoin="round"/>
<path fill-rule="evenodd" clip-rule="evenodd" d="M84.3133 143.081C111.505 122.729 151.29 123.34 165.044 141.049C160.268 142.149 144.427 141.105 141.015 140.772C152.31 147.617 152.105 150.653 152.105 150.653C152.105 150.653 132.28 150.855 122.954 146.257C127.549 155.334 126.696 156.762 126.696 156.762C126.696 156.762 98.3405 148.845 84.3133 143.081Z" fill="#FAF6EB" stroke="#1C2628" stroke-width="2.13" stroke-linecap="round" stroke-linejoin="round"/>
<path d="M48.6749 147.671C50.6756 139.54 51.7234 119.092 44.3595 104.482L48.6749 147.671Z" fill="#FAF6EB"/>
<path d="M48.6749 147.671C50.6756 139.54 51.7234 119.092 44.3595 104.482" stroke="#1C2628" stroke-width="2.13" stroke-linecap="round" stroke-linejoin="round"/>
<path d="M127.772 134.607C128.284 134.603 120.544 134.462 111.213 137.112C101.882 139.762 90.4318 145.303 90.4318 145.303" fill="#FAF6EB"/>
<path d="M127.772 134.607C128.284 134.603 120.544 134.462 111.213 137.112C101.882 139.762 90.4318 145.303 90.4318 145.303" stroke="#1C2628" stroke-width="2.13" stroke-linecap="round" stroke-linejoin="round"/>
</svg>
