<svg width="202" height="261" viewBox="0 0 202 261" fill="none" xmlns="http://www.w3.org/2000/svg">
<path d="M146.007 74.2113C103.174 105.421 52.0594 141.226 13.264 230.104" stroke="#1C2628" stroke-width="2.13" stroke-linecap="round" stroke-linejoin="round"/>
<path fill-rule="evenodd" clip-rule="evenodd" d="M170.385 29.8438C173.258 32.5884 172.643 40.308 170.351 47.5018C175.339 44.8043 180.606 42.9551 184.151 43.4491C193.482 44.6761 189.529 52.538 182.171 59.0398C186.681 59.3254 190.767 60.3219 193.193 61.9866C201.968 67.9679 191.674 73.4002 180.213 75.1311C185.312 78.211 189.584 81.9234 191.029 85.1828C195.194 94.7295 183.362 93.6092 172.416 88.891C175.005 94.0609 176.744 99.3626 176.089 102.807C174.3 112.679 164.674 105.54 157.922 95.9837C157.243 101.508 155.677 106.759 153.222 109.158C146.087 116.199 141.821 105.343 141.354 94.0379C137.687 98.1842 133.309 101.596 129.779 102.296C119.623 104.282 122.03 93.1413 128.098 83.7079C122.491 85.0937 116.923 85.5939 113.501 84.3301C103.552 80.5013 112.03 72.8288 122.587 68.341C116.972 66.5495 111.796 63.9508 109.571 61.0352C103.135 52.7322 114.813 50.9442 126.406 52.911C122.559 48.4876 119.607 43.6438 119.343 40.119C118.491 29.9293 129.637 34.6867 138.537 42.4785C137.778 36.8722 137.939 31.3462 139.653 28.4061C144.663 19.7585 151.601 29.4498 154.817 40.3988C157.272 35.4202 160.553 31.0991 163.804 29.5509C166.909 28.2717 169.048 28.4911 170.385 29.8438ZM156.569 63.0698C154.831 62.9288 153.587 62.289 152.722 61.2268C151.247 62.0303 149.88 62.1603 148.606 61.7129C147.857 63.1545 146.799 63.9402 145.602 64.3018C145.857 65.9395 145.44 67.2475 144.568 68.1687C145.704 69.4822 146.106 70.8508 145.905 72.1017C147.581 72.6276 148.678 73.5366 149.312 74.752C150.926 74.3726 152.347 74.5509 153.475 75.2674C154.595 74.0967 155.822 73.5426 157.174 73.5089C157.336 71.8534 158.038 70.7005 159.181 70.0306C158.462 68.6994 158.447 67.5054 158.732 66.3703C157.349 65.3063 156.685 64.2834 156.569 63.0698Z" fill="#F45B49" stroke="#1C2628" stroke-width="2.13" stroke-linecap="round" stroke-linejoin="round"/>
<path fill-rule="evenodd" clip-rule="evenodd" d="M163.608 77.4137C167.869 71.3686 165.913 62.7594 159.153 58.2271C152.393 53.6947 143.416 54.852 139.155 60.8971C134.894 66.9421 136.85 75.5513 143.61 80.0837C150.37 84.616 159.347 83.4587 163.608 77.4137Z" fill="#1C2628" stroke="#1C2628" stroke-width="2.13" stroke-linecap="round" stroke-linejoin="round"/>
<path fill-rule="evenodd" clip-rule="evenodd" d="M52.9588 156.717C62.4867 124.133 47.0923 86.9918 24.9263 80.2685C25.7163 85.1281 32.491 99.6643 34.1005 102.681C23.2741 94.4638 20.4551 95.7165 20.4551 95.7165C20.4551 95.7165 27.6212 114.334 35.4796 121.472C24.9829 120.327 23.8352 121.605 23.8352 121.605C23.8352 121.605 42.1941 145.508 52.9588 156.717Z" fill="#FAF6EB" stroke="#1C2628" stroke-width="2.13" stroke-linecap="round" stroke-linejoin="round"/>
<path fill-rule="evenodd" clip-rule="evenodd" d="M83.2899 145.128C110.333 125.546 150.197 126.65 164.147 144.163C159.373 145.18 143.493 143.956 140.071 143.587C151.453 150.433 151.278 153.402 151.278 153.402C151.278 153.402 131.419 153.348 122.031 148.728C126.722 157.673 125.882 159.061 125.882 159.061C125.882 159.061 97.3984 150.95 83.2899 145.128Z" fill="#FAF6EB" stroke="#1C2628" stroke-width="2.13" stroke-linecap="round" stroke-linejoin="round"/>
<path d="M47.9626 150.275C49.9252 142.181 50.7933 121.773 43.1302 107.087L47.9626 150.275Z" fill="#FAF6EB"/>
<path d="M47.9626 150.275C49.9252 142.181 50.7933 121.773 43.1302 107.087" stroke="#1C2628" stroke-width="2.13" stroke-linecap="round" stroke-linejoin="round"/>
<path d="M126.802 137.541C127.315 137.543 119.553 137.306 110.221 139.792C100.89 142.278 89.4616 147.579 89.4616 147.579" fill="#FAF6EB"/>
<path d="M126.802 137.541C127.315 137.543 119.553 137.306 110.221 139.792C100.89 142.278 89.4616 147.579 89.4616 147.579" stroke="#1C2628" stroke-width="2.13" stroke-linecap="round" stroke-linejoin="round"/>
</svg>
