<svg width="225" height="246" viewBox="0 0 225 246" fill="none" xmlns="http://www.w3.org/2000/svg">
<path d="M59.5254 79.1714C105.357 106.792 159.854 138.312 209.641 224" stroke="#1C2628" stroke-width="2.13" stroke-linecap="round" stroke-linejoin="round"/>
<path fill-rule="evenodd" clip-rule="evenodd" d="M29.8376 39.1553C27.3943 42.1735 29.0627 49.9186 32.3043 56.9891C27.0346 54.6911 21.6087 53.2738 18.196 54.0761C9.20445 56.1138 14.1683 63.7171 22.2892 69.6551C17.9 70.3295 14.0257 71.6857 11.8736 73.5748C4.08192 80.3674 14.9373 84.974 26.4286 85.7419C21.8474 89.2891 18.1646 93.4046 17.1949 96.8207C14.4207 106.82 25.8838 104.676 35.9801 98.9741C34.1508 104.418 33.1739 109.922 34.2922 113.345C37.4093 123.164 45.8758 115.129 51.189 104.898C52.6161 110.421 54.8778 115.591 57.6191 117.804C65.5943 124.306 68.2869 112.975 67.187 101.516C71.3592 105.39 76.1281 108.462 79.6898 108.867C89.9347 110.004 86.0364 98.9566 78.7786 89.9469C84.4745 90.8671 90.0107 90.8959 93.1962 89.3265C102.437 84.6078 93.055 77.583 82.0718 73.953C87.3382 71.6629 92.0614 68.5951 93.8443 65.4596C99.019 56.5219 87.3075 55.7149 76.1958 58.6934C79.3638 53.8961 81.5943 48.7508 81.3673 45.1677C80.7999 34.802 70.5119 40.561 62.8479 49.1932C62.82 43.4653 61.9007 37.8971 59.8128 35.0738C53.702 26.7673 48.2254 37.1503 46.5769 48.4853C43.4807 43.6662 39.6635 39.5821 36.2581 38.2964C33.0338 37.2699 30.9635 37.6745 29.8376 39.1553ZM47.9813 71.5356C49.6681 71.2446 50.801 70.4918 51.5042 69.3448C53.0631 70.0303 54.4232 70.0447 55.6128 69.4837C56.5466 70.8758 57.6936 71.579 58.9187 71.8418C58.8937 73.518 59.4831 74.8035 60.4667 75.6594C59.5326 77.0833 59.3266 78.5002 59.6958 79.7467C58.1226 80.4213 57.1708 81.4333 56.7162 82.7152C55.0792 82.47 53.7084 82.7717 52.6998 83.592C51.4393 82.5052 50.1573 82.0506 48.8257 82.1322C48.4387 80.4738 47.5901 79.3693 46.3757 78.7904C46.8978 77.3842 46.7487 76.1768 46.312 75.0546C47.5231 73.8616 48.0345 72.7714 47.9813 71.5356Z" fill="#BF99F5" stroke="#1C2628" stroke-width="2.13" stroke-linecap="round" stroke-linejoin="round"/>
<path fill-rule="evenodd" clip-rule="evenodd" d="M43.236 86.4996C38.1512 80.6008 38.7378 71.6663 44.6366 66.5816C50.5354 61.4968 59.4699 62.0834 64.5546 67.9822C69.6394 73.881 69.0528 82.8155 63.154 87.9003C57.2552 92.985 48.3207 92.3984 43.236 86.4996Z" fill="#1C2628" stroke="#1C2628" stroke-width="2.13" stroke-linecap="round" stroke-linejoin="round"/>
<path fill-rule="evenodd" clip-rule="evenodd" d="M162.839 152.968C149.138 121.149 159.013 82.659 179.617 74.0527C179.514 78.9852 174.921 94.1125 173.77 97.2694C183.16 88.126 186.068 89.1419 186.068 89.1419C186.068 89.1419 181.653 108.388 174.997 116.2C185.033 114.166 186.322 115.349 186.322 115.349C186.322 115.349 171.761 140.834 162.839 152.968Z" fill="#FAF6EB" stroke="#1C2628" stroke-width="2.13" stroke-linecap="round" stroke-linejoin="round"/>
<path fill-rule="evenodd" clip-rule="evenodd" d="M130.163 146.168C100.551 128.24 61.1301 132.825 49.7508 152.153C54.6336 152.792 70.2267 150.155 73.5719 149.477C63.2375 157.545 63.8303 160.602 63.8303 160.602C63.8303 160.602 83.5391 158.832 92.2078 153.239C88.8122 162.902 89.8419 164.265 89.8419 164.265C89.8419 164.265 116.977 153.412 130.163 146.168Z" fill="#FAF6EB" stroke="#1C2628" stroke-width="2.13" stroke-linecap="round" stroke-linejoin="round"/>
<path d="M166.426 146.065C163.465 138.181 159.877 117.968 165.169 102.737L166.426 146.065Z" fill="#FAF6EB"/>
<path d="M166.426 146.065C163.465 138.181 159.877 117.968 165.169 102.737" stroke="#1C2628" stroke-width="2.13" stroke-linecap="round" stroke-linejoin="round"/>
<path d="M85.9834 141.733C85.4756 141.779 93.1318 140.867 102.723 142.615C112.315 144.363 124.377 148.821 124.377 148.821" fill="#FAF6EB"/>
<path d="M85.9834 141.733C85.4756 141.779 93.1318 140.867 102.723 142.615C112.315 144.363 124.377 148.821 124.377 148.821" stroke="#1C2628" stroke-width="2.13" stroke-linecap="round" stroke-linejoin="round"/>
</svg>
