<svg width="662" height="605" viewBox="0 0 662 605" fill="none" xmlns="http://www.w3.org/2000/svg">
<path fillRule="evenodd" clipRule="evenodd" d="M575.994 475.161C575.994 465.012 584.375 456.827 594.655 456.827C597.667 456.827 603.101 458.792 603.101 458.792L603.036 465.667L610.435 465.274C610.435 465.274 613.381 471.494 613.381 475.095C613.381 485.244 605 493.429 594.72 493.429C584.31 493.494 575.994 485.244 575.994 475.161Z" fill="#49574E"/>
<path fillRule="evenodd" clipRule="evenodd" d="M531.536 504.69C541.554 503.97 550.262 511.827 550.982 522.173C551.179 525.25 549.607 530.815 549.607 530.815L542.798 531.208L543.714 538.607C543.714 538.607 537.756 542.012 534.155 542.208C524.137 542.929 515.429 535.071 514.708 524.726C513.923 514.381 521.518 505.411 531.536 504.69Z" fill="#49574E"/>
<path d="M560.738 432.994L559.363 569.708" stroke="#1C2628" strokeWidth="1.39464" strokeLinecap="round" strokeLinejoin="round"/>
<path d="M547.316 448.643L559.756 467.631" stroke="#1C2628" strokeWidth="1.39464" strokeLinecap="round" strokeLinejoin="round"/>
<path d="M560.28 521.78L590.53 481.184" stroke="#1C2628" strokeWidth="1.39464" strokeLinecap="round" strokeLinejoin="round"/>
<path d="M532.976 520.077L559.298 557.137" stroke="#1C2628" strokeWidth="1.39464" strokeLinecap="round" strokeLinejoin="round"/>
<path fillRule="evenodd" clipRule="evenodd" d="M168.077 133.113H510.387V569.119H168.077V133.113Z" fill="#F3A140" stroke="#1C2628" strokeWidth="1.39464" strokeLinecap="round" strokeLinejoin="round"/>
<path d="M168.143 331.964L509.012 332.095" stroke="#1C2628" strokeWidth="1.39464" strokeLinecap="round" strokeLinejoin="round"/>
<path d="M168.143 448.315L509.012 448.446" stroke="#1C2628" strokeWidth="1.39464" strokeLinecap="round" strokeLinejoin="round"/>
<path fillRule="evenodd" clipRule="evenodd" d="M162.708 554.518H522.565V572.458H162.708V554.518Z" fill="#1C2628" stroke="#1C2628" strokeWidth="1.39464" strokeLinecap="round" strokeLinejoin="round"/>
<path d="M340.345 135.077L345.387 568.923" stroke="#1C2628" strokeWidth="1.39464" strokeLinecap="round" strokeLinejoin="round"/>
<path fillRule="evenodd" clipRule="evenodd" d="M294.054 432.012C284.167 448.446 252.149 513.595 252.149 513.595C252.149 513.595 233.619 524.857 210.571 534.22C195.839 540.179 173.381 543.583 171.613 548.821C166.833 563.095 219.28 551.506 238.53 550C258.107 548.428 289.929 570.952 308 558.97C319.786 551.179 307.542 532.321 308.589 521.714C309.637 511.107 316.185 438.952 322.863 430.178" fill="#F45B49"/>
<path d="M294.054 432.012C284.167 448.446 252.149 513.595 252.149 513.595C252.149 513.595 233.619 524.857 210.571 534.22C195.839 540.179 173.381 543.583 171.613 548.821C166.833 563.095 219.28 551.506 238.53 550C258.107 548.428 289.929 570.952 308 558.97C319.786 551.179 307.542 532.321 308.589 521.714C309.637 511.107 316.185 438.952 322.863 430.178" stroke="#1C2628" strokeWidth="1.39464" strokeLinecap="round" strokeLinejoin="round"/>
<path fillRule="evenodd" clipRule="evenodd" d="M395.345 459.054C395.345 459.054 310.554 312.518 258.173 356.518C229.625 380.482 204.613 512.94 204.613 512.94L256.012 524.202L290.321 468.286C290.321 468.286 305.577 537.429 333.863 550.655C349.774 558.119 414.137 562.309 445.304 555.107C469.53 549.542 469.071 526.036 469.071 526.036L395.345 459.054Z" fill="#1C2628" stroke="#1C2628" strokeWidth="1.39464" strokeLinecap="round" strokeLinejoin="round"/>
<path fillRule="evenodd" clipRule="evenodd" d="M267.994 437.446C258.107 453.881 226.089 519.03 226.089 519.03C226.089 519.03 207.56 530.292 184.512 539.655C169.78 545.613 147.321 549.018 145.554 554.256C140.708 568.53 183.268 562.44 202.518 560.934C222.095 559.363 256.667 568.202 267.798 559.429C278.929 550.655 271.006 539 278.405 524.137C287.833 505.214 304.006 481.774 310.685 473" fill="#F45B49"/>
<path d="M267.994 437.446C258.107 453.881 226.089 519.03 226.089 519.03C226.089 519.03 207.56 530.292 184.512 539.655C169.78 545.613 147.321 549.018 145.554 554.256C140.708 568.53 183.268 562.44 202.518 560.934C222.095 559.363 256.667 568.202 267.798 559.429C278.929 550.655 271.006 539 278.405 524.137C287.833 505.214 304.006 481.774 310.685 473" stroke="#1C2628" strokeWidth="1.39464" strokeLinecap="round" strokeLinejoin="round"/>
<path fillRule="evenodd" clipRule="evenodd" d="M344.929 310.619C319 284.69 322.667 246.714 327.054 243.048C373.345 204.548 399.732 249.923 411.911 249.202C441.768 252.869 463.44 266.095 465.929 286.982C468.089 305.315 465.929 350.952 430.375 346.107C408.44 338.577 347.351 352.589 328.559 337.202C318.411 328.887 324.893 268.518 318.018 257.452" fill="#1C2628"/>
<path d="M344.929 310.619C319 284.69 322.667 246.714 327.054 243.048C373.345 204.548 399.732 249.923 411.911 249.202C441.768 252.869 463.44 266.095 465.929 286.982C468.089 305.315 465.929 350.952 430.375 346.107C408.44 338.577 347.351 352.589 328.559 337.202C318.411 328.887 324.893 268.518 318.018 257.452" stroke="#1C2628" strokeWidth="1.39464" strokeLinecap="round" strokeLinejoin="round"/>
<path fillRule="evenodd" clipRule="evenodd" d="M510.518 523.482C510.518 523.482 509.994 523.809 508.946 524.333C502.399 527.476 476.274 537.232 448.381 509.798C444.911 506.393 441.44 502.399 437.97 497.815C402.155 450.018 378.19 441.964 378.19 441.964L331.244 355.536L329.083 351.607L298.44 315.792L336.482 290.321L427.887 309.113C427.887 309.113 449.036 290.911 472.28 320.244C477.583 326.988 483.018 336.155 488.387 348.661C499.518 374.786 500.5 433.256 501.482 475.815C502.202 503.25 510.518 523.482 510.518 523.482Z" fill="#FAF6EB" stroke="#1C2628" strokeWidth="1.39464" strokeLinecap="round" strokeLinejoin="round"/>
<path fillRule="evenodd" clipRule="evenodd" d="M391.089 284.036L403.988 308.589L426.185 319.982C426.185 319.982 417.542 340.345 399.536 346.893C381.53 353.44 372.625 348.006 365.357 345.452C358.024 342.899 350.887 331.506 350.887 331.506L359.071 318.28L351.083 307.804L391.089 284.036Z" fill="#F45B49" stroke="#1C2628" strokeWidth="1.39464" strokeLinecap="round" strokeLinejoin="round"/>
<path fillRule="evenodd" clipRule="evenodd" d="M386.244 266.095C383.821 258.827 388.012 256.601 382.708 252.018C373.28 243.768 360.381 240.559 348.399 244.684C334.911 249.268 319.982 252.804 318.673 267.077C318.149 272.577 324.958 287.309 326.857 293.006C333.667 313.304 354.357 324.631 373.083 318.28C385.065 314.22 392.726 307.738 395.345 295.429C396.72 288.619 388.667 273.429 386.244 266.095Z" fill="#F45B49" stroke="#1C2628" strokeWidth="1.39464" strokeLinecap="round" strokeLinejoin="round"/>
<path fillRule="evenodd" clipRule="evenodd" d="M341.917 289.405C343.292 296.542 341 304.268 345.125 305.054C350.56 306.036 354.292 294.446 354.03 292.94" fill="#F45B49"/>
<path d="M341.917 289.405C343.292 296.542 341 304.268 345.125 305.054C350.56 306.036 354.292 294.446 354.03 292.94" stroke="#1C2628" strokeWidth="1.39464" strokeLinecap="round" strokeLinejoin="round"/>
<path d="M369.22 290.19C370.202 296.411 366.798 300.077 361.363 301.387" stroke="#1C2628" strokeWidth="1.39464" strokeLinecap="round" strokeLinejoin="round"/>
<path fillRule="evenodd" clipRule="evenodd" d="M406.018 313.958L391.744 287.244C391.744 287.244 368.762 296.411 367.518 304.923C366.274 313.434 382.839 327.119 382.839 327.119L396.066 320.768" fill="#FB564C"/>
<path fillRule="evenodd" clipRule="evenodd" d="M382.316 256.994C359.661 277.357 330.72 263.476 330.72 263.476C330.72 263.476 334.714 286.065 325.024 295.69C315.333 305.25 303.744 290.845 308.131 268.452C312.583 246.125 341.327 227.661 357.5 229.298C371.054 230.738 400.256 240.821 382.316 256.994Z" fill="#1C2628" stroke="#1C2628" strokeWidth="1.39464" strokeLinecap="round" strokeLinejoin="round"/>
<path fillRule="evenodd" clipRule="evenodd" d="M376.815 261.774C375.702 257.583 381.595 255.03 384.738 256.077C391.351 258.173 397.506 268.714 386.179 273.363" fill="#F45B49"/>
<path d="M376.815 261.774C375.702 257.583 381.595 255.03 384.738 256.077C391.351 258.173 397.506 268.714 386.179 273.363" stroke="#1C2628" strokeWidth="1.39464" strokeLinecap="round" strokeLinejoin="round"/>
<path d="M435.089 285.869C447.202 294.315 451.131 293.857 462.851 298.44" stroke="#FAF6EB" strokeWidth="1.39464" strokeLinecap="round" strokeLinejoin="round"/>
<path fillRule="evenodd" clipRule="evenodd" d="M128.464 437.774C119.821 437.315 121.589 416.821 129.446 415.25C138.81 413.351 151.708 427.887 143.327 436.268C140.839 438.821 131.869 437.97 128.464 437.774Z" fill="#F3A13B"/>
<path fillRule="evenodd" clipRule="evenodd" d="M352 318.542L365.488 319.196L377.863 314.679C377.863 314.679 373.149 327.774 366.536 333.274C359.988 338.774 344.208 338.708 344.208 338.708L352 318.542Z" fill="#1C2628" stroke="#1C2628" strokeWidth="1.39464" strokeLinecap="round" strokeLinejoin="round"/>
<path d="M383.625 263.28C383.69 263.607 383.756 263.869 383.821 264.196" stroke="#1C2628" strokeWidth="1.39464" strokeLinecap="round" strokeLinejoin="round"/>
<path fillRule="evenodd" clipRule="evenodd" d="M472.869 558.643C441.702 565.845 375.702 566.173 359.792 558.774C331.506 545.548 311.012 477.19 311.012 477.19L283.512 527.738L224.19 508.815L222.946 508.423C222.946 508.423 258.565 371.119 285.804 345.649C339.036 309.113 422.911 462.655 422.911 462.655L465.994 501.809L496.637 529.637C496.637 529.637 497.095 553.077 472.869 558.643Z" fill="#1C2628" stroke="#1C2628" strokeWidth="1.39464" strokeLinecap="round" strokeLinejoin="round"/>
<path fillRule="evenodd" clipRule="evenodd" d="M422.845 462.655C422.845 462.655 338.97 309.179 285.738 345.649C258.5 371.054 224.452 502.464 224.452 502.464C225.107 502.464 226.417 502.137 228.054 501.613C245.012 495.917 257.387 479.809 256.47 461.869C254.571 426.577 289.077 330.982 328.821 377.47C341.917 392.792 362.476 394.232 369.155 405.821C374.393 415.119 368.5 427.036 373.083 436.988C377.667 448.25 391.548 448.25 401.435 453.554C417.214 461.542 423.827 508.815 465.994 501.809L422.845 462.655Z" fill="#FAF6EB"/>
<path d="M350.821 281.548C356.714 278.929 360.25 278.012 361.167 270.548" stroke="#1C2628" strokeWidth="1.39464" strokeLinecap="round" strokeLinejoin="round"/>
<path d="M328.821 297.589C332.03 296.149 334.19 295.232 335.5 291.827" stroke="#1C2628" strokeWidth="1.39464" strokeLinecap="round" strokeLinejoin="round"/>
<path d="M313.434 261.839C307.214 268.125 302.107 286.917 307.083 295.298C308.982 298.44 313.827 298.702 315.137 301.387C320.702 312.583 307.083 317.232 326.464 325.548" stroke="#1C2628" strokeWidth="1.39464" strokeLinecap="round" strokeLinejoin="round"/>
<path d="M371.446 233.292C379.238 232.833 388.929 232.637 396.524 235.518C405.298 238.792 412.631 244.75 421.339 247.762C440.196 254.244 462.786 250.315 462.786 284.101" stroke="#1C2628" strokeWidth="1.39464" strokeLinecap="round" strokeLinejoin="round"/>
<path fillRule="evenodd" clipRule="evenodd" d="M424.81 376.423C423.893 369.94 421.863 350.429 419.113 325.744C417.607 311.732 419.768 292.744 419.768 292.744C419.768 292.744 417.083 289.667 415.25 292.024C413.417 294.381 412.696 302.107 412.5 302.107C409.357 301.452 391.089 263.149 386.31 265.571C382.839 267.274 397.113 289.274 397.113 289.274C397.113 289.274 381.53 264.262 378.78 266.488C375.637 269.042 391.613 292.089 391.613 292.089C391.613 292.089 376.881 267.929 373.018 269.762C369.22 271.595 386.244 295.887 385.786 296.083C384.411 296.673 370.399 274.476 367.583 275.851C364.899 277.161 378.714 298.244 382.839 309.506C388.667 325.22 380.22 427.429 404.119 446.744C417.345 457.417 436.923 456.631 449.429 441.702C461.869 426.774 476.732 387.161 476.732 387.161L441.899 349.643C441.899 349.577 425.464 381.006 424.81 376.423Z" fill="#F45B49" stroke="#1C2628" strokeWidth="1.39464" strokeLinecap="round" strokeLinejoin="round"/>
<path fillRule="evenodd" clipRule="evenodd" d="M455.256 309.31C455.256 309.31 413.941 287.506 420.226 334.125C425.923 370.792 422.976 380.155 422.976 380.155C422.976 380.155 424.744 377.732 441.31 387.75C457.875 397.768 470.25 415.905 470.25 415.905C470.25 415.905 486.03 372.167 479.286 354.619" fill="#FAF6EB"/>
<path d="M455.256 309.31C455.256 309.31 413.941 287.506 420.226 334.125C425.923 370.792 422.976 380.155 422.976 380.155C422.976 380.155 424.744 377.732 441.31 387.75C457.875 397.768 470.25 415.905 470.25 415.905C470.25 415.905 486.03 372.167 479.286 354.619" stroke="#1C2628" strokeWidth="1.39464" strokeLinecap="round" strokeLinejoin="round"/>
<path fillRule="evenodd" clipRule="evenodd" d="M298.44 315.595C298.44 315.595 270.155 341.917 294.512 355.012C318.869 368.107 382.905 352.065 382.905 352.065L397.637 351.411C397.637 351.411 398.488 355.274 402.024 368.369C405.494 381.399 407.196 397.048 411.583 403.661C416.036 410.274 416.821 403.792 416.821 403.792L414.268 379.5C414.268 379.5 419.113 407.655 421.536 406.345C424.024 405.036 422.06 378.452 422.06 378.452C422.06 378.452 430.048 405.101 431.619 404.774C433.191 404.446 431.095 376.684 431.095 376.684C431.095 376.684 437.054 411.78 438.101 404.119C439.149 396.458 438.887 376.488 435.94 353.702C434.5 342.637 423.696 322.929 402.089 319.786C389.321 317.952 298.44 315.595 298.44 315.595Z" fill="#F45B49" stroke="#1C2628" strokeWidth="1.39464" strokeLinecap="round" strokeLinejoin="round"/>
<path fillRule="evenodd" clipRule="evenodd" d="M320.113 296.804C314.417 330.393 337.726 323.06 337.726 323.06L352.589 318.607C352.589 318.607 335.762 310.423 334.583 308.786C333.274 306.952 324.565 293.399 323.583 291.304" fill="#1C2628"/>
<path d="M320.113 296.804C314.417 330.393 337.726 323.06 337.726 323.06L352.589 318.607C352.589 318.607 335.762 310.423 334.583 308.786C333.274 306.952 324.565 293.399 323.583 291.304" stroke="#1C2628" strokeWidth="1.39464" strokeLinecap="round" strokeLinejoin="round"/>
<path d="M361.756 362.083C359.595 366.339 369.417 394.429 387.946 394.429L361.756 362.083Z" fill="#FAF6EB"/>
<path d="M361.756 362.083C359.595 366.339 369.417 394.429 387.946 394.429" stroke="#1C2628" strokeWidth="1.39464" strokeLinecap="round" strokeLinejoin="round"/>
<path d="M299.357 498.667C300.601 497.161 311.077 477.19 311.077 477.19C311.077 477.19 315.857 495.065 319.655 503.512C328.952 524.399 341.393 545.155 359.071 554.78" stroke="#FAF6EB" strokeWidth="1.39464" strokeLinecap="round" strokeLinejoin="round"/>
<path fillRule="evenodd" clipRule="evenodd" d="M480.53 377.47L474.571 430.244L450.935 440.851L466.911 410.732L470.446 415.97L480.53 377.47Z" fill="#1C2628" stroke="#1C2628" strokeWidth="1.39464" strokeLinecap="round" strokeLinejoin="round"/>
<path fillRule="evenodd" clipRule="evenodd" d="M419.506 453.488C422.911 462.655 434.304 472.28 438.036 479.875C455.387 514.97 455.19 545.024 502.202 526.232" fill="#FAF6EB"/>
<path d="M419.506 453.488C422.911 462.655 434.304 472.28 438.036 479.875C455.387 514.97 455.19 545.024 502.202 526.232" stroke="#1C2628" strokeWidth="1.39464" strokeLinecap="round" strokeLinejoin="round"/>
<path d="M441.768 470.054C446.089 478.435 450.083 487.143 453.815 495.851C459.315 508.815 466.059 530.226 485.571 523.351" stroke="#1C2628" strokeWidth="1.39464" strokeLinecap="round" strokeLinejoin="round"/>
<path fillRule="evenodd" clipRule="evenodd" d="M281.744 527.214C275 528.458 258.042 524.137 244.357 524.726C239.643 524.923 235.583 522.696 235.583 522.696C235.583 522.696 227.006 516.934 224.321 518.833C221.964 520.47 222.226 526.559 222.226 526.559C222.226 526.559 217.512 529.113 217.184 532.256C217.119 533.042 217.184 536.577 217.184 536.577C217.184 536.577 217.708 541.03 219.28 544.893C220.851 548.756 245.274 552.423 258.173 556.22C261.774 557.268 282.006 563.881 292.024 562.048" fill="#F45B49"/>
<path d="M281.744 527.214C275 528.458 258.042 524.137 244.357 524.726C239.643 524.923 235.583 522.696 235.583 522.696C235.583 522.696 227.006 516.934 224.321 518.833C221.964 520.47 222.226 526.559 222.226 526.559C222.226 526.559 217.512 529.113 217.184 532.256C217.119 533.042 217.184 536.577 217.184 536.577C217.184 536.577 217.708 541.03 219.28 544.893C220.851 548.756 245.274 552.423 258.173 556.22C261.774 557.268 282.006 563.881 292.024 562.048" stroke="#1C2628" strokeWidth="1.39464" strokeLinecap="round" strokeLinejoin="round"/>
<path d="M298.244 546.661C292.679 544.369 287.31 544.5 281.548 543.125C275.72 541.75 269.827 539.393 264.262 537.167" stroke="#1C2628" strokeWidth="1.39464" strokeLinecap="round" strokeLinejoin="round"/>
<path d="M224.06 534.089C222.423 537.559 221.44 539.851 220.327 543.518" stroke="#1C2628" strokeWidth="1.39464" strokeLinecap="round" strokeLinejoin="round"/>
<path d="M168.143 215.613L509.012 215.744" stroke="#1C2628" strokeWidth="1.39464" strokeLinecap="round" strokeLinejoin="round"/>
<path fillRule="evenodd" clipRule="evenodd" d="M371.119 257.911C371.119 251.232 376.684 245.798 383.559 245.798C390.434 245.798 396 251.232 396 257.911C396 264.589 390.434 270.024 383.559 270.024C376.684 269.958 371.119 264.589 371.119 257.911Z" fill="#FAF6EB" stroke="#1C2628" strokeWidth="1.39464" strokeLinecap="round" strokeLinejoin="round"/>
<path fillRule="evenodd" clipRule="evenodd" d="M306.887 272.185C306.887 272.185 299.357 247.304 325.22 233.03C355.732 216.137 382.512 251.494 382.512 251.494L377.929 258.762C377.929 258.762 343.815 232.637 315.792 252.214C302.435 261.512 306.887 272.185 306.887 272.185Z" fill="#FAF6EB" stroke="#1C2628" strokeWidth="1.39464" strokeLinecap="round" strokeLinejoin="round"/>
<path fillRule="evenodd" clipRule="evenodd" d="M376.881 257.059C376.881 253.262 379.893 250.119 383.56 250.119C387.226 250.119 390.238 253.196 390.238 257.059C390.238 260.857 387.226 264 383.56 264C379.893 264 376.881 260.923 376.881 257.059Z" fill="#FAF6EB" stroke="#1C2628" strokeWidth="1.39464" strokeLinecap="round" strokeLinejoin="round"/>
<path fillRule="evenodd" clipRule="evenodd" d="M175.083 272.119C163.756 258.304 148.173 250.643 136.845 235.845C110.196 200.946 121.917 158.976 136.125 121.786C162.643 172.726 175.083 223.667 175.083 272.119Z" fill="#49574E"/>
<path fillRule="evenodd" clipRule="evenodd" d="M175.738 270.089C160.22 201.732 186.869 168.994 209.458 109.869C208.214 164.607 233.815 232.048 175.738 270.089Z" fill="#49574E"/>
<path fillRule="evenodd" clipRule="evenodd" d="M174.625 279.452C174.429 241.018 219.673 210.899 230.214 175.607C244.946 211.095 221.048 282.071 174.625 279.452Z" fill="#49574E"/>
<path fillRule="evenodd" clipRule="evenodd" d="M166.702 255.684H189.357C206.839 255.684 220.982 269.958 220.982 287.506C220.982 305.054 206.839 319.327 189.357 319.327H166.702C149.22 319.327 135.077 305.054 135.077 287.506C135.077 269.893 149.22 255.684 166.702 255.684Z" fill="#F45B49"/>
<path d="M126.042 307.607C169.125 223.405 160.548 420.685 140.577 321.554C133.048 284.232 198.196 259.351 222.554 265.899C244.161 271.661 210.048 301.452 193.94 322.339C191.845 325.024 187.458 323.518 187.524 319.72C182.22 284.363 232.31 274.738 257.649 279.976" stroke="#1C2628" strokeWidth="1.39464" strokeLinecap="round" strokeLinejoin="round"/>
<path d="M166.702 255.684H189.357C206.839 255.684 220.982 269.958 220.982 287.506C220.982 305.054 206.839 319.327 189.357 319.327H166.702C149.22 319.327 135.077 305.054 135.077 287.506C135.077 269.893 149.22 255.684 166.702 255.684Z" stroke="#1C2628" strokeWidth="1.39464" strokeLinecap="round" strokeLinejoin="round"/>
<path d="M547.708 256.274H602.446V281.482H547.708" stroke="#1C2628" strokeWidth="1.39464" strokeLinecap="round" strokeLinejoin="round"/>
<path d="M617.179 307.214H575.667V282.071H630.405V297.065" stroke="#1C2628" strokeWidth="1.39464" strokeLinecap="round" strokeLinejoin="round"/>
<path d="M108.363 476.994H53.625V502.137H108.363V476.994Z" stroke="#1C2628" strokeWidth="1.39464" strokeLinecap="round" strokeLinejoin="round"/>
<path d="M48.1904 502.726H25.6666V527.934" stroke="#1C2628" strokeWidth="1.39464" strokeLinecap="round" strokeLinejoin="round"/>
<path d="M80.4048 527.934V515.363" stroke="#1C2628" strokeWidth="1.39464" strokeLinecap="round" strokeLinejoin="round"/>
<path d="M111.113 303.875H56.375V329.018H111.113V303.875Z" stroke="#1C2628" strokeWidth="1.39464" strokeLinecap="round" strokeLinejoin="round"/>
<path d="M345.321 359.661C345.321 359.661 374.72 389.125 388.863 409.488L345.321 359.661Z" fill="#FAF6EB"/>
<path d="M345.321 359.661C345.321 359.661 374.72 389.125 388.863 409.488" stroke="#1C2628" strokeWidth="1.39464" strokeLinecap="round" strokeLinejoin="round"/>
<path fillRule="evenodd" clipRule="evenodd" d="M488.452 348.726C483.149 336.22 477.714 326.988 472.345 320.309C466.649 323.845 462.066 329.018 460.625 334.649C456.5 350.429 479.286 358.744 487.929 392.071C489.631 398.619 493.494 414.006 489.5 432.143C487.405 441.833 482.691 454.405 479.482 462.982C475.03 474.964 481.185 488.518 493.298 492.381C493.625 492.512 493.952 492.577 494.214 492.643C497.161 493.494 500.173 494.28 503.185 495.065C502.268 489.238 501.613 482.821 501.482 475.881C500.566 433.387 499.583 374.917 488.452 348.726Z" fill="#1C2628" stroke="#1C2628" strokeWidth="1.39464" strokeLinecap="round" strokeLinejoin="round"/>
<path d="M340.542 404.643C345.059 405.756 350.036 407.131 352.655 410.994C354.357 413.482 354.75 416.559 355.143 419.571C355.863 425.006 356.649 430.571 359.006 435.482" stroke="white" strokeWidth="1.39464" strokeLinecap="round" strokeLinejoin="round"/>
<path d="M345.518 418.065C348.268 421.143 349.315 425.399 349.774 429.458C350.232 433.518 350.298 437.774 351.476 441.702" stroke="white" strokeWidth="1.39464" strokeLinecap="round" strokeLinejoin="round"/>
<path d="M377.929 454.863C379.173 457.417 381.923 458.792 384.607 459.643C387.292 460.494 390.173 460.821 392.661 462.065C397.506 464.553 400.125 469.792 402.81 474.571C405.625 479.482 408.964 484.131 412.631 488.452" stroke="white" strokeWidth="1.39464" strokeLinecap="round" strokeLinejoin="round"/>
<path d="M399.339 481.905C403.268 489.696 409.226 496.44 416.363 501.417" stroke="white" strokeWidth="1.39464" strokeLinecap="round" strokeLinejoin="round"/>
<path d="M347.417 529.44C355.994 544.827 373.28 554.845 390.827 554.518" stroke="white" strokeWidth="1.39464" strokeLinecap="round" strokeLinejoin="round"/>
<path d="M375.375 542.143C382.25 546.071 390.369 547.708 398.161 546.726" stroke="white" strokeWidth="1.39464" strokeLinecap="round" strokeLinejoin="round"/>
<path d="M230.476 440.196C228.774 447.661 227.071 455.125 225.304 462.589" stroke="white" strokeWidth="1.39464" strokeLinecap="round" strokeLinejoin="round"/>
<path d="M240.625 431.75L235.976 448.184" stroke="white" strokeWidth="1.39464" strokeLinecap="round" strokeLinejoin="round"/>
<path d="M479.155 448.184C473.851 458.53 471.298 470.25 471.756 481.839C471.887 484.851 472.214 487.994 473.72 490.613C475.226 493.232 478.173 495.196 481.185 494.738C481.774 494.607 482.429 494.411 482.887 494.018C484.066 492.97 483.869 490.809 482.625 489.762C481.381 488.714 479.548 488.649 478.107 489.238C476.339 492.774 478.566 497.292 481.97 499.387C485.31 501.482 489.435 501.744 493.363 502.006" stroke="#1C2628" strokeWidth="1.39464" strokeLinecap="round" strokeLinejoin="round"/>
<path fillRule="evenodd" clipRule="evenodd" d="M275.458 313.696C273.363 312.256 271.923 309.899 271.595 307.345C271.071 303.089 274.738 298.309 278.994 299.095C283.119 299.881 284.952 304.792 285.214 308.982C285.345 310.554 285.214 312.321 284.167 313.5C282.202 315.595 278.732 314.089 275.917 314.679" fill="#1C2628"/>
<path d="M275.458 313.696C273.363 312.256 271.923 309.899 271.595 307.345C271.071 303.089 274.738 298.309 278.994 299.095C283.119 299.881 284.952 304.792 285.214 308.982C285.345 310.554 285.214 312.321 284.167 313.5C282.202 315.595 278.732 314.089 275.917 314.679" stroke="#1C2628" strokeWidth="1.39464" strokeLinecap="round" strokeLinejoin="round"/>
<path d="M249.923 463.244C250.577 471.036 246.649 479.089 240.167 483.345" stroke="#1C2628" strokeWidth="1.39464" strokeLinecap="round" strokeLinejoin="round"/>
<path d="M241.542 468.809C242 470.905 241.345 473.196 239.839 474.702" stroke="#1C2628" strokeWidth="1.39464" strokeLinecap="round" strokeLinejoin="round"/>
<path d="M171.548 224.387C170.893 236.173 171.875 247.5 173.577 256.536" stroke="white" strokeWidth="1.39464" strokeLinecap="round" strokeLinejoin="round"/>
<path d="M136.714 150.988C136.845 164.411 138.875 177.702 140.97 190.929C142.149 198.393 143.327 205.923 145.619 213.125C147.649 219.542 150.53 225.565 153.411 231.655C157.077 239.315 160.744 247.042 166.179 253.524" stroke="white" strokeWidth="1.39464" strokeLinecap="round" strokeLinejoin="round"/>
<path d="M205.137 142.738C203.173 180.714 196.167 218.429 184.315 254.506" stroke="white" strokeWidth="1.39464" strokeLinecap="round" strokeLinejoin="round"/>
<path d="M230.476 176.917C228.905 206.054 216.53 234.536 196.363 255.488" stroke="white" strokeWidth="1.39464" strokeLinecap="round" strokeLinejoin="round"/>
<path d="M126.238 165.851C128.399 166.571 130.167 168.274 131.083 170.434C131.869 172.268 132.065 174.559 133.637 175.804C134.619 176.524 135.994 176.655 137.173 176.982C138.351 177.309 139.661 178.226 139.661 179.47C143.131 177.179 146.994 174.298 147.321 170.107C147.452 168.863 147.256 167.423 148.042 166.44C148.762 165.589 149.94 165.393 150.988 165.131C152.036 164.869 153.214 164.214 153.345 163.101" stroke="white" strokeWidth="1.39464" strokeLinecap="round" strokeLinejoin="round"/>
<path d="M123.03 188.571C126.173 189.684 128.857 192.042 130.363 194.988C130.625 195.446 130.821 195.97 131.214 196.363C132.851 198.131 135.994 196.821 138.089 198C139.923 199.048 140.708 201.732 142.738 201.929C144.179 199.309 147.976 198.393 148.696 195.512C148.827 195.054 148.827 194.53 149.089 194.137C150.006 192.5 152.56 193.548 154.262 192.958C156.619 192.107 156.946 188.375 159.369 187.655" stroke="white" strokeWidth="1.39464" strokeLinecap="round" strokeLinejoin="round"/>
<path d="M163.494 204.81C160.875 206.839 159.173 209.917 158.845 213.256C158.78 213.911 158.78 214.631 158.387 215.155C157.863 215.94 156.816 216.137 155.899 216.464C152.887 217.381 150.071 219.869 149.22 222.881C149.024 222.03 148.107 221.506 147.256 221.375C146.405 221.244 145.554 221.44 144.637 221.44C143.065 221.506 141.494 221.048 140.119 220.131C139.006 219.411 137.893 218.363 136.649 218.756C136.19 218.887 135.798 219.214 135.405 219.476C134.095 220.262 132.458 220.327 130.952 219.869C129.512 219.411 128.268 218.429 127.155 217.381" stroke="white" strokeWidth="1.39464" strokeLinecap="round" strokeLinejoin="round"/>
<path d="M169.06 225.893C168.143 229.625 166.833 233.75 163.429 235.452C162.708 235.845 161.857 236.042 161.202 236.5C159.893 237.286 157.405 239.643 157.339 241.214C155.964 241.345 154.851 240.232 153.607 239.708C151.512 238.857 149.613 240.559 147.321 240.69C145.03 240.887 142.28 239.512 140.054 238.923" stroke="white" strokeWidth="1.39464" strokeLinecap="round" strokeLinejoin="round"/>
<path d="M154.655 249.792C156.292 250.643 158.19 251.298 160.024 251.036C160.81 250.905 161.53 250.643 162.315 250.708C163.625 250.839 164.673 251.887 165.524 252.934C165.655 251.494 165.786 249.857 166.964 249.006C167.554 248.548 168.405 248.351 168.994 247.893C169.649 247.434 170.042 246.452 169.452 245.863" stroke="white" strokeWidth="1.39464" strokeLinecap="round" strokeLinejoin="round"/>
<path d="M197.018 145.619C198.589 146.798 199.571 148.762 199.571 150.726C199.571 151.184 199.506 151.708 199.702 152.167C200.226 153.542 202.387 153.542 203.042 154.851C203.434 155.702 203.173 156.881 203.893 157.47C204.286 156.619 204.679 155.768 205.53 155.375C206.446 154.917 207.494 155.309 208.542 155.113C209.851 154.917 210.899 153.738 210.964 152.429" stroke="white" strokeWidth="1.39464" strokeLinecap="round" strokeLinejoin="round"/>
<path d="M187.393 170.173C187.917 172.006 189.619 173.446 191.518 173.577C192.565 173.643 193.679 173.315 194.661 173.708C195.774 174.167 196.429 175.345 196.756 176.589C197.083 177.833 197.214 179.012 197.738 180.125C198.262 181.238 200.095 183.464 201.339 183.202C202.256 183.006 202.256 180.845 203.173 180.583C204.482 180.19 206.054 181.173 207.232 180.452C207.952 179.994 208.214 179.077 208.804 178.619C209.982 177.702 212.274 178.095 212.667 176.655" stroke="white" strokeWidth="1.39464" strokeLinecap="round" strokeLinejoin="round"/>
<path d="M178.095 199.768C180.649 199.833 183.137 201.405 184.315 203.696C185.363 205.661 185.559 208.345 187.524 209.458C188.375 209.982 189.488 210.048 190.47 210.309C192.762 210.964 194.595 212.863 195.119 215.155C196.101 213.321 198.524 213.06 200.619 213.06C202.714 213.06 205.006 213.125 206.381 211.554C206.774 211.095 210.637 205.923 214.107 205.464" stroke="white" strokeWidth="1.39464" strokeLinecap="round" strokeLinejoin="round"/>
<path d="M173.381 224.583C174.429 224.649 175.149 225.631 175.542 226.613C175.935 227.595 176.262 228.643 177.179 229.232C178.423 230.018 180.06 229.494 181.5 229.756C185.101 230.476 185.691 235.78 188.833 237.744" stroke="white" strokeWidth="1.39464" strokeLinecap="round" strokeLinejoin="round"/>
<path d="M218.232 203.369C218.756 204.613 219.018 205.988 219.018 207.363C219.018 208.738 218.887 210.244 219.738 211.292C220.262 211.946 221.113 212.274 221.506 212.994C221.637 213.19 221.702 213.452 221.833 213.649C222.161 214.042 222.75 213.976 223.274 213.911C224.518 213.714 225.827 213.714 227.071 213.714C228.054 213.78 229.101 213.845 230.018 213.583C230.935 213.321 231.917 212.536 231.982 211.554" stroke="white" strokeWidth="1.39464" strokeLinecap="round" strokeLinejoin="round"/>
<path d="M206.185 221.244C208.083 221.571 209.786 222.881 210.571 224.649C211.095 225.827 211.292 227.268 212.143 228.25C213.518 229.756 215.875 229.494 217.905 229.887C219.738 230.214 221.44 231.196 223.339 231.327C225.435 231.458 227.595 230.476 228.839 228.774" stroke="white" strokeWidth="1.39464" strokeLinecap="round" strokeLinejoin="round"/>
<path d="M193.155 242.524C196.101 242.262 199.048 243.964 200.423 246.583C200.685 247.107 200.881 247.631 201.339 248.089C202.583 249.333 204.679 248.417 206.381 248.679C207.494 248.875 208.411 249.53 209.458 249.988C212.274 251.232 215.81 250.512 217.97 248.286" stroke="white" strokeWidth="1.39464" strokeLinecap="round" strokeLinejoin="round"/>
<path d="M214.107 205.399C201.47 218.167 188.833 237.744 183.792 256.274" stroke="white" strokeWidth="1.39464" strokeLinecap="round" strokeLinejoin="round"/>
<path d="M308.655 182.548L315.071 203.173" stroke="#1C2628" strokeWidth="1.39464" strokeLinecap="round" strokeLinejoin="round"/>
<path d="M366.012 170.762L360.774 205.53" stroke="#1C2628" strokeWidth="1.39464" strokeLinecap="round" strokeLinejoin="round"/>
<path d="M383.56 191.976L378.911 207.887" stroke="#1C2628" strokeWidth="1.39464" strokeLinecap="round" strokeLinejoin="round"/>
<path d="M434.5 157.798L408.768 209.065" stroke="#1C2628" strokeWidth="1.39464" strokeLinecap="round" strokeLinejoin="round"/>
<path d="M454.994 200.815L426.315 229.69" stroke="#1C2628" strokeWidth="1.39464" strokeLinecap="round" strokeLinejoin="round"/>
<path d="M449.756 239.119L471.363 228.512" stroke="#1C2628" strokeWidth="1.39464" strokeLinecap="round" strokeLinejoin="round"/>
<path d="M412.631 554.78L485.571 554.518" stroke="white" strokeWidth="1.39464" strokeLinecap="round" strokeLinejoin="round"/>
<path d="M238.268 121.786H522.631V478.173" stroke="#1C2628" strokeWidth="1.39464" strokeLinecap="round" strokeLinejoin="round"/>
<path d="M157.994 346.5V529.44" stroke="#1C2628" strokeWidth="1.39464" strokeLinecap="round" strokeLinejoin="round"/>
<path d="M175.411 44.5238C178.557 44.5238 181.107 41.9441 181.107 38.7619C181.107 35.5797 178.557 33 175.411 33C172.265 33 169.714 35.5797 169.714 38.7619C169.714 41.9441 172.265 44.5238 175.411 44.5238Z" fill="#1C2628" stroke="#1C2628" strokeWidth="1.39464" strokeLinecap="round" strokeLinejoin="round"/>
<path d="M203.827 394.167L212.012 357.631C212.863 359.399 214.435 361.429 217.185 364.309L218.101 365.226C221.899 368.958 228.25 375.309 224.125 381.595C223.798 382.053 223.929 382.708 224.387 382.97C224.583 383.101 224.78 383.167 224.911 383.167C225.238 383.167 225.565 383.036 225.762 382.708C230.804 375.048 223.405 367.714 219.476 363.786L218.56 362.869C213.518 357.696 212.994 355.536 212.863 353.375L215.024 343.815C215.875 345.583 217.446 347.613 220.262 350.494L221.244 351.476C225.042 355.208 231.393 361.559 227.268 367.845C226.94 368.303 227.071 368.958 227.53 369.22C227.726 369.351 227.923 369.417 228.054 369.417C228.381 369.417 228.708 369.286 228.905 368.958C233.946 361.298 226.548 353.964 222.619 350.101L221.702 349.184C216.595 343.946 216.137 341.851 216.006 339.625C216.006 339.101 215.613 338.708 214.958 338.643C214.435 338.643 213.976 339.101 213.976 339.69C213.911 339.756 213.911 339.821 213.845 339.952L202.452 391.351C200.161 388.667 195.839 387.357 191.256 388.274C185.167 389.518 180.911 394.232 181.827 398.815C182.744 403.464 188.44 406.214 194.53 404.97C200.619 403.792 204.875 399.012 203.958 394.429C203.893 394.363 203.893 394.298 203.827 394.167Z" fill="#1C2628" stroke="#1C2628" strokeWidth="1.39464" strokeLinecap="round" strokeLinejoin="round"/>
<path d="M144.506 264.196L175.149 38.5L211.685 265.44" stroke="#1C2628" strokeWidth="1.39464" strokeLinecap="round" strokeLinejoin="round"/>
</svg>
