<svg width="56" height="56" viewBox="0 0 56 56" fill="none" xmlns="http://www.w3.org/2000/svg">
<path d="M25.3167 50.225C23.2167 48.7083 20.9712 47.4833 18.5803 46.55C16.1879 45.6167 13.6889 44.975 11.0833 44.625C9.91667 44.4695 8.94444 43.9732 8.16667 43.1363C7.38889 42.301 7 41.3389 7 40.25V23.8C7 22.3222 7.50556 21.1066 8.51667 20.153C9.52778 19.201 10.7139 18.8417 12.075 19.075C15.0694 19.5806 17.9184 20.4945 20.622 21.8167C23.324 23.1389 25.7833 24.85 28 26.95C30.2167 24.85 32.6768 23.1389 35.3803 21.8167C38.0823 20.4945 40.9306 19.5806 43.925 19.075C45.2861 18.8417 46.4722 19.201 47.4833 20.153C48.4944 21.1066 49 22.3222 49 23.8V40.25C49 41.3389 48.6111 42.301 47.8333 43.1363C47.0556 43.9732 46.0833 44.4695 44.9167 44.625C42.3111 44.975 39.8129 45.6167 37.422 46.55C35.0296 47.4833 32.7833 48.7083 30.6833 50.225C29.9056 50.8083 29.0111 51.1 28 51.1C26.9889 51.1 26.0944 50.8083 25.3167 50.225ZM28 21C25.4333 21 23.2361 20.0861 21.4083 18.2583C19.5806 16.4306 18.6667 14.2333 18.6667 11.6667C18.6667 9.10001 19.5806 6.90279 21.4083 5.07501C23.2361 3.24723 25.4333 2.33334 28 2.33334C30.5667 2.33334 32.7639 3.24723 34.5917 5.07501C36.4194 6.90279 37.3333 9.10001 37.3333 11.6667C37.3333 14.2333 36.4194 16.4306 34.5917 18.2583C32.7639 20.0861 30.5667 21 28 21Z" fill="black"/>
</svg>
