<svg width="43" height="56" viewBox="0 0 43 56" fill="none" xmlns="http://www.w3.org/2000/svg">
<path d="M41.368 3.16081L20.1808 10.6272C19.84 10.7472 19.7644 11.0412 20.1688 11.202L24.724 13.0272L27.424 14.1084L40.6048 4.42921C40.7824 4.29961 40.9864 4.54321 40.858 4.68241L31.4128 14.898V14.9004L30.8704 15.504L31.5892 15.8904L37.5676 19.1088C37.9168 19.296 38.3692 19.1412 38.47 18.708L41.9572 3.67801C42.052 3.26641 41.7796 3.01561 41.368 3.16081ZM27.4 20.5944C27.4 20.8896 27.5668 20.9724 27.7972 20.7636C28.0984 20.4888 31.2172 17.6904 31.2172 17.6904L27.4 15.7176V20.5944Z" fill="black"/>
<path d="M28.7614 21C33.0579 32.5895 33.45 40.9653 31.253 44.1508C29.0559 47.3363 24.7081 46.2304 20.237 44.5169C15.766 42.8035 11.0086 40.5621 7.6923 41.512C6.13903 41.9358 5.02799 44.0354 7.01394 49.4086" stroke="#1C2628" stroke-width="2.13" stroke-linecap="round" stroke-linejoin="round"/>
</svg>
