<svg width="24" height="24" viewBox="0 0 24 24" fill="none" xmlns="http://www.w3.org/2000/svg">
<g clip-path="url(#clip0_13_6522)">
<path d="M-3.42086 34.9868L0.747984 25.3806" stroke="#1C2628" stroke-width="2.13" stroke-linecap="round" stroke-linejoin="round"/>
<path d="M12 14C10.9 14 10 13.11 10 12C10 10.89 10.9 10 12 10C13.1 10 14 10.9 14 12C14 13.1 13.11 14 12 14ZM23 19H1V17H4V15H1V13H4V11H1V9H4V7H1V5H23V7H20V9H23V11H20V13H23V15H20V17H23V19ZM12 15.92C12.62 16.62 13.66 16.81 14.5 16.33C15.34 15.85 15.69 14.84 15.4 13.96C16.31 13.78 17 12.97 17 12C17 11.03 16.31 10.22 15.4 10.04C15.69 9.16 15.34 8.15 14.5 7.67C13.66 7.19 12.62 7.38 12 8.08C11.6959 7.73136 11.28 7.49926 10.8236 7.42344C10.3672 7.34762 9.89862 7.43279 9.49808 7.66436C9.09755 7.89594 8.78996 8.25953 8.62795 8.6929C8.46594 9.12626 8.4596 9.60247 8.61 10.04C7.69 10.22 7 11.03 7 12C7 12.97 7.69 13.78 8.61 13.96C8.4596 14.3975 8.46594 14.8737 8.62795 15.3071C8.78996 15.7405 9.09755 16.1041 9.49808 16.3356C9.89862 16.5672 10.3672 16.6524 10.8236 16.5766C11.28 16.5007 11.6959 16.2686 12 15.92Z" fill="black"/>
</g>
<defs>
<clipPath id="clip0_13_6522">
<rect width="24" height="24" fill="white"/>
</clipPath>
</defs>
</svg>
