<svg width="56" height="56" viewBox="0 0 56 56" fill="none" xmlns="http://www.w3.org/2000/svg">
<path d="M28 9.33334C30.59 9.33334 32.6667 11.41 32.6667 14C32.6667 16.59 30.59 18.6667 28 18.6667C25.41 18.6667 23.3333 16.59 23.3333 14C23.3333 11.41 25.4333 9.33334 28 9.33334ZM49 37.3333V32.6667C43.7733 32.6667 39.2933 30.4267 35.9333 26.4133L32.8067 22.68C32.3725 22.1538 31.8273 21.7302 31.21 21.4397C30.5928 21.1493 29.9188 20.9991 29.2367 21H26.8333C25.41 21 24.1033 21.6067 23.2167 22.68L20.09 26.4133C16.7067 30.4267 12.2267 32.6667 7 32.6667V37.3333C13.4633 37.3333 19.11 34.6033 23.3333 29.75V35L14.28 38.6167C12.7167 39.2467 11.6667 40.8333 11.6667 42.49C11.6667 44.8 13.5333 46.6667 15.8433 46.6667H21V45.5C21 43.9529 21.6146 42.4692 22.7085 41.3752C23.8025 40.2813 25.2862 39.6667 26.8333 39.6667H33.8333C34.4867 39.6667 35 40.18 35 40.8333C35 41.4867 34.4867 42 33.8333 42H26.8333C24.8967 42 23.3333 43.5633 23.3333 45.5V46.6667H40.1567C42.4667 46.6667 44.3333 44.8 44.3333 42.49C44.3333 40.8333 43.2833 39.2467 41.72 38.6167L32.6667 35V29.75C36.89 34.6033 42.5367 37.3333 49 37.3333Z" fill="black"/>
</svg>
