<svg width="300" height="356" viewBox="0 0 300 356" fill="none" xmlns="http://www.w3.org/2000/svg">
<path fill-rule="evenodd" clip-rule="evenodd" d="M230.101 284.197C228.408 301.389 197.323 313.111 155.861 314.11C155.818 314.11 155.731 314.11 155.687 314.11C145.789 314.327 135.282 313.98 124.428 312.938C102.373 310.81 82.2287 306.165 65.9913 300C59.3922 297.525 53.4877 294.79 48.3213 291.881C33.7337 283.632 25.398 273.994 26.3097 264.399C28.22 244.819 68.2489 232.359 118.35 234.703C122.822 234.92 127.381 235.224 131.983 235.702C154.472 237.873 175.007 242.692 191.375 248.987C215.991 258.408 231.36 271.346 230.101 284.197Z" fill="#1C2628" stroke="#1C2628" stroke-width="2.13" stroke-linecap="round" stroke-linejoin="round"/>
<path d="M240.13 270.869C245.427 277.381 245.948 283.068 245.644 290.362C244.645 313.806 212.822 318.886 195.065 324.139" stroke="#1C2628" stroke-width="2.13" stroke-linecap="round" stroke-linejoin="round"/>
<path d="M62.9522 225.977C37.3372 230.275 6.55572 247.077 15.89 277.641" stroke="#1C2628" stroke-width="2.13" stroke-linecap="round" stroke-linejoin="round"/>
<path d="M176.657 290.753C178.003 288.886 177.786 290.102 176.223 290.449C170.622 291.708 165.022 293.184 159.465 294.66C152.431 296.527 146.44 301.086 139.971 304.385" stroke="#1C2628" stroke-width="2.13" stroke-linecap="round" stroke-linejoin="round"/>
<path fill-rule="evenodd" clip-rule="evenodd" d="M211.042 225.022C236.831 197.54 170.405 68.5528 129.247 93.3864C115.007 100.029 109.19 111.273 103.502 124.515C89.6961 175.181 29.1751 158.249 27.3517 212.952C23.9219 292.793 183.43 283.763 211.042 225.022Z" fill="#F3A13B"/>
<path fill-rule="evenodd" clip-rule="evenodd" d="M61.8669 131.418C71.3314 129.899 80.3618 128.943 77.7569 142.402C77.4096 144.226 74.8046 155.6 65.644 156.859C47.0622 159.855 43.1983 133.98 61.8669 131.418Z" fill="#F3A13B"/>
<path fill-rule="evenodd" clip-rule="evenodd" d="M89.9132 128.466C85.919 131.288 78.3213 127.381 80.8394 122.127C82.7931 111.143 104.327 123.517 89.9132 128.466Z" fill="#F3A13B"/>
<path d="M93.6035 190.941C94.9494 194.11 96.3386 197.583 95.4703 200.926C94.7757 203.705 92.6483 205.919 90.521 207.829C89.4356 208.784 88.3068 209.783 86.9175 210.174C85.5282 210.608 83.835 210.347 82.9233 209.219C81.9248 208.003 82.1852 206.136 82.9233 204.747C83.4877 203.661 84.4428 202.706 85.6151 202.359C87.6556 201.751 89.8263 203.271 90.6512 205.224C91.4761 207.178 91.2591 209.392 90.8249 211.476C89.0449 219.986 84.2258 227.453 79.4935 234.747" stroke="#1C2628" stroke-width="2.13" stroke-linecap="round" stroke-linejoin="round"/>
<path fill-rule="evenodd" clip-rule="evenodd" d="M68.8133 181.085C73.8495 181.693 80.1881 173.401 72.7641 172.576C70.4631 173.401 65.7308 180.043 68.0318 180.912" fill="#FAF6EB"/>
<path fill-rule="evenodd" clip-rule="evenodd" d="M118.654 125.167C113.227 126.296 111.056 131.201 113.705 136.324C114.443 137.757 118.784 144.009 122.692 143.314C124.559 142.967 130.507 143.792 129.334 129.595C128.596 124.038 125.904 123.691 118.654 125.167Z" fill="#F45B49" stroke="#1C2628" stroke-width="2.13" stroke-linecap="round" stroke-linejoin="round"/>
<path fill-rule="evenodd" clip-rule="evenodd" d="M200.883 207.395C194.327 229.363 161.331 279.899 158.987 288.278L158.64 286.845C151.216 289.45 108.625 289.841 94.6889 276.426C93.2996 275.08 92.2142 273.647 91.4327 271.997L102.981 243.256C102.287 244.255 95.4703 238.22 103.415 221.549C105.586 216.99 110.101 204.66 110.101 204.66C110.449 202.793 111.447 195.543 112.663 186.686C112.489 186.382 112.446 186.209 112.446 186.209C108.625 183.604 94.2981 184.646 91.042 173.445C90.5644 171.751 90.3039 169.754 90.3908 167.41C90.4776 164.805 92.084 163.589 93.9074 163.068C95.6874 162.547 97.6845 162.634 98.6831 162.721C104.067 163.025 109.32 165.022 114.313 167.106C114.66 167.236 114.964 167.41 115.311 167.54C117.004 155.34 118.611 144.747 119.132 144.183C120 143.227 120.825 142.272 121.65 141.361C124.255 138.495 126.903 136.324 131.375 137.974C134.284 139.016 137.106 140.145 139.797 141.447C145.485 144.183 150.651 147.656 154.776 152.822C158.857 157.902 162.547 163.372 165.326 169.233C167.844 174.53 169.493 180.304 170.535 186.035C171.274 189.942 171.795 194.023 171.534 198.018C171.491 199.016 171.36 199.971 171.187 200.97C170.405 205.355 169.32 209.653 168.104 213.908L200.883 207.395Z" fill="#F45B49" stroke="#1C2628" stroke-width="2.13" stroke-linecap="round" stroke-linejoin="round"/>
<path fill-rule="evenodd" clip-rule="evenodd" d="M94.6889 276.426C93.2996 275.08 92.2142 273.647 91.4327 271.997L102.981 243.256C102.287 244.255 95.4704 238.22 103.415 221.549C105.586 216.99 110.101 204.66 110.101 204.66C110.449 202.793 111.447 195.543 112.663 186.686C112.489 186.382 112.446 186.209 112.446 186.209C108.625 183.604 94.2981 184.646 91.042 173.445C94.2113 174.009 97.5977 175.051 101.201 176.136C108.408 178.307 112.75 179.61 115.051 183.647C117.742 188.336 114.399 190.941 116.614 202.012C117.265 205.355 117.916 206.744 118.741 211.65C119.696 217.294 120.13 220.159 119.305 222.287C117.221 227.54 111.1 228.061 111.187 231.361C111.23 233.314 113.401 234.096 115.615 236.18C115.615 236.18 121.52 241.65 121.997 251.592C122.605 264.139 106.02 278.64 94.6889 276.426Z" fill="#FAF6EB"/>
<path fill-rule="evenodd" clip-rule="evenodd" d="M171.577 198.061C168.755 200.449 165.673 202.316 162.33 203.358C153.256 206.223 143.878 202.62 135.847 199.494C129.508 197.019 121.867 194.11 119.913 187.641C118.828 184.038 120.217 181.78 118.133 179.132C115.745 176.18 112.576 177.308 106.932 174.877C101.375 172.489 98.1187 168.625 96.9031 167.149C95.9479 166.02 94.9059 164.588 93.9508 163.025C95.7308 162.504 97.7279 162.591 98.7265 162.678C104.11 162.981 109.363 164.979 114.356 167.062C114.703 167.193 115.007 167.366 115.355 167.497C117.048 155.297 118.654 144.704 119.175 144.139C120.043 143.184 120.868 142.229 121.693 141.317C127.511 140.926 133.719 140.97 139.884 141.404C145.572 144.139 150.738 147.612 154.863 152.779C158.944 157.858 162.634 163.329 165.412 169.19C167.931 174.486 169.58 180.261 170.622 185.992C171.317 189.986 171.881 194.067 171.577 198.061Z" fill="#1C2628" stroke="#1C2628" stroke-width="2.13" stroke-linecap="round" stroke-linejoin="round"/>
<path fill-rule="evenodd" clip-rule="evenodd" d="M103.155 275.558C104.935 273.951 106.672 272.258 108.278 270.478C94.7757 262.316 94.6455 255.717 94.6455 255.717L65.9913 299.957C79.9711 305.254 96.8596 309.422 115.311 311.853C112.316 304.038 107.713 296.614 101.852 290.319C98.3792 285.977 99.6816 279.031 103.155 275.558Z" fill="#FAF6EB"/>
<path fill-rule="evenodd" clip-rule="evenodd" d="M121.085 276.816C115.832 274.645 111.664 272.518 108.278 270.478C106.715 272.258 104.978 273.951 103.155 275.557C99.6816 279.03 98.3792 285.977 101.852 290.318C107.757 296.614 112.359 304.038 115.311 311.852C118.307 312.243 121.346 312.59 124.428 312.894C135.239 313.936 145.745 314.327 155.687 314.067C155.731 314.067 155.818 314.067 155.861 314.067L168.061 279.899C168.061 279.942 152.388 289.754 121.085 276.816Z" fill="#FB564C"/>
<path fill-rule="evenodd" clip-rule="evenodd" d="M173.835 183.213C175.051 179.957 173.314 174.834 172.359 171.578C167.019 153.691 151.91 144.704 136.758 135.934C131.505 132.895 128.553 132.374 123.821 140.97C121.302 145.529 119.653 156.73 123.083 159.856C133.285 169.016 145.919 176.223 152.865 187.772C153.907 189.508 159.204 205.138 159.204 205.138C159.204 205.138 162.59 201.187 166.758 197.584C170.232 194.544 171.23 194.327 171.751 193.589L173.835 183.213Z" fill="#F7AA9A"/>
<path d="M220.246 115.398C218.987 114.747 218.466 113.227 219.117 111.925L219.204 111.795C219.855 110.536 221.375 110.015 222.677 110.666C223.936 111.317 224.457 112.837 223.806 114.139L223.719 114.269C223.025 115.572 221.505 116.049 220.246 115.398ZM222.156 111.708C221.462 111.361 220.637 111.621 220.246 112.316L220.159 112.446C219.812 113.141 220.072 113.966 220.767 114.356C221.462 114.704 222.287 114.443 222.677 113.748L222.764 113.618C223.111 112.88 222.851 112.055 222.156 111.708Z" fill="#1C2628" stroke="#1C2628" stroke-width="2.13" stroke-linecap="round" stroke-linejoin="round"/>
<path d="M217.511 120.738C216.252 120.087 215.731 118.568 216.382 117.265L216.469 117.135C217.12 115.876 218.64 115.355 219.942 116.006C221.245 116.657 221.722 118.177 221.071 119.479L220.984 119.61C220.289 120.912 218.77 121.39 217.511 120.738ZM219.378 117.048C218.683 116.701 217.858 116.961 217.467 117.656L217.381 117.786C217.033 118.481 217.294 119.306 217.988 119.696C218.683 120.087 219.508 119.783 219.899 119.089L219.986 118.958C220.376 118.22 220.116 117.395 219.378 117.048Z" fill="#1C2628" stroke="#1C2628" stroke-width="2.13" stroke-linecap="round" stroke-linejoin="round"/>
<path d="M222.243 108.886C220.376 107.931 219.682 105.63 220.593 103.806L223.763 97.6847C224.718 95.8178 226.975 95.1231 228.842 96.0349C230.709 96.99 231.404 99.291 230.492 101.114L227.323 107.236C226.368 109.103 224.067 109.841 222.243 108.886ZM228.321 97.0768C227.019 96.4256 225.456 96.9032 224.805 98.2056L221.635 104.327C220.984 105.63 221.462 107.193 222.764 107.844C224.067 108.495 225.63 108.018 226.281 106.715L229.45 100.593C230.101 99.291 229.624 97.7281 228.321 97.0768Z" fill="#1C2628" stroke="#1C2628" stroke-width="2.13" stroke-linecap="round" stroke-linejoin="round"/>
<path fill-rule="evenodd" clip-rule="evenodd" d="M244.081 72.4603L179.305 198.235C177.352 202.055 172.663 203.531 168.842 201.578L112.185 172.402C108.365 170.449 106.889 165.76 108.842 161.939L145.572 90.5645C146.874 90.4777 148.177 90.3909 149.522 90.3041L112.012 163.198C110.883 165.413 111.751 168.148 113.965 169.32L170.188 198.235C170.839 198.582 171.534 198.756 172.272 198.756C173.965 198.756 175.528 197.8 176.31 196.281L240.825 70.9842C241.042 70.5501 241.172 70.1159 241.259 69.6818C241.302 69.6818 241.346 69.6383 241.389 69.6383C242.605 69.1174 243.777 68.553 244.949 68.032C245.08 69.4647 244.819 71.0276 244.081 72.4603Z" fill="#1C2628" stroke="#1C2628" stroke-width="2.13" stroke-linecap="round" stroke-linejoin="round"/>
<path fill-rule="evenodd" clip-rule="evenodd" d="M241.216 69.6819C241.129 70.116 240.999 70.5502 240.781 70.9843L176.31 196.281C175.528 197.801 173.965 198.756 172.272 198.756C171.534 198.756 170.839 198.582 170.188 198.235L113.965 169.32C111.751 168.191 110.883 165.456 112.012 163.199L149.522 90.3476C158.249 89.7398 167.757 88.6544 177.699 87.048C202.619 82.967 225.326 76.5849 241.216 69.6819Z" fill="#FAF6EB"/>
<path fill-rule="evenodd" clip-rule="evenodd" d="M205.224 44.4575C205.224 44.4575 204.009 46.8454 203.922 48.8425C203.922 48.9727 203.922 49.0595 203.922 49.1898C203.965 51.0132 205.094 52.6196 206.7 53.4445L210.868 55.5718C212.041 56.1797 213.386 56.3099 214.602 55.9192C215.123 55.7455 215.644 55.5284 216.122 55.2245C217.815 54.0957 218.944 51.7513 218.944 51.7513L205.224 44.4575Z" fill="#1C2628" stroke="#1C2628" stroke-width="2.13" stroke-linecap="round" stroke-linejoin="round"/>
<path fill-rule="evenodd" clip-rule="evenodd" d="M209.045 176.788C209.479 179.132 204.877 199.971 198.973 212.866L133.98 225.196C133.98 225.196 135.673 218.814 139.19 211.737C142.316 205.442 146.831 198.625 152.865 195.239C170.666 185.254 184.255 189.986 184.255 189.986C184.255 189.986 185.123 182.258 190.637 172.446C190.637 172.446 190.68 170.796 190.941 168.322C191.462 163.372 192.851 155.297 196.541 151.607C204.443 143.705 210.695 145.268 210.261 146.484C210.608 148.133 209.436 175.615 209.045 176.788Z" fill="#F45B49" stroke="#1C2628" stroke-width="2.13" stroke-linecap="round" stroke-linejoin="round"/>
<path fill-rule="evenodd" clip-rule="evenodd" d="M108.321 136.715C102.808 137.887 100.593 142.837 103.285 148.09C104.023 149.523 108.452 155.948 112.446 155.21C114.313 154.863 120.391 155.688 119.219 141.23C118.437 135.586 115.658 135.196 108.321 136.715Z" fill="#F45B49" stroke="#1C2628" stroke-width="2.13" stroke-linecap="round" stroke-linejoin="round"/>
<path d="M155.687 314.11C145.789 314.327 135.282 313.98 124.428 312.938C102.373 310.81 82.2287 306.165 65.9913 300" stroke="#1C2628" stroke-width="2.13" stroke-linecap="round" stroke-linejoin="round"/>
<path d="M95.644 258.755C95.644 258.755 97.5977 265.051 108.278 270.478C118.958 275.904 130.029 283.242 145.615 283.242" stroke="#1C2628" stroke-width="2.13" stroke-linecap="round" stroke-linejoin="round"/>
<path d="M204.313 147.959C204.313 147.959 202.706 157.771 204.313 159.334C205.919 160.941 208.263 160.941 208.263 160.941" stroke="#1C2628" stroke-width="2.13" stroke-linecap="round" stroke-linejoin="round"/>
<path fill-rule="evenodd" clip-rule="evenodd" d="M184.732 197.453C178.307 200.492 175.051 195.412 166.758 197.583C156.556 200.318 155.687 209.609 146.918 211.823C144.877 212.344 142.315 212.518 139.146 211.737C142.272 205.441 146.787 198.625 152.822 195.239C170.622 185.253 184.211 189.986 184.211 189.986C184.211 189.986 185.08 182.258 190.593 172.446C190.593 172.446 190.637 170.796 190.897 168.321C192.808 171.056 194.153 174.182 194.544 177.569C195.369 185.253 191.375 194.284 184.732 197.453Z" fill="#FAF6EB"/>
<path fill-rule="evenodd" clip-rule="evenodd" d="M128.292 230.449C127.728 226.976 135.326 223.025 141.708 219.725C155.818 212.431 171.056 209.827 173.14 209.479C181.78 208.09 187.511 208.177 192.808 203.314C196.02 200.405 199.711 194.892 200.839 195.282C202.663 195.934 201.447 207.699 197.931 215.167C189.855 232.403 163.936 235.398 159.247 235.963C145.702 237.656 129.074 235.355 128.292 230.449Z" fill="#FB564C"/>
<path d="M233.618 130.55L220.507 139.277" stroke="#1C2628" stroke-width="2.13" stroke-linecap="round" stroke-linejoin="round"/>
<path d="M234.399 144.182L220.767 145.745" stroke="#1C2628" stroke-width="2.13" stroke-linecap="round" stroke-linejoin="round"/>
<path d="M219.725 152.431L232.315 166.064" stroke="#1C2628" stroke-width="2.13" stroke-linecap="round" stroke-linejoin="round"/>
<path d="M220.246 166.324L226.411 173.792" stroke="#1C2628" stroke-width="2.13" stroke-linecap="round" stroke-linejoin="round"/>
<path d="M96.0782 280.203C94.5152 283.85 93.4732 288.017 94.8191 291.708C95.8177 294.53 98.0753 296.7 99.9855 299.045C101.896 301.389 103.546 304.255 103.068 307.25" stroke="#1C2628" stroke-width="2.13" stroke-linecap="round" stroke-linejoin="round"/>
<path d="M102.938 297.135C104.197 299.74 106.889 301.389 108.061 303.994C108.625 305.253 108.799 306.686 108.799 308.075" stroke="#1C2628" stroke-width="2.13" stroke-linecap="round" stroke-linejoin="round"/>
<path d="M116.7 249.421C116.7 251.418 116.7 253.459 116.353 255.456C116.006 257.453 115.268 259.407 113.922 260.883C112.489 262.489 110.492 263.488 108.582 264.443" stroke="#1C2628" stroke-width="2.13" stroke-linecap="round" stroke-linejoin="round"/>
<path d="M118.263 259.32C117.699 261.056 116.527 262.619 115.007 263.661" stroke="#1C2628" stroke-width="2.13" stroke-linecap="round" stroke-linejoin="round"/>
<path d="M106.889 148.567C106.672 146.657 106.454 144.66 107.192 142.923C107.931 141.187 110.014 139.798 111.795 140.579" stroke="#1C2628" stroke-width="2.13" stroke-linecap="round" stroke-linejoin="round"/>
<path d="M192.634 207.091C183.473 222.33 174.79 237.916 166.628 253.719" stroke="#1C2628" stroke-width="2.13" stroke-linecap="round" stroke-linejoin="round"/>
<path d="M180.478 237.699L163.111 271.086" stroke="#1C2628" stroke-width="2.13" stroke-linecap="round" stroke-linejoin="round"/>
<path d="M202.098 185.384C199.363 197.062 200.101 205.181 189.812 221.375" stroke="#1C2628" stroke-width="2.13" stroke-linecap="round" stroke-linejoin="round"/>
<path fill-rule="evenodd" clip-rule="evenodd" d="M264.182 51.9683C263.531 56.9611 256.411 62.5617 244.906 67.9886C243.777 68.5096 242.562 69.074 241.346 69.5949C241.302 69.5949 241.259 69.6384 241.216 69.6384C225.326 76.5414 202.576 82.9669 177.699 87.0045C167.757 88.6109 158.249 89.6962 149.522 90.3041C148.177 90.3909 146.874 90.4777 145.572 90.5646C135.022 91.129 125.687 90.9987 118.046 90.1304C104.197 88.6109 96.0782 84.7903 96.8162 79.0161C97.5543 73.2852 106.975 66.6427 121.737 60.4777C134.11 55.3113 150.217 50.4488 168.148 46.7585C169.58 46.4546 170.97 46.1941 172.402 45.8902C175.962 45.1955 179.609 44.5443 183.3 43.9365C187.294 43.2852 191.201 42.7208 194.978 42.2433C197.062 41.9828 199.103 41.7657 201.1 41.5486C214.949 40.0725 227.366 39.6818 237.482 40.333C254.631 41.4618 265.007 45.4994 264.182 51.9683Z" fill="#1C2628" stroke="#1C2628" stroke-width="2.13" stroke-linecap="round" stroke-linejoin="round"/>
<path d="M148.915 81.6644C147.612 81.7512 146.353 81.838 145.094 81.8815C141.1 82.0985 137.236 82.2288 133.632 82.2288C128.249 82.2288 123.343 81.9683 119.001 81.4907" stroke="#FAF6EB" stroke-width="2.13" stroke-linecap="round" stroke-linejoin="round"/>
<path d="M241.172 60.1738C240.087 60.6948 239.001 61.1724 237.873 61.6934L237.656 61.7802" stroke="#FAF6EB" stroke-width="2.13" stroke-linecap="round" stroke-linejoin="round"/>
<path d="M125.08 68.5096C137.149 63.4734 153.039 58.7845 169.884 55.2679C171.274 55.0074 172.619 54.7035 174.052 54.443C177.525 53.7918 181.085 53.1405 184.689 52.5327C188.509 51.9249 192.33 51.3605 196.107 50.8829C198.017 50.6224 199.884 50.4054 201.664 50.2317L202.098 50.1883C211.216 49.2331 219.725 48.7122 227.496 48.7122C230.839 48.7122 234.052 48.799 237.004 48.9727" stroke="#FAF6EB" stroke-width="2.13" stroke-linecap="round" stroke-linejoin="round"/>
<path d="M254.457 32.9089C276.686 34.3416 290.188 39.5515 289.059 47.9306C288.234 54.3995 278.944 61.6933 264.052 68.7266C262.576 69.4212 261.013 70.1159 259.45 70.8105C259.407 70.8539 259.363 70.8539 259.32 70.8539" stroke="#1C2628" stroke-width="2.13" stroke-linecap="round" stroke-linejoin="round"/>
<path d="M99.508 97.5109C81.534 95.5138 70.9841 90.5645 71.9392 83.097C72.8944 75.6296 85.1375 67.0334 104.24 59.0449C120.304 52.3156 141.23 46.0638 164.457 41.2447C166.281 40.8539 168.148 40.5066 169.971 40.1159C174.617 39.2041 179.349 38.3792 184.124 37.5978C189.291 36.7729 194.37 36.0348 199.32 35.427" stroke="#1C2628" stroke-width="2.13" stroke-linecap="round" stroke-linejoin="round"/>
<path d="M228.842 328.958C204.486 335.427 180 344.067 154.819 342.547" stroke="#1C2628" stroke-width="2.13" stroke-linecap="round" stroke-linejoin="round"/>
<path d="M180.347 134.544C191.497 134.544 200.535 125.506 200.535 114.356C200.535 103.207 191.497 94.168 180.347 94.168C169.198 94.168 160.159 103.207 160.159 114.356C160.159 125.506 169.198 134.544 180.347 134.544Z" fill="#F3A13B"/>
<path d="M166.845 107.236C170.753 99.7686 180 96.9031 187.424 100.854" stroke="#1C2628" stroke-width="2.13" stroke-linecap="round" stroke-linejoin="round"/>
<path d="M170.579 109.19C173.401 103.806 180.087 101.722 185.47 104.588" stroke="#1C2628" stroke-width="2.13" stroke-linecap="round" stroke-linejoin="round"/>
<path d="M180.347 117.091C181.858 117.091 183.082 115.867 183.082 114.356C183.082 112.845 181.858 111.621 180.347 111.621C178.837 111.621 177.612 112.845 177.612 114.356C177.612 115.867 178.837 117.091 180.347 117.091Z" stroke="#1C2628" stroke-width="2.13" stroke-linecap="round" stroke-linejoin="round"/>
<path d="M181.563 128.944L176.093 139.363" stroke="#1C2628" stroke-width="2.13" stroke-linecap="round" stroke-linejoin="round"/>
<path d="M181.563 128.944C180.695 128.509 180.391 127.424 180.825 126.599L181.737 124.906C182.171 124.038 183.256 123.734 184.081 124.168C184.949 124.602 185.253 125.687 184.819 126.512L183.907 128.206C183.473 129.074 182.388 129.378 181.563 128.944Z" stroke="#1C2628" stroke-width="2.13" stroke-linecap="round" stroke-linejoin="round"/>
<path d="M146.093 139.797L177.048 155.557" stroke="#1C2628" stroke-width="2.13" stroke-linecap="round" stroke-linejoin="round"/>
<path d="M158.9 155.253L178.046 165.065" stroke="#1C2628" stroke-width="2.13" stroke-linecap="round" stroke-linejoin="round"/>
<path d="M137.713 144.443L158.9 155.253" stroke="black" stroke-width="6" stroke-linecap="round" stroke-linejoin="round"/>
<path d="M56.3097 209.653C54.3126 208.915 52.1418 208.958 50.3618 209.609C49.3198 209.957 48.4081 210.478 47.67 211.085C47.5398 210.608 47.453 210.13 47.3227 209.653C47.1056 208.741 46.8886 207.786 46.7149 206.831C47.5398 205.962 48.2779 205.007 48.9291 203.965C50.5789 201.577 51.7077 198.712 51.8379 195.76C51.9247 192.851 51.8813 189.855 50.7525 187.337C50.492 186.686 50.1881 186.252 49.6671 185.384C49.4935 185.08 49.1462 184.472 48.712 184.038C48.2779 183.56 47.4964 183.256 46.7149 183.386C45.1519 183.734 44.5007 184.732 44.0666 185.47C43.8495 185.861 43.7192 186.208 43.589 186.643C43.5022 186.86 43.4587 186.99 43.4153 187.164L43.3719 187.294C43.3285 187.424 43.3285 187.424 43.3285 187.467L43.2851 187.728C42.9812 189.248 43.1548 190.637 43.3285 191.939C43.5022 193.242 43.6758 194.501 43.8061 195.76C43.9797 197.757 44.2836 199.711 44.6744 201.664C44.0666 202.533 43.4153 203.401 42.7207 204.182L41.4182 205.659C40.9841 206.136 40.5499 206.7 40.0724 207.265C38.2923 209.522 36.903 212.084 36.165 214.949C35.3835 217.771 35.6874 221.114 37.2938 223.632C38.8567 226.194 41.3748 227.8 43.8929 228.582C46.3676 229.32 48.8857 229.494 51.2735 229.146C51.5774 230.362 51.8813 231.577 52.1418 232.706C53.097 235.702 52.2286 238.524 50.4052 239.566C49.0593 240.304 47.67 240.043 46.7583 239.566C46.8451 239.566 46.932 239.566 47.0622 239.566C48.4949 239.522 49.5803 238.307 49.4935 236.874C49.4501 235.441 48.2344 234.356 46.8017 234.443C45.369 234.486 44.2836 235.702 44.3705 237.135C44.3705 237.265 44.4139 237.352 44.4139 237.482C44.5007 238.003 44.7612 238.481 45.1085 238.828C45.1954 238.958 45.2822 239.045 45.4124 239.175C45.89 239.653 46.5412 240.13 47.453 240.391C48.3647 240.651 49.4935 240.695 50.7091 240.217C51.8813 239.74 52.9667 238.611 53.4009 237.135C53.6179 236.397 53.7482 235.615 53.6614 234.79C53.5745 233.922 53.4009 233.184 53.2272 232.402C52.9667 231.274 52.6628 230.101 52.3589 228.886C54.4862 228.452 56.4399 227.583 58.1765 226.411C60.0868 224.978 61.5195 222.894 61.9537 220.593C62.4312 218.292 61.9971 215.905 60.9985 213.951C60.0868 211.997 58.3502 210.391 56.3097 209.653ZM45.5861 190.072C45.89 189.03 46.411 186.165 48.0174 186.556C49.0159 186.816 49.2764 188.162 49.3198 189.03C49.4501 191.071 49.0593 193.198 48.191 195.065C47.3661 196.889 46.4978 198.582 45.4993 200.275C45.2822 198.755 45.1085 197.236 44.9783 195.673C44.8915 193.806 45.1085 191.896 45.5861 190.072ZM44.6744 226.585C42.5904 225.673 40.7236 224.197 39.7684 222.243C38.8133 220.333 38.8133 218.075 39.5948 215.948C40.3763 213.821 41.8524 211.867 43.4587 210.13C43.8495 209.696 44.2402 209.262 44.7612 208.784L45.4559 208.133C45.6295 207.96 45.7598 207.829 45.9334 207.656C46.1071 208.394 46.2807 209.132 46.411 209.87C46.5412 210.521 46.7149 211.129 46.8451 211.78C45.4124 213.213 44.5875 214.949 44.3271 216.469C43.8929 219.03 44.5875 220.984 45.1519 222.113C45.4124 222.677 45.7163 223.111 45.89 223.372C46.0637 223.632 46.1939 223.763 46.1939 223.763C46.1939 223.763 45.9768 223.111 45.7598 221.896C45.5861 220.724 45.4124 218.9 46.1505 216.947C46.4544 216.165 46.8886 215.34 47.5398 214.602C48.191 217.25 48.8423 219.855 49.4935 222.243C49.9711 224.11 50.4486 225.933 50.9262 227.627C48.7988 227.8 46.5847 227.453 44.6744 226.585ZM60.6512 220.42C60.521 222.373 59.3922 224.284 57.6121 225.499C56.0492 226.585 54.1389 227.279 52.0984 227.54C51.6208 225.76 51.0998 223.936 50.5354 221.983C49.7974 219.421 49.0593 216.686 48.3213 213.821C49.1027 213.126 50.0579 212.562 51.1867 212.258C53.7482 211.563 56.9609 212.388 59.0449 215.21C60.0868 216.643 60.7815 218.509 60.6512 220.42Z" fill="#1C2628" stroke="#1C2628" stroke-width="2.13" stroke-linecap="round" stroke-linejoin="round"/>
<path d="M133.372 166.02L126.946 155.166L139.537 154.993L133.372 166.02Z" fill="#1C2628" stroke="#1C2628" stroke-width="2.13" stroke-linecap="round" stroke-linejoin="round"/>
<path d="M161.114 181.563L173.748 181.433L167.279 170.579L161.114 181.563Z" fill="#1C2628" stroke="#1C2628" stroke-width="2.13" stroke-linecap="round" stroke-linejoin="round"/>
<path d="M149.617 160.683L143.434 171.699L146.652 173.505L152.835 162.489L149.617 160.683Z" fill="#1C2628" stroke="#1C2628" stroke-width="2.1299" stroke-miterlimit="3.9998" stroke-linecap="round" stroke-linejoin="round"/>
<path d="M155.117 163.76L148.934 174.777L152.152 176.583L158.335 165.566L155.117 163.76Z" fill="#1C2628" stroke="#1C2628" stroke-width="2.1299" stroke-miterlimit="3.9998" stroke-linecap="round" stroke-linejoin="round"/>
</svg>
