<svg width="33" height="41" viewBox="0 0 33 41" fill="none" xmlns="http://www.w3.org/2000/svg">
<path d="M4.33091 32.1362C0.951145 51.6962 22.5692 26.3609 13.9937 18" stroke="#1C2628" strokeWidth="2.13" strokeLinecap="round" strokeLinejoin="round"/>
<path d="M29.2552 12.0015C29.2421 14.0948 29.1529 16.2097 29.3167 18.3007C30.1545 16.2697 30.3765 14.118 30.4024 12.0071C30.3641 9.89138 30.1541 7.743 29.3167 5.70638C29.1664 7.79775 29.2421 9.90863 29.2552 12.0015ZM32.25 12.0075C32.2009 8.83913 31.9234 5.65013 30.9083 2.55862C30.9251 5.766 31.1149 8.97075 31.101 12.1789C31.0879 15.2696 30.9158 18.3596 30.9083 21.4489C31.9271 18.3611 32.2009 15.1736 32.25 12.0075ZM27.828 10.1794L27.7762 10.1681C27.582 5.2425 26.6168 1.5 25.4561 1.5C25.2326 1.5 25.017 1.64137 24.8119 1.90012C24.3664 2.39587 18.6469 8.65987 13.7483 9.2655C13.1749 9.33638 12.627 9.39525 12.1185 9.43762C11.5267 9.4875 10.9883 9.51525 10.524 9.51525C10.524 9.51525 9.75 10.7197 9.75 12.0082C9.75 13.2986 10.5255 14.5012 10.5255 14.5012C10.9897 14.5012 11.529 14.529 12.1207 14.5781C12.3364 14.5965 12.5621 14.619 12.7909 14.6426V19.6684H15.8216L18.7984 16.8874C22.1224 19.0796 24.831 22.1344 24.831 22.1344V22.1243C25.0301 22.3673 25.2397 22.5 25.4561 22.5C26.6168 22.5 27.582 18.7575 27.7766 13.8319L27.8284 13.821C28.1445 13.821 28.4014 13.005 28.4014 12.0004C28.401 10.9946 28.1441 10.1794 27.828 10.1794ZM25.4561 2.28675C25.992 2.75813 26.8234 5.49863 27.0203 10.002L23.9295 9.32363C24.1755 5.22638 24.9476 2.73338 25.4561 2.28675ZM14.3062 12.9623C13.9643 12.9623 13.686 12.6311 13.686 12.2242C13.686 11.8162 13.9643 11.4855 14.3062 11.4855C14.649 11.4855 14.9257 11.8162 14.9257 12.2242C14.9261 12.6315 14.649 12.9623 14.3062 12.9623ZM15.8216 16.836V15.3015C16.1925 15.4466 16.5638 15.6135 16.932 15.7987L15.8216 16.836ZM15.8216 14.5028V10.5904H14.0726C14.1364 10.359 14.2084 10.14 14.283 9.942C17.9843 9.26287 21.9161 5.86125 23.9704 3.8505C23.439 5.77537 23.0992 8.71012 23.0992 12C23.0992 15.2992 23.4409 18.2415 23.9756 20.1664C22.2098 18.438 19.0395 15.6686 15.8216 14.5028ZM25.4561 21.7132C24.948 21.2666 24.1755 18.7733 23.9295 14.676L27.0203 13.9976C26.8234 18.501 25.992 21.2419 25.4561 21.7132Z" fill="black"/>
</svg>
