<svg width="56" height="56" viewBox="0 0 56 56" fill="none" xmlns="http://www.w3.org/2000/svg">
<path d="M51.4763 33.25L48.475 30.2488C48.8164 29.548 48.9958 28.7795 49 28C49 26.9617 48.6921 25.9466 48.1152 25.0833C47.5383 24.2199 46.7184 23.547 45.7591 23.1496C44.7998 22.7523 43.7442 22.6483 42.7258 22.8509C41.7074 23.0535 40.7719 23.5535 40.0377 24.2877C39.3035 25.0219 38.8035 25.9574 38.6009 26.9758C38.3983 27.9942 38.5023 29.0498 38.8996 30.0091C39.297 30.9684 39.9699 31.7883 40.8333 32.3652C41.6966 32.9421 42.7117 33.25 43.75 33.25C44.5301 33.2461 45.2992 33.0667 46.0005 32.725L49 35.7245V49H38.5V43.75C38.4963 40.5022 37.2045 37.3886 34.908 35.092C32.6115 32.7955 29.4978 31.5037 26.25 31.5H15.75C12.5022 31.5037 9.38855 32.7955 7.09204 35.092C4.79552 37.3886 3.50371 40.5022 3.5 43.75V52.5H52.5V35.7245C52.5013 35.2649 52.4115 34.8095 52.2358 34.3848C52.06 33.9601 51.8019 33.5744 51.4763 33.25ZM7 43.75C7.00278 41.4302 7.92554 39.2062 9.56589 37.5659C11.2062 35.9255 13.4302 35.0028 15.75 35H26.25C28.5698 35.0028 30.7938 35.9255 32.4341 37.5659C34.0745 39.2062 34.9972 41.4302 35 43.75V49H7V43.75Z" fill="black"/>
<path d="M21 7C22.7306 7 24.4223 7.51318 25.8612 8.47464C27.3002 9.4361 28.4217 10.8027 29.084 12.4015C29.7462 14.0004 29.9195 15.7597 29.5819 17.457C29.2443 19.1544 28.4109 20.7135 27.1872 21.9372C25.9635 23.1609 24.4044 23.9943 22.707 24.3319C21.0097 24.6695 19.2504 24.4962 17.6515 23.8339C16.0527 23.1717 14.6861 22.0502 13.7246 20.6112C12.7632 19.1723 12.25 17.4806 12.25 15.75C12.25 13.4294 13.1719 11.2038 14.8128 9.56282C16.4538 7.92187 18.6794 7 21 7ZM21 3.5C18.5772 3.5 16.2088 4.21845 14.1943 5.5645C12.1798 6.91054 10.6097 8.82373 9.68248 11.0621C8.75531 13.3005 8.51272 15.7636 8.98539 18.1399C9.45805 20.5161 10.6248 22.6989 12.3379 24.4121C14.0511 26.1252 16.2339 27.292 18.6101 27.7646C20.9864 28.2373 23.4495 27.9947 25.6879 27.0675C27.9263 26.1404 29.8395 24.5702 31.1855 22.5557C32.5316 20.5412 33.25 18.1728 33.25 15.75C33.25 12.5011 31.9594 9.38526 29.6621 7.08794C27.3647 4.79062 24.2489 3.5 21 3.5Z" fill="black"/>
</svg>
