<svg width="424" height="254" viewBox="0 0 424 254" fill="none" xmlns="http://www.w3.org/2000/svg">
<path d="M294.514 -143.786C333.914 -110.586 364.714 -71.8864 390.114 -27.2864C415.414 17.2136 435.714 67.6136 415.114 102.214C394.914 136.814 334.314 155.614 294.214 181.014C254.514 206.014 235.314 237.914 207.914 248.514C180.814 259.114 145.914 249.214 99.014 249.214C52.414 249.214 -6.18596 259.114 -30.486 236.214C-54.786 213.614 -45.586 158.414 -47.986 108.114C-50.686 57.4136 -65.786 11.5136 -57.586 -31.2864C-49.686 -74.0864 -19.1859 -114.186 20.8141 -147.386C60.5141 -180.286 109.914 -206.686 158.214 -205.986C206.814 -205.086 255.114 -177.286 294.514 -143.786Z" fill="#F3A140" fill-opacity="0.89"/>
</svg>
