<svg width="445" height="445" viewBox="0 0 445 445" fill="none" xmlns="http://www.w3.org/2000/svg">
<path d="M118.381 126.323C173.38 138.636 222.813 160.629 269.986 191.075C317.012 221.474 362.166 260.124 359.655 304.101C357.531 347.876 308.227 396.727 282.148 441.628C256.255 485.938 253.738 526.588 232.506 550.713C211.565 574.687 172.701 582.709 127.194 606.398C81.9781 629.936 30.1192 669.141 -5.02594 659.196C-40.0195 649.541 -58.9746 591.333 -86.7101 543.74C-114.939 495.909 -152.775 459 -166.437 413.329C-180.39 367.81 -171.05 313.496 -149.008 261.078C-127.105 209.102 -92.5071 158.534 -45.2882 134.817C2.32283 111.142 63.2301 113.72 118.381 126.323Z" fill="#8049D1"/>
<path fillRule="evenodd" clipRule="evenodd" d="M88.9043 269.849L63.029 339.759C63.029 339.759 33.2665 342.543 29.4374 344.4C25.6084 346.256 48.1768 344.69 48.1768 344.69C48.1768 344.69 34.4269 347.417 30.8879 349.795C29.0893 351.014 56.009 350.376 56.009 350.376C56.009 350.376 26.3045 356.235 39.7064 358.382C45.7401 359.368 54.2685 355.133 60.9404 355.017C69.0627 354.901 75.1544 358.208 80.0278 351.652C88.9043 339.643 112.343 296.188 115.302 273.62C116.81 262.713 88.9043 269.849 88.9043 269.849Z" fill="#47584E" stroke="#1C2628" strokeWidth="1.23575" strokeLinecap="round" strokeLinejoin="round"/>
<path fillRule="evenodd" clipRule="evenodd" d="M290.918 213.515C290.048 212.586 287.611 212.644 287.727 211.368C288.307 205.566 291.846 192.629 296.255 188.22C299.794 184.68 296.313 197.212 298.75 196.4C302.463 195.181 307.22 186.711 308.729 186.421C311.398 185.899 316.387 188.103 319.056 188.568C320.158 188.742 323.175 187.929 324.045 188.568C324.335 188.8 324.509 189.264 324.393 189.612C323.929 191.584 316.619 200.403 315.111 203.188C307.627 216.996 306.988 231.21 290.918 213.515Z" fill="#47584E" stroke="#1C2628" strokeWidth="1.23575" strokeLinecap="round" strokeLinejoin="round"/>
<path fillRule="evenodd" clipRule="evenodd" d="M314.356 346.779L382.294 350.434L394.477 345.85L392.157 303.092L384.324 286.848L372.315 320.903L319.23 314.579" fill="#47584E"/>
<path d="M314.356 346.779L382.294 350.434L394.477 345.85L392.157 303.092L384.324 286.848L372.315 320.903L319.23 314.579" stroke="#1C2628" strokeWidth="1.23575" strokeLinecap="round" strokeLinejoin="round"/>
<path fillRule="evenodd" clipRule="evenodd" d="M378 352.812L395.405 355.249L399.699 354.205L396.044 277.333L392.099 275.302C392.099 275.302 383.454 270.835 381.423 288.588C380.669 294.912 391.112 314.405 391.112 314.405L391.924 333.087L378 352.812Z" fill="#1C2628" stroke="#1C2628" strokeWidth="1.23575" strokeLinecap="round" strokeLinejoin="round"/>
<path fillRule="evenodd" clipRule="evenodd" d="M310.701 221.115C304.726 242.407 292.426 275.998 265.507 290.154C238.587 304.369 215.554 282.67 215.554 282.67L123.366 301.7L122.264 261.494L108.108 297.116L89.9487 336.394C89.9487 336.394 61.2305 337.496 59.258 324.21C57.2854 310.924 78.0553 278.319 78.0553 278.319C78.0553 278.319 78.5194 276.927 79.4477 274.49C84.2051 261.668 101.262 220.361 126.151 210.556C135.898 206.727 142.744 205.102 148.487 204.696C160.207 203.768 167.401 207.597 185.56 206.959L255.528 244.844L285.87 204.174C285.812 204.174 312.268 215.371 310.701 221.115Z" fill="#1C2628" stroke="#1C2628" strokeWidth="1.23575" strokeLinecap="round" strokeLinejoin="round"/>
<path fillRule="evenodd" clipRule="evenodd" d="M132.707 224.364C126.557 225.408 119.421 226.626 115.94 231.732C110.893 239.216 117.564 249.543 112.981 252.734C110.312 254.59 107.76 251.225 103.582 252.85C98.593 254.764 99.1732 260.508 92.9074 269.617C90.1226 273.62 86.1195 279.421 82.8706 278.725C81.3621 278.435 80.2598 276.753 79.5056 274.548C84.263 261.726 101.32 220.419 126.209 210.614C135.956 206.785 142.802 205.16 148.545 204.754C153.013 210.556 143.556 222.507 132.707 224.364Z" fill="#FAF6EB"/>
<path fillRule="evenodd" clipRule="evenodd" d="M187.3 176.848C192.232 160.952 185.734 148.652 163.049 151.553C160.381 151.901 157.248 152.191 154.927 153.584C128.123 168.726 132.997 198.895 132.997 198.895L169.083 197.038L178.946 184.913L187.3 176.848Z" fill="#FAF6EB"/>
<path fillRule="evenodd" clipRule="evenodd" d="M159.394 187.581L159.626 201.563L150.808 207.945L175.813 228.947L185.792 210.266L181.151 192.397L181.557 186.189L159.394 187.581Z" fill="#47584E" stroke="#1C2628" strokeWidth="1.23575" strokeLinecap="round" strokeLinejoin="round"/>
<path fillRule="evenodd" clipRule="evenodd" d="M156.552 179.227C155.565 175.746 155.913 168.726 156.784 165.535C158.35 159.791 159.975 162.286 165.834 160.662C172.39 158.863 175.523 156.252 179.816 161.474C181.499 163.504 186.43 171.105 187.184 173.889C189.853 183.694 184.69 193.673 175.581 196.168C169.779 197.792 165.022 197.27 160.729 193.151C158.35 190.888 157.538 182.766 156.552 179.227Z" fill="#47584E" stroke="#1C2628" strokeWidth="1.23575" strokeLinecap="round" strokeLinejoin="round"/>
<path fillRule="evenodd" clipRule="evenodd" d="M168.619 176.5C168.155 175.166 169.431 173.541 171.404 172.845C173.376 172.207 175.349 172.787 175.813 174.122C176.277 175.456 175.001 177.08 173.028 177.777C171.056 178.415 169.083 177.835 168.619 176.5Z" fill="#FAFCFF" stroke="#1C2628" strokeWidth="1.23575" strokeLinecap="round" strokeLinejoin="round"/>
<path fillRule="evenodd" clipRule="evenodd" d="M181.557 172.903C181.093 171.569 182.369 169.944 184.341 169.248C186.314 168.61 188.287 169.19 188.751 170.524C189.215 171.859 187.938 173.483 185.966 174.18C183.935 174.818 181.963 174.238 181.557 172.903Z" fill="#FAFCFF" stroke="#1C2628" strokeWidth="1.23575" strokeLinecap="round" strokeLinejoin="round"/>
<path fillRule="evenodd" clipRule="evenodd" d="M161.425 203.188L159.975 188.916C159.975 188.916 171.52 186.363 174.247 189.38C176.973 192.397 174.073 202.201 174.073 202.201L167.169 203.246" fill="#49574E"/>
<path fillRule="evenodd" clipRule="evenodd" d="M149.648 177.777C154.289 185.319 157.016 171.685 157.016 171.685L175.581 167.276L176.335 160.372L181.209 168.378L187.822 168.204C187.822 168.204 182.543 155.034 181.267 153.758C175.871 148.594 166.588 148.884 160.671 153.816C155.681 158.051 143.962 167.74 149.648 177.777Z" fill="#FAF6EB"/>
<path fillRule="evenodd" clipRule="evenodd" d="M158.35 180.271C157.074 178.705 154.463 180.271 153.941 181.78C152.954 184.913 155.333 190.25 160.265 187.059" fill="#47584E"/>
<path d="M158.35 180.271C157.074 178.705 154.463 180.271 153.941 181.78C152.954 184.913 155.333 190.25 160.265 187.059" stroke="#1C2628" strokeWidth="1.23575" strokeLinecap="round" strokeLinejoin="round"/>
<path fillRule="evenodd" clipRule="evenodd" d="M174.537 176.732C173.608 177.37 172.39 177.196 171.926 176.442C171.462 175.688 171.81 174.528 172.738 173.947C173.666 173.309 174.885 173.483 175.349 174.238C175.871 174.992 175.465 176.094 174.537 176.732Z" fill="#1C2628" stroke="#1C2628" strokeWidth="1.23575" strokeLinecap="round" strokeLinejoin="round"/>
<path fillRule="evenodd" clipRule="evenodd" d="M185.27 173.077C184.632 172.149 184.806 170.582 187.3 170.118C188.171 169.944 188.113 170.408 188.751 171.337C189.389 172.265 188.519 173.309 187.765 173.831C187.01 174.354 185.85 174.005 185.27 173.077Z" fill="#1C2628" stroke="#1C2628" strokeWidth="1.23575" strokeLinecap="round" strokeLinejoin="round"/>
<path d="M157.074 183.346C157.19 183.462 157.248 183.578 157.364 183.694" stroke="#1C2628" strokeWidth="1.23575" strokeLinecap="round" strokeLinejoin="round"/>
<path fillRule="evenodd" clipRule="evenodd" d="M173.376 181.374C174.653 184.042 178.308 183.114 180.919 184.042C180.919 184.042 178.888 188.51 174.479 186.131C171.636 184.622 173.376 181.374 173.376 181.374Z" fill="#1C2628" stroke="#1C2628" strokeWidth="1.23575" strokeLinecap="round" strokeLinejoin="round"/>
<path fillRule="evenodd" clipRule="evenodd" d="M178.424 175.456C181.847 174.876 184.864 172.497 185.908 174.18C187.3 176.442 182.775 180.097 182.079 180.213" fill="#47584E"/>
<path d="M178.424 175.456C181.847 174.876 184.864 172.497 185.908 174.18C187.3 176.442 182.775 180.097 182.079 180.213" stroke="#1C2628" strokeWidth="1.23575" strokeLinecap="round" strokeLinejoin="round"/>
<path d="M170.069 157.877C168.445 160.894 168.793 165.709 168.213 169.074" stroke="#1C2628" strokeWidth="1.23575" strokeLinecap="round" strokeLinejoin="round"/>
<path fillRule="evenodd" clipRule="evenodd" d="M335.997 348.577L333.502 348.461L217.875 343.007C217.875 343.007 177.612 344.516 153.187 339.527C146.167 338.076 140.481 336.104 137.406 333.377C123.656 321.135 123.772 294.216 123.772 294.216L195.481 278.319L204.763 288.762L333.966 314.986L335.997 348.577Z" fill="#BF99F5" stroke="#1C2628" strokeWidth="1.23575" strokeLinecap="round" strokeLinejoin="round"/>
<path fillRule="evenodd" clipRule="evenodd" d="M333.502 348.461L217.875 343.008C217.875 343.008 177.612 344.516 153.187 339.527C154.289 330.766 156.958 322.644 163.049 319.859C170.069 316.668 175.233 323.456 189.447 325.371C207.548 327.807 209.753 318.118 231.451 318.176C249.61 318.176 265.391 324.906 268.814 326.473C279.489 331.172 280.127 333.957 287.901 335.465C303.681 338.598 310.817 329.142 320.158 332.623C326.018 334.711 330.775 341.209 333.502 348.461Z" fill="#1C2628" stroke="#1C2628" strokeWidth="1.23575" strokeLinecap="round" strokeLinejoin="round"/>
<path fillRule="evenodd" clipRule="evenodd" d="M212.073 328.503L209.521 350.666L216.657 364.067L256.978 364.764L272.759 358.15L239.863 343.24L245.665 324.674" fill="#47584E"/>
<path d="M212.073 328.503L209.521 350.666L216.657 364.067L256.978 364.764L272.759 358.15L239.863 343.24L245.665 324.674" stroke="#1C2628" strokeWidth="1.23575" strokeLinecap="round" strokeLinejoin="round"/>
<path fillRule="evenodd" clipRule="evenodd" d="M256.108 337.554L205.111 337.322L212.305 300.191L173.086 293.055C173.086 293.055 203.371 235.329 222.748 218.562C224.083 217.402 225.359 216.357 226.636 215.371C244.04 201.969 257.094 203.768 265.158 217.518C265.971 218.91 266.551 221.173 266.957 224.016C270.554 251.399 256.108 337.554 256.108 337.554Z" fill="#BF99F5" stroke="#1C2628" strokeWidth="1.23575" strokeLinecap="round" strokeLinejoin="round"/>
<path fillRule="evenodd" clipRule="evenodd" d="M186.72 305.587C186.952 306.457 191.536 305.529 190.665 305.355C186.14 304.601 181.905 302.57 177.67 300.771C173.957 299.205 170.127 301.41 168.155 297.929C161.193 285.861 174.595 283.773 182.137 280.988C188.925 278.435 203.197 262.423 210.797 267.586C214.104 269.849 210.623 278.087 209.811 280.698C206.794 290.445 184.225 296.478 186.72 305.587Z" fill="#BF99F5"/>
<path fillRule="evenodd" clipRule="evenodd" d="M207.548 346.14L203.603 363.255L204.241 367.606L281.171 370.565L283.55 366.852C283.55 366.852 288.713 358.614 271.25 355.075C265.042 353.799 243.982 362.153 243.982 362.153L227.158 361.109L207.548 346.14Z" fill="#1C2628" stroke="#1C2628" strokeWidth="1.23575" strokeLinecap="round" strokeLinejoin="round"/>
<path d="M215.844 269.675L211.957 300.888" stroke="#1C2628" strokeWidth="1.23575" strokeLinecap="round" strokeLinejoin="round"/>
<path fillRule="evenodd" clipRule="evenodd" d="M211.319 353.218L258.37 362.153L211.319 353.218Z" fill="#BF99F5"/>
<path d="M211.319 353.218L258.37 362.153" stroke="#1C2628" strokeWidth="1.23575" strokeLinecap="round" strokeLinejoin="round"/>
<path fillRule="evenodd" clipRule="evenodd" d="M383.686 347.011L391.054 307.037L383.686 347.011Z" fill="#BF99F5"/>
<path d="M383.686 347.011L391.054 307.037" stroke="#1C2628" strokeWidth="1.23575" strokeLinecap="round" strokeLinejoin="round"/>
<path d="M130.328 250.239C128.994 256.099 124.701 259.696 121.974 264.801" stroke="#FAF6EB" strokeWidth="1.23575" strokeLinecap="round" strokeLinejoin="round"/>
<path d="M64.1312 322.122C70.7451 325.893 73.6459 328.155 81.3041 328.503" stroke="#FAF6EB" strokeWidth="1.23575" strokeLinecap="round" strokeLinejoin="round"/>
<path d="M289.351 212.702C294.051 215.081 297.764 218.91 302.173 221.811" stroke="#FAF6EB" strokeWidth="1.23575" strokeLinecap="round" strokeLinejoin="round"/>
<path fillRule="evenodd" clipRule="evenodd" d="M296.603 200.113C296.081 198.72 298.982 163.911 301.071 161.706C304.552 157.935 319.636 163.562 320.1 164.955C322.015 170.757 316.851 203.362 314.124 204.58C311.34 205.74 298.112 204.058 296.603 200.113Z" fill="#1C2628" stroke="#1C2628" strokeWidth="1.23575" strokeLinecap="round" strokeLinejoin="round"/>
<path fillRule="evenodd" clipRule="evenodd" d="M305.654 185.145C305.596 188.8 309.599 190.018 311.92 197.386C312.442 198.953 300.665 203.536 300.839 204.812C301.419 209.686 312.268 209.512 312.268 209.512C312.268 209.512 322.189 199.011 325.322 193.093C329.035 186.189 315.807 174.121 314.937 176.326C314.298 178.009 319.578 183.752 319.578 185.203C319.578 186.363 321.318 191.584 320.1 191.584C319.114 191.584 319.578 189.67 319.404 188.742C319.056 187.117 312.616 177.254 310.701 179.807C308.613 182.592 315.169 186.769 315.459 189.786C315.575 191.062 316.039 194.891 315.459 193.731C315.401 193.731 305.828 176.326 305.654 185.145Z" fill="#47584E" stroke="#1C2628" strokeWidth="1.23575" strokeLinecap="round" strokeLinejoin="round"/>
<path fillRule="evenodd" clipRule="evenodd" d="M294.167 202.84C294.399 200.983 312.5 198.314 313.428 197.792C321.086 193.325 310.992 211.774 307.627 212.122" fill="#49574E"/>
<path d="M158.292 185.725C160.207 191.468 160.033 195.53 163.282 200.461C165.602 203.942 171.056 205.682 174.769 206.089C178.888 206.495 182.311 207.829 186.546 206.959C196.989 204.87 206.446 195.298 216.947 194.543C232.437 193.441 248.682 200.171 263.882 196.632C272.469 194.601 286.915 171.395 296.313 183.926" stroke="#1C2628" strokeWidth="1.23575" strokeLinecap="round" strokeLinejoin="round"/>
<path d="M190.433 181.316C191.245 183.81 197.395 191.178 199.89 192.223C203.429 193.731 206.504 190.772 209.637 189.844C214.684 188.394 222.052 190.772 225.591 194.311" stroke="#1C2628" strokeWidth="1.23575" strokeLinecap="round" strokeLinejoin="round"/>
<path d="M303.507 167.218C301.941 166.115 302.985 164.085 304.61 164.259C306.35 164.433 305.77 168.842 303.507 167.218Z" stroke="#FAF6EB" strokeWidth="1.23575" strokeLinecap="round" strokeLinejoin="round"/>
<path d="M303.275 172.613C302.753 170.989 304.552 169.712 305.19 171.163C305.828 172.729 303.797 174.238 303.275 172.613Z" stroke="#FAF6EB" strokeWidth="1.23575" strokeLinecap="round" strokeLinejoin="round"/>
<path d="M308.903 168.204C308.033 168.32 308.091 166.463 308.845 165.999C310.469 165.129 311.34 167.856 308.903 168.204Z" stroke="#FAF6EB" strokeWidth="1.23575" strokeLinecap="round" strokeLinejoin="round"/>
<path d="M158.118 185.493C157.712 185.783 157.364 185.203 157.248 184.739C156.842 183.172 161.077 183.288 158.118 185.493Z" stroke="#1C2628" strokeWidth="1.23575" strokeLinecap="round" strokeLinejoin="round"/>
<path d="M189.795 181.025C187.648 181.199 190.839 175.862 190.259 179.981C190.143 180.677 190.259 180.967 189.795 181.025Z" stroke="#1C2628" strokeWidth="1.23575" strokeLinecap="round" strokeLinejoin="round"/>
<path d="M84.7272 262.887C87.686 267.296 86.1776 273.446 86.0035 278.725C85.8295 283.483 78.6934 288.82 70.8612 290.793" stroke="#FAF6EB" strokeWidth="1.23575" strokeLinecap="round" strokeLinejoin="round"/>
<path d="M125.049 287.486C127.485 282.612 134.737 288.53 136.71 290.793" stroke="#FAF6EB" strokeWidth="1.23575" strokeLinecap="round" strokeLinejoin="round"/>
<path fillRule="evenodd" clipRule="evenodd" d="M222.806 330.418C220.95 339.817 204.299 357.57 204.299 357.57C204.299 357.57 202.617 364.067 192.812 365.924C192.058 366.098 191.245 366.156 190.317 366.272C188.635 366.446 176.277 370.275 165.196 370.275C129.516 370.275 118.087 357.976 118.087 357.976C118.087 357.976 115.882 357.28 113.271 356.757C110.37 356.235 107.064 355.945 105.845 357.28C103.06 360.296 101.9 364.822 100.798 363.371C100.044 362.385 99.1153 357.976 102.074 353.741C103.699 351.362 109.964 347.939 109.964 347.939L110.37 339.933L104.975 316.32C104.975 316.32 113.909 309.59 116.578 312.201C119.247 314.812 111.995 323.63 115.708 326.879C119.421 330.128 124.759 330.534 124.759 330.534C124.759 330.534 129.458 326.067 127.949 323.108C126.441 320.207 126.325 314.173 126.325 314.173C126.325 314.173 136.884 309.706 138.683 311.098C140.481 312.491 133.519 319.801 133.519 319.801C133.519 319.801 143.208 317.19 143.846 322.47C144.136 324.558 143.672 331.23 143.672 331.23C144.078 331.346 145.528 331.752 149.996 332.971C153.071 333.841 155.797 335.059 158.002 336.22C158.524 336.8 159.336 337.206 160.265 337.554C162.411 338.888 163.63 339.933 163.63 339.933L166.821 338.598C166.821 338.598 163.049 338.54 160.265 337.554C159.568 337.148 158.814 336.684 158.002 336.22C157.364 335.523 157.19 334.711 157.654 333.609C159.859 328.793 169.083 328.561 172.796 329.026C176.915 329.548 178.714 332.855 178.714 332.855C178.714 332.855 188.055 328.968 194.842 326.357C201.688 323.804 201.746 331.114 201.746 331.114L190.491 337.612C190.723 337.554 194.494 336.394 198.439 334.711C202.153 333.145 224.721 321.019 222.806 330.418Z" fill="#F3A140" stroke="#1C2628" strokeWidth="1.23575" strokeLinecap="round" strokeLinejoin="round"/>
<path fillRule="evenodd" clipRule="evenodd" d="M195.887 351.826C196.235 359.774 198.324 374.51 204.937 380.08C213.466 387.332 215.67 370.623 213.582 365.576C209.637 356.119 210.159 357.512 206.272 349.505" fill="#F3A140"/>
<path d="M195.887 351.826C196.235 359.774 198.324 374.51 204.937 380.08C213.466 387.332 215.67 370.623 213.582 365.576C209.637 356.119 210.159 357.512 206.272 349.505" stroke="#1C2628" strokeWidth="1.23575" strokeLinecap="round" strokeLinejoin="round"/>
<path fillRule="evenodd" clipRule="evenodd" d="M124.236 330.244C128.124 329.838 131.721 335.059 131.547 338.714C131.43 341.325 130.386 343.414 129.806 345.85" fill="#F3A140"/>
<path d="M124.236 330.244C128.124 329.838 131.721 335.059 131.547 338.714C131.43 341.325 130.386 343.414 129.806 345.85" stroke="#1C2628" strokeWidth="1.23575" strokeLinecap="round" strokeLinejoin="round"/>
<path fillRule="evenodd" clipRule="evenodd" d="M157.016 334.247C156.436 339.236 166.646 337.844 169.257 337.148C170.359 336.858 171.52 336.626 172.564 336.278C172.564 336.278 174.073 336.046 174.015 336.104C173.782 336.452 172.564 336.916 172.274 337.032C171.056 337.496 169.779 337.902 168.561 338.424C167.053 339.062 165.486 339.643 163.92 340.223C162.701 340.687 163.63 344.69 161.019 346.082" fill="#F3A140"/>
<path d="M157.016 334.247C156.436 339.236 166.646 337.844 169.257 337.148C170.359 336.858 171.52 336.626 172.564 336.278C172.564 336.278 174.073 336.046 174.015 336.104C173.782 336.452 172.564 336.916 172.274 337.032C171.056 337.496 169.779 337.902 168.561 338.424C167.053 339.062 165.486 339.643 163.92 340.223C162.701 340.687 163.63 344.69 161.019 346.082" stroke="#1C2628" strokeWidth="1.23575" strokeLinecap="round" strokeLinejoin="round"/>
<path fillRule="evenodd" clipRule="evenodd" d="M183.181 335.465C182.137 339.062 183.877 340.223 192 336.742L183.181 335.465Z" fill="#F3A140"/>
<path d="M183.181 335.465C182.137 339.062 183.877 340.223 192 336.742" stroke="#1C2628" strokeWidth="1.23575" strokeLinecap="round" strokeLinejoin="round"/>
<path fillRule="evenodd" clipRule="evenodd" d="M200.18 354.089C199.484 357.57 201.05 361.167 201.688 364.706C202.327 368.129 204.183 373.64 206.736 376.077C212.654 381.763 212.712 370.333 212.537 367.665" fill="#F3A140"/>
<path d="M200.18 354.089C199.484 357.57 201.05 361.167 201.688 364.706C202.327 368.129 204.183 373.64 206.736 376.077C212.654 381.763 212.712 370.333 212.537 367.665" stroke="#1C2628" strokeWidth="1.23575" strokeLinecap="round" strokeLinejoin="round"/>
<path fillRule="evenodd" clipRule="evenodd" d="M211.783 342.195L212.421 341.093L213.93 340.223L213.466 342.079L212.769 342.659L212.247 342.485" fill="#FAF6EB"/>
<path d="M211.783 342.195L212.421 341.093L213.93 340.223L213.466 342.079L212.769 342.659L212.247 342.485" stroke="#1C2628" strokeWidth="1.23575" strokeLinecap="round" strokeLinejoin="round"/>
<path fillRule="evenodd" clipRule="evenodd" d="M217.817 327.865C217.353 329.084 215.844 332.797 217.701 333.609C218.339 333.899 220.834 333.551 221.24 332.855C221.588 332.332 221.994 330.476 221.588 330.94C221.066 331.52 220.022 333.841 218.687 332.797C217.353 331.81 219.848 325.951 221.298 326.531C223.096 327.285 219.441 333.377 218.049 331.578C216.193 329.258 223.387 325.487 221.762 329.432C221.472 330.186 220.544 331.056 219.964 331.694" fill="#FAF6EB"/>
<path d="M217.817 327.865C217.353 329.084 215.844 332.797 217.701 333.609C218.339 333.899 220.834 333.551 221.24 332.855C221.588 332.332 221.994 330.476 221.588 330.94C221.066 331.52 220.022 333.841 218.687 332.797C217.353 331.81 219.848 325.951 221.298 326.531C223.096 327.285 219.441 333.377 218.049 331.578C216.193 329.258 223.387 325.487 221.762 329.432C221.472 330.186 220.544 331.056 219.964 331.694" stroke="#1C2628" strokeWidth="1.23575" strokeLinecap="round" strokeLinejoin="round"/>
<path d="M148.487 212.644C158.524 221.811 176.741 238.694 177.844 237.882C181.035 235.561 184.922 224.248 186.372 220.535" stroke="#FAF6EB" strokeWidth="1.23575" strokeLinecap="round" strokeLinejoin="round"/>
<path d="M142.802 207.539C143.904 208.409 145.935 210.266 148.545 212.644" stroke="#1C2628" strokeWidth="1.23575" strokeLinecap="round" strokeLinejoin="round"/>
</svg>
