<svg width="259" height="736" viewBox="0 0 259 736" fill="none" xmlns="http://www.w3.org/2000/svg">
<path d="M258.87 367.94C258.797 375.929 257.691 383.875 255.58 391.58C253.449 399.344 250.83 406.965 247.74 414.4C244.74 421.91 241.43 429.34 238.41 436.75C235.359 443.99 232.767 451.414 230.65 458.98C228.654 466.784 227.131 474.702 226.09 482.69C224.95 490.74 224.04 498.88 222.9 506.9C221.863 514.817 220.336 522.662 218.33 530.39C216.377 537.923 213.452 545.171 209.63 551.95C205.616 558.717 200.742 564.935 195.13 570.45C189.411 576.066 183.349 581.323 176.98 586.19C170.59 591.19 163.98 596 157.63 600.97C144.817 610.49 133.47 621.837 123.95 634.65C118.95 641.02 114.16 647.65 109.17 653.99C104.309 660.363 99.0516 666.425 93.4301 672.14C87.9196 677.754 81.7005 682.625 74.9301 686.63C68.1528 690.456 60.9048 693.381 53.3701 695.33C45.642 697.337 37.7969 698.863 29.88 699.9C21.88 701.04 13.73 701.95 5.67001 703.09C-2.31393 704.135 -10.2281 705.658 -18.03 707.65C-25.5944 709.775 -33.0188 712.37 -40.26 715.42C-47.67 718.42 -55.0999 721.72 -62.61 724.75C-70.0427 727.845 -77.6647 730.463 -85.43 732.59C-100.883 736.99 -117.257 736.99 -132.71 732.59C-140.475 730.463 -148.097 727.845 -155.53 724.75C-163.04 721.75 -170.47 718.44 -177.88 715.42C-185.121 712.374 -192.546 709.782 -200.11 707.66C-207.912 705.668 -215.826 704.145 -223.81 703.1C-231.87 701.96 -240.01 701.05 -248.02 699.91C-255.937 698.873 -263.782 697.347 -271.51 695.34C-279.045 693.391 -286.293 690.466 -293.07 686.64C-299.841 682.632 -306.06 677.757 -311.57 672.14C-317.174 666.424 -322.415 660.362 -327.26 653.99C-332.26 647.61 -337.08 640.99 -342.04 634.65C-346.867 628.309 -352.081 622.27 -357.65 616.57C-363.347 611.003 -369.382 605.794 -375.72 600.97C-382.1 595.97 -388.72 591.18 -395.07 586.19C-401.455 581.327 -407.53 576.07 -413.26 570.45C-418.872 564.935 -423.746 558.717 -427.76 551.95C-431.58 545.17 -434.504 537.922 -436.46 530.39C-438.466 522.662 -439.993 514.817 -441.03 506.9C-442.17 498.9 -443.08 490.74 -444.22 482.69C-445.26 474.702 -446.783 466.784 -448.78 458.98C-450.897 451.414 -453.489 443.99 -456.54 436.75C-459.54 429.34 -462.84 421.91 -465.87 414.4C-468.96 406.965 -471.579 399.344 -473.71 391.58C-478.097 376.129 -478.097 359.761 -473.71 344.31C-471.579 336.546 -468.96 328.924 -465.87 321.49C-462.87 313.98 -459.56 306.55 -456.54 299.14C-453.489 291.9 -450.897 284.475 -448.78 276.91C-446.798 269.105 -445.288 261.187 -444.26 253.2C-443.12 245.15 -442.21 237.01 -441.07 228.99C-440.033 221.073 -438.506 213.228 -436.5 205.5C-434.547 197.967 -431.622 190.719 -427.8 183.94C-423.773 177.171 -418.886 170.952 -413.26 165.44C-407.543 159.821 -401.481 154.564 -395.11 149.7C-388.72 144.7 -382.11 139.89 -375.76 134.92C-369.424 130.093 -363.389 124.884 -357.69 119.32C-352.123 113.617 -346.91 107.579 -342.08 101.24C-337.08 94.8699 -332.29 88.2399 -327.3 81.8899C-322.436 75.5181 -317.179 69.4563 -311.56 63.7399C-306.047 58.1259 -299.828 53.2518 -293.06 49.2399C-286.282 45.4167 -279.034 42.4953 -271.5 40.5499C-263.772 38.5426 -255.927 37.0163 -248.01 35.9799C-240.01 34.8399 -231.86 33.9299 -223.8 32.7899C-215.813 31.7434 -207.895 30.2207 -200.09 28.2299C-192.53 26.1063 -185.109 23.5147 -177.87 20.4699C-170.46 17.4699 -163.03 14.1699 -155.52 11.1399C-148.087 8.04198 -140.465 5.42002 -132.7 3.28986C-117.245 -1.09662 -100.875 -1.09662 -85.42 3.28986C-77.6579 5.42042 -70.0392 8.04238 -62.61 11.1399C-55.0999 14.1399 -47.67 17.4499 -40.26 20.4699C-33.0185 23.5162 -25.5941 26.1079 -18.03 28.2299C-10.2281 30.2216 -2.31393 31.7443 5.67001 32.7899C13.73 33.9299 21.87 34.7899 29.88 35.9799C37.8001 37.0173 45.6484 38.5435 53.3801 40.5499C60.9092 42.5016 68.1531 45.4227 74.9301 49.2399C81.6985 53.2518 87.9172 58.1259 93.4301 63.7399C99.0519 69.4576 104.309 75.5229 109.17 81.8999C114.17 88.2799 118.99 94.8999 123.95 101.24C128.777 107.581 133.991 113.619 139.56 119.32C145.257 124.886 151.292 130.096 157.63 134.92C164.01 139.92 170.63 144.71 176.98 149.7C183.351 154.564 189.413 159.821 195.13 165.44C200.742 170.955 205.616 177.173 209.63 183.94C213.452 190.719 216.377 197.967 218.33 205.5C220.336 213.228 221.863 221.073 222.9 228.99C224.04 236.99 224.95 245.15 226.09 253.2C227.132 261.188 228.654 269.105 230.65 276.91C232.767 284.475 235.359 291.9 238.41 299.14C241.41 306.55 244.71 313.98 247.74 321.49C250.83 328.924 253.449 336.546 255.58 344.31C257.69 352.012 258.796 359.954 258.87 367.94Z" fill="#8873EF" fill-opacity="0.82"/>
</svg>
