<svg width="358" height="492" viewBox="0 0 358 492" fill="none" xmlns="http://www.w3.org/2000/svg">
<path fill-rule="evenodd" clip-rule="evenodd" d="M878.465 193.201C771.353 98.3795 634.637 244.604 561.614 203.518C488.502 162.521 600.817 81.5143 586.194 28.9452C571.572 -23.624 484.286 -0.83799 410.635 67.0713C348.108 124.933 306.214 288.023 161.514 298.25C-35.3059 312.065 86.9667 533.824 105.536 554.009C113.072 664.35 479.082 749.214 567.176 450.037C615.888 284.525 925.561 388.766 878.465 193.201Z" fill="#C6FCDB"/>
<path d="M303.103 422.051C274.134 435.194 221.211 413.963 182.56 407.819C143.908 401.87 119.955 411.202 111.828 400.664C103.701 390.126 111.439 359.796 97.9456 334.56C84.4525 309.323 49.4171 289.336 36.4295 256.167C23.2085 223.232 32.0354 177.075 59.6827 155.416C87.33 133.952 134.07 136.712 159.19 161.988C184.543 186.991 188.548 234.508 215.34 263.439C242.404 292.136 292.293 302.479 314.691 331.527C337.089 360.574 332.073 408.675 303.103 422.051Z" fill="#C6FCDB"/>
<path d="M24.686 204.528C29.3134 196.401 36.896 194.301 49.9224 198.773C47.2783 192.824 55.1719 181.08 67.7707 193.523C63.9988 173.575 93.9015 171.281 92.4238 190.568C99.8898 181.236 119.643 186.563 111.983 197.684C123.532 194.807 128.198 197.49 135.781 204.567H24.686V204.528Z" fill="#FAF6EB"/>
<path d="M113.422 232.836H67.8876C66.1767 226.965 67.2266 220.315 85.8137 225.681C91.6464 214.832 103.001 225.643 113.422 232.836Z" fill="#FAF6EB"/>
<path d="M342.222 375.35H257.88C260.485 367.573 275.728 361.157 294.704 366.523C300.265 356.219 309.208 358.085 317.607 369.595C328.728 362.674 340.705 372.823 342.222 375.35Z" fill="#FAF6EB"/>
<path fill-rule="evenodd" clip-rule="evenodd" d="M254.03 380.794C246.681 383.127 250.414 389.66 248.547 396.542C248.197 397.826 247.692 398.992 247.186 400.159L246.759 401.092L247.925 402.57L245.942 402.92C245.942 402.92 245.748 403.347 245.67 403.581C245.087 405.175 244.659 406.847 244.814 408.791C245.242 414.935 251.036 419.135 257.452 418.046C260.057 417.618 261.768 416.763 262.974 415.946L262.702 412.757L265.035 413.419C265.035 413.419 266.357 410.152 265.968 406.925C265.424 402.531 262.935 397.437 261.807 393.859C260.446 389.465 261.613 378.383 254.03 380.794Z" fill="#FAF6EB"/>
<path fill-rule="evenodd" clip-rule="evenodd" d="M255.236 393.743L255.469 424.773L255.236 393.743Z" fill="#FAF6EB"/>
<path d="M255.236 393.743L255.469 424.773" stroke="#1C2628" stroke-width="0.828252" stroke-linecap="round" stroke-linejoin="round"/>
<path d="M105.45 242.83C113.655 248.235 118.243 259.123 113.266 274.677C108.872 288.325 89.1574 301.235 107.706 313.951C138.503 335.143 186.37 295.091 198.891 278.837C216.739 255.701 241.898 264.178 237.348 272.149C230.971 283.27 227.51 289.531 244.192 294.314C266.823 300.769 303.764 275.338 311.113 312.706C311.969 317.022 311.852 321.455 312.241 325.811" stroke="#1C2628" stroke-width="0.828252" stroke-linecap="round" stroke-linejoin="round"/>
<path fill-rule="evenodd" clip-rule="evenodd" d="M143.908 271.877C136.442 276.31 128.82 280.548 121.471 285.215C104.167 296.18 114.044 316.245 109.689 322.544C98.7234 338.487 77.3366 343.075 68.9763 361.118C63.1435 373.717 73.5259 386.277 83.2082 393.004C85.0747 394.326 87.1745 396.115 89.4299 395.881C93.8239 395.415 97.3624 391.643 101.718 391.021C109.456 389.893 117.466 392.032 125.204 390.749C141.575 387.949 157.245 381.922 173.538 378.811C186.759 376.283 200.369 376.167 213.629 373.872C217.362 373.211 221.795 367.106 223.039 364.657C225.139 360.496 226.85 356.063 227.938 351.514C231.049 338.876 234.238 320.833 227.55 308.662C221.211 297.191 204.724 305.785 198.697 295.791C192.125 284.903 181.276 270.555 165.995 271.099C161.912 271.255 157.868 272.227 153.824 272.81" fill="#FAF6EB"/>
<path fill-rule="evenodd" clip-rule="evenodd" d="M139.941 275.765C139.941 274.832 139.28 274.054 138.425 274.054C137.608 274.054 135.742 274.521 135.664 275.454C135.392 278.487 134.809 283.465 134.809 283.465C134.809 283.465 136.403 285.759 137.492 283.465C138.153 282.104 138.192 277.515 138.386 277.515C139.241 277.515 139.941 276.738 139.941 275.765Z" fill="#FAF6EB" stroke="#1C2628" stroke-width="0.828252" stroke-linecap="round" stroke-linejoin="round"/>
<path fill-rule="evenodd" clip-rule="evenodd" d="M222.533 330.282L209.779 347.858L174.899 369.789L150.013 372.006L161.017 360.613L181.704 356.919L182.521 345.214L166.383 327.949L175.482 311.89L180.499 302.985C180.499 302.985 183.454 300.613 194.497 306.29C199.863 309.051 206.629 314.767 212.151 319.939C218.023 325.422 222.533 330.282 222.533 330.282Z" fill="#47584E" stroke="#1C2628" stroke-width="0.828252" stroke-linecap="round" stroke-linejoin="round"/>
<path fill-rule="evenodd" clip-rule="evenodd" d="M212.112 319.939C211.957 322.155 211.373 323.788 210.362 324.294C208.574 325.188 206.357 321.961 198.619 319.006C197.064 318.422 196.83 318.422 191.036 316.867C178.749 313.523 176.377 312.551 175.482 311.89L180.499 302.985C180.499 302.985 183.454 300.613 194.497 306.29C199.824 309.09 206.59 314.806 212.112 319.939Z" fill="#1C2628" stroke="#1C2628" stroke-width="0.828252" stroke-linecap="round" stroke-linejoin="round"/>
<path fill-rule="evenodd" clip-rule="evenodd" d="M138.192 267.872C134.497 266.239 135.47 259.55 140.486 255.856C145.463 252.162 153.629 254.223 155.69 254.106C167.278 253.523 171.166 265.578 167.355 277.476C166.267 280.937 156.934 289.57 153.162 287.314C149.313 285.02 156.818 273.977 153.551 271.449" fill="#FAF6EB"/>
<path fill-rule="evenodd" clip-rule="evenodd" d="M157.09 281.559L158.528 293.458L162.728 298.785C162.728 298.785 158.723 304.268 151.762 303.452C144.763 302.674 142.624 298.28 142.624 298.28L142.08 282.804L157.09 281.559Z" fill="#F45B49" stroke="#1C2628" stroke-width="0.828252" stroke-linecap="round" stroke-linejoin="round"/>
<path fill-rule="evenodd" clip-rule="evenodd" d="M162.495 277.515C162.028 281.054 161.251 284.087 158.879 286.303C156.118 288.909 151.49 290.347 147.602 289.842C141.653 289.064 137.57 285.603 136.909 280.082C136.753 278.915 136.792 277.671 136.947 276.31C137.453 272.421 136.986 264.605 138.153 263.439C139.747 262.117 147.485 260.328 147.485 260.328C147.485 260.328 154.212 262.856 155.651 263.05C159.151 263.789 163.506 269.777 162.495 277.515Z" fill="#47584E" stroke="#1C2628" stroke-width="0.828252" stroke-linecap="round" stroke-linejoin="round"/>
<path fill-rule="evenodd" clip-rule="evenodd" d="M145.152 271.955C143.869 273.51 140.408 276.388 140.991 277.399C141.73 278.721 144.686 277.204 144.958 276.893" fill="#47584E"/>
<path d="M145.152 271.955C143.869 273.51 140.408 276.388 140.991 277.399C141.73 278.721 144.686 277.204 144.958 276.893" stroke="#1C2628" stroke-width="0.828252" stroke-linecap="round" stroke-linejoin="round"/>
<path fill-rule="evenodd" clip-rule="evenodd" d="M158.8 295.558L159.267 284.281C159.267 284.281 150.285 281.715 148.107 284.865C145.93 288.014 149.896 296.763 149.896 296.763L156.467 296.841" fill="#49574E"/>
<path fill-rule="evenodd" clip-rule="evenodd" d="M161.018 271.799C160.59 271.877 162.456 270.049 164.634 272.577C166.15 274.366 164.556 279.421 161.056 277.671" fill="#47584E"/>
<path d="M161.018 271.799C160.59 271.877 162.456 270.049 164.634 272.577C166.15 274.366 164.556 279.421 161.056 277.671" stroke="#1C2628" stroke-width="0.828252" stroke-linecap="round" stroke-linejoin="round"/>
<path d="M163.04 273.977L162.962 274.288L162.729 274.793L162.301 275.26" stroke="#1C2628" stroke-width="0.828252" stroke-linecap="round" stroke-linejoin="round"/>
<path fill-rule="evenodd" clip-rule="evenodd" d="M151.102 289.725L141.691 288.364L141.575 296.647C141.575 296.647 144.919 295.791 147.68 294.197C150.479 292.603 151.102 289.725 151.102 289.725Z" fill="#1C2628" stroke="#1C2628" stroke-width="0.828252" stroke-linecap="round" stroke-linejoin="round"/>
<path fill-rule="evenodd" clip-rule="evenodd" d="M221.134 374.184C218.489 389.582 221.717 408.908 206.941 416.413C196.947 421.507 180.11 420.107 165.372 418.007C157.79 416.918 150.752 415.635 145.541 414.935C136.559 413.73 127.498 414.196 118.594 412.369C113.889 411.397 109.378 410.463 104.712 409.336C102.029 408.675 97.9457 409.88 95.4959 408.713C93.6683 407.819 94.3683 398.137 93.9405 396.231C93.4739 394.132 88.9244 385.382 89.6243 383.905C90.3242 382.427 99.1123 380.95 100.512 380.522C112.1 377.061 116.649 373.522 128.782 373.017C133.837 372.823 180.265 371.462 185.204 367.184C188.781 364.073 192.864 359.252 192.942 354.974C192.981 353.613 208.729 357.696 217.167 359.291C220.239 359.874 222.417 360.34 222.767 360.535C224.75 361.701 221.406 372.55 221.134 374.184Z" fill="#F3A140" stroke="#1C2628" stroke-width="0.828252" stroke-linecap="round" stroke-linejoin="round"/>
<path fill-rule="evenodd" clip-rule="evenodd" d="M221.134 374.184C218.49 389.582 221.717 408.908 206.941 416.413C196.947 421.507 180.11 420.107 165.373 418.007C172.761 409.141 189.909 417.113 203.285 404.631C207.835 400.353 204.297 397.67 206.046 392.265C208.418 384.838 202.897 380.716 203.752 374.339C204.569 368.117 210.868 362.129 217.206 359.329C220.278 359.913 222.456 360.379 222.806 360.574C224.75 361.701 221.406 372.55 221.134 374.184Z" fill="#1C2628" stroke="#1C2628" stroke-width="0.828252" stroke-linecap="round" stroke-linejoin="round"/>
<path fill-rule="evenodd" clip-rule="evenodd" d="M191.853 439.783C188.081 444.293 162.067 427.806 155.534 428.039C151.957 428.156 147.057 428.623 141.225 429.284C113.227 432.394 64.8932 439.588 51.2445 432.628C44.0119 428.934 39.4624 425.24 37.0515 421.701C22.0807 399.731 86.63 381.455 86.63 381.455L94.7958 399.109C94.7958 399.109 140.525 396.581 156.856 398.876C164.828 400.003 174.277 402.997 174.277 403.075C174.432 406.73 195.625 435.233 191.853 439.783Z" fill="#47584E" stroke="#1C2628" stroke-width="0.828252" stroke-linecap="round" stroke-linejoin="round"/>
<path fill-rule="evenodd" clip-rule="evenodd" d="M141.225 429.284C113.228 432.394 64.8935 439.588 51.2448 432.628C44.0122 428.934 39.4626 425.24 37.0518 421.701C40.9403 418.435 46.6175 416.802 51.2059 418.201C56.6498 419.873 55.9888 424.54 61.1216 426.484C68.8597 429.478 74.8092 420.573 86.2414 420.496C93.9017 420.457 95.0294 426.912 103.079 426.717C108.095 426.601 109.572 424.423 114.705 423.256C123.804 421.157 131.698 425.006 136.131 426.951C137.336 427.456 139.242 428.273 141.225 429.284Z" fill="#1C2628" stroke="#1C2628" stroke-width="0.828252" stroke-linecap="round" stroke-linejoin="round"/>
<path fill-rule="evenodd" clip-rule="evenodd" d="M192.942 355.013C192.942 355.013 212.074 277.71 246.332 296.763C270.207 310.023 242.443 382.622 243.454 409.18C243.687 415.752 266.63 425.317 261.652 428.389C256.636 431.5 216.468 423.606 212.852 422.906C212.774 422.906 211.879 409.53 211.879 401.52C211.879 385.032 212.307 357.463 212.307 357.463L192.942 355.013Z" fill="#47584E" stroke="#1C2628" stroke-width="0.828252" stroke-linecap="round" stroke-linejoin="round"/>
<path fill-rule="evenodd" clip-rule="evenodd" d="M166.072 399.303L180.693 431.111L169.3 434.105C169.3 434.105 186.254 443.321 194.692 447.404C197.336 448.687 199.241 449.309 200.641 449.621L173.344 399.07L166.072 399.303Z" fill="#FAF6EB" stroke="#1C2628" stroke-width="0.828252" stroke-linecap="round" stroke-linejoin="round"/>
<path fill-rule="evenodd" clip-rule="evenodd" d="M177.777 398.876L173.344 399.031L200.641 449.582C203.713 450.204 204.257 449.115 204.257 449.115L177.777 398.876Z" fill="#1C2628" stroke="#1C2628" stroke-width="0.828252" stroke-linecap="round" stroke-linejoin="round"/>
<path fill-rule="evenodd" clip-rule="evenodd" d="M266.162 426.601C259.396 420.107 244.114 408.986 244.114 408.986L245.981 419.135L211.062 416.49L210.984 423.568L270.556 431.889C269.895 430.645 268.573 428.934 266.162 426.601Z" fill="#FAF6EB" stroke="#1C2628" stroke-width="0.828252" stroke-linecap="round" stroke-linejoin="round"/>
<path fill-rule="evenodd" clip-rule="evenodd" d="M211.023 423.645L210.984 426.756L271.14 435C271.14 435 271.878 434.222 270.595 431.928L211.023 423.645Z" fill="#1C2628" stroke="#1C2628" stroke-width="0.828252" stroke-linecap="round" stroke-linejoin="round"/>
<path fill-rule="evenodd" clip-rule="evenodd" d="M186.876 368.001C186.876 368.001 169.727 375.7 156.001 377.255C142.274 378.811 128.937 373.134 128.937 373.134L130.492 347.664L124.854 343.114L114.472 370.139C114.472 370.139 96.4678 407.275 78.7751 395.22C61.0824 383.205 60.7713 344.398 59.3714 338.759C58.4382 335.026 58.516 321.067 57.1939 309.673C56.4939 303.918 56.6884 301.196 56.6884 301.196C56.6884 301.196 59.1381 298.941 61.7434 304.152L62.3267 310.918L64.2321 316.789C64.2321 316.789 72.2035 311.773 75.8587 313.095C79.5528 314.417 79.5917 320.211 79.5917 320.328C79.5917 320.328 78.9695 321.766 76.6364 320.6C75.4699 320.017 73.8756 317.1 73.8756 317.1L70.4537 321.222L71.2703 327.249L74.7699 325.422C74.7699 325.422 75.4699 323.905 76.792 322.7C78.1141 321.455 80.0194 322.155 80.0194 322.155L78.6973 328.999L73.5256 333.238L84.7245 365.318C84.7245 365.318 84.9578 364.929 85.3856 364.229C87.8742 359.99 96.7789 344.242 101.173 328.299C105.45 312.901 116.221 308.39 119.799 307.301C120.538 307.068 120.965 306.99 120.965 306.99L176.182 305.862L179.332 343.348L186.876 368.001Z" fill="#47584E" stroke="#1C2628" stroke-width="0.828252" stroke-linecap="round" stroke-linejoin="round"/>
<path fill-rule="evenodd" clip-rule="evenodd" d="M122.21 315.312C117.738 319.667 110.467 323.944 108.173 328.299C105.295 333.665 107.395 335.454 104.867 345.564C103.545 350.891 102.379 355.402 98.8403 359.757C96.0794 363.101 90.4411 368.079 87.097 366.484C86.5915 366.251 85.9304 365.745 85.3472 364.229C87.8358 359.99 96.7405 344.242 101.134 328.299C105.412 312.901 116.183 308.39 119.76 307.301C119.955 307.185 120.188 307.068 120.383 306.99L122.21 315.312Z" fill="#1C2628" stroke="#1C2628" stroke-width="0.828252" stroke-linecap="round" stroke-linejoin="round"/>
<path d="M57.4664 336.854C32.58 351.047 80.6419 351.864 82.0807 334.637" stroke="#1C2628" stroke-width="0.828252" stroke-linecap="round" stroke-linejoin="round"/>
<path fill-rule="evenodd" clip-rule="evenodd" d="M183.609 340.781C182.754 341.52 181.665 342.026 180.304 342.298C176.377 343.153 155.884 345.253 142.08 346.653C141.964 346.653 141.808 346.692 141.691 346.692C134.459 347.431 129.17 347.936 129.17 347.936C129.17 347.936 128.237 347.781 127.071 346.964C125.243 345.72 122.832 342.881 122.482 336.621C122.21 331.954 123.493 321.261 123.493 321.261L122.21 315.35L120.382 307.029V306.951C120.382 306.951 130.259 304.89 135.314 301.663C140.408 298.435 140.68 294.08 140.68 294.08L160.006 292.486L160.589 292.447C160.589 292.447 162.689 295.286 166.111 297.386C166.656 297.697 167.2 298.008 167.783 298.28C168.716 298.708 169.727 299.058 170.816 299.252C171.516 299.408 172.255 299.524 172.994 299.68C178.127 300.691 183.959 301.857 183.959 301.857L178.982 314.534C178.982 314.534 183.182 321.416 184.387 325.383C186.72 333.121 186.604 338.254 183.609 340.781Z" fill="#F3A140" stroke="#1C2628" stroke-width="0.828252" stroke-linecap="round" stroke-linejoin="round"/>
<path d="M213.123 347.625L212.034 360.69" stroke="#1C2628" stroke-width="0.828252" stroke-linecap="round" stroke-linejoin="round"/>
<path d="M111.633 374.106C116.649 372.356 124.932 371.5 124.932 371.5C124.932 371.5 124.271 377.022 137.453 379.472C150.635 381.922 161.056 380.25 161.056 380.25" stroke="#1C2628" stroke-width="0.828252" stroke-linecap="round" stroke-linejoin="round"/>
<path fill-rule="evenodd" clip-rule="evenodd" d="M144.258 249.946C144.258 246.757 147.019 244.152 150.441 244.152C153.862 244.152 156.623 246.757 156.623 249.946C156.623 253.134 153.862 255.74 150.441 255.74C147.019 255.701 144.258 253.134 144.258 249.946Z" fill="#FAF6EB"/>
<path fill-rule="evenodd" clip-rule="evenodd" d="M138.191 271.799C139.513 272.46 141.263 272.032 142.469 271.216L138.191 271.799Z" fill="#47584E"/>
<path d="M138.191 271.799C139.513 272.46 141.263 272.032 142.469 271.216" stroke="#1C2628" stroke-width="0.828252" stroke-linecap="round" stroke-linejoin="round"/>
<path fill-rule="evenodd" clip-rule="evenodd" d="M150.324 270.749C152.618 271.877 153.707 271.255 155.924 270.205L150.324 270.749Z" fill="#47584E"/>
<path d="M150.324 270.749C152.618 271.877 153.707 271.255 155.924 270.205" stroke="#1C2628" stroke-width="0.828252" stroke-linecap="round" stroke-linejoin="round"/>
<path d="M75.8587 402.025C72.5923 401.831 68.976 403.308 66.0207 404.864C64.8931 405.447 61.8212 407.586 62.9488 407.041C76.092 400.548 91.1405 398.292 105.567 397.942" stroke="#1C2628" stroke-width="0.828252" stroke-linecap="round" stroke-linejoin="round"/>
<path d="M67.3818 425.551C68.3151 431.928 78.9696 428.428 82.5081 427.456C89.6241 425.434 96.6623 422.79 103.973 421.39C114.744 419.29 125.593 420.651 136.092 423.334" stroke="#1C2628" stroke-width="0.828252" stroke-linecap="round" stroke-linejoin="round"/>
<path d="M113.655 425.94C118.827 424.929 122.016 425.94 127.265 426.328" stroke="#1C2628" stroke-width="0.828252" stroke-linecap="round" stroke-linejoin="round"/>
<path d="M246.681 315.078C244.309 319.667 238.671 327.833 242.715 333.354C246.253 338.215 249.792 329.271 248.586 328.766C247.381 328.26 247.303 331.06 246.875 332.304C245.709 335.532 244.542 338.798 243.803 342.142C242.131 349.88 240.965 369.167 240.42 376.167" stroke="#1C2628" stroke-width="0.828252" stroke-linecap="round" stroke-linejoin="round"/>
<path d="M244.698 359.446C244.698 369.167 241.315 384.06 240.615 388.999" stroke="#1C2628" stroke-width="0.828252" stroke-linecap="round" stroke-linejoin="round"/>
<path fill-rule="evenodd" clip-rule="evenodd" d="M59.644 324.683C60.1107 321.455 62.2493 318.617 64.738 316.75L59.644 324.683Z" fill="#47584E"/>
<path d="M59.644 324.683C60.1107 321.455 62.2493 318.617 64.738 316.75" stroke="#1C2628" stroke-width="0.828252" stroke-linecap="round" stroke-linejoin="round"/>
<path fill-rule="evenodd" clip-rule="evenodd" d="M146.707 252.396H153.94C154.912 252.396 155.69 253.173 155.69 254.145C155.69 255.117 154.912 255.895 153.94 255.895H146.707C145.735 255.895 144.958 255.117 144.958 254.145C144.958 253.173 145.735 252.396 146.707 252.396Z" fill="#F45B49" stroke="#1C2628" stroke-width="0.828252" stroke-linecap="round" stroke-linejoin="round"/>
<path fill-rule="evenodd" clip-rule="evenodd" d="M154.018 352.058C155.379 352.758 176.727 365.59 176.727 365.59C180.615 368.312 177.854 370.762 175.132 374.689L173.072 377.722C170.35 381.611 165.45 377.45 161.562 374.689L145.152 364.307C142.469 361.507 152.657 351.397 154.018 352.058Z" fill="#1C2628" stroke="#1C2628" stroke-width="0.828252" stroke-linecap="round" stroke-linejoin="round"/>
<path fill-rule="evenodd" clip-rule="evenodd" d="M186.681 335.96L191.114 349.686C187.031 355.752 176.688 358.979 176.688 358.979C176.688 358.979 165.994 359.174 163.117 361.779C160.084 364.54 173.694 363.024 172.449 363.879C169.961 365.59 166.111 368.351 166.111 368.351L158.995 370.062C158.995 370.062 150.868 368.273 148.846 367.962C146.824 367.651 144.958 369.595 144.958 369.595C144.958 369.595 156.312 375 159.889 374.728C175.716 373.484 181.043 371.189 181.043 371.189L188.781 368.117L193.136 355.908" fill="#47584E"/>
<path d="M186.681 335.96L191.114 349.686C187.031 355.752 176.688 358.979 176.688 358.979C176.688 358.979 165.994 359.174 163.117 361.779C160.084 364.54 173.694 363.024 172.449 363.879C169.961 365.59 166.111 368.351 166.111 368.351L158.995 370.062C158.995 370.062 150.868 368.273 148.846 367.962C146.824 367.651 144.958 369.595 144.958 369.595C144.958 369.595 156.312 375 159.889 374.728C175.716 373.484 181.043 371.189 181.043 371.189L188.781 368.117L193.136 355.908" stroke="#FAF6EB" stroke-width="0.828252" stroke-linecap="round" stroke-linejoin="round"/>
<path d="M192.981 355.169L184.543 379.316" stroke="#1C2628" stroke-width="0.828252" stroke-linecap="round" stroke-linejoin="round"/>
<path d="M169.3 390.282C170.194 393.859 174.627 396.854 176.882 399.887" stroke="#1C2628" stroke-width="0.828252" stroke-linecap="round" stroke-linejoin="round"/>
<path fill-rule="evenodd" clip-rule="evenodd" d="M161.445 273.977C161.445 273.043 162.106 272.266 162.961 272.266C163.778 272.266 165.644 272.732 165.722 273.666C165.994 276.699 166.578 281.676 166.578 281.676C166.578 281.676 164.983 283.97 163.895 281.676C163.234 280.315 163.195 275.727 162.961 275.727C162.145 275.688 161.445 274.91 161.445 273.977Z" fill="#FAF6EB" stroke="#1C2628" stroke-width="0.828252" stroke-linecap="round" stroke-linejoin="round"/>
<path d="M2.21071 346.575C0.188685 356.374 0.266453 368.04 5.82702 376.322C11.4265 384.682 22.0421 391.293 32.1522 391.215C49.5338 391.137 64.6212 375.039 81.964 375.933C90.4798 376.361 93.6295 388.415 99.4623 394.637" stroke="#1C2628" stroke-width="0.828252" stroke-linecap="round" stroke-linejoin="round"/>
<path d="M244.698 282.842C254.03 298.435 299.215 265.5 317.024 297.23" stroke="#1C2628" stroke-width="0.828252" stroke-linecap="round" stroke-linejoin="round"/>
<path d="M264.529 302.052C281.989 302.13 300.304 292.564 304.075 319.589" stroke="#1C2628" stroke-width="0.828252" stroke-linecap="round" stroke-linejoin="round"/>
<path d="M99.229 246.096C104.129 250.568 107.045 255.234 108.445 264.178" stroke="#1C2628" stroke-width="0.828252" stroke-linecap="round" stroke-linejoin="round"/>
<path d="M99.6956 255.701C108.211 270.399 100.279 279.382 95.3794 289.842" stroke="#1C2628" stroke-width="0.828252" stroke-linecap="round" stroke-linejoin="round"/>
<path d="M9.94873 372.511C16.4814 383.71 30.7911 386.977 41.5623 385.227" stroke="#1C2628" stroke-width="0.828252" stroke-linecap="round" stroke-linejoin="round"/>
<path d="M10.7266 390.282C23.7919 402.881 40.7458 396.776 49.7672 394.054" stroke="#1C2628" stroke-width="0.828252" stroke-linecap="round" stroke-linejoin="round"/>
<path d="M212.19 412.563C212.19 412.563 209.157 415.674 206.085 416.802C203.052 417.968 196.753 419.446 194.342 419.601" stroke="#1C2628" stroke-width="0.828252" stroke-linecap="round" stroke-linejoin="round"/>
<path fill-rule="evenodd" clip-rule="evenodd" d="M185.281 349.258C180.226 353.224 176.688 353.613 174.316 353.186C171.827 352.719 171.127 351.475 167.2 349.997C166.072 349.569 162.339 348.247 158.023 348.131C150.324 347.936 146.669 351.708 143.83 349.608C143.169 349.142 142.469 348.286 142.08 346.614C155.884 345.253 176.377 343.114 180.304 342.259C181.665 341.987 182.754 341.481 183.609 340.742C184.815 343.814 185.165 347.003 185.281 349.258Z" fill="#1C2628" stroke="#1C2628" stroke-width="0.828252" stroke-linecap="round" stroke-linejoin="round"/>
<path fill-rule="evenodd" clip-rule="evenodd" d="M183.104 355.713L179.254 342.492C179.254 342.492 183.221 341.753 184.193 340.781C185.165 339.809 186.293 336.154 186.293 336.154L190.842 349.647C190.842 349.647 189.598 351.941 187.187 353.302C184.737 354.702 183.104 355.713 183.104 355.713Z" fill="#1C2628"/>
<path fill-rule="evenodd" clip-rule="evenodd" d="M200.447 399.575C201.458 400.12 199.202 404.242 196.325 405.836C194.225 407.002 192.009 406.73 192.358 405.33C192.592 404.397 193.875 403.27 194.536 402.686C196.519 400.936 199.63 399.148 200.447 399.575Z" fill="#1C2628" stroke="#1C2628" stroke-width="0.828252" stroke-linecap="round" stroke-linejoin="round"/>
<path fill-rule="evenodd" clip-rule="evenodd" d="M201.069 389.543C200.252 388.96 200.913 386.16 202.002 385.888C202.391 385.81 202.819 386.082 203.013 386.199C203.557 386.549 203.946 387.21 203.907 387.832C203.791 389.193 201.73 390.049 201.069 389.543Z" fill="#1C2628" stroke="#1C2628" stroke-width="0.828252" stroke-linecap="round" stroke-linejoin="round"/>
<path d="M75.4702 204.528H135.781" stroke="#1C2628" stroke-width="0.828252" stroke-linecap="round" stroke-linejoin="round"/>
<path d="M102.34 209.739H144.958" stroke="#1C2628" stroke-width="0.828252" stroke-linecap="round" stroke-linejoin="round"/>
<path d="M62.2104 232.836H97.4014" stroke="#1C2628" stroke-width="0.828252" stroke-linecap="round" stroke-linejoin="round"/>
<path d="M75.4702 236.336H106.928" stroke="#1C2628" stroke-width="0.828252" stroke-linecap="round" stroke-linejoin="round"/>
<path d="M31.1412 375.622L31.3356 375.583L30.9079 387.754C30.169 387.288 29.0414 387.21 27.9526 387.638C26.3583 388.299 25.464 389.776 25.9695 390.943C26.4361 392.148 28.1081 392.576 29.7024 391.954C31.2967 391.332 32.1911 389.854 31.6856 388.649C31.6856 388.61 31.6467 388.571 31.6078 388.532L32.0355 375.428L44.2454 372.745L43.8177 384.76C43.0789 384.255 41.9123 384.177 40.8236 384.605C39.2293 385.227 38.3349 386.704 38.8015 387.91C39.2682 389.115 40.9402 389.543 42.5345 388.921C44.1288 388.299 45.0231 386.821 44.5176 385.616L44.4788 385.577L44.9065 372.589L55.8721 370.178L55.4832 381.377C54.7444 380.911 53.6167 380.794 52.4891 381.261C50.8948 381.883 50.0004 383.36 50.5059 384.566C50.9726 385.771 52.6446 386.199 54.2389 385.577C55.8332 384.955 56.7275 383.477 56.222 382.272C56.222 382.233 56.1832 382.233 56.1832 382.194L56.6109 370.062L56.8442 370.023L56.9997 366.057L31.1412 372.278V375.622Z" fill="#1C2628" stroke="#1C2628" stroke-width="0.828252" stroke-linecap="round" stroke-linejoin="round"/>
<path d="M17.4535 367.884C14.0705 369.245 11.3486 369.44 9.32654 368.506C8.97658 368.351 8.6655 368.117 8.39331 367.923C9.63763 368.079 10.9208 367.573 11.6985 366.484C12.8262 364.89 12.4762 362.674 10.8819 361.546C9.28766 360.418 7.07121 360.768 5.94354 362.362C4.85476 363.879 5.16584 365.901 6.52682 367.106C7.07121 367.923 7.8878 368.74 8.97658 369.245C10.9208 370.178 13.4484 370.101 16.4814 369.09L3.41602 387.327L4.07706 387.793L17.8813 368.506C17.9979 368.351 17.9979 368.156 17.8813 368.04C17.8035 367.884 17.6091 367.806 17.4535 367.884Z" fill="#1C2628" stroke="#1C2628" stroke-width="0.828252" stroke-linecap="round" stroke-linejoin="round"/>
<path d="M270.401 294.158C270.401 294.158 258.969 300.574 267.913 307.107C264.763 300.496 273.668 294.43 273.668 294.43C268.924 289.414 273.901 289.142 276.701 284.787C281.172 277.865 274.29 276.932 274.29 276.932C277.828 281.754 269.818 283.115 267.602 287.353C265.58 291.242 267.952 293.03 270.401 294.158Z" fill="#1C2628" stroke="#1C2628" stroke-width="0.828252" stroke-linecap="round" stroke-linejoin="round"/>
<path fill-rule="evenodd" clip-rule="evenodd" d="M132.164 310.412C131.737 310.684 131.659 311.734 131.814 312.706C131.231 312.24 130.609 311.851 130.181 311.812C128.976 311.734 129.326 312.862 130.103 313.912C129.52 313.834 129.015 313.873 128.665 314.028C127.459 314.573 128.626 315.545 130.026 316.089C129.326 316.361 128.703 316.75 128.47 317.139C127.77 318.267 129.248 318.422 130.725 318.111C130.298 318.733 129.987 319.356 129.987 319.822C130.026 321.144 131.348 320.483 132.398 319.394C132.359 320.133 132.475 320.833 132.709 321.222C133.447 322.311 134.225 321.028 134.497 319.55C134.886 320.172 135.353 320.755 135.781 320.911C137.025 321.417 136.908 319.9 136.364 318.539C137.025 318.85 137.725 319.083 138.191 319.006C139.514 318.772 138.619 317.528 137.375 316.711C138.114 316.634 138.814 316.4 139.125 316.089C140.097 315.156 138.658 314.65 137.18 314.612C137.764 314.145 138.191 313.562 138.308 313.134C138.619 311.812 137.142 312.162 135.858 312.94C136.053 312.24 136.169 311.501 136.014 311.073C135.547 309.829 134.497 310.918 133.875 312.24C133.681 311.54 133.331 310.879 132.981 310.606C132.631 310.295 132.359 310.256 132.164 310.412ZM133.253 315.078C133.447 315.117 133.642 315.039 133.759 314.923C133.914 315.078 134.108 315.117 134.264 315.078C134.342 315.273 134.458 315.428 134.575 315.506C134.497 315.7 134.536 315.895 134.614 316.05C134.458 316.206 134.381 316.361 134.381 316.517C134.147 316.556 133.992 316.634 133.914 316.789C133.72 316.711 133.525 316.673 133.37 316.75C133.253 316.556 133.097 316.478 132.942 316.439C132.942 316.206 132.903 316.05 132.748 315.934C132.864 315.778 132.903 315.623 132.864 315.467C133.097 315.35 133.175 315.234 133.253 315.078Z" fill="#FAF6EB" stroke="#1C2628" stroke-width="0.828252" stroke-linecap="round" stroke-linejoin="round"/>
<path fill-rule="evenodd" clip-rule="evenodd" d="M158.373 318.811C157.712 319.278 157.596 320.833 157.829 322.427C156.935 321.689 155.962 321.105 155.262 321.067C153.396 320.95 153.94 322.7 155.146 324.333C154.251 324.216 153.435 324.255 152.929 324.488C151.024 325.344 152.852 326.86 155.029 327.677C153.94 328.105 152.968 328.688 152.618 329.31C151.491 331.06 153.863 331.332 156.118 330.827C155.457 331.76 154.951 332.771 154.951 333.51C154.99 335.61 157.09 334.521 158.723 332.849C158.684 334.015 158.801 335.104 159.229 335.726C160.395 337.437 161.562 335.415 162.028 333.121C162.612 334.132 163.351 334.987 164.012 335.26C165.917 336.076 165.8 333.704 164.906 331.565C165.956 332.071 167.045 332.382 167.745 332.265C169.805 331.877 168.367 329.971 166.461 328.649C167.628 328.494 168.678 328.182 169.222 327.677C170.739 326.238 168.522 325.422 166.189 325.344C167.084 324.605 167.783 323.75 167.978 323.05C168.445 321.028 166.15 321.533 164.167 322.777C164.517 321.65 164.634 320.561 164.4 319.861C163.701 317.917 162.028 319.589 161.056 321.689C160.706 320.561 160.24 319.589 159.656 319.122C159.073 318.617 158.645 318.578 158.373 318.811ZM160.006 326.122C160.356 326.16 160.629 326.083 160.823 325.927C161.095 326.16 161.329 326.238 161.601 326.199C161.717 326.51 161.873 326.744 162.106 326.86C162.028 327.171 162.067 327.444 162.184 327.677C161.912 327.91 161.795 328.144 161.795 328.416C161.445 328.455 161.212 328.61 161.056 328.805C160.745 328.649 160.473 328.649 160.24 328.727C160.045 328.455 159.851 328.26 159.579 328.221C159.579 327.871 159.501 327.599 159.307 327.444C159.462 327.21 159.54 326.938 159.501 326.705C159.773 326.549 159.929 326.355 160.006 326.122Z" fill="#FAF6EB" stroke="#1C2628" stroke-width="0.828252" stroke-linecap="round" stroke-linejoin="round"/>
<path fill-rule="evenodd" clip-rule="evenodd" d="M139.941 343.698C140.836 342.959 141.536 342.103 141.691 341.403C142.158 339.381 139.864 339.887 137.881 341.131C138.231 340.004 138.347 338.915 138.114 338.215C137.414 336.271 135.742 337.943 134.77 340.042C134.42 338.915 133.953 337.904 133.37 337.476C132.825 337.087 132.437 337.048 132.126 337.243C131.465 337.709 131.348 339.265 131.581 340.859C130.687 340.12 129.715 339.537 129.015 339.498C127.148 339.381 127.693 341.131 128.898 342.764C128.004 342.648 127.187 342.687 126.643 342.92C124.737 343.814 126.565 345.292 128.743 346.109C128.12 346.342 127.537 346.653 127.07 346.964C128.237 347.781 129.17 347.936 129.17 347.936C129.17 347.936 134.459 347.431 141.691 346.692C142.236 346.536 142.663 346.303 142.936 346.031C144.452 344.592 142.275 343.775 139.941 343.698ZM135.586 346.847C135.236 346.886 135.003 347.042 134.848 347.236C134.536 347.081 134.264 347.081 134.031 347.158C133.836 346.847 133.642 346.692 133.37 346.653C133.37 346.303 133.292 346.07 133.098 345.875C133.253 345.642 133.331 345.37 133.292 345.136C133.564 344.981 133.72 344.786 133.798 344.553C134.148 344.592 134.42 344.514 134.614 344.32C134.886 344.553 135.159 344.631 135.392 344.592C135.509 344.903 135.664 345.136 135.897 345.253C135.82 345.564 135.859 345.836 135.975 346.07C135.742 346.342 135.625 346.575 135.586 346.847Z" fill="#FAF6EB" stroke="#1C2628" stroke-width="0.828252" stroke-linecap="round" stroke-linejoin="round"/>
<path fill-rule="evenodd" clip-rule="evenodd" d="M172.138 299.796C172.449 299.758 172.721 299.719 173.033 299.641C172.294 299.485 171.555 299.33 170.855 299.213C169.766 298.98 168.755 298.669 167.822 298.241C167.783 298.474 167.822 298.708 167.939 298.902C167.666 299.135 167.55 299.369 167.55 299.641C167.2 299.68 166.966 299.835 166.811 300.03C166.5 299.874 166.228 299.874 165.994 299.952C165.8 299.641 165.605 299.485 165.333 299.446C165.333 299.096 165.255 298.863 165.061 298.669C165.217 298.435 165.294 298.163 165.255 297.93C165.528 297.774 165.683 297.58 165.761 297.347C165.917 297.347 166.033 297.347 166.15 297.347C162.689 295.286 160.628 292.408 160.628 292.408L160.045 292.447C159.384 292.914 159.889 294.275 160.861 295.519C159.967 295.402 159.151 295.441 158.606 295.675C156.701 296.53 158.528 298.047 160.706 298.863C159.617 299.291 158.645 299.874 158.295 300.457C157.167 302.246 159.539 302.479 161.795 301.974C161.134 302.907 160.628 303.918 160.628 304.657C160.667 306.757 162.767 305.668 164.4 303.996C164.361 305.163 164.478 306.251 164.906 306.873C166.072 308.584 167.239 306.562 167.705 304.268C168.289 305.279 169.027 306.135 169.688 306.407C171.633 307.223 171.477 304.851 170.583 302.713C171.633 303.218 172.721 303.529 173.421 303.413C175.443 303.024 174.044 301.118 172.138 299.796Z" fill="#FAF6EB" stroke="#1C2628" stroke-width="0.828252" stroke-linecap="round" stroke-linejoin="round"/>
<path d="M155.612 341.676C155.223 342.22 155.34 342.998 155.768 343.542C156.157 344.086 156.779 344.398 157.401 344.67C158.49 345.136 159.695 345.447 160.862 345.525" stroke="#1C2628" stroke-width="0.828252" stroke-linecap="round" stroke-linejoin="round"/>
<path d="M175.21 310.645C175.327 312.395 176.377 314.067 177.932 314.884" stroke="#1C2628" stroke-width="0.828252" stroke-linecap="round" stroke-linejoin="round"/>
<path d="M177.232 309.284C176.999 310.645 178.088 313.717 178.982 314.728" stroke="#1C2628" stroke-width="0.828252" stroke-linecap="round" stroke-linejoin="round"/>
<path d="M125.437 319.317C125.437 320.483 124.465 321.533 123.337 321.689" stroke="#1C2628" stroke-width="0.828252" stroke-linecap="round" stroke-linejoin="round"/>
<path d="M137.725 298.669C138.658 299.719 139.942 300.38 141.303 300.535C144.063 300.846 146.669 299.174 149.43 299.213C151.957 299.252 154.329 300.691 156.857 300.457" stroke="#1C2628" stroke-width="0.828252" stroke-linecap="round" stroke-linejoin="round"/>
<path d="M139.747 295.791C139.592 296.297 140.136 296.724 140.642 296.919C144.336 298.358 148.496 295.869 152.385 296.53" stroke="#1C2628" stroke-width="0.828252" stroke-linecap="round" stroke-linejoin="round"/>
<path fill-rule="evenodd" clip-rule="evenodd" d="M80.953 285.837C77.0645 284.32 74.7314 279.343 76.1701 276.621C77.92 273.238 85.697 272.694 88.6134 276.621C90.091 278.604 90.5576 282.065 88.6134 284.398C86.5913 286.848 83.0528 286.653 80.953 285.837Z" fill="#FAF6EB"/>
<path fill-rule="evenodd" clip-rule="evenodd" d="M259.318 355.596C257.452 353.497 258.58 347.664 262.468 345.564C267.562 342.842 274.056 348.169 273.861 351.086C273.667 354.858 262.196 358.824 259.318 355.596Z" fill="#1C2628" stroke="#1C2628" stroke-width="0.828252" stroke-linecap="round" stroke-linejoin="round"/>
<path fill-rule="evenodd" clip-rule="evenodd" d="M272.501 420.223C270.907 419.329 270.673 416.413 271.801 415.402C273.278 414.08 277.206 415.791 277.323 417.463C277.439 419.018 274.406 421.273 272.501 420.223Z" fill="#1C2628" stroke="#1C2628" stroke-width="0.828252" stroke-linecap="round" stroke-linejoin="round"/>
<path d="M48.4837 296.413L34.5239 288.364L48.4837 280.276V296.413Z" fill="#1C2628" stroke="#1C2628" stroke-width="0.828252" stroke-linecap="round" stroke-linejoin="round"/>
<path d="M183.259 261.728L209.74 246.446L183.259 231.164V261.728Z" fill="#1C2628" stroke="#1C2628" stroke-width="0.828252" stroke-linecap="round" stroke-linejoin="round"/>
<path d="M153.512 280.121C154.908 280.121 156.04 279.25 156.04 278.176C156.04 277.103 154.908 276.232 153.512 276.232C152.116 276.232 150.985 277.103 150.985 278.176C150.985 279.25 152.116 280.121 153.512 280.121Z" fill="#FAF6EB"/>
<path d="M137.569 276.232C138.969 276.232 140.097 277.088 140.097 278.176C140.097 279.265 138.969 280.121 137.569 280.121" fill="#FAF6EB"/>
<path d="M149.818 259.123C149.818 259.123 147.874 261.845 150.985 263.4C154.096 264.955 156.157 264.178 157.207 266.122C159.928 271.177 164.206 268.844 164.206 268.844" stroke="#FAF6EB" stroke-width="0.828252" stroke-linecap="round" stroke-linejoin="round"/>
</svg>
