<svg width="285" height="239" viewBox="0 0 285 239" fill="none" xmlns="http://www.w3.org/2000/svg">
<path d="M239.53 -89.2124C262.826 -43.2568 276.056 4.40123 282.01 55.3803C287.911 106.228 286.905 160.554 254.423 184.354C222.309 208.311 159.181 201.938 112.344 209.65C66.032 217.151 35.894 239.013 6.53038 238.064C-22.5571 237.233 -50.8144 214.483 -93.9861 196.158C-136.882 177.95 -194.691 164.166 -208.112 133.592C-221.65 103.294 -191.613 56.0765 -174.168 8.83735C-156.843 -38.8872 -152.809 -87.0384 -128.537 -123.232C-104.542 -159.543 -60.7981 -184.538 -11.0056 -199.469C38.3935 -214.242 94.1817 -219.241 138.369 -199.724C182.753 -179.906 216.352 -135.444 239.53 -89.2124Z" fill="#F3A140" fill-opacity="0.89"/>
</svg>
