<svg width="355" height="554" viewBox="0 0 355 554" fill="none" xmlns="http://www.w3.org/2000/svg">
<path fill-rule="evenodd" clip-rule="evenodd" d="M829.464 193.201C722.353 98.3795 585.637 244.604 512.614 203.518C439.502 162.521 551.817 81.5144 537.194 28.9452C522.572 -23.624 435.285 -0.837992 361.635 67.0713C299.108 124.933 257.214 288.023 112.514 298.25C-84.3059 312.065 37.9667 533.824 56.5363 554.009C64.0718 664.35 430.082 749.214 518.176 450.037C566.888 284.525 876.561 388.766 829.464 193.201Z" fill="#FB393F" fill-opacity="0.81"/>
<path d="M196.392 105.367C208.457 105.367 220.028 110.16 228.56 118.69C237.092 127.221 241.887 138.791 241.889 150.856V271.24H150.896V150.856C150.898 138.791 155.692 127.221 164.224 118.69C172.756 110.16 184.327 105.367 196.392 105.367Z" fill="url(#paint0_linear_94_3)" stroke="black" stroke-width="1.188" stroke-miterlimit="10" stroke-linecap="round"/>
<path d="M196.392 118.697C200.433 118.696 204.434 119.491 208.167 121.037C211.9 122.582 215.292 124.848 218.149 127.705C221.006 130.562 223.272 133.954 224.818 137.687C226.363 141.421 227.159 145.422 227.157 149.462V271.24H165.623V149.462C165.623 145.422 166.419 141.421 167.965 137.688C169.512 133.955 171.778 130.563 174.635 127.706C177.493 124.849 180.885 122.583 184.618 121.038C188.351 119.492 192.352 118.696 196.392 118.697Z" fill="url(#paint1_linear_94_3)" stroke="black" stroke-width="1.188" stroke-miterlimit="10" stroke-linecap="round"/>
<path d="M196.392 134.43C198.371 134.429 200.332 134.819 202.16 135.576C203.989 136.333 205.651 137.444 207.051 138.843C208.45 140.243 209.56 141.905 210.318 143.733C211.075 145.562 211.464 147.522 211.464 149.502V271.24H181.32V149.502C181.321 145.505 182.91 141.672 185.736 138.846C188.562 136.019 192.395 134.431 196.392 134.43Z" fill="url(#paint2_linear_94_3)" stroke="black" stroke-width="1.188" stroke-miterlimit="10" stroke-linecap="round"/>
<path d="M93.2856 484.633C102.89 449.066 112.492 413.503 122.091 377.942C131.69 342.381 141.291 306.814 150.896 271.24H241.889L272.301 377.713L302.714 484.189L198 484.419L93.2856 484.633Z" fill="url(#paint3_linear_94_3)" stroke="black" stroke-width="1.188" stroke-miterlimit="10" stroke-linecap="round"/>
<path d="M248.126 245.979L233.569 247.995L219.012 250.014C216.336 250.383 213.624 249.675 211.471 248.045C209.317 246.415 207.899 243.997 207.528 241.322C207.345 239.996 207.426 238.647 207.765 237.352C208.104 236.057 208.695 234.841 209.504 233.775C210.313 232.708 211.325 231.812 212.48 231.136C213.636 230.461 214.913 230.02 216.24 229.838L230.797 227.823L245.35 225.803C248.025 225.434 250.737 226.142 252.891 227.772C255.044 229.402 256.462 231.82 256.834 234.495C257.203 237.17 256.494 239.883 254.864 242.036C253.235 244.19 250.816 245.608 248.142 245.979H248.126Z" fill="#040400" stroke="#040400" stroke-width="1.188" stroke-miterlimit="10"/>
<path d="M210.189 307.965L199.331 379.51L188.468 451.056H273.866L264.968 413.095L256.069 375.135C256.069 375.135 260.136 367.44 261.613 355.2C263.091 342.96 261.95 326.165 251.559 307.965" fill="#F6C34C"/>
<path d="M210.189 307.965L199.331 379.51L188.468 451.056H273.866L264.968 413.095L256.069 375.135C256.069 375.135 260.136 367.44 261.613 355.2C263.091 342.96 261.95 326.165 251.559 307.965" stroke="#070707" stroke-width="1.188" stroke-miterlimit="10" stroke-linecap="round"/>
<path d="M247.148 331.828C245.087 333.89 243.871 336.649 243.741 339.561C243.61 342.474 244.573 345.33 246.44 347.569C248.308 349.808 250.945 351.267 253.834 351.661C256.723 352.054 259.655 351.353 262.053 349.696C262.352 342.872 261.7 336.04 260.117 329.397C257.962 328.448 255.57 328.173 253.256 328.607C250.942 329.041 248.813 330.163 247.148 331.828Z" fill="#DBCAF4" stroke="black" stroke-width="1.188" stroke-miterlimit="10" stroke-linecap="round"/>
<path d="M218.426 320.807C221.524 320.807 224.495 319.577 226.686 317.386C228.877 315.195 230.108 312.224 230.108 309.125C230.108 308.738 230.088 308.351 230.048 307.965H210.189L208.973 315.988C209.331 316.485 209.728 316.952 210.161 317.386C211.245 318.473 212.533 319.335 213.952 319.922C215.37 320.509 216.891 320.81 218.426 320.807Z" fill="#DBCAF4" stroke="black" stroke-width="1.188" stroke-miterlimit="10" stroke-linecap="round"/>
<path d="M212.141 361.983C213.707 360.418 214.795 358.44 215.28 356.279C215.764 354.119 215.625 351.866 214.878 349.782C214.131 347.698 212.807 345.869 211.06 344.508C209.314 343.147 207.217 342.311 205.013 342.096L201.513 365.163C203.409 365.557 205.373 365.473 207.228 364.92C209.084 364.367 210.774 363.362 212.145 361.995L212.141 361.983Z" fill="#DBCAF4" stroke="black" stroke-width="1.188" stroke-miterlimit="10" stroke-linecap="round"/>
<path d="M228.579 381.724C225.876 381.724 223.257 382.661 221.168 384.376C219.079 386.09 217.649 388.476 217.122 391.127C216.595 393.778 217.003 396.53 218.277 398.913C219.551 401.297 221.612 403.165 224.109 404.199C226.606 405.233 229.385 405.37 231.971 404.585C234.557 403.8 236.791 402.143 238.293 399.896C239.794 397.649 240.47 394.95 240.205 392.261C239.94 389.571 238.751 387.057 236.84 385.145C235.756 384.059 234.468 383.198 233.051 382.611C231.633 382.024 230.114 381.722 228.579 381.724Z" fill="#DBCAF4" stroke="black" stroke-width="1.188" stroke-miterlimit="10" stroke-linecap="round"/>
<path d="M259.491 417.364C257.683 419.17 256.518 421.519 256.173 424.05C255.827 426.582 256.322 429.157 257.58 431.381C258.838 433.605 260.791 435.355 263.139 436.363C265.486 437.371 268.1 437.581 270.579 436.962L265.245 414.216C263.065 414.693 261.068 415.786 259.491 417.364Z" fill="#DBCAF4" stroke="black" stroke-width="1.188" stroke-miterlimit="10" stroke-linecap="round"/>
<path d="M223.823 439.512C221.99 437.669 219.595 436.491 217.016 436.162C214.438 435.834 211.823 436.375 209.587 437.7C207.35 439.024 205.62 441.057 204.669 443.476C203.718 445.895 203.601 448.563 204.336 451.056H226.761C227.072 449.989 227.231 448.884 227.233 447.773C227.236 446.239 226.937 444.72 226.351 443.303C225.766 441.885 224.907 440.597 223.823 439.512Z" fill="#DBCAF4" stroke="black" stroke-width="1.188" stroke-miterlimit="10" stroke-linecap="round"/>
<path d="M210.189 307.965H251.551L252.628 306.136L253.701 304.306H270.638C271.63 304.304 272.616 304.171 273.573 303.91C274.907 303.548 276.153 302.915 277.231 302.049C278.31 301.184 279.199 300.105 279.841 298.881C280.831 297.051 281.501 294.604 281.501 291.333C281.504 286.697 280.85 282.084 279.56 277.631C278.273 273.177 276.353 268.931 273.858 265.023C269.3 257.895 263.78 251.163 257.226 246.32C250.672 241.477 243.112 238.459 234.456 238.736C229.131 238.909 223.851 239.769 218.746 241.294C214.628 242.53 211.793 243.876 210.692 244.53C205.303 247.734 200.696 252.099 197.208 257.309C195.134 260.362 193.45 263.663 192.195 267.133C195.191 273.939 198.191 280.745 201.196 287.551C204.2 294.357 207.198 301.162 210.189 307.965Z" fill="#ECE7E1" stroke="black" stroke-width="1.188" stroke-miterlimit="10" stroke-linecap="round"/>
<path d="M237.838 226.124C237.05 222.601 235.04 219.472 232.163 217.293C229.482 215.313 226.223 214.481 222.999 215.238C219.776 215.994 217.234 218.2 215.709 221.178C214.103 224.409 213.697 228.106 214.565 231.608C214.628 231.886 214.699 232.155 214.778 232.424C214.858 232.693 214.945 232.959 215.032 233.216L214.109 234.163L213.187 235.105L214.771 235.62L216.355 236.139C217.698 238.454 219.677 240.337 222.057 241.564C224.312 242.723 226.903 243.051 229.375 242.49C232.591 241.734 235.141 239.524 236.665 236.55C238.28 233.324 238.696 229.628 237.838 226.124Z" fill="#F2B3C1" stroke="black" stroke-width="1.188" stroke-miterlimit="10" stroke-linecap="round"/>
<path d="M219.847 230.876C219.886 231.061 219.85 231.255 219.748 231.414C219.643 231.574 219.48 231.686 219.293 231.727C219.2 231.747 219.104 231.748 219.011 231.73C218.918 231.712 218.83 231.676 218.75 231.624C218.671 231.573 218.603 231.507 218.55 231.43C218.497 231.352 218.46 231.265 218.442 231.173C218.422 231.08 218.421 230.985 218.438 230.892C218.456 230.8 218.491 230.711 218.542 230.632C218.594 230.553 218.66 230.485 218.738 230.432C218.816 230.378 218.904 230.341 218.996 230.321C219.088 230.302 219.183 230.301 219.276 230.318C219.369 230.335 219.457 230.371 219.536 230.422C219.616 230.474 219.684 230.54 219.737 230.618C219.79 230.696 219.828 230.783 219.847 230.876Z" fill="#040400"/>
<path d="M222.849 234.483C222.821 234.756 222.753 235.023 222.647 235.275C222.447 235.761 222.105 236.175 221.665 236.463C221.317 236.687 220.921 236.823 220.509 236.859C220.275 236.889 220.038 236.889 219.804 236.859" stroke="black" stroke-width="1.188" stroke-miterlimit="10" stroke-linecap="round"/>
<path d="M216.945 227.557L219.142 227.375L221.344 227.189" stroke="black" stroke-width="1.188" stroke-miterlimit="10" stroke-linecap="round"/>
<path d="M227.074 230.678C227.135 230.959 227.139 231.249 227.087 231.532C227.034 231.815 226.926 232.084 226.769 232.325C226.612 232.567 226.409 232.775 226.171 232.938C225.933 233.101 225.666 233.216 225.384 233.275C225.102 233.335 224.81 233.338 224.527 233.285C224.244 233.232 223.974 233.124 223.732 232.967C223.369 232.73 223.084 232.39 222.913 231.992C222.743 231.593 222.694 231.152 222.774 230.726C222.854 230.3 223.058 229.907 223.361 229.596C223.664 229.286 224.052 229.073 224.476 228.983C225.046 228.864 225.64 228.975 226.128 229.292C226.37 229.448 226.578 229.651 226.741 229.889C226.903 230.127 227.017 230.395 227.074 230.678Z" fill="#FF6406" stroke="#070707" stroke-width="1.188" stroke-miterlimit="10" stroke-linecap="round"/>
<path d="M268.409 458.607H193.882C193.128 458.607 192.381 458.459 191.685 458.17C190.988 457.882 190.356 457.459 189.823 456.925C189.29 456.392 188.867 455.759 188.579 455.062C188.291 454.366 188.143 453.619 188.144 452.865C188.143 452.112 188.291 451.365 188.579 450.669C188.867 449.973 189.29 449.34 189.823 448.807C190.356 448.274 190.989 447.851 191.685 447.563C192.382 447.275 193.128 447.127 193.882 447.127H268.409C269.162 447.127 269.909 447.275 270.605 447.563C271.302 447.851 271.934 448.274 272.467 448.807C273 449.34 273.423 449.973 273.711 450.669C273.999 451.365 274.147 452.112 274.147 452.865C274.147 453.619 273.999 454.366 273.711 455.062C273.423 455.759 273 456.392 272.468 456.925C271.935 457.459 271.302 457.882 270.606 458.17C269.909 458.459 269.163 458.607 268.409 458.607Z" fill="#FC762B" stroke="#070707" stroke-width="1.188" stroke-miterlimit="10" stroke-linecap="round"/>
<path d="M216.762 219.455C218.897 222.401 220.956 224.314 222.845 225.546C224.372 226.573 226.102 227.259 227.918 227.557C229.811 227.85 232.325 227.767 234.365 227.613C236.404 227.458 237.972 227.217 237.972 227.217C237.972 227.217 237.909 226.904 237.818 226.484C237.727 226.064 237.612 225.546 237.505 225.134C237.426 224.833 237.319 224.476 237.18 224.072C237.042 223.669 236.863 223.225 236.642 222.746C236.866 222.608 237.109 222.503 237.362 222.433C237.836 222.298 238.338 222.298 238.812 222.433C239.227 222.548 239.608 222.762 239.924 223.055C240.105 223.217 240.262 223.404 240.392 223.609C239.204 218.885 235.505 215.84 231.232 214.743C226.959 213.646 222.093 214.493 218.525 217.554C218.155 217.869 217.807 218.209 217.483 218.572C217.19 218.893 216.953 219.198 216.762 219.455Z" fill="#040400" stroke="#040400" stroke-width="1.188" stroke-miterlimit="10"/>
<path d="M264.199 447.127L265.657 465.676L267.11 484.217H257.004C256.772 481.487 256.539 478.757 256.307 476.027C256.075 473.298 255.842 470.568 255.61 467.838C246.266 475.712 234.977 480.93 222.924 482.946C218.216 483.743 213.441 484.077 208.668 483.943C212.23 481.965 215.573 479.617 218.643 476.938C223.146 473.016 226.975 468.382 229.977 463.221C231.582 460.452 232.938 457.546 234.028 454.537C234.904 452.123 235.61 449.651 236.143 447.139H264.227L264.199 447.127Z" fill="#84A1E5" stroke="#070707" stroke-width="1.188" stroke-miterlimit="10" stroke-linecap="round"/>
<path d="M243.9 257.974C243.794 258.25 243.712 258.535 243.655 258.825C243.595 259.117 243.567 259.415 243.572 259.712C243.577 259.966 243.617 260.218 243.691 260.461C243.763 260.7 243.887 260.921 244.055 261.106C244.301 261.365 244.625 261.535 244.978 261.589C245.335 261.649 245.702 261.617 246.043 261.494C246.851 261.165 247.519 260.563 247.928 259.792C248.349 259.024 248.721 258.231 249.041 257.416L250.312 254.517C250.735 253.551 251.163 252.588 251.603 251.63C252.034 250.486 252.544 249.373 253.131 248.3C253.844 247.139 254.771 246.32 255.939 246.926C256.164 247.05 256.349 247.235 256.473 247.46C256.567 247.616 256.637 247.784 256.683 247.959C256.847 247.579 257.056 247.22 257.305 246.89C257.701 246.363 258.287 245.856 259.008 245.936C259.375 245.978 259.715 246.148 259.97 246.415C260.226 246.681 260.385 247.026 260.422 247.393C260.439 247.622 260.424 247.853 260.378 248.078C260.318 248.381 260.222 248.676 260.093 248.957C260.144 248.834 260.35 248.886 260.56 248.957C260.728 249.034 260.891 249.121 261.047 249.218C261.246 249.343 261.415 249.509 261.542 249.706C261.669 249.901 261.758 250.119 261.804 250.347C261.849 250.602 261.857 250.862 261.827 251.119C261.799 251.378 261.749 251.634 261.677 251.884C261.554 252.335 261.419 252.778 261.281 253.226C261.142 253.673 261.016 254.121 260.885 254.576C261.062 254.703 261.227 254.845 261.38 255C261.58 255.208 261.755 255.439 261.899 255.689C262.28 256.41 262.426 257.233 262.314 258.041C262.233 258.702 262.075 259.35 261.843 259.974C260.659 263.361 259.202 266.647 257.487 269.799C256.837 271.015 256.122 272.195 255.345 273.335C254.28 274.824 253.024 276.503 251.559 278.348C250.094 280.194 248.423 282.162 246.534 284.233L235.68 275.517L230.765 271.557C230.765 271.557 230.892 270.994 231.042 270.369C231.193 269.743 231.363 269.03 231.438 268.741C231.704 267.823 231.953 266.928 232.23 266.041C232.517 265.143 232.868 264.267 233.28 263.419C234.271 261.477 235.453 259.638 236.808 257.93C238.135 256.208 239.58 254.56 240.958 252.893C241.564 252.077 242.234 251.31 242.962 250.6C243.754 249.915 244.665 249.492 245.734 249.864C245.995 249.953 246.23 250.105 246.418 250.307C246.606 250.508 246.741 250.754 246.811 251.02C246.947 251.563 246.927 252.133 246.752 252.664C246.648 252.984 246.515 253.294 246.356 253.59C246.201 253.891 246.035 254.184 245.869 254.473C245.552 255.032 245.176 255.594 244.819 256.176C244.457 256.745 244.15 257.347 243.9 257.974Z" fill="#F2B3C1" stroke="black" stroke-width="1.188" stroke-miterlimit="10" stroke-linecap="round"/>
<path d="M246.55 284.26L238.067 277.374L229.581 270.484L222.057 276.895L214.533 283.302C214.81 283.069 212.949 280.946 210.886 278.792C208.823 276.637 206.637 274.436 206.257 274.083C196.899 265.011 185.269 260.592 173.274 260.089C161.279 259.586 148.975 263.007 138.283 269.62L139.978 259.811L141.677 250.003L130.466 249.25L119.259 248.498C116.788 260.326 115.188 267.727 114.044 272.776C112.9 277.825 112.218 280.518 111.589 282.926C111.565 283.013 111.498 283.27 111.407 283.655C111.316 284.039 111.197 284.55 111.074 285.14C110.361 288.573 109.743 291.543 109.617 294.192C109.49 296.841 109.854 299.154 111.106 301.281C112.038 302.84 113.265 304.204 114.717 305.296C116.16 306.398 117.788 307.232 119.525 307.759C121.507 308.321 123.602 308.358 125.603 307.866C127.583 307.442 129.504 306.678 131.508 306.044C132.3 305.787 132.803 305.629 134.161 305.169C135.519 304.71 137.753 303.958 142.041 302.496L144.738 301.578L146.766 300.892C147.294 304.781 147.814 308.669 148.326 312.555C148.838 316.441 149.358 320.327 149.886 324.213L174.474 324.146L199.065 324.074C199.543 321.395 200.024 318.712 200.507 316.028C200.99 313.343 201.474 310.655 201.96 307.965C203.368 309.31 205.004 310.393 206.791 311.165C207.851 311.617 208.967 311.923 210.11 312.072C213.278 312.468 216.275 311.541 218.917 310.127C221.558 308.713 223.851 306.832 225.649 305.375C226.397 304.769 227.027 304.187 227.522 303.748C228.017 303.308 228.373 302.928 228.575 302.722C231.854 299.411 235.24 295.95 238.364 292.739C241.489 289.527 244.332 286.569 246.55 284.26Z" fill="#84A1E5" stroke="#070707" stroke-width="1.188" stroke-miterlimit="10" stroke-linecap="round"/>
<path d="M256.683 247.971C256.287 249.23 255.891 250.541 255.388 251.891C254.885 253.242 254.351 254.636 253.737 256.065C253.381 256.889 253.02 257.688 252.656 258.461C252.292 259.233 251.919 259.982 251.551 260.706" stroke="black" stroke-width="1.188" stroke-miterlimit="10" stroke-linecap="round"/>
<path d="M260.093 248.969C259.697 250.157 259.265 251.381 258.778 252.648C258.291 253.915 257.749 255.226 257.151 256.564C256.702 257.567 256.248 258.532 255.788 259.459C255.329 260.382 254.866 261.273 254.402 262.124" stroke="black" stroke-width="1.188" stroke-miterlimit="10" stroke-linecap="round"/>
<path d="M260.897 254.608C260.897 254.608 260.224 256.374 259.396 258.382C258.568 260.39 257.59 262.643 256.976 263.609" stroke="black" stroke-width="1.188" stroke-miterlimit="10" stroke-linecap="round"/>
<path d="M213.868 282.15L214.917 283.548C215.27 284.011 215.618 284.478 215.97 284.946" stroke="black" stroke-width="1.188" stroke-miterlimit="10" stroke-linecap="round"/>
<path d="M190.179 296.81C191.106 297.781 192.068 298.762 193.066 299.752C194.064 300.742 195.095 301.741 196.159 302.75C197.141 303.68 198.115 304.575 199.081 305.446C200.047 306.318 201.002 307.153 201.948 307.965" stroke="black" stroke-width="1.188" stroke-miterlimit="10" stroke-linecap="round"/>
<path d="M131.076 273.949C131.868 273.513 132.66 273.062 133.452 272.594C134.244 272.127 135.052 271.641 135.875 271.137C136.271 270.892 136.667 270.642 137.063 270.397L138.204 269.656" stroke="black" stroke-width="1.188" stroke-miterlimit="10" stroke-linecap="round"/>
<path d="M244.332 447.127L245.678 465.664L247.029 484.205H238.055L237.077 476.099L236.099 467.993C233.536 469.884 230.864 471.623 228.096 473.2C220.29 477.632 211.799 480.73 202.974 482.367C199.181 483.073 195.344 483.509 191.49 483.67C193.344 482.478 195.121 481.172 196.812 479.758C198.837 478.06 200.727 476.206 202.463 474.214C206.437 469.649 209.577 464.422 211.741 458.77C213.232 454.907 214.295 450.893 214.909 446.799L229.636 446.953L244.332 447.127Z" fill="#84A1E5" stroke="#070707" stroke-width="1.188" stroke-miterlimit="10" stroke-linecap="round"/>
<path d="M165.924 255.226C164.948 252.004 164.977 248.562 166.007 245.357C167.061 242.102 169.175 239.287 172.478 238.115C175.578 237.014 178.905 237.485 181.776 239.14C184.864 240.98 187.198 243.857 188.361 247.258C188.456 247.524 188.544 247.793 188.623 248.05C188.702 248.308 188.773 248.585 188.837 248.842L190.12 249.135L191.403 249.428L190.341 250.719L189.288 252.034C189.403 254.394 188.854 256.738 187.704 258.802C186.615 260.779 184.943 262.373 182.916 263.368C180.62 264.436 178.02 264.659 175.575 263.997C174.111 263.628 172.713 263.036 171.428 262.243C168.852 260.594 166.912 258.12 165.924 255.226Z" fill="#F2B3C1" stroke="black" stroke-width="1.188" stroke-miterlimit="10" stroke-linecap="round"/>
<path d="M167.31 258.172C167.12 257.859 166.914 257.515 166.744 257.146C166.573 256.778 166.372 256.382 166.197 255.958C165.894 255.224 165.646 254.469 165.457 253.697C165.3 253.059 165.181 252.413 165.1 251.761C164.72 251.815 164.349 251.918 163.996 252.07C163.513 252.272 163.1 252.61 162.808 253.044C162.273 253.883 162.328 255.024 162.772 256.061C162.974 256.573 163.281 257.037 163.672 257.423C164.063 257.81 164.531 258.111 165.045 258.307C165.466 258.437 165.911 258.475 166.348 258.418C166.677 258.375 167 258.293 167.31 258.172Z" fill="#F2B3C1" stroke="black" stroke-width="1.188" stroke-miterlimit="10" stroke-linecap="round"/>
<path d="M183.546 249.508C183.615 249.684 183.75 249.826 183.922 249.904C184.051 249.961 184.194 249.979 184.334 249.955C184.473 249.931 184.602 249.867 184.705 249.77C184.808 249.673 184.88 249.548 184.912 249.411C184.943 249.273 184.934 249.129 184.884 248.997C184.816 248.82 184.681 248.678 184.508 248.601C184.332 248.529 184.134 248.529 183.958 248.601C183.869 248.637 183.788 248.691 183.72 248.759C183.652 248.827 183.598 248.908 183.562 248.997C183.494 249.159 183.488 249.341 183.546 249.508Z" fill="#040400"/>
<path d="M184.203 245.187L182.247 246.197L180.295 247.203" stroke="black" stroke-width="1.188" stroke-miterlimit="10" stroke-linecap="round"/>
<path d="M228.46 465.561C229.133 464.691 229.75 463.78 230.31 462.833C230.872 461.886 231.337 460.886 231.7 459.847C232.015 458.797 232.157 457.703 232.119 456.608C232.068 455.38 231.723 454.232 230.785 453.962C229.272 453.495 228.013 454.754 227.035 456.338C226.213 457.809 225.509 459.342 224.928 460.924C224.337 462.348 223.866 463.818 223.518 465.32C223.173 466.822 222.929 468.346 222.786 469.882C222.922 468.138 222.77 466.384 222.334 464.69C221.896 462.998 221.367 461.332 220.75 459.696C220.484 458.931 220.168 458.183 219.804 457.459C219.441 456.734 218.993 456.055 218.469 455.435C217.9 454.787 217.215 454.249 216.45 453.851C215.626 453.455 214.751 453.325 214.101 453.954C213.65 454.394 213.551 455.174 213.595 455.978C213.651 456.711 213.773 457.437 213.959 458.148C214.153 458.927 214.418 459.687 214.751 460.417C215.078 461.149 215.453 461.858 215.876 462.54C216.696 463.87 217.644 465.116 218.707 466.262C219.768 467.41 220.93 468.46 222.18 469.398C222.865 469.917 223.368 470.028 223.879 469.882C224.47 469.628 225.008 469.264 225.463 468.808C226.025 468.33 226.554 467.814 227.047 467.264C227.546 466.721 228.013 466.147 228.46 465.561Z" stroke="black" stroke-width="1.188" stroke-miterlimit="10" stroke-linecap="round"/>
<path d="M175.685 253.321C175.796 253.611 175.976 253.87 176.211 254.074C176.445 254.278 176.726 254.421 177.029 254.49C177.332 254.559 177.647 254.553 177.947 254.471C178.246 254.39 178.521 254.236 178.747 254.022C178.973 253.809 179.143 253.544 179.242 253.249C179.34 252.954 179.365 252.64 179.313 252.334C179.261 252.028 179.135 251.739 178.945 251.493C178.755 251.247 178.507 251.052 178.224 250.925C177.767 250.721 177.247 250.705 176.778 250.882C176.311 251.062 175.934 251.419 175.729 251.876C175.525 252.333 175.509 252.852 175.685 253.321Z" fill="#FF6406" stroke="#070707" stroke-width="1.188" stroke-miterlimit="10" stroke-linecap="round"/>
<path d="M128.336 463.078C129.009 462.208 129.628 461.297 130.189 460.35C130.751 459.404 131.216 458.404 131.575 457.364C131.892 456.315 132.035 455.22 131.999 454.125C131.947 452.897 131.603 451.749 130.664 451.479C129.151 451.012 127.892 452.271 126.914 453.855C126.093 455.327 125.387 456.86 124.803 458.441C124.216 459.866 123.746 461.336 123.397 462.837C123.051 464.339 122.806 465.863 122.665 467.399C122.8 465.656 122.646 463.903 122.209 462.211C121.771 460.519 121.243 458.852 120.625 457.217C120.358 456.451 120.042 455.702 119.679 454.976C119.315 454.252 118.867 453.572 118.345 452.953C117.774 452.304 117.088 451.767 116.321 451.369C115.501 450.973 114.626 450.842 113.973 451.471C113.521 451.911 113.422 452.691 113.47 453.495C113.527 454.228 113.648 454.954 113.834 455.665C114.026 456.445 114.291 457.204 114.626 457.934C114.953 458.666 115.329 459.375 115.751 460.057C116.57 461.388 117.518 462.634 118.582 463.779C119.643 464.928 120.806 465.979 122.055 466.919C122.74 467.434 123.243 467.545 123.754 467.399C124.347 467.148 124.885 466.783 125.338 466.325C125.9 465.849 126.43 465.334 126.922 464.785C127.421 464.239 127.908 463.664 128.336 463.078Z" stroke="black" stroke-width="1.188" stroke-miterlimit="10" stroke-linecap="round"/>
<path d="M182.556 254.303C182.746 254.401 182.943 254.483 183.146 254.549C183.35 254.618 183.564 254.652 183.78 254.648C184.036 254.628 184.286 254.563 184.52 254.458C184.755 254.354 185.003 254.284 185.257 254.252C185.543 254.218 185.832 254.289 186.069 254.452C186.307 254.615 186.477 254.859 186.548 255.139C186.627 255.417 186.616 255.712 186.517 255.984C186.418 256.256 186.236 256.489 185.997 256.651C185.117 257.171 184.098 257.407 183.079 257.329C182.006 257.253 181.016 256.826 180.655 255.875C180.552 255.629 180.535 255.355 180.607 255.098C180.679 254.84 180.836 254.615 181.051 254.458C181.263 254.295 181.516 254.195 181.782 254.168C182.047 254.14 182.315 254.187 182.556 254.303Z" fill="#ECE7E1" stroke="black" stroke-width="1.188" stroke-miterlimit="10" stroke-linecap="round"/>
<path d="M165.1 251.761C166.94 252.021 168.816 251.842 170.573 251.238C173.393 250.232 176.367 247.733 177.004 241.77C178.929 242.825 181.165 243.165 183.316 242.728C185.225 242.304 186.797 241.223 187.597 239.734C188.201 238.557 188.422 237.222 188.231 235.913C188.075 234.546 187.386 233.295 186.314 232.432C185.681 231.977 184.959 231.66 184.196 231.504C183.432 231.348 182.644 231.355 181.883 231.525C180.12 231.891 178.562 232.915 177.527 234.388C174.083 234.114 170.627 234.752 167.508 236.238C164.736 237.628 162.713 239.703 161.794 242.205C161.521 242.96 161.346 243.746 161.275 244.546C161.173 245.803 161.28 247.069 161.592 248.292L162.206 250.668L162.815 253.044C162.989 252.806 163.192 252.591 163.421 252.406C163.892 252.008 164.484 251.781 165.1 251.761Z" fill="#040400" stroke="#040400" stroke-width="1.188" stroke-miterlimit="10"/>
<path d="M149.292 321.263C145.474 343.323 141.658 365.381 137.844 387.438C134.029 409.495 130.214 431.554 126.399 453.614H168.102C168.72 442.697 169.336 431.778 169.951 420.857C170.566 409.935 171.183 399.015 171.801 388.096L172.989 420.857L174.177 453.614H217.689L208.648 387.327L199.608 321.041L174.458 321.152L149.292 321.263Z" fill="#D87D61" stroke="black" stroke-width="1.188" stroke-miterlimit="10" stroke-linecap="round"/>
<path d="M156.883 321.231H155.798L147.051 389.925L138.94 453.614H141.103L149.177 390.198L157.964 321.223L156.883 321.231Z" fill="#F2B3C1" stroke="black" stroke-width="1.188" stroke-miterlimit="10" stroke-linecap="round"/>
<path d="M165.706 321.191L159.117 390.321L153.082 453.614H155.232L161.251 390.527L167.864 321.18H166.783L165.706 321.191Z" fill="#F2B3C1" stroke="black" stroke-width="1.188" stroke-miterlimit="10" stroke-linecap="round"/>
<path d="M179.784 321.136H178.711H177.634L182.255 390.99L186.393 453.614H188.544L184.397 390.832L179.784 321.136Z" fill="#F2B3C1" stroke="black" stroke-width="1.188" stroke-miterlimit="10" stroke-linecap="round"/>
<path d="M197.374 390.626L190.912 321.081H188.757L195.228 390.832L201.061 453.622H203.215L197.374 390.626Z" fill="#F2B3C1" stroke="black" stroke-width="1.188" stroke-miterlimit="10" stroke-linecap="round"/>
<path d="M168.541 455.186C168.541 457.217 166.166 459.055 162.316 460.385C158.467 461.716 153.153 462.536 147.268 462.536C141.384 462.536 136.101 461.716 132.264 460.385C128.427 459.055 126.039 457.217 126.039 455.186C126.039 453.154 128.415 451.321 132.264 449.99C136.113 448.66 141.415 447.856 147.284 447.856C153.153 447.856 158.467 448.68 162.332 450.01C166.197 451.341 168.541 453.158 168.541 455.186Z" fill="#F2B3C1" stroke="black" stroke-width="1.188" stroke-miterlimit="10" stroke-linecap="round"/>
<path d="M218.224 455.186C218.224 457.217 215.745 459.055 211.729 460.385C207.714 461.716 202.174 462.536 196.048 462.536C189.922 462.536 184.382 461.716 180.366 460.385C176.351 459.055 173.872 457.217 173.872 455.186C173.872 453.154 176.355 451.321 180.366 449.99C184.378 448.66 189.926 447.836 196.048 447.836C202.17 447.836 207.718 448.66 211.729 449.99C215.741 451.321 218.224 453.158 218.224 455.186Z" fill="#F2B3C1" stroke="black" stroke-width="1.188" stroke-miterlimit="10" stroke-linecap="round"/>
<path d="M133.773 449.539L131.611 458.5C130.892 461.486 130.173 464.473 129.452 467.462C129.452 467.462 124.7 466.931 120.138 468.761C115.577 470.59 111.284 474.772 112.218 484.205H162.233C162.52 484.206 162.805 484.148 163.069 484.035C163.325 483.928 163.558 483.772 163.754 483.575C163.988 483.335 164.161 483.041 164.257 482.72C164.321 482.503 164.363 482.28 164.384 482.055C164.455 481.326 164.534 477.853 164.613 472.444C164.692 467.034 164.756 459.696 164.811 451.226C164.118 450.913 163.267 450.553 162.277 450.188C161.287 449.824 160.154 449.456 158.899 449.123C156.88 448.586 154.818 448.22 152.737 448.03C150.876 447.852 149.173 447.824 147.621 447.801C146.611 447.801 145.379 447.769 143.922 447.836C142.234 447.918 140.552 448.096 138.885 448.371C137.84 448.545 136.885 448.743 136.03 448.945C135.175 449.147 134.41 449.353 133.773 449.539Z" fill="#ECE7E1" stroke="black" stroke-width="1.188" stroke-miterlimit="10" stroke-linecap="round"/>
<path d="M179.491 450.382C179.417 452.846 179.341 455.309 179.261 457.772L179.036 465.157C178.943 468.061 178.853 470.956 178.766 473.842C178.679 476.727 178.589 479.623 178.497 482.53C178.487 482.68 178.487 482.831 178.497 482.981C178.507 483.244 178.578 483.502 178.703 483.734C178.809 483.89 178.963 484.007 179.143 484.066C179.455 484.175 179.786 484.222 180.117 484.205H229.221C229.364 481.5 228.865 478.799 227.763 476.324C225.946 472.364 221.942 468.305 213.214 468.04C212.686 464.967 212.158 461.893 211.63 458.817L210.046 449.598C209.183 449.373 208.209 449.139 207.132 448.917C206.055 448.696 204.879 448.486 203.607 448.311C202.336 448.137 200.938 447.979 199.342 447.88C197.747 447.781 195.984 447.741 194.084 447.805C193.01 447.836 191.557 447.888 189.799 448.074C187.731 448.291 185.68 448.648 183.661 449.143C182.794 449.357 182.002 449.575 181.285 449.788C180.568 450.002 180.002 450.204 179.491 450.382Z" fill="#ECE7E1" stroke="black" stroke-width="1.188" stroke-miterlimit="10" stroke-linecap="round"/>
<path d="M128.173 472.606L128.811 470.036L129.452 467.462" stroke="black" stroke-width="1.188" stroke-miterlimit="10" stroke-linecap="round"/>
<path d="M228.983 480.197L203.77 480.126L178.56 480.055C178.56 480.554 178.56 481.053 178.541 481.552V483.049C178.539 483.199 178.567 483.349 178.624 483.489C178.68 483.629 178.764 483.757 178.87 483.864C178.976 483.972 179.102 484.057 179.242 484.115C179.381 484.174 179.53 484.204 179.681 484.205H229.24C229.26 483.904 229.272 483.583 229.272 483.247C229.272 482.91 229.272 482.546 229.24 482.173C229.209 481.801 229.181 481.457 229.138 481.128C229.094 480.799 229.039 480.486 228.983 480.197Z" fill="#DBCAF4" stroke="black" stroke-width="1.188" stroke-miterlimit="10" stroke-linecap="round"/>
<path d="M112.135 480.221L138.271 480.201H164.407L164.36 481.29L164.316 482.379C164.287 482.562 164.232 482.739 164.154 482.906C164.012 483.199 163.805 483.455 163.548 483.654C163.306 483.857 163.022 484.003 162.716 484.082C162.54 484.127 162.36 484.149 162.178 484.149C154.23 484.173 145.712 484.177 137.194 484.177C128.676 484.177 120.166 484.177 112.215 484.205C112.179 483.92 112.151 483.619 112.127 483.306C112.104 482.993 112.088 482.668 112.08 482.332C112.072 481.995 112.08 481.583 112.08 481.231C112.08 480.878 112.112 480.542 112.135 480.221Z" fill="#DBCAF4" stroke="black" stroke-width="1.188" stroke-miterlimit="10" stroke-linecap="round"/>
<path d="M213.266 468.242L213.698 470.519L214.125 472.8" stroke="black" stroke-width="1.188" stroke-miterlimit="10" stroke-linecap="round"/>
<path d="M270.543 129.919C270.543 129.619 269.751 129.341 268.472 129.127C266.767 128.877 265.047 128.738 263.324 128.712C263.298 126.994 263.119 125.282 262.79 123.595C262.504 122.308 262.136 121.528 261.728 121.528C261.32 121.528 260.936 122.32 260.671 123.595C260.34 125.281 260.16 126.994 260.132 128.712C258.409 128.738 256.689 128.877 254.984 129.127C253.693 129.345 252.913 129.622 252.913 129.919C252.913 130.216 253.705 130.498 254.984 130.711C256.69 130.956 258.41 131.088 260.132 131.107C260.16 132.826 260.34 134.538 260.671 136.224C260.952 137.511 261.324 138.291 261.728 138.291C262.132 138.291 262.52 137.499 262.79 136.224C263.123 134.546 263.307 132.842 263.34 131.131C265.063 131.112 266.783 130.98 268.488 130.735C269.763 130.498 270.543 130.22 270.543 129.919Z" fill="url(#paint4_linear_94_3)" stroke="black" stroke-width="1.188" stroke-miterlimit="10" stroke-linecap="round"/>
<path d="M135.404 187.24C135.404 186.928 134.612 186.643 133.262 186.421C131.496 186.16 129.716 186.014 127.932 185.985C127.906 184.209 127.721 182.438 127.377 180.695C127.084 179.36 126.7 178.552 126.28 178.552C125.861 178.552 125.488 179.344 125.187 180.695C124.844 182.438 124.658 184.209 124.633 185.985C122.849 186.014 121.068 186.16 119.303 186.421C117.964 186.643 117.16 186.928 117.16 187.24C117.16 187.553 117.952 187.842 119.303 188.064C121.068 188.326 122.849 188.47 124.633 188.496C124.658 190.274 124.844 192.046 125.187 193.79C125.48 195.121 125.861 195.929 126.28 195.929C126.7 195.929 127.072 195.137 127.377 193.79C127.721 192.046 127.906 190.274 127.932 188.496C129.716 188.475 131.496 188.336 133.262 188.08C134.596 187.842 135.404 187.553 135.404 187.24Z" fill="url(#paint5_linear_94_3)" stroke="black" stroke-width="1.188" stroke-miterlimit="10" stroke-linecap="round"/>
<path d="M259.97 149.775C258.414 150.096 257.459 150.432 256.802 151.082C256.145 151.731 255.816 152.686 255.495 154.25C255.489 154.285 255.471 154.317 255.444 154.34C255.417 154.363 255.382 154.376 255.347 154.376C255.311 154.376 255.276 154.363 255.249 154.34C255.222 154.317 255.204 154.285 255.198 154.25C254.877 152.693 254.541 151.735 253.891 151.082C253.242 150.428 252.307 150.096 250.723 149.775C250.688 149.769 250.656 149.751 250.633 149.724C250.61 149.697 250.597 149.662 250.597 149.626C250.597 149.591 250.61 149.556 250.633 149.529C250.656 149.502 250.688 149.484 250.723 149.478C252.28 149.157 253.238 148.817 253.891 148.171C254.545 147.526 254.877 146.587 255.198 145.003C255.204 144.968 255.222 144.936 255.249 144.913C255.276 144.89 255.311 144.877 255.347 144.877C255.382 144.877 255.417 144.89 255.444 144.913C255.471 144.936 255.489 144.968 255.495 145.003C255.816 146.559 256.156 147.514 256.802 148.171C257.447 148.828 258.386 149.157 259.97 149.478C260.005 149.484 260.037 149.502 260.06 149.529C260.083 149.556 260.096 149.591 260.096 149.626C260.096 149.662 260.083 149.697 260.06 149.724C260.037 149.751 260.005 149.769 259.97 149.775Z" fill="url(#paint6_linear_94_3)" stroke="black" stroke-width="1.188" stroke-miterlimit="10" stroke-linecap="round"/>
<path d="M270.543 147.787C269.774 147.788 269.027 147.522 268.432 147.034C267.836 146.546 267.428 145.867 267.278 145.112C267.127 144.357 267.242 143.574 267.605 142.895C267.967 142.215 268.554 141.683 269.265 141.388C269.976 141.093 270.767 141.054 271.504 141.277C272.241 141.5 272.877 141.972 273.305 142.612C273.733 143.252 273.925 144.02 273.85 144.786C273.775 145.552 273.436 146.269 272.892 146.813C272.583 147.122 272.217 147.367 271.815 147.534C271.412 147.701 270.98 147.787 270.543 147.787ZM270.543 142.96C270.346 142.959 270.15 142.998 269.967 143.073C269.784 143.149 269.618 143.26 269.478 143.399C269.338 143.539 269.227 143.705 269.152 143.888C269.077 144.071 269.038 144.267 269.038 144.465C269.037 144.662 269.076 144.857 269.151 145.04C269.227 145.222 269.338 145.387 269.478 145.526C269.618 145.666 269.784 145.778 269.966 145.854C270.149 145.93 270.345 145.969 270.543 145.969C270.942 145.967 271.323 145.808 271.605 145.526C271.887 145.245 272.046 144.863 272.048 144.465C272.048 144.267 272.009 144.07 271.933 143.888C271.857 143.705 271.745 143.539 271.605 143.399C271.466 143.259 271.3 143.148 271.118 143.072C270.936 142.997 270.741 142.959 270.543 142.96Z" fill="url(#paint7_linear_94_3)" stroke="black" stroke-width="1.188" stroke-miterlimit="10" stroke-linecap="round"/>
<path d="M138.841 205.504C138.043 205.506 137.269 205.23 136.651 204.725C136.033 204.22 135.609 203.516 135.453 202.733C135.296 201.95 135.415 201.137 135.791 200.433C136.166 199.728 136.774 199.176 137.512 198.869C138.249 198.563 139.069 198.522 139.833 198.754C140.598 198.985 141.258 199.474 141.702 200.138C142.145 200.801 142.345 201.598 142.267 202.393C142.189 203.187 141.838 203.93 141.273 204.494C140.954 204.815 140.575 205.069 140.158 205.242C139.741 205.415 139.293 205.504 138.841 205.504ZM138.841 200.506C138.428 200.508 138.033 200.672 137.741 200.965C137.449 201.257 137.285 201.654 137.285 202.067C137.284 202.324 137.346 202.578 137.466 202.805C137.587 203.033 137.761 203.227 137.975 203.37C138.189 203.514 138.434 203.602 138.69 203.628C138.946 203.653 139.205 203.615 139.443 203.517C139.68 203.418 139.89 203.263 140.053 203.063C140.216 202.864 140.327 202.628 140.377 202.375C140.426 202.123 140.412 201.862 140.337 201.616C140.261 201.37 140.125 201.147 139.942 200.966C139.798 200.821 139.626 200.707 139.437 200.629C139.248 200.552 139.046 200.513 138.841 200.514V200.506Z" fill="url(#paint8_linear_94_3)" stroke="black" stroke-width="1.188" stroke-miterlimit="10" stroke-linecap="round"/>
<path d="M256.069 375.135L250.688 386.286L245.302 397.441" stroke="black" stroke-width="1.188" stroke-miterlimit="10" stroke-linecap="round"/>
<path d="M141.685 249.967C141.784 249.226 141.926 248.296 142.144 247.219C142.362 246.142 142.655 244.918 143.055 243.595C143.611 241.64 144.272 239.717 145.035 237.833C145.899 235.744 147.041 233.782 148.433 232C149.415 230.749 150.468 229.66 151.205 228.682C151.941 227.704 152.349 226.829 152.04 226.017C151.944 225.764 151.791 225.536 151.593 225.352C151.422 225.197 151.234 225.064 151.03 224.956C150.895 224.888 150.753 224.835 150.607 224.797C150.322 224.727 150.028 224.705 149.735 224.73C148.744 224.861 147.795 225.219 146.963 225.775C146.511 226.056 146.079 226.37 145.673 226.714C144.641 227.635 143.694 228.647 142.845 229.739C142.188 230.559 141.804 231.09 141.657 231.002C141.621 230.983 141.614 230.939 141.625 230.82C141.637 230.701 141.657 230.519 141.685 230.21C141.685 230.159 141.685 230.21 141.685 230.02C141.685 229.83 141.685 229.442 141.748 228.508C141.785 227.66 141.827 226.814 141.875 225.969C141.918 225.122 141.974 224.274 142.033 223.427C142.081 222.778 142.116 222.283 142.168 221.879C142.205 221.529 142.291 221.187 142.421 220.861C142.592 220.472 142.817 220.109 143.091 219.784C143.38 219.453 143.692 219.144 144.025 218.857C145.094 217.917 146.231 217.058 147.427 216.287C148.219 215.745 148.65 215.368 148.742 214.703C148.788 214.295 148.714 213.882 148.528 213.515C148.357 213.155 148.091 212.848 147.759 212.628C147.213 212.287 146.552 212.311 145.779 212.545C144.911 212.858 144.072 213.247 143.273 213.709C142.115 214.293 141.01 214.975 139.97 215.749C138.829 216.622 137.896 217.738 137.238 219.016C136.89 219.69 136.617 220.401 136.422 221.134C136.281 221.668 136.181 222.212 136.121 222.762C135.902 222.493 135.643 222.259 135.353 222.069C134.794 221.686 134.125 221.495 133.448 221.526C132.882 221.557 132.335 221.739 131.864 222.053C131.386 222.371 131.001 222.809 130.747 223.324C130.467 223.103 130.154 222.925 129.821 222.797C129.198 222.54 128.509 222.493 127.858 222.664C127.206 222.835 126.629 223.214 126.213 223.744C125.779 224.288 125.513 224.947 125.449 225.641C125.221 225.639 124.993 225.656 124.768 225.692C124.473 225.743 124.187 225.833 123.916 225.961C123.077 226.417 122.426 227.155 122.079 228.044C121.744 228.828 121.526 229.656 121.433 230.503C121.069 233.5 120.706 236.498 120.344 239.497C119.983 242.496 119.62 245.493 119.255 248.49L130.466 249.242L141.685 249.967Z" fill="#F2B3C1" stroke="black" stroke-width="1.188" stroke-miterlimit="10" stroke-linecap="round"/>
<path d="M135.97 230.42L136.054 226.571L136.133 222.718" fill="#F2B3C1"/>
<path d="M135.97 230.42L136.054 226.571L136.133 222.718" stroke="black" stroke-width="1.188" stroke-miterlimit="10" stroke-linecap="round"/>
<path d="M238.265 229.363C238.265 228.995 238.23 228.603 238.186 228.175C238.142 227.747 238.083 227.328 238 226.876C237.857 226.091 237.654 225.318 237.394 224.563C237.18 223.939 236.928 223.328 236.642 222.734C236.993 222.574 237.365 222.46 237.746 222.397C238.265 222.302 238.799 222.363 239.283 222.572C240.19 222.987 240.768 223.993 240.954 225.098C241.06 225.64 241.052 226.199 240.932 226.738C240.811 227.277 240.58 227.785 240.253 228.23C239.968 228.566 239.614 228.836 239.216 229.022C238.914 229.175 238.595 229.289 238.265 229.363Z" fill="#F2B3C1" stroke="black" stroke-width="1.188" stroke-miterlimit="10" stroke-linecap="round"/>
<path d="M253.701 304.306C254.05 303.162 254.383 301.966 254.695 300.742C255.008 299.518 255.301 298.208 255.567 296.873C256.148 293.968 256.566 291.033 256.818 288.082C257.06 285.31 257.135 282.72 257.111 280.34" stroke="#070707" stroke-width="1.188" stroke-miterlimit="10" stroke-linecap="round"/>
<path d="M130.759 223.296L130.593 227.007C130.537 228.242 130.478 229.478 130.423 230.717" fill="#F2B3C1"/>
<path d="M130.759 223.296L130.593 227.007C130.537 228.242 130.478 229.478 130.423 230.717" stroke="black" stroke-width="1.188" stroke-miterlimit="10" stroke-linecap="round"/>
<path d="M125.461 225.613C125.421 226.488 125.378 227.359 125.334 228.234C125.29 229.11 125.247 229.981 125.207 230.852" fill="#F2B3C1"/>
<path d="M125.461 225.613C125.421 226.488 125.378 227.359 125.334 228.234C125.29 229.11 125.247 229.981 125.207 230.852" stroke="black" stroke-width="1.188" stroke-miterlimit="10" stroke-linecap="round"/>
<path d="M171.805 388.096V371.42V354.745" fill="#F6991A"/>
<path d="M171.805 388.096V371.42V354.745" stroke="#070707" stroke-width="1.188" stroke-miterlimit="10" stroke-linecap="round"/>
<path d="M156.182 448.509V464.033C156.107 465.523 156.367 467.012 156.943 468.389C157.881 470.448 159.944 472.25 164.435 471.236" stroke="black" stroke-width="1.188" stroke-miterlimit="10" stroke-linecap="round"/>
<path d="M187.411 448.509V464.033C187.487 465.523 187.228 467.011 186.654 468.389C185.712 470.448 183.649 472.25 179.158 471.236" stroke="black" stroke-width="1.188" stroke-miterlimit="10" stroke-linecap="round"/>
<path d="M157.786 480.189V482.177V484.165" stroke="black" stroke-width="1.188" stroke-miterlimit="10" stroke-linecap="round"/>
<path d="M153.525 480.189V482.177V484.165" stroke="black" stroke-width="1.188" stroke-miterlimit="10" stroke-linecap="round"/>
<path d="M189.213 480.189V482.177V484.165" stroke="black" stroke-width="1.188" stroke-miterlimit="10" stroke-linecap="round"/>
<path d="M184.948 480.189V482.177V484.165" stroke="black" stroke-width="1.188" stroke-miterlimit="10" stroke-linecap="round"/>
<path d="M225.201 274.214L233.755 281.437L242.308 288.664" fill="#FC762B"/>
<path d="M225.201 274.214L233.755 281.437L242.308 288.664" stroke="#070707" stroke-width="1.188" stroke-miterlimit="10" stroke-linecap="round"/>
<path d="M118.452 253.226L129.619 253.951L140.786 254.675" fill="#FC762B"/>
<path d="M118.452 253.226L129.619 253.951L140.786 254.675" stroke="#070707" stroke-width="1.188" stroke-miterlimit="10" stroke-linecap="round"/>
<defs>
<linearGradient id="paint0_linear_94_3" x1="196.392" y1="271.252" x2="196.392" y2="105.367" gradientUnits="userSpaceOnUse">
<stop offset="0.1" stop-color="#A4C2FF"/>
<stop offset="0.39" stop-color="#B5DEED"/>
<stop offset="0.65" stop-color="#C6FCDB"/>
</linearGradient>
<linearGradient id="paint1_linear_94_3" x1="196.392" y1="118.697" x2="196.392" y2="271.252" gradientUnits="userSpaceOnUse">
<stop stop-color="#FEC2D9"/>
<stop offset="0.47" stop-color="#DBCAF4"/>
<stop offset="0.81" stop-color="#C6FCDB"/>
</linearGradient>
<linearGradient id="paint2_linear_94_3" x1="196.392" y1="134.43" x2="196.392" y2="271.252" gradientUnits="userSpaceOnUse">
<stop offset="0.13" stop-color="#DBCAF4"/>
<stop offset="0.56" stop-color="#C6FCDB"/>
<stop offset="1" stop-color="#FEC2D9"/>
</linearGradient>
<linearGradient id="paint3_linear_94_3" x1="198" y1="484.633" x2="198" y2="271.252" gradientUnits="userSpaceOnUse">
<stop offset="0.02" stop-color="#A4C2FF"/>
<stop offset="0.88" stop-color="#FEC2D9"/>
</linearGradient>
<linearGradient id="paint4_linear_94_3" x1="261.728" y1="121.524" x2="261.728" y2="138.315" gradientUnits="userSpaceOnUse">
<stop offset="0.16" stop-color="#FEC2D9"/>
<stop offset="0.8" stop-color="#A4C2FF"/>
</linearGradient>
<linearGradient id="paint5_linear_94_3" x1="126.28" y1="178.552" x2="126.28" y2="195.929" gradientUnits="userSpaceOnUse">
<stop offset="0.16" stop-color="#FEC2D9"/>
<stop offset="0.8" stop-color="#A4C2FF"/>
</linearGradient>
<linearGradient id="paint6_linear_94_3" x1="255.357" y1="144.892" x2="255.357" y2="154.361" gradientUnits="userSpaceOnUse">
<stop offset="0.26" stop-color="#FEC2D9"/>
<stop offset="0.8" stop-color="#A4C2FF"/>
</linearGradient>
<linearGradient id="paint7_linear_94_3" x1="270.543" y1="141.142" x2="270.543" y2="147.787" gradientUnits="userSpaceOnUse">
<stop offset="0.16" stop-color="#FEC2D9"/>
<stop offset="0.8" stop-color="#A4C2FF"/>
</linearGradient>
<linearGradient id="paint8_linear_94_3" x1="138.841" y1="198.633" x2="138.841" y2="205.512" gradientUnits="userSpaceOnUse">
<stop offset="0.16" stop-color="#FEC2D9"/>
<stop offset="0.8" stop-color="#A4C2FF"/>
</linearGradient>
</defs>
</svg>
