<svg width="484" height="172" viewBox="0 0 484 172" fill="none" xmlns="http://www.w3.org/2000/svg">
<path d="M354.514 -225.786C393.914 -192.586 424.714 -153.886 450.114 -109.286C475.414 -64.7864 495.714 -14.3864 475.114 20.2136C454.914 54.8136 394.314 73.6136 354.214 99.0136C314.514 124.014 295.314 155.914 267.914 166.514C240.814 177.114 205.914 167.214 159.014 167.214C112.414 167.214 53.814 177.114 29.514 154.214C5.21404 131.614 14.414 76.4136 12.014 26.1136C9.31404 -24.5864 -5.78597 -70.4864 2.41403 -113.286C10.314 -156.086 40.8141 -196.186 80.8141 -229.386C120.514 -262.286 169.914 -288.686 218.214 -287.986C266.814 -287.086 315.114 -259.286 354.514 -225.786Z" fill="#C6FCDB"/>
</svg>
