<svg width="234" height="545" viewBox="0 0 234 545" fill="none" xmlns="http://www.w3.org/2000/svg">
<path d="M-7.59156 9.56392C47.4076 21.8767 96.8403 43.87 144.014 74.3156C191.039 104.715 236.194 143.364 233.682 187.341C231.559 231.117 182.255 279.968 156.175 324.868C130.282 369.178 127.765 409.829 106.533 433.954C85.5923 457.927 46.7285 465.949 1.22151 489.639C-43.9943 513.177 -95.8532 552.382 -130.998 542.436C-165.992 532.781 -184.947 474.574 -212.682 426.98C-240.911 379.15 -278.747 342.24 -292.409 296.57C-306.362 251.051 -297.023 196.736 -274.98 144.318C-253.077 92.3426 -218.48 41.7746 -171.261 18.0572C-123.65 -5.61759 -62.7423 -3.0399 -7.59156 9.56392Z" fill="#E8353A"/>
</svg>
