<svg width="322" height="438" viewBox="0 0 322 438" fill="none" xmlns="http://www.w3.org/2000/svg">
<path d="M-4.59156 125.564C50.4076 137.877 99.8403 159.87 147.014 190.316C194.039 220.715 239.194 259.364 236.682 303.342C234.559 347.117 185.255 395.968 159.175 440.868C133.282 485.178 130.765 525.829 109.533 549.954C88.5923 573.927 49.7285 581.949 4.22151 605.639C-40.9943 629.177 -92.8532 668.382 -127.998 658.436C-162.992 648.781 -181.947 590.574 -209.682 542.98C-237.911 495.15 -275.747 458.241 -289.409 412.57C-303.362 367.051 -294.023 312.736 -271.98 260.318C-250.077 208.343 -215.48 157.775 -168.261 134.057C-120.65 110.383 -59.7423 112.96 -4.59156 125.564Z" fill="#F4494E"/>
<path d="M237.401 274.213C237.966 283.316 226.729 291.257 219.353 300.673C211.82 310.026 208.179 320.698 200.866 324.778C193.522 329.047 182.724 326.598 170.232 328.199C157.772 329.8 143.71 335.575 133.478 331.024C123.309 326.598 116.874 311.909 115.525 298.35C114.269 284.916 118.098 272.644 115.023 257.735C111.79 242.764 101.683 225.25 104.225 215.457C106.705 205.538 121.959 203.561 134.671 195.463C147.54 187.428 148.167 176.662 159.906 176.192C169.008 175.689 168.224 186.33 182.285 193.015C193.898 198.539 199.36 212.977 194.432 224.559C191.607 231.182 189.535 237.585 192.392 243.015C199.36 255.946 236.93 265.08 237.401 274.213Z" fill="#F55C4A"/>
<path fill-rule="evenodd" clip-rule="evenodd" d="M131.375 198.445C133.729 197.409 133.101 193.172 129.931 190.818C126.761 188.464 121.645 190.598 120.358 190.535C113.014 190.159 110.471 197.001 112.888 204.534C113.579 206.731 119.511 212.224 121.896 210.78C124.344 209.305 119.574 202.306 121.645 200.705" fill="#1C2628"/>
<path d="M131.375 198.445C133.729 197.409 133.101 193.172 129.931 190.818C126.761 188.464 121.645 190.598 120.358 190.535C113.014 190.159 110.471 197.001 112.888 204.534C113.579 206.731 119.511 212.224 121.896 210.78C124.344 209.305 119.574 202.306 121.645 200.705" stroke="#1C2628" stroke-width="0.668544" stroke-linecap="round" stroke-linejoin="round"/>
<path fill-rule="evenodd" clip-rule="evenodd" d="M117.847 204.942C117.847 204.942 117.439 212.977 116.592 214.672C114.112 219.631 102.53 230.115 102.53 230.115C102.53 230.115 116.278 229.393 120.703 228.89C125.129 228.388 132.599 221.891 132.599 221.891L128.927 207.955L117.847 204.942Z" fill="#F45B49" stroke="#1C2628" stroke-width="0.668544" stroke-linecap="round" stroke-linejoin="round"/>
<path fill-rule="evenodd" clip-rule="evenodd" d="M115.964 204.597C115.305 199.669 118.475 195.181 123.058 194.584C125.317 194.27 127.577 192.638 129.304 194.051C131.03 195.463 132.191 199.952 132.505 202.4C133.164 207.328 129.994 211.816 125.412 212.412C122.932 212.726 120.484 212.914 118.726 211.251C117.22 209.838 116.247 206.857 115.964 204.597Z" fill="#F45B49" stroke="#1C2628" stroke-width="0.668544" stroke-linecap="round" stroke-linejoin="round"/>
<path fill-rule="evenodd" clip-rule="evenodd" d="M130.245 201.019C131.312 202.337 134.2 204.754 133.698 205.601C133.07 206.731 130.622 205.444 130.371 205.193" fill="#F45B49"/>
<path d="M130.245 201.019C131.312 202.337 134.2 204.754 133.698 205.601C133.07 206.731 130.622 205.444 130.371 205.193" stroke="#1C2628" stroke-width="0.668544" stroke-linecap="round" stroke-linejoin="round"/>
<path fill-rule="evenodd" clip-rule="evenodd" d="M123.309 200.516C123.403 199.826 124.313 199.387 125.317 199.512C126.322 199.669 127.075 200.328 126.981 201.019C126.887 201.709 125.977 202.149 124.972 202.023C123.936 201.898 123.183 201.207 123.309 200.516Z" fill="#FAFCFF" stroke="#1C2628" stroke-width="0.668544" stroke-linecap="round" stroke-linejoin="round"/>
<path fill-rule="evenodd" clip-rule="evenodd" d="M130.151 200.673C130.245 200.014 130.936 199.606 131.752 199.732C132.536 199.857 133.133 200.485 133.039 201.144C132.944 201.803 132.254 202.211 131.438 202.086C130.653 201.96 130.088 201.301 130.151 200.673Z" fill="#FAFCFF" stroke="#1C2628" stroke-width="0.668544" stroke-linecap="round" stroke-linejoin="round"/>
<path fill-rule="evenodd" clip-rule="evenodd" d="M130.653 193.454C131.344 193.957 131.061 192.105 131.344 192.984C132.285 195.777 130.339 195.432 128.174 195.432C126.133 195.432 123.779 196.279 123.779 196.279C123.779 196.279 120.766 196.028 120.327 199.795C120.17 201.144 121.582 204.126 124.847 205.79C127.483 207.139 132.411 206.417 132.411 206.417C132.411 206.417 132.474 215.08 129.084 216.21C126.918 216.932 123.466 218.25 120.484 214.452C119.825 213.605 115.87 207.108 115.493 205.476C115.085 203.655 118.13 206.229 117.941 204.817C117.533 201.741 117.659 201.238 117.094 201.019C114.991 200.265 114.081 197.598 115.399 195.965C116.498 194.647 118.036 193.862 119.636 193.392C121.3 192.921 123.183 193.109 124.752 192.544" fill="#1C2628"/>
<path d="M130.653 193.454C131.344 193.957 131.061 192.105 131.344 192.984C132.285 195.777 130.339 195.432 128.174 195.432C126.133 195.432 123.779 196.279 123.779 196.279C123.779 196.279 120.766 196.028 120.327 199.795C120.17 201.144 121.582 204.126 124.847 205.79C127.483 207.139 132.411 206.417 132.411 206.417C132.411 206.417 132.474 215.08 129.084 216.21C126.918 216.932 123.466 218.25 120.484 214.452C119.825 213.605 115.87 207.108 115.493 205.476C115.085 203.655 118.13 206.229 117.941 204.817C117.533 201.741 117.659 201.238 117.094 201.019C114.991 200.265 114.081 197.598 115.399 195.965C116.498 194.647 118.036 193.862 119.636 193.392C121.3 192.921 123.183 193.109 124.752 192.544" stroke="#1C2628" stroke-width="0.668544" stroke-linecap="round" stroke-linejoin="round"/>
<path fill-rule="evenodd" clip-rule="evenodd" d="M126.039 192.513C124.344 185.671 119.04 187.02 118.695 190.598C116.278 187.554 109.624 190.284 112.417 196.122C111.319 195.652 109.498 200.956 115.336 199.952" fill="#1C2628"/>
<path d="M126.039 192.513C124.344 185.671 119.04 187.02 118.695 190.598C116.278 187.554 109.624 190.284 112.417 196.122C111.319 195.652 109.498 200.956 115.336 199.952" stroke="#1C2628" stroke-width="0.668544" stroke-linecap="round" stroke-linejoin="round"/>
<path fill-rule="evenodd" clip-rule="evenodd" d="M117.722 201.176C117.973 201.207 116.811 200.046 115.43 201.678C114.457 202.808 115.493 206.041 117.722 204.911" fill="#F45B49"/>
<path d="M117.722 201.176C117.973 201.207 116.811 200.046 115.43 201.678C114.457 202.808 115.493 206.041 117.722 204.911" stroke="#1C2628" stroke-width="0.668544" stroke-linecap="round" stroke-linejoin="round"/>
<path d="M116.56 202.682L116.623 202.871L116.749 203.184L117.031 203.467" stroke="#1C2628" stroke-width="0.668544" stroke-linecap="round" stroke-linejoin="round"/>
<path fill-rule="evenodd" clip-rule="evenodd" d="M126.667 200.987C126.698 200.517 126.322 200.109 125.851 200.109C125.38 200.077 124.972 200.454 124.972 200.925C124.941 201.395 125.317 201.803 125.788 201.803C126.259 201.835 126.667 201.458 126.667 200.987Z" fill="#1C2628" stroke="#1C2628" stroke-width="0.668544" stroke-linecap="round" stroke-linejoin="round"/>
<path fill-rule="evenodd" clip-rule="evenodd" d="M132.819 201.081C132.85 200.642 132.568 200.265 132.191 200.265C131.815 200.234 131.501 200.579 131.501 201.019C131.469 201.458 131.752 201.835 132.128 201.835C132.474 201.866 132.788 201.521 132.819 201.081Z" fill="#1C2628" stroke="#1C2628" stroke-width="0.668544" stroke-linecap="round" stroke-linejoin="round"/>
<path d="M130.465 196.311C131.375 196.06 131.752 194.898 132.066 194.176" stroke="#FAF6EB" stroke-width="0.668544" stroke-linecap="round" stroke-linejoin="round"/>
<path fill-rule="evenodd" clip-rule="evenodd" d="M132.191 192.952C132.191 192.952 127.012 192.952 125.788 193.046C123.12 193.298 121.394 194.239 119.291 195.809C117.251 197.347 115.525 199.387 113.861 201.333C113.673 201.552 112.763 203.404 113.076 203.247C113.422 203.09 112.166 203.938 111.601 204.095C110.408 204.377 108.776 203.938 107.96 202.996C105.041 199.575 105.481 197.315 106.987 193.549C108.149 190.63 110.063 189.029 112.009 188.182C115.493 186.675 119.103 187.554 119.103 187.554C119.103 187.554 125.443 186.926 127.703 187.742C129.115 188.276 130.12 189.155 130.81 190.065C131.877 191.477 132.191 192.952 132.191 192.952Z" fill="#FAF6EB" stroke="#1C2628" stroke-width="0.668544" stroke-linecap="round" stroke-linejoin="round"/>
<path fill-rule="evenodd" clip-rule="evenodd" d="M125.694 207.139C124.784 205.946 126.259 204.22 126.259 204.22L127.201 206.355L129.304 207.139C129.335 207.171 127.389 209.336 125.694 207.139Z" fill="#FB564C"/>
<path fill-rule="evenodd" clip-rule="evenodd" d="M94.4638 237.02C94.4638 237.02 64.6462 219.412 70.0447 211.973C75.4747 204.534 100.522 189.845 100.522 189.845L98.2931 180.366L106.862 172.927C106.862 172.927 107.96 173.555 107.176 175.721C106.391 177.887 103.315 180.209 103.315 180.209C103.315 180.209 110.785 189.908 107.709 193.549C101.589 200.893 85.9893 212.946 85.9893 212.946L103.786 222.644L94.4638 237.02Z" fill="#F45B49" stroke="#1C2628" stroke-width="0.668544" stroke-linecap="round" stroke-linejoin="round"/>
<path fill-rule="evenodd" clip-rule="evenodd" d="M123.999 290.723L114.991 307.986L103.033 330.898C103.033 330.898 88.8456 360.716 84.985 368.688C83.5726 371.607 81.3128 373.867 79.0529 375.531C75.1295 378.418 71.112 379.611 71.112 379.611C71.112 379.611 61.3192 385.449 54.4768 386.83C47.6345 388.211 43.6797 385.104 43.6797 385.104L62.9199 367.464L79.869 325.563L93.334 293.516L123.999 290.723Z" fill="#F45B49" stroke="#1C2628" stroke-width="0.668544" stroke-linecap="round" stroke-linejoin="round"/>
<path fill-rule="evenodd" clip-rule="evenodd" d="M114.96 307.986L103.001 330.898C103.001 330.898 88.8141 360.716 84.9535 368.688C83.5411 371.607 81.2812 373.867 79.0213 375.531C77.2009 375.185 75.8199 374.495 75.1607 373.396C72.587 368.971 81.2184 356.479 86.1148 350.704C88.2491 348.193 90.1951 346.341 90.9484 342.888C92.1725 337.364 88.9083 333.943 90.9484 331.369C93.0514 328.701 97.728 330.867 99.7054 328.011C100.835 326.347 99.9565 324.59 99.7054 321.859C99.1091 315.111 102.938 306.919 107.521 305.694C109.843 305.067 112.574 306.165 114.96 307.986Z" fill="#1C2628" stroke="#1C2628" stroke-width="0.668544" stroke-linecap="round" stroke-linejoin="round"/>
<path fill-rule="evenodd" clip-rule="evenodd" d="M166.309 321.733C165.901 331.149 137.244 373.302 137.244 373.302L139.096 374.432L156.83 385.167L113.767 382.718L139.41 323.773L130.496 296.278L151.117 283.316C151.117 283.316 157.081 294.427 161.538 305.13C164.269 311.689 166.466 318.124 166.309 321.733Z" fill="#F45B49" stroke="#1C2628" stroke-width="0.668544" stroke-linecap="round" stroke-linejoin="round"/>
<path fill-rule="evenodd" clip-rule="evenodd" d="M166.309 321.733C165.901 331.149 137.244 373.302 137.244 373.302L139.096 374.432C136.24 373.961 134.168 372.957 133.541 371.576C132.285 368.72 137.904 366.02 140.791 355.945C142.894 348.601 140.854 346.717 143.585 343.108C147.414 338.023 153.001 339.655 156.139 334.194C157.709 331.432 156.234 331.087 158.148 326.096C160.377 320.289 163.358 318.155 162.323 315.77C161.632 314.169 159.969 314.451 158.148 312.694C155.669 310.308 155.355 306.479 155.606 303.309C157.583 303.905 159.529 304.502 161.507 305.098C164.269 311.689 166.466 318.124 166.309 321.733Z" fill="#1C2628" stroke="#1C2628" stroke-width="0.668544" stroke-linecap="round" stroke-linejoin="round"/>
<path d="M153.032 308.519L148.167 309.43L148.136 309.461L135.267 311.878L132.788 306.824V306.793L129.9 300.861L129.837 300.704L127.734 296.435L125.474 291.759L135.267 311.878L165.399 306.165L153.064 308.519H153.032Z" fill="#FB564C"/>
<path d="M119.385 302.901L113.327 313.981L104.727 311.689L100.835 310.654L113.327 313.981L119.982 301.834L119.385 302.901Z" fill="#FB564C"/>
<path d="M146.001 263.856L100.114 265.896L90.823 290.817L94.2128 281.746L94.2756 281.589L100.114 265.896L146.001 263.856L150.49 273.648L154.131 281.621L154.193 281.746L155.355 284.289L155.386 284.32L160.753 296.027L162.699 300.296L162.731 300.327L165.399 306.165L146.001 263.856Z" fill="#FB564C"/>
<path d="M85.3931 306.542L97.4771 309.775L85.3931 306.542Z" fill="#F3A140" stroke="#1C2628" stroke-width="0.668544" stroke-linecap="round" stroke-linejoin="round"/>
<path d="M90.823 290.817L90.2581 292.292L90.823 290.817Z" fill="#F3A140" stroke="#1C2628" stroke-width="0.668544" stroke-linecap="round" stroke-linejoin="round"/>
<path d="M85.0479 306.448L85.3931 306.542L85.0479 306.448Z" fill="#F3A140" stroke="#1C2628" stroke-width="0.668544" stroke-linecap="round" stroke-linejoin="round"/>
<path d="M90.2581 292.292L90.1953 292.449L90.2581 292.292Z" fill="#F3A140" stroke="#1C2628" stroke-width="0.668544" stroke-linecap="round" stroke-linejoin="round"/>
<path d="M84.9851 306.448L90.1954 292.449L84.9851 306.448H85.0479H84.9851Z" fill="#F3A140"/>
<path d="M84.9851 306.448L90.1954 292.449L84.9851 306.448ZM84.9851 306.448H85.0479H84.9851Z" stroke="#1C2628" stroke-width="0.668544" stroke-linecap="round" stroke-linejoin="round"/>
<path d="M97.4771 309.775L100.835 310.654L97.4771 309.775Z" fill="#F3A140" stroke="#1C2628" stroke-width="0.668544" stroke-linecap="round" stroke-linejoin="round"/>
<path d="M119.982 301.834L125.474 291.759L119.982 301.834Z" fill="#F3A140" stroke="#1C2628" stroke-width="0.668544" stroke-linecap="round" stroke-linejoin="round"/>
<path d="M142.517 271.357C141.042 270.635 138.469 270.541 134.357 271.388H134.325H134.357C135.738 271.137 140.163 270.259 142.517 271.357Z" fill="#F3A140" stroke="#1C2628" stroke-width="0.668544" stroke-linecap="round" stroke-linejoin="round"/>
<path d="M130.528 265.645C131.03 266.304 131.155 267.026 130.998 267.81C131.249 266.994 131.187 266.178 130.528 265.645Z" fill="#F3A140" stroke="#1C2628" stroke-width="0.668544" stroke-linecap="round" stroke-linejoin="round"/>
<path d="M123.999 265.394C123.371 265.519 122.775 265.676 122.147 265.833C124.941 265.268 127.765 265.174 130.528 265.676C129.366 264.703 124.658 265.237 123.999 265.394Z" fill="#F3A140" stroke="#1C2628" stroke-width="0.668544" stroke-linecap="round" stroke-linejoin="round"/>
<path d="M153.063 308.519C154.005 307.923 155.009 307.201 156.077 306.385C155.104 307.138 154.099 307.86 153.063 308.519Z" fill="#F3A140" stroke="#1C2628" stroke-width="0.668544" stroke-linecap="round" stroke-linejoin="round"/>
<path d="M122.147 265.833C115.807 267.088 109.53 270.572 103.754 274.59C109.498 270.729 115.65 267.497 122.147 265.833Z" fill="#F3A140" stroke="#1C2628" stroke-width="0.668544" stroke-linecap="round" stroke-linejoin="round"/>
<path d="M97.2261 287.113C103.598 282.97 110.723 279.172 118.067 276.253C110.754 279.11 103.66 282.751 97.2261 287.113Z" fill="#F3A140" stroke="#1C2628" stroke-width="0.668544" stroke-linecap="round" stroke-linejoin="round"/>
<path d="M129.178 271.106C128.833 271.545 128.487 271.954 128.111 272.362C129.46 270.949 130.779 269.317 131.03 267.81C130.653 269.223 129.46 270.729 129.178 271.106Z" fill="#F3A140" stroke="#1C2628" stroke-width="0.668544" stroke-linecap="round" stroke-linejoin="round"/>
<path d="M128.111 272.362C127.891 272.613 127.64 272.832 127.42 273.052H127.452C127.672 272.832 127.891 272.581 128.111 272.362Z" fill="#F3A140" stroke="#1C2628" stroke-width="0.668544" stroke-linecap="round" stroke-linejoin="round"/>
<path d="M127.326 273.146C127.358 273.115 127.389 273.083 127.42 273.052H127.389C127.358 273.083 127.326 273.115 127.295 273.146C127.295 273.178 127.326 273.146 127.326 273.146Z" fill="#F3A140" stroke="#1C2628" stroke-width="0.668544" stroke-linecap="round" stroke-linejoin="round"/>
<path d="M127.389 273.052C124.282 273.931 121.143 275.029 118.067 276.253C121.111 275.061 124.187 274.056 127.263 273.146C127.326 273.146 127.357 273.083 127.389 273.052Z" fill="#F3A140" stroke="#1C2628" stroke-width="0.668544" stroke-linecap="round" stroke-linejoin="round"/>
<path d="M125.098 275.186C125.851 274.527 126.636 273.837 127.326 273.146H127.295C126.416 273.994 125.6 274.716 125.098 275.186Z" fill="#F3A140" stroke="#1C2628" stroke-width="0.668544" stroke-linecap="round" stroke-linejoin="round"/>
<path d="M134.325 271.388C132.034 271.828 129.743 272.393 127.42 273.052C127.389 273.083 127.358 273.115 127.326 273.146C129.649 272.487 132.003 271.891 134.325 271.388Z" fill="#F3A140" stroke="#1C2628" stroke-width="0.668544" stroke-linecap="round" stroke-linejoin="round"/>
<path d="M125.066 275.218C120.107 279.235 115.274 283.441 110.377 287.584C115.368 283.504 120.264 279.361 125.066 275.218Z" fill="#F3A140" stroke="#1C2628" stroke-width="0.668544" stroke-linecap="round" stroke-linejoin="round"/>
<path d="M110.377 287.584C103.974 292.826 97.4458 297.973 90.8545 302.807C97.6969 298.224 104.068 292.951 110.377 287.584Z" fill="#F3A140" stroke="#1C2628" stroke-width="0.668544" stroke-linecap="round" stroke-linejoin="round"/>
<path d="M142.204 277.446C141.262 277.886 140.32 278.356 139.347 278.827C140.289 278.356 141.231 277.917 142.204 277.446Z" fill="#F3A140" stroke="#1C2628" stroke-width="0.668544" stroke-linecap="round" stroke-linejoin="round"/>
<path d="M118.883 290.566C118.004 291.162 117.157 291.759 116.309 292.386C117.157 291.79 118.036 291.162 118.883 290.566Z" fill="#F3A140" stroke="#1C2628" stroke-width="0.668544" stroke-linecap="round" stroke-linejoin="round"/>
<path d="M110.377 287.584C115.274 283.41 120.107 279.204 125.066 275.218C125.569 274.716 126.385 274.025 127.263 273.178C124.188 274.056 121.112 275.092 118.067 276.285C110.722 279.204 103.598 283.002 97.2261 287.145C94.7779 288.808 92.4238 290.597 90.1954 292.481L84.9851 306.448L85.0479 306.479C87.0253 305.318 88.9399 304.094 90.8545 302.838C97.4144 297.973 103.974 292.857 110.377 287.584Z" fill="#F3A140" stroke="#1C2628" stroke-width="0.668544" stroke-linecap="round" stroke-linejoin="round"/>
<path d="M141.168 280.93C140.132 282.531 139.065 284.1 137.935 285.607C139.599 283.473 141.325 281.056 142.518 278.827C141.984 279.769 141.45 280.522 141.168 280.93Z" fill="#F3A140" stroke="#1C2628" stroke-width="0.668544" stroke-linecap="round" stroke-linejoin="round"/>
<path d="M124.156 287.145C122.367 288.243 120.609 289.405 118.883 290.597C120.609 289.373 122.367 288.243 124.156 287.145Z" fill="#F3A140" stroke="#1C2628" stroke-width="0.668544" stroke-linecap="round" stroke-linejoin="round"/>
<path d="M126.855 285.513C125.945 286.046 125.066 286.58 124.156 287.145C125.066 286.58 125.945 286.046 126.855 285.513Z" fill="#F3A140" stroke="#1C2628" stroke-width="0.668544" stroke-linecap="round" stroke-linejoin="round"/>
<path d="M137.935 279.518C136.993 279.989 136.052 280.459 135.11 280.93C136.052 280.459 136.993 279.989 137.935 279.518Z" fill="#F3A140" stroke="#1C2628" stroke-width="0.668544" stroke-linecap="round" stroke-linejoin="round"/>
<path d="M129.586 283.943C128.676 284.446 127.765 284.979 126.855 285.513C127.765 284.979 128.676 284.446 129.586 283.943Z" fill="#F3A140" stroke="#1C2628" stroke-width="0.668544" stroke-linecap="round" stroke-linejoin="round"/>
<path d="M110.063 297.314C108.996 298.224 107.992 299.135 106.956 300.076C107.96 299.135 108.996 298.224 110.063 297.314Z" fill="#F3A140" stroke="#1C2628" stroke-width="0.668544" stroke-linecap="round" stroke-linejoin="round"/>
<path d="M100.773 306.103C100.741 306.134 100.679 306.197 100.647 306.228C100.679 306.165 100.71 306.134 100.773 306.103Z" fill="#F3A140" stroke="#1C2628" stroke-width="0.668544" stroke-linecap="round" stroke-linejoin="round"/>
<path d="M105.763 301.175C105.669 301.269 105.575 301.363 105.481 301.457C105.575 301.332 105.669 301.238 105.763 301.175Z" fill="#F3A140" stroke="#1C2628" stroke-width="0.668544" stroke-linecap="round" stroke-linejoin="round"/>
<path d="M100.647 306.228C99.6113 307.327 98.6069 308.457 97.6025 309.618C98.6069 308.457 99.6113 307.327 100.647 306.228Z" fill="#F3A140" stroke="#1C2628" stroke-width="0.668544" stroke-linecap="round" stroke-linejoin="round"/>
<path d="M97.4771 309.775C97.5084 309.712 97.5712 309.681 97.6026 309.618C97.5712 309.649 97.5084 309.712 97.4771 309.775Z" fill="#F3A140" stroke="#1C2628" stroke-width="0.668544" stroke-linecap="round" stroke-linejoin="round"/>
<path d="M113.798 294.301C112.951 294.96 112.135 295.619 111.319 296.278C112.135 295.588 112.951 294.929 113.798 294.301Z" fill="#F3A140" stroke="#1C2628" stroke-width="0.668544" stroke-linecap="round" stroke-linejoin="round"/>
<path d="M106.956 300.076C106.548 300.422 106.171 300.798 105.763 301.175C106.14 300.798 106.548 300.422 106.956 300.076Z" fill="#F3A140" stroke="#1C2628" stroke-width="0.668544" stroke-linecap="round" stroke-linejoin="round"/>
<path d="M116.309 292.386C115.462 293.014 114.614 293.642 113.767 294.301C114.614 293.642 115.462 293.014 116.309 292.386Z" fill="#F3A140" stroke="#1C2628" stroke-width="0.668544" stroke-linecap="round" stroke-linejoin="round"/>
<path d="M94.2442 289.122C92.8632 290.095 91.5136 291.162 90.2581 292.292L90.1953 292.481C92.4238 290.597 94.7778 288.808 97.226 287.145C96.2216 287.773 95.2172 288.432 94.2442 289.122Z" fill="#F3A140" stroke="#1C2628" stroke-width="0.668544" stroke-linecap="round" stroke-linejoin="round"/>
<path d="M122.147 265.833C122.775 265.676 123.371 265.519 123.999 265.394C124.658 265.268 129.366 264.703 130.528 265.676C131.187 266.21 131.218 266.994 130.998 267.842C130.716 269.348 129.429 270.98 128.079 272.393C127.86 272.613 127.64 272.864 127.42 273.083C129.712 272.424 132.034 271.859 134.325 271.42H134.357C138.468 270.572 141.042 270.667 142.517 271.388C142.831 271.545 143.145 271.734 143.365 271.953C144.652 273.24 144.369 275.092 143.616 276.818C145.907 275.751 148.198 274.715 150.49 273.68L146.001 263.887L100.114 265.927L94.2441 281.621C97.2573 279.204 100.427 276.818 103.723 274.621C109.53 270.572 115.807 267.057 122.147 265.833Z" fill="#F3A140" stroke="#1C2628" stroke-width="0.668544" stroke-linecap="round" stroke-linejoin="round"/>
<path d="M142.549 278.859C141.356 281.087 139.63 283.472 137.966 285.638C136.993 286.925 135.989 288.212 134.922 289.405C132.725 291.884 130.339 294.238 127.766 296.435L129.837 300.704C131.218 299.354 132.631 298.036 134.106 296.749C134.985 295.965 135.895 295.18 136.805 294.395C142.172 289.562 147.979 284.885 154.194 281.589L150.49 273.648C148.199 274.684 145.907 275.72 143.616 276.787C143.302 277.509 142.926 278.231 142.549 278.859Z" fill="#F3A140" stroke="#1C2628" stroke-width="0.668544" stroke-linecap="round" stroke-linejoin="round"/>
<path d="M154.193 281.746L154.131 281.621C147.947 284.885 142.109 289.562 136.742 294.427C142.109 289.781 147.885 285.167 154.193 281.746Z" fill="#F3A140" stroke="#1C2628" stroke-width="0.668544" stroke-linecap="round" stroke-linejoin="round"/>
<path d="M154.256 301.928C156.391 299.919 158.525 297.911 160.722 295.996C158.525 297.911 156.391 299.951 154.256 301.928Z" fill="#F3A140" stroke="#1C2628" stroke-width="0.668544" stroke-linecap="round" stroke-linejoin="round"/>
<path d="M155.386 284.32L155.355 284.289C154.915 284.822 154.507 285.356 154.068 285.889C154.507 285.356 154.947 284.822 155.386 284.32Z" fill="#F3A140" stroke="#1C2628" stroke-width="0.668544" stroke-linecap="round" stroke-linejoin="round"/>
<path d="M129.9 300.861L132.788 306.793C135.142 305.13 137.401 303.309 139.567 301.395C144.432 297 148.826 292.041 153.189 286.925C153.503 286.58 153.785 286.203 154.099 285.858C154.539 285.324 154.947 284.791 155.386 284.257L154.225 281.715C147.916 285.136 142.141 289.781 136.805 294.395C134.388 296.561 132.097 298.758 129.9 300.861Z" fill="#F3A140" stroke="#1C2628" stroke-width="0.668544" stroke-linecap="round" stroke-linejoin="round"/>
<path d="M139.567 301.395C137.433 303.309 135.173 305.13 132.819 306.824L135.267 311.878L148.136 309.43C147.947 309.21 147.885 308.959 148.01 308.739C148.073 308.614 148.167 308.488 148.23 308.362C148.701 307.201 150.207 305.663 151.62 304.376C152.499 303.56 153.409 302.744 154.256 301.928C156.391 299.919 158.525 297.911 160.722 295.996L155.355 284.289C154.915 284.791 154.476 285.324 154.068 285.827C149.58 291.382 144.84 296.718 139.567 301.395Z" fill="#F3A140" stroke="#1C2628" stroke-width="0.668544" stroke-linecap="round" stroke-linejoin="round"/>
<path d="M94.2443 289.122C95.2173 288.463 96.2217 287.773 97.2261 287.145C103.66 282.751 110.754 279.11 118.067 276.285C121.143 275.061 124.282 273.962 127.389 273.083C127.609 272.864 127.86 272.613 128.08 272.393C128.456 271.985 128.801 271.577 129.147 271.137C129.429 270.761 130.622 269.254 130.999 267.842C131.124 267.089 131.03 266.335 130.528 265.676C127.766 265.174 124.941 265.299 122.147 265.833C115.65 267.528 109.498 270.761 103.755 274.59C100.365 276.913 97.1633 279.424 94.2129 281.746L90.8231 290.849L90.2896 292.292C91.545 291.162 92.8633 290.095 94.2443 289.122Z" fill="#F3A140" stroke="#1C2628" stroke-width="0.668544" stroke-linecap="round" stroke-linejoin="round"/>
<path d="M94.2757 281.589L94.2129 281.746C97.1633 279.424 100.365 276.913 103.755 274.59C100.459 276.756 97.2888 279.172 94.2757 281.589Z" fill="#F3A140" stroke="#1C2628" stroke-width="0.668544" stroke-linecap="round" stroke-linejoin="round"/>
<path d="M127.734 296.435C130.277 294.207 132.693 291.884 134.89 289.405C135.769 288.337 136.836 287.019 137.935 285.638C139.065 284.132 140.132 282.562 141.168 280.962C141.45 280.554 141.984 279.8 142.549 278.89C142.926 278.199 143.239 277.54 143.49 276.881C143.051 277.07 142.612 277.289 142.204 277.478C141.262 277.917 140.32 278.388 139.347 278.859C138.877 279.078 138.406 279.329 137.935 279.549C136.993 280.02 136.052 280.491 135.11 280.962C133.258 281.935 131.406 282.908 129.555 283.943C128.644 284.446 127.734 284.979 126.824 285.513C125.914 286.046 125.035 286.58 124.125 287.145C122.336 288.243 120.578 289.405 118.852 290.597C117.973 291.194 117.125 291.79 116.278 292.418C115.43 293.046 114.583 293.673 113.736 294.332C112.888 294.992 112.072 295.651 111.256 296.31C110.848 296.655 110.44 297 110.032 297.346L110.001 297.377C108.965 298.287 107.929 299.197 106.893 300.139C106.485 300.484 106.109 300.861 105.7 301.238C105.606 301.332 105.512 301.426 105.418 301.52C104.163 302.713 102.938 303.905 101.714 305.161C101.369 305.506 101.055 305.851 100.71 306.197C100.679 306.228 100.616 306.291 100.584 306.322C99.5486 307.421 98.5442 308.551 97.5399 309.712C97.5085 309.775 97.4457 309.806 97.4143 309.869L100.741 310.748L104.665 311.784C105.073 311.564 105.481 311.344 105.92 311.124C106.736 310.685 107.552 310.246 108.368 309.775C109.184 309.304 110.001 308.865 110.817 308.394C111.633 307.923 112.417 307.452 113.233 306.95C114.426 306.228 115.619 305.475 116.812 304.69C117.659 304.125 118.506 303.56 119.354 302.964L119.919 301.897L125.443 291.821L127.734 296.435Z" fill="#F3A140" stroke="#1C2628" stroke-width="0.668544" stroke-linecap="round" stroke-linejoin="round"/>
<path d="M105.983 311.03C105.575 311.25 105.167 311.47 104.728 311.689C105.167 311.47 105.575 311.25 105.983 311.03Z" fill="#F3A140" stroke="#1C2628" stroke-width="0.668544" stroke-linecap="round" stroke-linejoin="round"/>
<path d="M156.171 306.291C156.14 306.322 156.108 306.354 156.045 306.385C154.978 307.201 153.974 307.923 153.032 308.519L165.367 306.165L162.699 300.327C160.628 302.556 158.399 304.627 156.171 306.291Z" fill="#F3A140" stroke="#1C2628" stroke-width="0.668544" stroke-linecap="round" stroke-linejoin="round"/>
<path d="M113.327 313.981L119.385 302.901C118.538 303.497 117.69 304.062 116.843 304.627C115.65 305.412 114.457 306.165 113.265 306.887C112.449 307.389 111.664 307.86 110.848 308.331C110.032 308.802 109.216 309.273 108.4 309.712C107.584 310.152 106.768 310.622 105.952 311.062C105.543 311.281 105.135 311.501 104.696 311.721L113.327 313.981Z" fill="#F3A140" stroke="#1C2628" stroke-width="0.668544" stroke-linecap="round" stroke-linejoin="round"/>
<path d="M113.296 306.856C114.489 306.134 115.682 305.381 116.874 304.596C115.682 305.381 114.489 306.134 113.296 306.856Z" fill="#F3A140" stroke="#1C2628" stroke-width="0.668544" stroke-linecap="round" stroke-linejoin="round"/>
<path d="M119.385 302.901C118.538 303.497 117.69 304.062 116.843 304.627C117.722 304.062 118.569 303.466 119.385 302.901Z" fill="#F3A140" stroke="#1C2628" stroke-width="0.668544" stroke-linecap="round" stroke-linejoin="round"/>
<path d="M108.431 309.712C109.247 309.273 110.063 308.802 110.879 308.331C110.063 308.77 109.247 309.241 108.431 309.712Z" fill="#F3A140" stroke="#1C2628" stroke-width="0.668544" stroke-linecap="round" stroke-linejoin="round"/>
<path d="M134.074 296.749C132.631 298.036 131.218 299.354 129.806 300.704L129.868 300.861C132.066 298.758 134.357 296.561 136.742 294.427C135.863 295.18 134.953 295.964 134.074 296.749Z" fill="#F3A140" stroke="#1C2628" stroke-width="0.668544" stroke-linecap="round" stroke-linejoin="round"/>
<path d="M134.89 289.373C135.958 288.149 136.962 286.894 137.935 285.607C136.868 287.019 135.801 288.306 134.89 289.373C132.693 291.853 130.308 294.207 127.734 296.404C130.308 294.207 132.693 291.884 134.89 289.373Z" fill="#F3A140"/>
<path d="M134.89 289.373C135.958 288.149 136.962 286.894 137.935 285.607C136.868 287.019 135.801 288.306 134.89 289.373ZM134.89 289.373C132.693 291.853 130.308 294.207 127.734 296.404C130.308 294.207 132.693 291.884 134.89 289.373Z" stroke="#1C2628" stroke-width="0.668544" stroke-linecap="round" stroke-linejoin="round"/>
<path d="M143.365 271.922C143.145 271.702 142.831 271.514 142.518 271.357C144.464 272.299 144.464 274.37 143.491 276.85C143.522 276.818 143.585 276.818 143.616 276.787C144.338 275.061 144.621 273.209 143.365 271.922Z" fill="#F3A140" stroke="#1C2628" stroke-width="0.668544" stroke-linecap="round" stroke-linejoin="round"/>
<path d="M143.49 276.85C143.239 277.478 142.925 278.168 142.549 278.859C142.925 278.231 143.302 277.509 143.616 276.787C143.585 276.818 143.522 276.819 143.49 276.85Z" fill="#F3A140" stroke="#1C2628" stroke-width="0.668544" stroke-linecap="round" stroke-linejoin="round"/>
<path d="M154.256 301.928C153.88 302.368 152.781 303.309 151.62 304.376C150.333 305.6 149.14 306.887 148.23 308.362C148.073 308.77 148.042 309.116 148.199 309.43L153.064 308.519C154.099 307.86 155.104 307.138 156.077 306.385C158.211 304.722 160.502 302.619 162.731 300.296L160.785 296.027C158.525 297.911 156.391 299.951 154.256 301.928Z" fill="#F3A140" stroke="#1C2628" stroke-width="0.668544" stroke-linecap="round" stroke-linejoin="round"/>
<path d="M100.773 306.103C101.087 305.757 101.432 305.412 101.777 305.067C101.652 305.192 101.495 305.349 101.369 305.475C101.149 305.695 100.961 305.883 100.773 306.103Z" fill="#F3A140" stroke="#1C2628" stroke-width="0.668544" stroke-linecap="round" stroke-linejoin="round"/>
<path d="M101.746 305.067C102.97 303.843 104.194 302.619 105.449 301.426C104.194 302.619 102.97 303.843 101.746 305.067Z" fill="#F3A140" stroke="#1C2628" stroke-width="0.668544" stroke-linecap="round" stroke-linejoin="round"/>
<path d="M110.063 297.314C110.503 296.938 110.911 296.592 111.319 296.278C110.879 296.624 110.471 296.969 110.063 297.314Z" fill="#F3A140" stroke="#1C2628" stroke-width="0.668544" stroke-linecap="round" stroke-linejoin="round"/>
<path d="M142.517 271.357C140.163 270.259 135.738 271.106 134.357 271.388H134.325C132.003 271.891 129.649 272.487 127.326 273.146C126.604 273.868 125.851 274.527 125.098 275.186C120.295 279.329 115.368 283.472 110.408 287.553C104.1 292.92 97.728 298.162 90.8857 302.775C90.666 302.932 90.4462 303.121 90.1951 303.278C89.2849 303.937 87.4017 305.318 85.4243 306.511L97.5083 309.712C97.5397 309.649 97.6025 309.618 97.6339 309.555C98.6069 308.394 99.6113 307.264 100.678 306.165C100.71 306.134 100.773 306.071 100.804 306.04C100.992 305.851 101.181 305.632 101.369 305.443C101.494 305.318 101.651 305.161 101.777 305.035C102.97 303.811 104.225 302.587 105.481 301.394C105.575 301.3 105.669 301.206 105.763 301.112C106.14 300.735 106.548 300.39 106.956 300.013C107.992 299.072 108.996 298.162 110.063 297.251L110.095 297.22C110.503 296.875 110.911 296.529 111.319 296.184C112.135 295.525 112.982 294.835 113.798 294.207C114.614 293.579 115.493 292.92 116.341 292.292C117.188 291.664 118.035 291.068 118.914 290.472C120.641 289.279 122.398 288.149 124.187 287.019C125.066 286.454 125.976 285.921 126.887 285.387C127.797 284.853 128.707 284.32 129.617 283.818C131.438 282.782 133.29 281.809 135.173 280.836C136.114 280.365 137.056 279.863 137.998 279.424C138.468 279.204 138.939 278.953 139.41 278.733C140.352 278.262 141.293 277.823 142.266 277.352C142.706 277.132 143.114 276.944 143.553 276.756C144.463 274.37 144.463 272.299 142.517 271.357Z" fill="#F3A140" stroke="#1C2628" stroke-width="0.668544" stroke-linecap="round" stroke-linejoin="round"/>
<path d="M90.8545 302.807C88.9712 304.094 87.0252 305.286 85.0479 306.448L85.3931 306.542C87.3705 305.318 89.2537 303.968 90.1639 303.309C90.3837 303.121 90.6034 302.964 90.8545 302.807Z" fill="#F3A140" stroke="#1C2628" stroke-width="0.668544" stroke-linecap="round" stroke-linejoin="round"/>
<path d="M148.199 308.394C148.136 308.519 148.042 308.645 147.979 308.77C147.853 308.99 147.947 309.241 148.104 309.461H148.136C148.01 309.147 148.042 308.802 148.199 308.394Z" fill="#F3A140" stroke="#1C2628" stroke-width="0.668544" stroke-linecap="round" stroke-linejoin="round"/>
<path d="M156.077 306.385C156.108 306.354 156.139 306.322 156.202 306.291C158.399 304.596 160.659 302.556 162.762 300.327L162.731 300.296C160.502 302.619 158.18 304.722 156.077 306.385Z" fill="#F3A140" stroke="#1C2628" stroke-width="0.668544" stroke-linecap="round" stroke-linejoin="round"/>
<path d="M151.62 304.376C150.207 305.695 148.669 307.233 148.23 308.363C149.14 306.887 150.333 305.6 151.62 304.376Z" fill="#F3A140" stroke="#1C2628" stroke-width="0.668544" stroke-linecap="round" stroke-linejoin="round"/>
<path d="M132.788 306.793L132.819 306.824C135.204 305.161 137.433 303.341 139.567 301.395C137.401 303.309 135.142 305.13 132.788 306.793Z" fill="#F3A140" stroke="#1C2628" stroke-width="0.668544" stroke-linecap="round" stroke-linejoin="round"/>
<path d="M154.068 285.858C153.754 286.203 153.471 286.58 153.158 286.925C148.795 292.073 144.401 297 139.536 301.394C144.84 296.718 149.579 291.382 154.068 285.858Z" fill="#F3A140" stroke="#1C2628" stroke-width="0.668544" stroke-linecap="round" stroke-linejoin="round"/>
<path d="M154.256 301.928C153.378 302.744 152.467 303.56 151.62 304.376C152.781 303.309 153.88 302.399 154.256 301.928Z" fill="#F3A140" stroke="#1C2628" stroke-width="0.668544" stroke-linecap="round" stroke-linejoin="round"/>
<path fill-rule="evenodd" clip-rule="evenodd" d="M154.507 245.871L142.643 249.575L150.207 269.38L96.1901 271.891L97.6653 258.928L99.2974 243.768L86.9309 233.379L96.8178 213.605C96.8178 213.605 107.364 219.977 114.74 219.474C122.116 218.972 132.379 216.869 132.379 216.869C132.379 216.869 137.244 212.977 142.58 212.13C145.939 211.596 149.454 212.287 152.153 215.802C159.152 225.03 166.905 241.979 166.905 241.979L154.507 245.871Z" fill="#FAF6EB" stroke="#1C2628" stroke-width="0.668544" stroke-linecap="round" stroke-linejoin="round"/>
<path d="M143.616 232.657L148.418 246.122" stroke="#1C2628" stroke-width="0.668544" stroke-linecap="round" stroke-linejoin="round"/>
<path fill-rule="evenodd" clip-rule="evenodd" d="M96.4727 253.498L110.565 279.832C110.565 279.832 119.668 280.679 127.797 278.827C135.926 276.975 143.051 272.456 143.051 272.456L144.244 242.104C144.275 241.696 143.836 241.414 143.49 241.602C140.415 243.046 129.115 248.225 118.914 250.861C106.925 253.969 96.4727 253.498 96.4727 253.498Z" fill="#1C2628" stroke="#1C2628" stroke-width="0.668544" stroke-linecap="round" stroke-linejoin="round"/>
<path fill-rule="evenodd" clip-rule="evenodd" d="M114.112 264.64L119.542 303.184C119.542 303.184 127.075 305.443 135.958 302.713C144.84 299.951 150.553 296.498 150.553 296.498L134.953 261.596L114.112 264.64Z" fill="#1C2628" stroke="#1C2628" stroke-width="0.668544" stroke-linecap="round" stroke-linejoin="round"/>
<path fill-rule="evenodd" clip-rule="evenodd" d="M122.681 257.484C109.059 260.56 97.0376 259.242 95.8449 254.502C95.2485 252.117 97.477 249.355 101.557 246.781C105.638 244.207 111.538 241.853 118.349 240.315C131.375 237.365 142.957 238.463 144.966 242.701C145.06 242.889 145.123 243.109 145.185 243.297C146.409 248.036 136.303 254.377 122.681 257.484Z" fill="#FAF6EB" stroke="#1C2628" stroke-width="0.668544" stroke-linecap="round" stroke-linejoin="round"/>
<path d="M115.964 280.459C115.964 280.459 124.721 279.141 128.833 278.137" stroke="#FAF6EB" stroke-width="0.668544" stroke-linecap="round" stroke-linejoin="round"/>
<path d="M102.813 265.111C108.306 270.604 111.382 263.761 115.462 262.004C118.946 260.497 120.798 264.797 123.717 264.389C128.456 263.699 129.523 258.708 132.16 257.986C137.15 256.542 138.971 259.712 142.423 253.937" stroke="#FAF6EB" stroke-width="0.668544" stroke-linecap="round" stroke-linejoin="round"/>
<path d="M112.982 265.645L117.879 280.145" stroke="#FAF6EB" stroke-width="0.668544" stroke-linecap="round" stroke-linejoin="round"/>
<path d="M125.663 264.891L128.739 277.729" stroke="#FAF6EB" stroke-width="0.668544" stroke-linecap="round" stroke-linejoin="round"/>
<path d="M138.061 259.995L139.755 271.797" stroke="#FAF6EB" stroke-width="0.668544" stroke-linecap="round" stroke-linejoin="round"/>
<path fill-rule="evenodd" clip-rule="evenodd" d="M134.325 251.458L110.314 261.721C110.314 261.721 110.346 263.259 112.951 263.228C115.525 263.196 118.632 261.69 118.632 261.69C118.632 261.69 107.427 270.416 107.458 271.797C107.458 273.178 115.901 267.528 115.901 267.528C115.901 267.528 108.18 275.029 109.655 274.935C111.13 274.841 119.982 268.124 119.982 268.124C119.982 268.124 111.476 276.85 112.951 276.881C114.395 276.913 124.062 269.16 124.062 269.16C124.062 269.16 114.175 278.953 116.592 277.791C119.04 276.662 133.792 264.609 133.792 264.609C133.792 264.609 158.085 257.892 161.224 256.229C170.891 251.05 166.811 241.539 166.811 241.539L134.325 251.458Z" fill="#F45B49" stroke="#1C2628" stroke-width="0.668544" stroke-linecap="round" stroke-linejoin="round"/>
<path fill-rule="evenodd" clip-rule="evenodd" d="M163.044 382.279C163.107 382.53 166.246 382.655 165.147 384.664C164.017 386.736 158.839 387.834 156.453 388.305C147.885 390 132.097 386.265 122.712 385.888C120.044 385.794 113.076 385.637 112.951 382.499C112.762 377.728 118.914 376.535 124.03 376.472C133.29 376.347 142.831 379.234 151.651 381.18C153.848 381.651 162.636 380.961 163.044 382.279Z" fill="#FAF6EB" stroke="#1C2628" stroke-width="0.668544" stroke-linecap="round" stroke-linejoin="round"/>
<path fill-rule="evenodd" clip-rule="evenodd" d="M142.486 384.037C143.71 381.023 150.082 377.916 152.31 377.1C152.75 376.943 153.628 376.629 154.507 376.41C155.983 377.194 157.552 378.104 158.745 378.544C166.121 381.463 165.775 382.091 164.331 383.66C162.856 385.198 148.795 385.386 142.486 384.037Z" fill="#1C2628" stroke="#1C2628" stroke-width="0.668544" stroke-linecap="round" stroke-linejoin="round"/>
<path fill-rule="evenodd" clip-rule="evenodd" d="M116.623 373.961C118.914 375.405 122.492 377.445 124.501 379.58C118.569 380.521 113.484 380.333 113.484 380.333L116.623 373.961Z" fill="#1C2628" stroke="#1C2628" stroke-width="0.668544" stroke-linecap="round" stroke-linejoin="round"/>
<path fill-rule="evenodd" clip-rule="evenodd" d="M119.825 367.433C119.825 367.433 120.578 373.082 126.227 370.917C131.877 368.751 136.522 364.953 136.522 364.953C136.522 364.953 146.786 372.266 154.539 376.378C153.66 376.598 152.812 376.88 152.342 377.069C150.144 377.885 143.741 380.992 142.517 384.005H142.486C136.177 382.656 130.747 378.575 124.721 379.548C124.627 379.548 124.595 379.548 124.501 379.548C122.524 377.414 118.914 375.374 116.623 373.93L119.825 367.433Z" fill="#FAF6EB" stroke="#1C2628" stroke-width="0.668544" stroke-linecap="round" stroke-linejoin="round"/>
<path fill-rule="evenodd" clip-rule="evenodd" d="M146.818 372.015C146.818 372.015 145.154 374.369 144.715 374.871L146.818 372.015Z" fill="#F45B49"/>
<path d="M146.818 372.015C146.818 372.015 145.154 374.369 144.715 374.871" stroke="#1C2628" stroke-width="0.668544" stroke-linecap="round" stroke-linejoin="round"/>
<path fill-rule="evenodd" clip-rule="evenodd" d="M144.024 370.132L141.952 372.894L144.024 370.132Z" fill="#F45B49"/>
<path d="M144.024 370.132L141.952 372.894" stroke="#1C2628" stroke-width="0.668544" stroke-linecap="round" stroke-linejoin="round"/>
<path fill-rule="evenodd" clip-rule="evenodd" d="M140.854 368.374L138.908 371.042L140.854 368.374Z" fill="#F45B49"/>
<path d="M140.854 368.374L138.908 371.042" stroke="#1C2628" stroke-width="0.668544" stroke-linecap="round" stroke-linejoin="round"/>
<path fill-rule="evenodd" clip-rule="evenodd" d="M41.8277 381.431C41.765 381.651 38.9401 381.777 39.9445 383.754C40.9803 385.763 45.657 386.83 47.8227 387.301C55.5753 388.933 69.8564 385.323 78.3623 384.978C80.7791 384.884 87.0879 384.727 87.182 381.683C87.339 377.037 81.7834 375.876 77.1695 375.813C68.7892 375.688 60.1578 378.481 52.1541 380.396C50.1767 380.835 42.2044 380.145 41.8277 381.431Z" fill="#FAF6EB" stroke="#1C2628" stroke-width="0.668544" stroke-linecap="round" stroke-linejoin="round"/>
<path fill-rule="evenodd" clip-rule="evenodd" d="M60.4402 383.126C59.3417 380.207 53.5664 377.163 51.5577 376.378C51.1496 376.221 50.365 375.907 49.5803 375.719C48.2306 376.472 46.8182 377.351 45.7511 377.822C39.0656 380.647 39.4109 381.275 40.6977 382.781C42.016 384.256 54.7591 384.445 60.4402 383.126Z" fill="#1C2628" stroke="#1C2628" stroke-width="0.668544" stroke-linecap="round" stroke-linejoin="round"/>
<path fill-rule="evenodd" clip-rule="evenodd" d="M83.8551 373.334C81.7835 374.746 78.5507 376.723 76.7302 378.795C82.0974 379.705 86.7113 379.548 86.7113 379.548L83.8551 373.334Z" fill="#1C2628" stroke="#1C2628" stroke-width="0.668544" stroke-linecap="round" stroke-linejoin="round"/>
<path fill-rule="evenodd" clip-rule="evenodd" d="M86.7113 364.953C86.7113 364.953 80.277 372.486 75.1923 370.383C70.1076 368.28 63.9871 362.819 63.9871 362.819C63.9871 362.819 56.5797 371.701 49.6118 375.719C50.3965 375.907 51.1812 376.221 51.5892 376.378C53.598 377.163 59.3732 380.176 60.4717 383.126H60.5031C66.2156 381.808 71.1119 377.853 76.5733 378.795C76.6361 378.795 76.6988 378.795 76.7616 378.795C78.5507 376.723 81.8149 374.746 83.8865 373.334L86.7113 364.953Z" fill="#FAF6EB" stroke="#1C2628" stroke-width="0.668544" stroke-linecap="round" stroke-linejoin="round"/>
<path fill-rule="evenodd" clip-rule="evenodd" d="M55.7009 371.168C57.2075 372.706 57.082 372.643 58.1177 373.553L55.7009 371.168Z" fill="#F45B49"/>
<path d="M55.7009 371.168C57.2075 372.706 57.082 372.643 58.1177 373.553" stroke="#1C2628" stroke-width="0.668544" stroke-linecap="round" stroke-linejoin="round"/>
<path fill-rule="evenodd" clip-rule="evenodd" d="M58.1177 369.536L60.5031 371.858L58.1177 369.536Z" fill="#F45B49"/>
<path d="M58.1177 369.536L60.5031 371.858" stroke="#1C2628" stroke-width="0.668544" stroke-linecap="round" stroke-linejoin="round"/>
<path fill-rule="evenodd" clip-rule="evenodd" d="M60.5972 367.339L62.857 369.567L60.5972 367.339Z" fill="#F45B49"/>
<path d="M60.5972 367.339L62.857 369.567" stroke="#1C2628" stroke-width="0.668544" stroke-linecap="round" stroke-linejoin="round"/>
<path fill-rule="evenodd" clip-rule="evenodd" d="M154.507 245.274C155.857 243.328 157.583 241.696 156.987 238.589C156.265 234.728 152.813 234.195 151.84 229.236C151.118 225.501 152.813 224.622 151.683 222.268C149.768 218.25 144.087 219.443 142.612 215.865C142.141 214.735 142.204 213.385 142.612 212.13C145.97 211.596 149.485 212.287 152.185 215.802C159.184 225.03 166.937 241.979 166.937 241.979L154.507 245.274Z" fill="#1C2628" stroke="#1C2628" stroke-width="0.668544" stroke-linecap="round" stroke-linejoin="round"/>
<path fill-rule="evenodd" clip-rule="evenodd" d="M144.966 242.701C143.145 244.804 140.697 246.436 138.374 246.561C135.079 246.75 133.729 243.705 129.617 243.768C126.353 243.831 124.972 245.777 121.237 248.036C115.525 251.489 106.234 254.439 103.001 251.395C101.934 250.391 101.463 248.696 101.495 246.781C105.575 244.207 111.476 241.853 118.287 240.315C131.375 237.365 142.957 238.463 144.966 242.701Z" fill="#1C2628" stroke="#1C2628" stroke-width="0.668544" stroke-linecap="round" stroke-linejoin="round"/>
<path fill-rule="evenodd" clip-rule="evenodd" d="M130.779 190.033C129.712 190.284 128.582 190.41 127.514 190.378C126.133 190.378 126.228 190.127 124.156 189.908C117.471 189.186 114.395 191.351 112.731 189.625C112.355 189.217 112.103 188.715 112.009 188.15C115.493 186.643 119.103 187.522 119.103 187.522C119.103 187.522 125.443 186.895 127.703 187.711C129.084 188.244 130.088 189.123 130.779 190.033Z" fill="#1C2628" stroke="#1C2628" stroke-width="0.668544" stroke-linecap="round" stroke-linejoin="round"/>
<path d="M275.41 331.055C276.138 331.055 276.729 330.465 276.729 329.737C276.729 329.009 276.138 328.419 275.41 328.419C274.682 328.419 274.092 329.009 274.092 329.737C274.092 330.465 274.682 331.055 275.41 331.055Z" fill="#1C2628" stroke="#1C2628" stroke-width="0.668544" stroke-linecap="round" stroke-linejoin="round"/>
<path d="M281.499 329.894C282.227 329.894 282.818 329.304 282.818 328.576C282.818 327.848 282.227 327.257 281.499 327.257C280.771 327.257 280.181 327.848 280.181 328.576C280.181 329.304 280.771 329.894 281.499 329.894Z" fill="#1C2628" stroke="#1C2628" stroke-width="0.668544" stroke-linecap="round" stroke-linejoin="round"/>
<path d="M287.055 328.858C287.783 328.858 288.373 328.268 288.373 327.54C288.373 326.812 287.783 326.222 287.055 326.222C286.327 326.222 285.737 326.812 285.737 327.54C285.737 328.268 286.327 328.858 287.055 328.858Z" fill="#1C2628" stroke="#1C2628" stroke-width="0.668544" stroke-linecap="round" stroke-linejoin="round"/>
<path fill-rule="evenodd" clip-rule="evenodd" d="M236.114 285.638C243.804 283.912 252.655 286.988 257.049 293.799C260.627 299.354 261.883 308.331 257.614 312.035C254.381 314.86 249.296 313.479 242.454 311.658C234.105 309.43 222.303 306.26 221.582 299.449C220.985 293.642 228.769 287.302 236.114 285.638Z" fill="#1C2628" stroke="#1C2628" stroke-width="0.668544" stroke-linecap="round" stroke-linejoin="round"/>
<path fill-rule="evenodd" clip-rule="evenodd" d="M257.928 305.035C250.677 287.459 238.122 295.557 238.122 295.557H233.038L226.572 291.1L224.124 284.226L212.542 285.858L213.389 289.028L212.228 294.96C209.749 294.113 204.444 292.575 198.512 292.575C192.58 292.575 190.289 305.004 190.289 305.004L208.305 328.042L203.534 348.444L237.055 347.565L236.71 320.509L244.368 317.684L259.874 354.847L269.353 338.494C269.353 338.525 262.761 316.743 257.928 305.035Z" fill="#F3A140" stroke="#1C2628" stroke-width="0.668544" stroke-linecap="round" stroke-linejoin="round"/>
<path fill-rule="evenodd" clip-rule="evenodd" d="M211.852 275.406C211.538 275.124 210.533 274.81 210.376 274.496C209.686 273.115 207.395 269.945 208.681 267.716C210 265.488 211.412 266.461 211.412 266.461C211.412 266.461 212.103 261.596 216.905 265.519C217.47 265.99 217.752 265.268 218.066 265.959C218.317 266.492 218.443 267.089 218.631 267.654" fill="#1C2628"/>
<path d="M211.852 275.406C211.538 275.124 210.533 274.81 210.376 274.496C209.686 273.115 207.395 269.945 208.681 267.716C210 265.488 211.412 266.461 211.412 266.461C211.412 266.461 212.103 261.596 216.905 265.519C217.47 265.99 217.752 265.268 218.066 265.959C218.317 266.492 218.443 267.089 218.631 267.654" stroke="#1C2628" stroke-width="0.668544" stroke-linecap="round" stroke-linejoin="round"/>
<path fill-rule="evenodd" clip-rule="evenodd" d="M233.32 278.984C233.509 279.581 234.513 280.616 234.513 281.181C234.513 283.567 235.392 289.342 232.536 291.727C229.711 294.081 228.612 291.822 228.612 291.822C228.612 291.822 225.003 298.256 221.644 289.844C221.236 288.84 220.514 289.687 220.546 288.526C220.577 287.616 220.765 286.705 220.891 285.795" fill="#1C2628"/>
<path d="M233.32 278.984C233.509 279.581 234.513 280.616 234.513 281.181C234.513 283.567 235.392 289.342 232.536 291.727C229.711 294.081 228.612 291.822 228.612 291.822C228.612 291.822 225.003 298.256 221.644 289.844C221.236 288.84 220.514 289.687 220.546 288.526C220.577 287.616 220.765 286.705 220.891 285.795" stroke="#1C2628" stroke-width="0.668544" stroke-linecap="round" stroke-linejoin="round"/>
<path fill-rule="evenodd" clip-rule="evenodd" d="M209.215 279.267C209.152 271.232 211.224 272.801 211.852 270.667C213.138 266.398 214.582 265.08 222.523 266.398C223.904 266.618 225.568 266.837 226.792 267.622C232.316 271.137 231.782 275.783 231.782 275.783C231.782 275.783 233.791 286.862 221.738 286.705C209.686 286.58 221.707 286.517 215.461 284.289C209.215 282.092 209.215 279.267 209.215 279.267Z" fill="#1C2628" stroke="#1C2628" stroke-width="0.668544" stroke-linecap="round" stroke-linejoin="round"/>
<path fill-rule="evenodd" clip-rule="evenodd" d="M222.523 281.181C223.088 279.361 220.357 274.056 219.949 272.33C219.227 269.254 224.249 271.012 221.205 270.039C217.784 268.94 214.676 268.532 212.322 271.2C211.412 272.236 209.686 277.792 209.246 279.235C207.614 284.351 210.282 288.181 215.021 289.687C218.066 290.66 220.577 290.472 222.931 288.4C224.218 287.239 221.927 283.033 222.523 281.181Z" fill="#F3A140" stroke="#1C2628" stroke-width="0.668544" stroke-linecap="round" stroke-linejoin="round"/>
<path d="M213.264 277.76C213.264 277.76 213.295 278.513 213.923 278.859C214.551 279.204 215.179 278.953 215.367 278.294" stroke="#1C2628" stroke-width="0.668544" stroke-linecap="round" stroke-linejoin="round"/>
<path fill-rule="evenodd" clip-rule="evenodd" d="M223.528 288.495L222.523 285.356C222.523 285.356 217.376 284.603 215.869 286.141C214.363 287.678 215.712 292.889 215.712 292.889L219.353 293.579" fill="#F3A13B"/>
<path fill-rule="evenodd" clip-rule="evenodd" d="M220.671 279.172C221.393 278.356 222.743 279.267 222.963 280.083C223.433 281.778 221.582 284.446 219.071 282.248" fill="#F3A140"/>
<path d="M220.671 279.172C221.393 278.356 222.743 279.267 222.963 280.083C223.433 281.778 221.582 284.446 219.071 282.248" stroke="#1C2628" stroke-width="0.668544" stroke-linecap="round" stroke-linejoin="round"/>
<path d="M220.734 280.93C220.734 280.93 221.142 280.554 221.079 280.616" stroke="#1C2628" stroke-width="0.668544" stroke-linecap="round" stroke-linejoin="round"/>
<path fill-rule="evenodd" clip-rule="evenodd" d="M214.111 281.809C213.766 282.154 212.667 280.962 212.856 283.159C212.856 283.159 212.95 285.513 214.865 284.916C216.183 284.54 214.111 281.809 214.111 281.809Z" fill="#1C2628" stroke="#1C2628" stroke-width="0.668544" stroke-linecap="round" stroke-linejoin="round"/>
<path fill-rule="evenodd" clip-rule="evenodd" d="M210.69 278.545C210.69 278.545 208.022 281.15 207.897 281.778C207.865 282.876 209.529 281.746 209.811 281.997" fill="#F3A140"/>
<path d="M210.69 278.545C210.69 278.545 208.022 281.15 207.897 281.778C207.865 282.876 209.529 281.746 209.811 281.997" stroke="#1C2628" stroke-width="0.668544" stroke-linecap="round" stroke-linejoin="round"/>
<path fill-rule="evenodd" clip-rule="evenodd" d="M214.833 267.497L212.322 271.2C215.492 267.497 216.026 278.451 223.841 278.733C224.061 278.733 228.235 279.957 228.204 279.675C228.173 279.298 227.545 279.361 227.294 279.078C226.729 278.451 226.572 277.76 226.446 276.975C226.29 276.002 227.2 273.994 226.415 273.209C225.128 271.922 223.371 267.654 221.801 267.779L214.833 267.497Z" fill="#1C2628" stroke="#1C2628" stroke-width="0.668544" stroke-linecap="round" stroke-linejoin="round"/>
<path fill-rule="evenodd" clip-rule="evenodd" d="M222.774 268.501C223.119 268.281 223.716 267.402 224.092 267.34C225.63 267.089 229.303 265.77 231.06 267.653C232.849 269.537 231.468 270.635 231.468 270.635C231.468 270.635 235.957 272.675 230.778 276.159C230.182 276.567 230.778 277.038 230.025 277.132C229.428 277.195 228.832 277.164 228.236 277.195" fill="#1C2628"/>
<path d="M222.774 268.501C223.119 268.281 223.716 267.402 224.092 267.34C225.63 267.089 229.303 265.77 231.06 267.653C232.849 269.537 231.468 270.635 231.468 270.635C231.468 270.635 235.957 272.675 230.778 276.159C230.182 276.567 230.778 277.038 230.025 277.132C229.428 277.195 228.832 277.164 228.236 277.195" stroke="#1C2628" stroke-width="0.668544" stroke-linecap="round" stroke-linejoin="round"/>
<path fill-rule="evenodd" clip-rule="evenodd" d="M215.744 270.321C215.775 269.913 215.367 268.909 215.524 268.595C216.152 267.183 217.125 263.385 219.698 263.008C222.272 262.6 222.398 264.326 222.398 264.326C222.398 264.326 226.603 261.753 226.603 267.999C226.603 268.721 227.325 268.501 226.98 269.191C226.698 269.725 226.352 270.196 226.007 270.698" fill="#1C2628"/>
<path d="M215.744 270.321C215.775 269.913 215.367 268.909 215.524 268.595C216.152 267.183 217.125 263.385 219.698 263.008C222.272 262.6 222.398 264.326 222.398 264.326C222.398 264.326 226.603 261.753 226.603 267.999C226.603 268.721 227.325 268.501 226.98 269.191C226.698 269.725 226.352 270.196 226.007 270.698" stroke="#1C2628" stroke-width="0.668544" stroke-linecap="round" stroke-linejoin="round"/>
<path fill-rule="evenodd" clip-rule="evenodd" d="M226.698 273.68C227.325 273.743 228.581 273.366 229.146 273.586C231.562 274.465 237.683 275.971 239.598 279.016C241.544 282.06 239.033 282.06 239.033 282.06C239.033 282.06 244.996 287.239 235.8 286.643C234.701 286.58 235.423 287.459 234.23 286.988C233.32 286.611 232.41 286.14 231.5 285.732" fill="#1C2628"/>
<path d="M226.698 273.68C227.325 273.743 228.581 273.366 229.146 273.586C231.562 274.465 237.683 275.971 239.598 279.016C241.544 282.06 239.033 282.06 239.033 282.06C239.033 282.06 244.996 287.239 235.8 286.643C234.701 286.58 235.423 287.459 234.23 286.988C233.32 286.611 232.41 286.14 231.5 285.732" stroke="#1C2628" stroke-width="0.668544" stroke-linecap="round" stroke-linejoin="round"/>
<path fill-rule="evenodd" clip-rule="evenodd" d="M262.353 393.045L256.484 398.914C255.542 399.856 254.193 400.201 252.937 399.887L250.081 399.134L231.092 394.112C231.092 394.112 220.765 394.112 208.211 394.112C199.862 394.112 180.15 394.426 167.878 390.628C161.695 388.713 157.426 385.763 157.426 381.18C157.426 367.558 186.867 353.246 186.867 353.246H201.274L217.156 369.128L205.072 375.311L229.146 377.571C229.146 377.571 230.181 376.661 234.011 376.661C239.911 376.661 241.732 382.687 241.732 382.687C241.732 382.687 257.425 382.687 260.031 385.292L262.385 387.646C263.828 389.09 263.828 391.538 262.353 393.045Z" fill="#F3A140" stroke="#1C2628" stroke-width="0.668544" stroke-linecap="round" stroke-linejoin="round"/>
<path fill-rule="evenodd" clip-rule="evenodd" d="M310.313 368.249V369.128L295.749 368.783L292.83 368.72C292.83 368.72 293.018 382.562 290.037 385.543C287.055 388.525 282.41 388.902 271.236 388.902C260.062 388.902 222.335 369.128 222.335 369.128L228.549 362.223L240.916 348.538L271.236 359.304H274.563L276.038 357.829L279.239 354.627C280.087 353.78 281.311 353.34 282.504 353.466L298.197 355.129C299.139 355.223 300.049 355.443 300.896 355.788C302.309 356.322 303.596 357.169 304.694 358.237L307.111 360.622C309.183 362.631 310.313 365.393 310.313 368.249Z" fill="#F3A140" stroke="#1C2628" stroke-width="0.668544" stroke-linecap="round" stroke-linejoin="round"/>
<path fill-rule="evenodd" clip-rule="evenodd" d="M292.83 368.688C292.83 368.688 293.018 382.53 290.037 385.512C287.055 388.494 282.41 388.87 271.236 388.87C260.062 388.87 222.335 369.096 222.335 369.096L228.549 362.191C232.881 361.658 237.118 362.16 239.786 364.263C243.49 367.182 243.207 372.329 249.076 375.782C252.247 377.634 255.448 377.979 257.457 378.199C265.272 379.046 267.626 375.656 271.581 377.634C275.567 379.642 275.034 383.911 278.643 384.696C281.374 385.292 284.795 383.503 286.27 380.961C288.907 376.441 284.199 371.545 286.27 369.065C287.683 367.37 291.888 367.307 295.718 368.688H292.83Z" fill="#1C2628" stroke="#1C2628" stroke-width="0.668544" stroke-linecap="round" stroke-linejoin="round"/>
<path fill-rule="evenodd" clip-rule="evenodd" d="M197.853 311.156C204.224 310.842 210.627 310.528 216.999 310.214C219.416 311.156 221.832 312.066 224.249 313.008C225.913 312.129 227.608 311.282 229.271 310.403C234.419 311.093 239.566 311.752 244.714 312.443C242.36 319.693 240.006 326.944 237.652 334.194C227.168 334.382 216.685 334.571 206.233 334.759C203.44 326.881 200.646 319.003 197.853 311.156Z" fill="#1C2628" stroke="#1C2628" stroke-width="0.668544" stroke-linecap="round" stroke-linejoin="round"/>
<path fill-rule="evenodd" clip-rule="evenodd" d="M272.805 357.734C272.805 357.734 263.734 362.882 257.928 368.688C252.121 374.495 244.871 375.437 238.123 368.688C231.374 361.94 219.165 383.378 206.767 383.378C194.369 383.378 200.207 376.818 190.289 376.818C180.37 376.818 184.294 376.818 173.967 376.818C172.869 376.818 171.833 376.755 170.892 376.661C162.982 375.782 160.345 371.639 160.345 371.639L197.853 339.122H238.813L244.651 342.323L272.805 357.734Z" fill="#F45B49" stroke="#1C2628" stroke-width="0.668544" stroke-linecap="round" stroke-linejoin="round"/>
<path d="M205.857 313.008H216.56L223.528 316.68L229.805 313.667L240.947 314.828" stroke="#FAF6EB" stroke-width="0.668544" stroke-linecap="round" stroke-linejoin="round"/>
<path d="M229.648 316.115C230.778 315.864 231.876 316.523 232.975 316.837C234.701 317.308 236.522 316.994 238.311 317.119" stroke="#FAF6EB" stroke-width="0.668544" stroke-linecap="round" stroke-linejoin="round"/>
<path d="M229.114 318.03C230.935 318.124 232.692 319.097 234.45 318.752" stroke="#FAF6EB" stroke-width="0.668544" stroke-linecap="round" stroke-linejoin="round"/>
<path d="M237.934 319.254C236.647 322.549 235.831 326.033 235.549 329.58" stroke="#FAF6EB" stroke-width="0.668544" stroke-linecap="round" stroke-linejoin="round"/>
<path d="M234.795 323.177C234.733 324.213 234.576 325.249 234.293 326.253C234.136 326.881 233.917 327.509 234.042 328.168" stroke="#FAF6EB" stroke-width="0.668544" stroke-linecap="round" stroke-linejoin="round"/>
<path d="M205.04 319.348C205.009 320.541 205.072 321.733 205.197 322.926" stroke="#FAF6EB" stroke-width="0.668544" stroke-linecap="round" stroke-linejoin="round"/>
<path d="M206.296 319.285C206.39 320.98 206.798 322.675 207.457 324.244" stroke="#FAF6EB" stroke-width="0.668544" stroke-linecap="round" stroke-linejoin="round"/>
<path d="M256.484 398.914L252.372 397.345" stroke="#1C2628" stroke-width="0.668544" stroke-linecap="round" stroke-linejoin="round"/>
<path d="M258.681 396.686L255.354 395.367" stroke="#1C2628" stroke-width="0.668544" stroke-linecap="round" stroke-linejoin="round"/>
<path d="M261.192 394.175L257.865 392.668" stroke="#1C2628" stroke-width="0.668544" stroke-linecap="round" stroke-linejoin="round"/>
<path d="M310.219 366.805H306.672" stroke="#1C2628" stroke-width="0.668544" stroke-linecap="round" stroke-linejoin="round"/>
<path d="M309.465 364.012H306.672" stroke="#1C2628" stroke-width="0.668544" stroke-linecap="round" stroke-linejoin="round"/>
<path d="M307.802 361.25H305.51" stroke="#1C2628" stroke-width="0.668544" stroke-linecap="round" stroke-linejoin="round"/>
<path d="M274.594 359.272L283.791 361.25" stroke="#1C2628" stroke-width="0.668544" stroke-linecap="round" stroke-linejoin="round"/>
<path d="M292.83 368.688V364.012" stroke="#1C2628" stroke-width="0.668544" stroke-linecap="round" stroke-linejoin="round"/>
<path d="M206.924 298.444C211.067 303.058 219.698 299.668 224.249 303.874C225.348 302.336 227.451 301.865 229.334 301.928C231.217 301.991 233.101 302.462 234.984 302.305" stroke="#1C2628" stroke-width="0.668544" stroke-linecap="round" stroke-linejoin="round"/>
<path d="M224.061 270.259C227.043 271.294 230.182 271.891 233.352 272.016C235.517 272.079 237.746 271.954 239.817 272.613C241.889 273.272 243.835 274.998 243.898 277.164C243.929 277.917 243.741 278.702 243.96 279.392C244.494 281.119 246.785 281.276 248.48 281.903C250.866 282.782 252.56 285.23 252.56 287.773C252.56 290.315 250.834 292.763 248.449 293.611" stroke="#1C2628" stroke-width="0.668544" stroke-linecap="round" stroke-linejoin="round"/>
<path d="M220.106 266.398C221.895 266.398 223.747 266.398 225.473 265.864C226.164 265.645 226.823 265.362 227.514 265.268C229.522 265.017 231.406 266.367 232.535 268.03C234.733 271.2 234.89 275.657 232.944 279.016" stroke="#1C2628" stroke-width="0.668544" stroke-linecap="round" stroke-linejoin="round"/>
<path d="M233.979 281.527C236.679 281.056 239.629 280.648 242.014 281.966C243.113 282.594 244.023 283.567 245.184 284.1C246.534 284.728 248.072 284.665 249.547 284.791C252.278 284.979 255.134 285.795 256.892 287.898C258.649 290.001 258.681 293.611 256.421 295.18" stroke="#1C2628" stroke-width="0.668544" stroke-linecap="round" stroke-linejoin="round"/>
<path fill-rule="evenodd" clip-rule="evenodd" d="M250.081 399.102L231.092 394.08C231.092 394.08 220.765 394.08 208.211 394.08C199.862 394.08 180.151 394.394 167.878 390.597C169.699 388.494 172.115 386.642 174.721 385.7C180.935 383.472 183.854 387.991 196.095 389.059C203.754 389.718 210.376 388.619 214.519 387.929C224.03 386.359 225.881 384.445 232.379 385.135C238.562 385.794 244.745 388.337 245.404 391.475C245.53 392.04 245.593 393.233 246.503 394.08C247.664 395.116 248.982 394.52 249.767 395.179C250.52 395.838 250.489 397.439 250.081 399.102Z" fill="#1C2628" stroke="#1C2628" stroke-width="0.668544" stroke-linecap="round" stroke-linejoin="round"/>
<path fill-rule="evenodd" clip-rule="evenodd" d="M300.959 355.726C299.484 357.452 296.91 358.833 294.556 358.833C291.637 358.833 291.072 356.667 287.588 356.73C286.71 356.761 284.889 357.201 281.248 358.111C278.988 358.676 278.172 358.927 277.199 358.519C276.791 358.331 276.415 358.08 276.069 357.766L279.271 354.564C280.118 353.717 281.342 353.277 282.535 353.403L298.229 355.066C299.17 355.192 300.08 355.412 300.959 355.726Z" fill="#1C2628" stroke="#1C2628" stroke-width="0.668544" stroke-linecap="round" stroke-linejoin="round"/>
<path fill-rule="evenodd" clip-rule="evenodd" d="M272.805 357.734C272.805 357.734 263.734 362.882 257.928 368.688C252.121 374.495 244.871 375.437 238.122 368.688C231.374 361.94 219.165 383.378 206.767 383.378C194.369 383.378 200.207 376.818 190.289 376.818C180.37 376.818 184.294 376.818 173.967 376.818C172.869 376.818 171.833 376.755 170.891 376.661C172.586 373.616 184.168 373.742 187.244 371.953C193.898 368.061 194.526 366.585 207.112 368.939C213.766 370.195 218.16 371.639 222.366 369.096C226.101 366.868 224.971 364.326 228.581 362.191C233.634 359.241 241.418 360.873 249.485 362.599C251.964 363.133 254.098 363.698 256.17 362.599C258.806 361.187 260.909 357.389 259.874 354.878C258.147 350.704 249.139 353.591 245.749 348.475C244.62 346.749 244.274 344.395 244.651 342.26L272.805 357.734Z" fill="#1C2628" stroke="#1C2628" stroke-width="0.668544" stroke-linecap="round" stroke-linejoin="round"/>
<path d="M219.541 377.885C219.541 377.885 231.154 367.527 235.549 367.402C240.539 367.276 240.351 370.258 244.745 373.051C249.139 375.845 253.785 372.361 257.928 368.688" stroke="#FAF6EB" stroke-width="0.668544" stroke-linecap="round" stroke-linejoin="round"/>
<path d="M201.243 353.246L194.902 368.688" stroke="#1C2628" stroke-width="0.668544" stroke-linecap="round" stroke-linejoin="round"/>
<path d="M224.061 345.776L228.581 362.223" stroke="#1C2628" stroke-width="0.668544" stroke-linecap="round" stroke-linejoin="round"/>
<path d="M229.805 351.08L234.795 364.012" stroke="#1C2628" stroke-width="0.668544" stroke-linecap="round" stroke-linejoin="round"/>
<path d="M238.342 345.776L258.148 364.577" stroke="#1C2628" stroke-width="0.668544" stroke-linecap="round" stroke-linejoin="round"/>
<path d="M252.592 353.999L262.29 362.003" stroke="#1C2628" stroke-width="0.668544" stroke-linecap="round" stroke-linejoin="round"/>
<path fill-rule="evenodd" clip-rule="evenodd" d="M220.577 315.644C214.551 311.689 208.43 314.954 202.184 315.519C197.256 315.958 195.624 313.102 190.885 311.815C176.164 307.766 157.803 313.353 160.031 337.239C160.126 338.149 160.251 339.09 160.408 340.001C162.542 351.771 172.712 360.842 190.257 356.573C204.193 353.152 205.919 349.071 208.556 347.125C209.623 346.341 219.321 348.067 222.994 344.144C226.541 340.377 220.326 335.293 218.097 332.499C217.124 331.244 225.442 318.846 220.577 315.644Z" fill="#FAF6EB" stroke="#1C2628" stroke-width="0.668544" stroke-linecap="round" stroke-linejoin="round"/>
<path fill-rule="evenodd" clip-rule="evenodd" d="M217.501 338.588C219.698 343.798 207.959 340.566 205.009 340.785C198.889 341.256 190.571 351.08 186.491 343.076C185.172 340.471 186.271 337.113 186.616 334.351C186.867 332.342 182.191 325.908 185.078 322.738C188.123 319.379 193.835 323.491 198.481 323.648C201.965 323.773 208.681 319.599 211.726 321.796C215.524 324.527 211.161 326.755 211.538 330.082C211.883 333.441 216.246 335.638 217.501 338.588Z" fill="#1C2628" stroke="#1C2628" stroke-width="0.668544" stroke-linecap="round" stroke-linejoin="round"/>
<path fill-rule="evenodd" clip-rule="evenodd" d="M275.096 327.603C279.899 326.284 278.8 325.594 283.822 325.625C288.624 325.657 292.862 314.828 281.939 316.649C272.837 318.187 278.172 316.617 271.989 316.523C265.806 316.429 264.362 319.065 264.362 319.065L262.291 319.348L263.86 327.163C265.178 327.509 270.859 328.764 275.096 327.603Z" fill="#1C2628" stroke="#1C2628" stroke-width="0.668544" stroke-linecap="round" stroke-linejoin="round"/>
<path fill-rule="evenodd" clip-rule="evenodd" d="M184.513 337.678L263.514 327.069C263.514 327.069 263.609 327.101 263.797 327.132L262.228 319.317L183.54 329.643L184.513 337.678Z" fill="#FAF6EB" stroke="#1C2628" stroke-width="0.668544" stroke-linecap="round" stroke-linejoin="round"/>
<path fill-rule="evenodd" clip-rule="evenodd" d="M180.59 342.857L187.809 342.355L185.424 324.495L178.613 325.468L180.59 342.857Z" fill="#1C2628" stroke="#1C2628" stroke-width="0.668544" stroke-linecap="round" stroke-linejoin="round"/>
<path d="M184.796 334.633L263.923 324.433" stroke="#1C2628" stroke-width="0.668544" stroke-linecap="round" stroke-linejoin="round"/>
<path d="M184.827 332.185L263.86 321.608" stroke="#1C2628" stroke-width="0.668544" stroke-linecap="round" stroke-linejoin="round"/>
<path fill-rule="evenodd" clip-rule="evenodd" d="M208.587 347.125C207.3 346.058 205.857 345.336 204.444 345.117C199.924 344.52 197.884 350.672 189.724 352.336C188.845 352.524 183.666 353.497 178.267 351.268C171.425 348.444 171.456 343.422 166.058 341.068C164.363 340.314 162.417 339.969 160.439 339.969C162.574 351.739 168.537 359.178 186.083 357.514C200.364 356.196 205.951 349.103 208.587 347.125Z" fill="#1C2628" stroke="#1C2628" stroke-width="0.668544" stroke-linecap="round" stroke-linejoin="round"/>
<path fill-rule="evenodd" clip-rule="evenodd" d="M193.176 296.749C193.176 296.749 176.039 317.088 173.497 331.558C172.461 337.396 174.752 345.776 184.796 345.776C194.84 345.776 209.246 336.077 209.246 336.077C209.246 336.077 217.062 339.216 219.165 337.113C221.268 335.01 219.165 335.763 219.165 335.763C219.165 335.763 220.075 341.162 222.303 341.162C224.532 341.162 228.424 337.27 228.424 337.27L225.882 329.329C225.882 329.329 227.263 332.782 229.334 332.782C231.374 332.782 233.069 331.118 233.069 331.118L222.303 323.774C222.303 323.774 225.097 322.612 225.097 321.984C225.097 321.357 225.097 320.541 225.097 320.541L202.718 326.41L192.297 328.607L205.417 310.183L193.176 296.749Z" fill="#F3A140" stroke="#1C2628" stroke-width="0.668544" stroke-linecap="round" stroke-linejoin="round"/>
<path fill-rule="evenodd" clip-rule="evenodd" d="M189.033 302.524L194.934 294.96L209.278 307.076L200.709 313.667L189.033 302.524Z" fill="#F3A13B"/>
<path d="M187.213 328.638H192.36" stroke="#1C2628" stroke-width="0.668544" stroke-linecap="round" stroke-linejoin="round"/>
<path d="M216.56 330.993H221.048L222.335 341.193" stroke="#1C2628" stroke-width="0.668544" stroke-linecap="round" stroke-linejoin="round"/>
<path d="M220.577 328.638L223.402 329.58L224.469 340.44" stroke="#1C2628" stroke-width="0.668544" stroke-linecap="round" stroke-linejoin="round"/>
<path d="M224.469 328.168L226.447 339.09" stroke="#1C2628" stroke-width="0.668544" stroke-linecap="round" stroke-linejoin="round"/>
<path d="M222.335 323.773H216.56" stroke="#1C2628" stroke-width="0.668544" stroke-linecap="round" stroke-linejoin="round"/>
<path fill-rule="evenodd" clip-rule="evenodd" d="M258.618 353.246L261.129 341.758C261.129 341.758 257.52 342.26 260.031 336.109C262.542 329.957 263.483 330.741 263.483 330.741L262.291 329.549C262.291 329.549 260.47 330.804 259.277 330.804C258.085 330.804 257.865 329.549 257.865 329.549L260.658 325.719H263.452L264.99 324.182H266.277L267.564 322.895H270.137L271.613 327.195C271.613 327.195 270.483 320.007 271.613 318.908C272.742 317.779 273.998 317.779 273.998 317.779C273.998 317.779 275.599 338.557 273.998 343.453C272.397 348.35 274.814 351.331 267.658 354.815C260.533 358.236 258.618 353.246 258.618 353.246Z" fill="#F3A140" stroke="#1C2628" stroke-width="0.668544" stroke-linecap="round" stroke-linejoin="round"/>
<path d="M263.515 325.688L266.434 328.638" stroke="#1C2628" stroke-width="0.668544" stroke-linecap="round" stroke-linejoin="round"/>
<path d="M266.339 324.15L269.353 327.163" stroke="#1C2628" stroke-width="0.668544" stroke-linecap="round" stroke-linejoin="round"/>
<path d="M263.452 339.09L261.129 341.727" stroke="#1C2628" stroke-width="0.668544" stroke-linecap="round" stroke-linejoin="round"/>
<path d="M273.433 315.644C274.161 315.644 274.751 315.054 274.751 314.326C274.751 313.598 274.161 313.008 273.433 313.008C272.705 313.008 272.115 313.598 272.115 314.326C272.115 315.054 272.705 315.644 273.433 315.644Z" fill="#1C2628" stroke="#1C2628" stroke-width="0.668544" stroke-linecap="round" stroke-linejoin="round"/>
<path d="M279.648 315.644C280.376 315.644 280.966 315.054 280.966 314.326C280.966 313.598 280.376 313.008 279.648 313.008C278.92 313.008 278.329 313.598 278.329 314.326C278.329 315.054 278.92 315.644 279.648 315.644Z" fill="#1C2628" stroke="#1C2628" stroke-width="0.668544" stroke-linecap="round" stroke-linejoin="round"/>
<path d="M285.297 315.644C286.025 315.644 286.616 315.054 286.616 314.326C286.616 313.598 286.025 313.008 285.297 313.008C284.569 313.008 283.979 313.598 283.979 314.326C283.979 315.054 284.569 315.644 285.297 315.644Z" fill="#1C2628" stroke="#1C2628" stroke-width="0.668544" stroke-linecap="round" stroke-linejoin="round"/>
<path d="M221.205 270.07L213.484 272.11L208.744 270.698" stroke="#FAF6EB" stroke-width="0.668544" stroke-linecap="round" stroke-linejoin="round"/>
<path d="M213.452 273.617C213.868 273.617 214.206 273.28 214.206 272.864C214.206 272.448 213.868 272.11 213.452 272.11C213.036 272.11 212.699 272.448 212.699 272.864C212.699 273.28 213.036 273.617 213.452 273.617Z" stroke="#FAF6EB" stroke-width="0.668544" stroke-linecap="round" stroke-linejoin="round"/>
<path d="M77.8916 330.961C79.3354 331.306 80.7792 331.62 82.223 331.965" stroke="#1C2628" stroke-width="0.668544" stroke-linecap="round" stroke-linejoin="round"/>
<path d="M139.567 324.338C141.136 324.935 142.706 325.5 144.275 326.096" stroke="#1C2628" stroke-width="0.668544" stroke-linecap="round" stroke-linejoin="round"/>
<path fill-rule="evenodd" clip-rule="evenodd" d="M154.539 330.176C155.009 331.683 153.471 333.723 151.682 333.723C150.647 333.723 149.517 333.095 149.109 331.903C148.701 330.741 149.203 329.517 150.019 328.89C151.463 327.822 154.068 328.638 154.539 330.176Z" fill="#1C2628" stroke="#1C2628" stroke-width="0.668544" stroke-linecap="round" stroke-linejoin="round"/>
<path fill-rule="evenodd" clip-rule="evenodd" d="M157.05 322.8C156.328 322.706 155.323 319.725 156.767 318.406C157.301 317.904 158.274 317.527 158.713 317.904C159.655 318.72 157.96 322.895 157.05 322.8Z" fill="#1C2628" stroke="#1C2628" stroke-width="0.668544" stroke-linecap="round" stroke-linejoin="round"/>
<path fill-rule="evenodd" clip-rule="evenodd" d="M95.6881 327.854C94.3384 327.697 92.6749 324.841 93.9304 323.114C95.0603 321.545 97.9166 321.796 98.6699 322.926C99.6742 324.401 97.3516 328.042 95.6881 327.854Z" fill="#1C2628" stroke="#1C2628" stroke-width="0.668544" stroke-linecap="round" stroke-linejoin="round"/>
<path d="M190.351 196.75C190.351 196.53 190.351 196.279 190.289 196.06C190.038 194.835 189.096 193.862 187.872 193.611C185.832 193.203 184.074 194.741 184.074 196.687C184.074 196.719 184.074 196.75 184.074 196.781C184.105 197.692 183.729 198.571 183.07 199.198C181.72 200.485 180.967 202.4 181.312 204.471C181.72 207.108 183.917 209.179 186.554 209.462C190.163 209.87 193.239 207.045 193.239 203.498C193.239 201.772 192.517 200.234 191.356 199.135C190.665 198.539 190.351 197.66 190.351 196.75Z" fill="#F3A140" stroke="#1C2628" stroke-width="0.668544" stroke-linecap="round" stroke-linejoin="round"/>
<path d="M187.213 175.909H181.626C181.626 175.909 180.025 184.697 178.424 186.298C176.823 187.899 172.021 190.284 171.237 194.302C170.452 198.288 170.452 219.914 170.452 219.914H188.845" stroke="#1C2628" stroke-width="0.668544" stroke-linecap="round" stroke-linejoin="round"/>
<path d="M188.029 201.521H170.703" stroke="#1C2628" stroke-width="0.668544" stroke-linecap="round" stroke-linejoin="round"/>
<path d="M177.922 219.945V201.552C177.922 201.552 177.702 194.835 180.559 188.746C182.41 184.76 183.195 175.94 183.195 175.94" stroke="#1C2628" stroke-width="0.668544" stroke-linecap="round" stroke-linejoin="round"/>
<path d="M187.213 175.909H192.8C192.8 175.909 194.4 184.697 196.001 186.298C197.602 187.899 202.404 190.284 203.189 194.302C203.973 198.288 203.973 219.914 203.973 219.914H185.581" stroke="#1C2628" stroke-width="0.668544" stroke-linecap="round" stroke-linejoin="round"/>
<path d="M186.428 201.521H203.754" stroke="#1C2628" stroke-width="0.668544" stroke-linecap="round" stroke-linejoin="round"/>
<path d="M196.503 219.945V201.552C196.503 201.552 196.723 194.835 193.867 188.746C192.015 184.76 191.23 175.94 191.23 175.94" stroke="#1C2628" stroke-width="0.668544" stroke-linecap="round" stroke-linejoin="round"/>
<path d="M187.213 202.117V134.07H203.565" stroke="#1C2628" stroke-width="0.668544" stroke-linecap="round" stroke-linejoin="round"/>
</svg>
