<svg width="302" height="565" viewBox="0 0 302 565" fill="none" xmlns="http://www.w3.org/2000/svg">
<path d="M419.004 115.064C463.001 144.139 518.751 149.49 569.925 175.637C621.515 201.684 668.84 248.023 651.262 285.579C633.685 322.731 551.099 350.696 506.582 388.252C462.585 425.403 456.24 471.742 429.821 508.491C397.474 531.206 351.5 561.796 314.16 564.824C271.827 557.152 234.903 514.245 194.235 484.766C153.982 454.883 110.401 438.831 82.7339 409.351C54.6507 380.276 42.8974 337.37 26.5675 286.387C10.2377 235.101 -10.3566 175.335 5.9732 127.784C22.7191 80.6374 75.9732 45.8075 132.972 23.1933C189.554 0.579023 249.049 -9.41567 295.646 11.6842C341.827 33.087 375.007 85.9881 419.004 115.064Z" fill="#FB564C"/>
</svg>
