<svg width="407" height="554" viewBox="0 0 407 554" fill="none" xmlns="http://www.w3.org/2000/svg">
<path fill-rule="evenodd" clip-rule="evenodd" d="M881.464 193.201C774.353 98.3795 637.637 244.604 564.614 203.518C491.502 162.521 603.817 81.5144 589.194 28.9452C574.572 -23.624 487.285 -0.837992 413.635 67.0713C351.108 124.933 309.214 288.023 164.514 298.25C-32.3059 312.065 89.9667 533.824 108.536 554.009C116.072 664.35 482.082 749.214 570.176 450.037C618.888 284.525 928.561 388.766 881.464 193.201Z" fill="#FB393F" fill-opacity="0.81"/>
<path d="M372.267 475.658L267.528 475.304L162.794 474.95C125.67 440.79 98.1458 415.486 79.8958 398.704L52.6831 373.674C52.6831 373.674 52.76 355.949 52.9051 321.516C53.0503 287.082 53.2681 235.949 53.5499 169.124H217.842C217.842 169.124 245.871 228.946 273.903 288.765L329.968 408.406C338.747 423.466 347.01 436.865 354.231 448.207C361.451 459.548 367.647 468.831 372.267 475.658Z" fill="url(#paint0_linear_94_5)" stroke="black" stroke-width="1.281" stroke-miterlimit="10" stroke-linecap="round"/>
<path d="M218.709 466.025H135.696H52.6831V436.455V406.89H135.696H218.709V436.455V466.025Z" fill="#F6991A" stroke="#070707" stroke-width="1.281" stroke-miterlimit="10" stroke-linecap="round"/>
<path d="M212.543 448.672H135.696H58.8447V434.952V421.229H135.696H212.543V434.952V448.672Z" fill="#F6991A" stroke="#070707" stroke-width="1.281" stroke-miterlimit="10" stroke-linecap="round"/>
<path d="M58.8447 426.523H135.696H212.543" fill="#D87D61"/>
<path d="M58.8447 426.523H135.696H212.543" stroke="black" stroke-width="1.281" stroke-miterlimit="10" stroke-linecap="round"/>
<path d="M58.8447 432.074H135.696H212.543" fill="#D87D61"/>
<path d="M58.8447 432.074H135.696H212.543" stroke="black" stroke-width="1.281" stroke-miterlimit="10" stroke-linecap="round"/>
<path d="M58.8447 437.63H135.696H212.543" fill="#D87D61"/>
<path d="M58.8447 437.63H135.696H212.543" stroke="black" stroke-width="1.281" stroke-miterlimit="10" stroke-linecap="round"/>
<path d="M58.8447 443.181H135.696H212.543" fill="#D87D61"/>
<path d="M58.8447 443.181H135.696H212.543" stroke="black" stroke-width="1.281" stroke-miterlimit="10" stroke-linecap="round"/>
<path d="M58.1743 478.109H55.4287H52.6831V472.067V466.025H55.4287H58.1743V472.067V478.109Z" fill="#F6991A" stroke="#070707" stroke-width="1.281" stroke-miterlimit="10" stroke-linecap="round"/>
<path d="M218.709 478.109H215.964H213.218V472.067V466.025H215.964H218.709V472.067V478.109Z" fill="#F6991A" stroke="#070707" stroke-width="1.281" stroke-miterlimit="10" stroke-linecap="round"/>
<path d="M135.696 90.372C114.474 90.372 95.2636 100.513 81.3562 116.91C67.4488 133.307 58.8447 155.955 58.8447 180.96V365.497H212.565V180.964C212.565 155.946 203.965 133.298 190.058 116.914C176.15 100.53 156.918 90.372 135.696 90.372Z" fill="#040400"/>
<path d="M108.59 370.125C108.713 370.126 108.836 370.116 108.957 370.095C109.081 370.073 109.203 370.04 109.32 369.997C109.44 369.954 109.556 369.899 109.666 369.835C109.779 369.769 109.886 369.693 109.987 369.609C110.203 369.422 110.377 369.19 110.495 368.93C110.608 368.673 110.675 368.398 110.691 368.118C110.705 367.829 110.666 367.54 110.576 367.264C110.482 366.989 110.337 366.734 110.149 366.513C107.658 363.533 105.442 360.335 103.526 356.957C99.6689 350.163 97.0111 342.756 95.6693 335.06C95.001 331.234 94.6781 327.355 94.7042 323.471C94.7042 322.733 94.7299 321.964 94.7811 321.187C94.8249 320.402 94.909 319.619 95.033 318.843C95.1562 318.062 95.336 317.291 95.571 316.537C95.8029 315.788 96.112 315.065 96.4934 314.38C96.803 313.828 97.1756 313.314 97.6036 312.848C98.049 312.361 98.5524 311.931 99.1023 311.567C99.6496 311.198 100.252 310.918 100.887 310.738C101.524 310.558 102.191 310.511 102.847 310.602C103.354 310.674 103.849 310.818 104.316 311.029C104.805 311.253 105.272 311.522 105.712 311.831C106.169 312.152 106.608 312.497 107.027 312.865C107.454 313.232 107.86 313.612 108.253 313.988C109.289 314.978 110.305 315.992 111.302 317.028C112.301 318.065 113.27 319.124 114.222 320.205C115.175 321.285 116.097 322.387 117.002 323.51C117.907 324.633 118.778 325.769 119.632 326.926C119.974 327.378 120.475 327.683 121.033 327.78C121.307 327.831 121.588 327.831 121.861 327.78C122.278 327.693 122.66 327.488 122.963 327.189C123.265 326.891 123.476 326.512 123.569 326.097C123.7 325.542 123.61 324.957 123.317 324.466C121.96 322.172 120.711 319.81 119.573 317.382C118.434 314.954 117.414 312.479 116.511 309.957C115.61 307.437 114.824 304.871 114.167 302.271C113.509 299.67 112.976 297.061 112.57 294.431C112.314 292.761 112.143 291.19 112.028 289.704C111.927 288.305 111.897 286.901 111.938 285.498C111.977 284.239 112.1 282.984 112.305 281.741C112.492 280.594 112.766 279.464 113.125 278.359C113.627 276.885 114.339 275.492 115.239 274.221C116.207 272.826 117.355 271.565 118.655 270.472C119.914 269.394 121.361 268.559 122.925 268.008C124.434 267.481 126.062 267.389 127.622 267.744C128.544 267.981 129.414 268.391 130.184 268.952C131.006 269.542 131.768 270.212 132.46 270.95C133.177 271.698 133.856 272.496 134.505 273.273C135.154 274.05 135.786 274.806 136.367 275.459C137.26 276.433 138.139 277.416 139.001 278.41C139.855 279.409 140.709 280.413 141.563 281.433C142.417 282.454 143.229 283.478 144.04 284.516C144.851 285.554 145.65 286.608 146.431 287.667C146.756 288.108 147.226 288.418 147.759 288.543C148.017 288.607 148.286 288.62 148.549 288.581C148.818 288.545 149.077 288.453 149.309 288.312C149.573 288.155 149.801 287.942 149.975 287.689C150.143 287.448 150.258 287.174 150.312 286.886C150.37 286.604 150.37 286.314 150.312 286.032C150.246 285.736 150.12 285.457 149.941 285.212C148.848 283.735 147.729 282.276 146.585 280.835C145.44 279.395 144.268 277.972 143.066 276.565C141.871 275.165 140.649 273.786 139.403 272.428C138.156 271.07 136.898 269.738 135.628 268.431C135.201 268.004 134.795 267.577 134.347 267.18C133.899 266.783 133.459 266.373 132.981 265.993C132.505 265.613 132.007 265.263 131.49 264.942C130.961 264.622 130.407 264.343 129.834 264.11C129.251 263.876 128.65 263.693 128.036 263.563C127.406 263.431 126.766 263.351 126.123 263.324C125.459 263.3 124.794 263.324 124.133 263.397C123.442 263.477 122.757 263.604 122.083 263.777C120.608 264.167 119.196 264.767 117.89 265.557C116.541 266.371 115.301 267.354 114.201 268.482C113.056 269.657 112.052 270.963 111.212 272.372C110.328 273.843 109.612 275.409 109.077 277.039C108.562 278.64 108.192 280.283 107.971 281.95C107.759 283.547 107.655 285.156 107.659 286.766C107.659 288.325 107.745 289.828 107.877 291.229C108.01 292.629 108.185 293.931 108.364 295.093C108.589 296.576 108.855 298.053 109.162 299.525C109.47 300.997 109.813 302.463 110.192 303.923C110.57 305.384 110.989 306.833 111.447 308.27C111.905 309.708 112.398 311.131 112.924 312.54L112.497 312.113C112.356 311.972 112.215 311.831 112.07 311.686L111.643 311.259C111.502 311.118 111.357 310.982 111.216 310.832C110.704 310.341 110.17 309.846 109.598 309.363C109.025 308.872 108.422 308.417 107.792 308.001C107.149 307.578 106.469 307.217 105.759 306.921C105.024 306.616 104.254 306.403 103.466 306.289C102.336 306.128 101.186 306.181 100.076 306.447C99.0182 306.714 98.0094 307.146 97.0869 307.728C96.1728 308.295 95.3385 308.981 94.606 309.769C93.8979 310.517 93.2841 311.348 92.7785 312.245C92.2905 313.125 91.8873 314.048 91.5743 315.004C91.2693 315.933 91.0352 316.883 90.874 317.848C90.7138 318.785 90.6026 319.73 90.541 320.679C90.4769 321.605 90.4556 322.519 90.447 323.394C90.4176 327.545 90.7621 331.689 91.4761 335.777C92.9126 343.989 95.7554 351.89 99.8795 359.134C101.929 362.736 104.298 366.146 106.959 369.323C107.063 369.446 107.18 369.558 107.309 369.656C107.562 369.845 107.854 369.977 108.163 370.04C108.303 370.082 108.446 370.11 108.59 370.125Z" fill="url(#paint1_linear_94_5)" stroke="black" stroke-width="1.281" stroke-miterlimit="10" stroke-linecap="round"/>
<path d="M215.686 252.632C215.827 252.546 215.96 252.448 216.083 252.337C216.208 252.227 216.322 252.105 216.425 251.974C216.529 251.84 216.621 251.697 216.702 251.547C216.784 251.393 216.853 251.231 216.907 251.065C217.023 250.703 217.058 250.319 217.01 249.942C216.962 249.57 216.844 249.211 216.664 248.883C216.478 248.559 216.237 248.269 215.951 248.029C215.657 247.778 215.318 247.587 214.952 247.465C210.047 245.824 205.299 243.745 200.767 241.252C191.649 236.246 183.463 229.706 176.569 221.918C173.139 218.046 170.065 213.873 167.384 209.449C166.871 208.595 166.359 207.72 165.872 206.806C165.385 205.893 164.924 204.94 164.519 203.967C164.114 202.996 163.78 201.997 163.519 200.978C163.262 199.966 163.107 198.93 163.058 197.886C163.027 197.045 163.09 196.203 163.246 195.376C163.408 194.506 163.676 193.66 164.045 192.856C164.404 192.055 164.89 191.317 165.484 190.67C166.082 190.019 166.809 189.5 167.619 189.146C168.248 188.878 168.912 188.701 169.591 188.62C170.3 188.539 171.014 188.519 171.726 188.561C172.468 188.605 173.206 188.689 173.938 188.813C174.677 188.932 175.407 189.077 176.112 189.24C177.982 189.635 179.844 190.075 181.697 190.559C183.55 191.043 185.4 191.564 187.248 192.122C189.078 192.691 190.897 193.292 192.705 193.924C194.507 194.564 196.3 195.243 198.072 195.965C198.596 196.175 199.168 196.231 199.722 196.128C200.277 196.024 200.79 195.765 201.202 195.38C201.481 195.118 201.707 194.805 201.868 194.458C202.029 194.11 202.12 193.734 202.137 193.352C202.173 192.606 201.924 191.875 201.441 191.306C201.195 191.013 200.893 190.77 200.553 190.593C197.422 188.939 194.359 187.134 191.364 185.179C188.369 183.223 185.479 181.127 182.692 178.889C179.902 176.66 177.228 174.305 174.668 171.822C172.109 169.34 169.681 166.748 167.384 164.047C165.926 162.339 164.621 160.679 163.468 159.068C162.374 157.556 161.359 155.988 160.428 154.371C159.595 152.915 158.856 151.408 158.216 149.857C157.628 148.428 157.15 146.957 156.786 145.455C156.323 143.429 156.153 141.347 156.282 139.272C156.412 137.016 156.843 134.787 157.563 132.645C158.243 130.541 159.305 128.581 160.697 126.863C162.035 125.214 163.811 123.975 165.821 123.289C167.033 122.914 168.305 122.769 169.57 122.862C170.914 122.959 172.246 123.186 173.545 123.541C174.878 123.887 176.206 124.323 177.482 124.75C178.759 125.177 179.989 125.604 181.125 125.924C182.813 126.405 184.495 126.909 186.172 127.436C187.848 127.962 189.517 128.509 191.176 129.075C192.836 129.645 194.49 130.234 196.138 130.843C197.786 131.452 199.424 132.086 201.053 132.743C201.393 132.877 201.754 132.952 202.12 132.965C202.477 132.974 202.832 132.922 203.171 132.812C203.505 132.699 203.816 132.527 204.089 132.303C204.37 132.068 204.6 131.778 204.763 131.449C204.953 131.085 205.062 130.685 205.084 130.275C205.105 129.886 205.046 129.496 204.909 129.131C204.77 128.766 204.561 128.432 204.294 128.149C204.014 127.859 203.676 127.632 203.303 127.483C201.026 126.569 198.737 125.695 196.437 124.861C194.137 124.027 191.814 123.233 189.468 122.478C187.131 121.727 184.783 121.015 182.423 120.343C180.063 119.671 177.694 119.046 175.317 118.469C174.562 118.281 173.789 118.097 173.003 117.939C172.217 117.781 171.427 117.64 170.629 117.546C169.823 117.445 169.012 117.395 168.199 117.397C167.375 117.399 166.553 117.469 165.74 117.606C164.916 117.748 164.105 117.962 163.319 118.247C162.514 118.537 161.734 118.893 160.987 119.31C160.215 119.744 159.477 120.237 158.78 120.783C158.051 121.353 157.364 121.975 156.726 122.645C155.322 124.116 154.138 125.781 153.207 127.589C152.25 129.456 151.533 131.436 151.072 133.482C150.593 135.617 150.363 137.801 150.389 139.989C150.419 142.273 150.705 144.546 151.243 146.766C151.776 148.942 152.504 151.065 153.417 153.111C154.293 155.068 155.298 156.963 156.427 158.786C157.516 160.558 158.664 162.202 159.792 163.696C160.919 165.191 162.029 166.545 163.041 167.736C164.336 169.256 165.67 170.745 167.042 172.202C168.414 173.66 169.828 175.083 171.282 176.472C172.734 177.861 174.221 179.212 175.744 180.525C177.267 181.837 178.822 183.111 180.407 184.346L179.634 184.167L178.862 183.987L178.084 183.817C177.828 183.761 177.568 183.701 177.307 183.65C176.389 183.454 175.428 183.262 174.451 183.112C173.461 182.959 172.463 182.867 171.462 182.835C170.439 182.803 169.415 182.867 168.404 183.027C167.356 183.195 166.334 183.493 165.36 183.915C163.965 184.526 162.699 185.395 161.628 186.477C160.605 187.514 159.753 188.708 159.104 190.012C158.467 191.296 157.999 192.657 157.712 194.06C157.437 195.403 157.324 196.773 157.375 198.143C157.434 199.481 157.621 200.811 157.934 202.114C158.239 203.38 158.637 204.621 159.126 205.829C159.601 207.001 160.135 208.148 160.727 209.266C161.308 210.363 161.914 211.401 162.52 212.413C165.388 217.132 168.675 221.584 172.341 225.714C179.689 234.012 188.412 240.982 198.128 246.317C202.967 248.968 208.037 251.178 213.273 252.918C213.484 252.994 213.704 253.041 213.927 253.059C214.134 253.083 214.343 253.083 214.55 253.059C214.753 253.034 214.952 252.987 215.144 252.918C215.334 252.842 215.516 252.746 215.686 252.632Z" fill="url(#paint2_linear_94_5)" stroke="black" stroke-width="1.281" stroke-miterlimit="10" stroke-linecap="round"/>
<path d="M135.696 82.1864C112.771 82.1864 92.0183 93.1432 76.9965 110.868C61.9746 128.593 52.6831 153.03 52.6831 180.042V373.674H218.709V180.042C218.709 153.017 209.418 128.55 194.37 110.838C179.323 93.1262 158.618 82.1864 135.696 82.1864ZM211.305 164.67H144.266L168.665 142.654L193.004 120.625C197.722 126.88 201.632 133.707 204.64 140.942C207.818 148.551 210.056 156.519 211.305 164.67ZM188.606 115.262L163.887 137.607L139.163 159.973V90.4617C148.585 90.9695 157.794 93.4637 166.184 97.7805C174.676 102.169 182.279 108.096 188.606 115.262ZM132.242 90.4617V159.367L107.664 137.163L83.0898 114.959C89.4027 107.883 96.9678 102.033 105.405 97.7036C113.741 93.4391 122.879 90.9719 132.229 90.4617H132.242ZM127.763 164.67H60.0873C61.3428 156.44 63.6058 148.397 66.8253 140.72C69.8759 133.426 73.8449 126.551 78.6362 120.262L103.201 142.466L127.763 164.67ZM212.543 365.488H58.8447V180.964C58.8447 179.384 58.8789 177.819 58.9472 176.267C59.0155 174.716 59.1166 173.167 59.2504 171.622H212.138C212.274 173.159 212.373 174.709 212.441 176.267C212.509 177.826 212.543 179.393 212.543 180.964V365.497V365.488Z" fill="#F6991A" stroke="#070707" stroke-width="1.281" stroke-miterlimit="10" stroke-linecap="round"/>
<path d="M188.439 303.018C188.439 302.527 187.184 302.083 185.1 301.737C182.351 301.329 179.578 301.103 176.799 301.058C176.761 298.291 176.476 295.533 175.945 292.817C175.488 290.737 174.891 289.482 174.237 289.482C173.584 289.482 172.986 290.737 172.529 292.817C171.999 295.533 171.713 298.291 171.675 301.058C168.891 301.102 166.112 301.329 163.357 301.737C161.274 302.083 160.022 302.527 160.022 303.018C160.022 303.509 161.274 303.949 163.357 304.299C166.105 304.703 168.877 304.927 171.654 304.969C171.692 307.736 171.978 310.494 172.508 313.21C172.965 315.29 173.563 316.545 174.216 316.545C174.869 316.545 175.467 315.29 175.924 313.21C176.454 310.494 176.74 307.736 176.778 304.969C179.564 304.929 182.344 304.705 185.1 304.299C187.184 303.945 188.439 303.501 188.439 303.018Z" fill="url(#paint3_linear_94_5)" stroke="black" stroke-width="1.281" stroke-miterlimit="10" stroke-linecap="round"/>
<path d="M174.434 328.296C172.222 328.77 170.834 329.287 169.882 330.239C168.93 331.191 168.413 332.579 167.939 334.795C167.925 334.861 167.889 334.921 167.837 334.963C167.784 335.006 167.719 335.029 167.651 335.029C167.584 335.029 167.518 335.006 167.466 334.963C167.413 334.921 167.377 334.861 167.363 334.795C166.889 332.579 166.372 331.191 165.42 330.239C164.468 329.287 163.084 328.77 160.868 328.296C160.801 328.285 160.74 328.25 160.697 328.197C160.654 328.145 160.631 328.078 160.633 328.01C160.632 327.943 160.655 327.877 160.698 327.824C160.741 327.772 160.802 327.736 160.868 327.724C163.084 327.25 164.468 326.734 165.42 325.781C166.372 324.829 166.889 323.441 167.363 321.225C167.377 321.159 167.413 321.1 167.466 321.057C167.518 321.015 167.584 320.992 167.651 320.992C167.719 320.992 167.784 321.015 167.837 321.057C167.889 321.1 167.925 321.159 167.939 321.225C168.413 323.441 168.93 324.829 169.882 325.781C170.834 326.734 172.222 327.25 174.434 327.724C174.501 327.736 174.561 327.772 174.604 327.824C174.647 327.877 174.67 327.943 174.669 328.01C174.671 328.078 174.648 328.145 174.605 328.197C174.562 328.25 174.501 328.285 174.434 328.296Z" fill="url(#paint4_linear_94_5)" stroke="black" stroke-width="1.281" stroke-miterlimit="10" stroke-linecap="round"/>
<path d="M131.734 190.132C129.543 190.602 128.168 191.114 127.229 192.058C126.289 193.001 125.773 194.372 125.303 196.563C125.291 196.628 125.256 196.687 125.204 196.73C125.153 196.772 125.088 196.794 125.021 196.793C124.954 196.794 124.889 196.772 124.836 196.73C124.784 196.688 124.748 196.629 124.735 196.563C124.265 194.372 123.757 192.997 122.814 192.058C121.87 191.118 120.499 190.602 118.309 190.132C118.243 190.12 118.184 190.085 118.142 190.033C118.1 189.982 118.077 189.917 118.078 189.85C118.077 189.783 118.099 189.718 118.141 189.665C118.184 189.613 118.243 189.577 118.309 189.564C120.499 189.094 121.87 188.586 122.814 187.643C123.757 186.699 124.265 185.328 124.735 183.138C124.748 183.072 124.784 183.013 124.836 182.97C124.889 182.928 124.954 182.906 125.021 182.907C125.088 182.906 125.153 182.929 125.204 182.971C125.256 183.013 125.291 183.072 125.303 183.138C125.773 185.328 126.285 186.699 127.229 187.643C128.172 188.586 129.543 189.094 131.734 189.564C131.8 189.577 131.859 189.613 131.901 189.665C131.943 189.718 131.965 189.783 131.964 189.85C131.965 189.917 131.943 189.982 131.901 190.033C131.858 190.085 131.799 190.12 131.734 190.132Z" fill="url(#paint5_linear_94_5)" stroke="black" stroke-width="1.281" stroke-miterlimit="10" stroke-linecap="round"/>
<path d="M196.68 298.257C195.665 298.256 194.681 297.902 193.897 297.257C193.112 296.612 192.576 295.715 192.379 294.718C192.182 293.722 192.337 292.688 192.817 291.793C193.297 290.898 194.072 290.197 195.011 289.81C195.95 289.422 196.994 289.372 197.965 289.669C198.937 289.965 199.776 290.589 200.339 291.434C200.902 292.279 201.154 293.293 201.053 294.304C200.952 295.315 200.504 296.259 199.785 296.976C199.377 297.384 198.893 297.706 198.36 297.926C197.828 298.146 197.257 298.259 196.68 298.257ZM196.68 291.878C196.22 291.878 195.774 292.037 195.418 292.329C195.063 292.621 194.819 293.027 194.729 293.478C194.639 293.93 194.708 294.398 194.925 294.804C195.142 295.21 195.492 295.529 195.917 295.705C196.342 295.882 196.815 295.905 197.256 295.772C197.697 295.639 198.077 295.357 198.333 294.975C198.59 294.592 198.705 294.133 198.661 293.675C198.616 293.217 198.414 292.788 198.089 292.463C197.716 292.089 197.209 291.879 196.68 291.878Z" fill="url(#paint6_linear_94_5)" stroke="black" stroke-width="1.281" stroke-miterlimit="10" stroke-linecap="round"/>
<path d="M80.2975 260.916C79.293 260.918 78.3187 260.572 77.5407 259.936C76.7628 259.301 76.2291 258.415 76.0308 257.431C75.8325 256.446 75.9817 255.423 76.453 254.536C76.9243 253.649 77.6886 252.952 78.6157 252.566C79.5428 252.179 80.5753 252.125 81.5374 252.414C82.4994 252.703 83.3315 253.317 83.8919 254.151C84.4523 254.984 84.7064 255.987 84.6108 256.986C84.5152 257.986 84.0759 258.922 83.3677 259.635C82.9658 260.04 82.4876 260.362 81.9607 260.582C81.4337 260.802 80.8685 260.915 80.2975 260.916ZM80.2975 254.605C79.8421 254.605 79.4008 254.763 79.0488 255.052C78.6968 255.341 78.4558 255.743 78.367 256.189C78.2782 256.636 78.3471 257.1 78.5618 257.501C78.7765 257.903 79.1238 258.218 79.5446 258.392C79.9653 258.566 80.4335 258.589 80.8693 258.457C81.3051 258.325 81.6816 258.045 81.9345 257.667C82.1875 257.288 82.3014 256.833 82.2567 256.38C82.212 255.927 82.0116 255.503 81.6895 255.181C81.3198 254.813 80.8194 254.606 80.2975 254.605Z" fill="url(#paint7_linear_94_5)" stroke="black" stroke-width="1.281" stroke-miterlimit="10" stroke-linecap="round"/>
<path d="M86.8989 225.266L84.6827 224.262L82.4709 223.254L80.2548 222.247L78.0429 221.243L79.8107 220.159L81.5785 219.078L83.3462 217.998L85.114 216.918L82.7314 214.497L80.3487 212.076L77.966 209.654L75.5791 207.233L78.6108 207.724L81.6382 208.215L84.6657 208.707L87.6974 209.198L86.4036 205.683L85.114 202.165L83.8202 198.651L82.5264 195.132L85.5069 197.404L88.483 199.671L91.4592 201.939L94.4354 204.21L95.0802 202.212L95.725 200.213L96.3697 198.215L97.0145 196.221L98.2357 198.471L99.4527 200.722L100.674 202.972L101.895 205.226L104.833 202.865L107.766 200.504L110.7 198.143L113.638 195.781L112.254 199.453L110.871 203.13L109.491 206.806L108.108 210.483L111.486 210.303L114.863 210.124L118.236 209.945L121.614 209.765L118.941 211.96L116.264 214.155L113.586 216.346L110.913 218.54L112.796 220.5L114.679 222.46L116.567 224.42L118.45 226.376L115.892 226.431L113.334 226.491L110.777 226.547L108.219 226.602L108.672 230.372L109.124 234.143L109.577 237.913L110.029 241.684L107.664 238.844L105.298 236.005L102.933 233.161L100.571 230.321L99.158 233.511L97.7489 236.701L96.3356 239.886L94.9265 243.076L94.4269 239.519L93.9316 235.962L93.4362 232.409L92.9366 228.852L89.6786 231.278L86.4164 233.703L83.1541 236.124L79.8961 238.55L81.6468 235.227L83.3975 231.905L85.1482 228.588L86.8989 225.266Z" fill="url(#paint8_linear_94_5)" stroke="black" stroke-width="1.281" stroke-miterlimit="10" stroke-linecap="round"/>
<path d="M283.425 385.079L245.811 385.002L208.197 384.938C199.379 392.372 189.357 399.981 180.121 408.286C170.885 416.591 162.426 425.601 156.743 435.815C153.27 442.11 151.947 449.367 152.977 456.482C153.94 463.613 157.424 470.164 162.798 474.95C167.256 478.861 172.525 481.039 178.093 482.209C183.661 483.379 189.532 483.49 195.199 483.306C216.51 482.623 233.825 482.379 251.136 482.311C268.446 482.243 285.77 482.345 307.094 482.345H309.545C309.66 482.339 309.768 482.289 309.847 482.205C309.927 482.122 309.971 482.012 309.972 481.897V430.012H277.857C278.041 429.841 278.31 429.585 278.63 429.265C278.951 428.945 279.331 428.547 279.728 428.091C284.403 422.732 286.09 415.972 286.585 410.43C286.907 406.974 286.811 403.491 286.299 400.058L286.12 399.106C285.941 398.175 285.582 396.326 284.869 392.607C284.869 392.509 284.497 390.677 284.147 388.841C283.797 387.005 283.443 385.177 283.425 385.079Z" fill="#DBCAF4" stroke="black" stroke-width="1.281" stroke-miterlimit="10" stroke-linecap="round"/>
<path d="M295.582 463.694H294.156V439.91H310.002V436.669H294.16V430.012H290.932V436.669H266.354V412.885H286.286C286.372 412.326 286.44 411.779 286.5 411.241C286.559 410.703 286.606 410.174 286.645 409.657H266.354V385.822C266.354 385.685 266.337 385.549 266.303 385.416C266.265 385.289 266.213 385.166 266.149 385.049H263.335C263.269 385.166 263.219 385.291 263.185 385.42C263.147 385.552 263.129 385.689 263.13 385.826V409.678H239.346V385.822C239.346 385.677 239.325 385.533 239.282 385.395C239.242 385.26 239.187 385.131 239.115 385.011H236.353C236.279 385.133 236.221 385.265 236.182 385.403C236.139 385.542 236.118 385.686 236.118 385.83V409.683H212.334V384.959H209.106V409.678H185.416V403.67L183.798 405.071L182.188 406.476V409.687H178.605C178.036 410.222 177.467 410.757 176.897 411.292C176.325 411.83 175.757 412.368 175.189 412.915H182.205V436.669H158.417V432.997C158.131 433.462 157.845 433.928 157.563 434.397C157.281 434.867 157.012 435.337 156.751 435.815C156.379 436.475 156.036 437.149 155.722 437.835C155.402 438.518 155.112 439.21 154.843 439.91H155.189V463.694H154.915C155.362 464.821 155.875 465.92 156.453 466.986C157.039 468.061 157.69 469.099 158.404 470.095V466.909H182.188V482.849C182.726 482.913 183.26 482.973 183.798 483.024C184.336 483.075 184.878 483.118 185.416 483.156V466.93H209.106V482.905L210.729 482.862L212.334 482.823V466.922H236.131V482.409H237.749H239.359V466.922H263.143V482.294H266.367V466.922H290.94V482.294H294.169V466.922H310.002V463.694H295.582ZM182.188 463.694H158.417V439.91H182.201V463.694H182.188ZM209.089 463.694H185.416V439.91H209.106V463.694H209.089ZM209.089 436.686H185.416V412.902H209.106V436.669L209.089 436.686ZM236.131 463.694H212.347V439.91H236.131V463.694ZM236.131 436.669H212.347V412.885H236.131V436.669ZM263.143 463.677H239.359V439.893H263.143V463.677ZM263.143 436.669H239.359V412.885H263.143V436.669ZM290.94 463.677H266.354V439.893H290.928V463.677H290.94Z" fill="#84A1E5" stroke="#070707" stroke-width="1.281" stroke-miterlimit="10" stroke-linecap="round"/>
<path d="M374.291 483.391C374.39 481.751 374.163 480.106 373.625 478.553C373.278 477.539 372.817 476.568 372.25 475.658L371.319 474.245L370.371 472.844L357.796 453.335L345.221 433.821C344.888 433.306 344.506 432.824 344.081 432.382C343.652 431.945 343.173 431.559 342.654 431.233C341.454 430.494 340.084 430.074 338.675 430.012L356.348 457.648L374.022 485.287C374.086 484.975 374.141 484.664 374.188 484.344C374.235 484.023 374.265 483.716 374.291 483.391Z" fill="#C6FCDB" stroke="black" stroke-width="1.281" stroke-miterlimit="10" stroke-linecap="round"/>
<path d="M338.675 430.025H338.487H310.002V477.986H317.056L324.114 477.964C324.114 477.964 327.274 479.266 331.702 481.252C336.13 483.238 341.835 485.898 346.912 488.618C347.42 488.891 347.996 489.186 348.769 489.579C349.542 489.971 350.511 490.433 351.805 491.103C354.555 492.482 356.238 493.272 357.416 493.755C358.261 494.121 359.143 494.396 360.046 494.574C361.579 494.91 363.163 494.931 364.705 494.638C366.246 494.344 367.711 493.742 369.013 492.866C371.59 491.096 373.383 488.399 374.018 485.338L356.344 457.699L338.675 430.025Z" fill="#ECE7E1" stroke="black" stroke-width="1.281" stroke-miterlimit="10" stroke-linecap="round"/>
<path d="M291.803 328.155C290.71 325.907 289.526 323.733 288.251 321.635C286.995 319.565 285.631 317.562 284.164 315.636C278.532 308.24 271.192 303.18 263.006 300.085C254.821 296.989 245.794 295.87 236.784 296.353C208.376 297.894 195.698 313.719 190.134 329.176C184.571 344.633 186.108 359.707 186.108 359.707L177.299 350.159L168.494 340.594L155.21 352.033L141.922 363.473L154.804 382.491L167.683 401.527C169.214 403.792 170.974 405.894 172.935 407.8C174.892 409.705 177.054 411.388 179.383 412.817C181.333 414.006 183.392 415.007 185.531 415.806C187.952 416.712 190.47 417.335 193.034 417.663C195.154 417.969 197.298 418.083 199.439 418.005C202.603 417.887 205.711 417.138 208.581 415.802C213.513 413.44 217.428 409.217 220.071 403.846C222.715 398.474 224.098 391.975 223.961 385.058H283.425C283.425 385.058 284.143 388.802 284.864 392.547L286.299 400.037C286.299 399.921 287.67 398.884 289.134 397.825C290.599 396.766 292.123 395.69 292.414 395.446C294.983 393.247 296.991 390.465 298.268 387.333C299.561 384.207 300.381 380.906 300.702 377.538C301.514 369.202 301.159 360.793 299.647 352.554C298.158 344.102 295.519 335.893 291.803 328.155Z" fill="#ECE7E1" stroke="black" stroke-width="1.281" stroke-miterlimit="10" stroke-linecap="round"/>
<path d="M242.856 300.289C247.895 296.045 250.918 289.465 251.96 283.056C253.04 276.395 251.887 269.511 247.69 264.524C247.515 264.315 247.335 264.097 247.147 263.913C246.959 263.73 246.776 263.521 246.584 263.333C243.39 260.22 239.12 258.567 234.722 258.315C230.303 258.032 225.915 259.221 222.245 261.697C220.088 263.26 218.317 265.294 217.065 267.645C215.8 269.99 214.798 272.468 214.076 275.032C213.915 275.57 213.784 276.116 213.683 276.668C213.577 277.214 213.496 277.769 213.41 278.333C213.38 278.521 213.342 279.208 213.261 279.87C213.18 280.532 213.056 281.151 212.859 281.241L211.792 281.668L210.746 282.095L209.699 282.522L208.653 282.949C209.179 283.376 209.652 283.777 210.067 284.11C210.481 284.444 210.831 284.725 211.113 284.964C211.395 285.204 211.651 285.366 211.916 285.579C212.18 285.787 212.421 286.023 212.633 286.284C212.826 286.542 212.958 286.842 213.017 287.159C213.086 287.467 213.115 287.791 213.167 288.111C215.221 301.161 231.442 309.355 242.327 300.763C242.51 300.576 242.685 300.456 242.856 300.289Z" fill="#F2B3C1" stroke="black" stroke-width="1.281" stroke-miterlimit="10" stroke-linecap="round"/>
<path d="M221.148 278.474C221.112 278.635 221.045 278.787 220.951 278.922C220.766 279.182 220.49 279.362 220.178 279.426C220.017 279.458 219.851 279.456 219.69 279.422C219.529 279.387 219.377 279.32 219.243 279.226C218.983 279.042 218.804 278.765 218.744 278.453C218.707 278.292 218.707 278.126 218.744 277.966C218.779 277.812 218.844 277.667 218.936 277.539C219.025 277.408 219.14 277.296 219.273 277.21C219.403 277.125 219.548 277.066 219.7 277.035C219.86 277.001 220.026 277.001 220.187 277.035C220.34 277.071 220.485 277.137 220.614 277.227C220.743 277.318 220.853 277.432 220.938 277.565C221.023 277.695 221.084 277.84 221.118 277.992C221.159 278.149 221.169 278.313 221.148 278.474Z" fill="#040400"/>
<path d="M222.915 285.673C222.867 285.827 222.81 285.978 222.744 286.126C222.615 286.41 222.462 286.683 222.288 286.941C222.055 287.279 221.78 287.585 221.468 287.851C220.804 288.42 219.981 288.772 219.111 288.859C218.79 288.891 218.467 288.891 218.146 288.859C217.897 288.828 217.65 288.781 217.407 288.718C217.262 288.677 217.12 288.628 216.98 288.573" stroke="black" stroke-width="1.281" stroke-miterlimit="10" stroke-linecap="round"/>
<path d="M218.859 272.923L220.635 273.538L222.416 274.153L224.196 274.768L225.977 275.383" stroke="black" stroke-width="1.281" stroke-miterlimit="10" stroke-linecap="round"/>
<path d="M234.116 285.485C233.989 286.087 233.715 286.649 233.32 287.12C232.924 287.591 232.418 287.957 231.847 288.186C231.276 288.414 230.657 288.499 230.046 288.431C229.434 288.364 228.849 288.146 228.341 287.799C227.834 287.451 227.42 286.983 227.136 286.437C226.853 285.891 226.708 285.284 226.716 284.669C226.723 284.054 226.882 283.45 227.178 282.911C227.475 282.372 227.9 281.914 228.415 281.578C228.82 281.316 229.271 281.134 229.743 281.04C230.349 280.923 230.975 280.957 231.565 281.14C232.155 281.323 232.69 281.649 233.123 282.089C233.556 282.529 233.873 283.07 234.046 283.662C234.22 284.255 234.243 284.881 234.116 285.485Z" fill="#FF6406" stroke="#070707" stroke-width="1.281" stroke-miterlimit="10" stroke-linecap="round"/>
<path d="M250.128 290.349C250.397 289.401 250.662 288.389 250.901 287.321C251.14 286.254 251.366 285.127 251.558 283.948C251.712 283.005 251.836 282.091 251.938 281.211C252.041 280.331 252.113 279.477 252.169 278.649C252.454 278.645 252.739 278.657 253.023 278.683C253.398 278.72 253.769 278.786 254.133 278.88C254.439 278.972 254.736 279.09 255.021 279.234C255.535 279.478 256.003 279.809 256.405 280.212C257.21 281.098 257.656 282.252 257.656 283.449C257.688 284.576 257.492 285.699 257.079 286.749C256.895 287.232 256.662 287.694 256.383 288.129C255.979 288.749 255.448 289.277 254.825 289.679C253.94 290.236 252.916 290.532 251.87 290.533C251.284 290.551 250.697 290.49 250.128 290.349Z" fill="#F2B3C1" stroke="black" stroke-width="1.281" stroke-miterlimit="10" stroke-linecap="round"/>
<path d="M214.55 272.987C214.947 273.316 214.55 272.987 213.935 272.513C213.32 272.039 212.543 271.365 212.172 271.01C211.182 269.943 210.533 268.605 210.309 267.167C210.086 265.729 210.297 264.257 210.916 262.94C211.624 261.602 212.759 260.539 214.14 259.921C214.871 259.576 215.648 259.337 216.446 259.212C216.205 258.403 216.078 257.563 216.07 256.718C216.025 255.201 216.457 253.708 217.304 252.448C218.036 251.409 219.043 250.594 220.212 250.096C221.052 249.744 221.931 249.492 222.83 249.344C224.849 248.96 226.711 249.447 228.5 250.228C230.289 251.009 232.006 252.09 233.735 252.884C235.962 253.883 238.284 254.657 240.666 255.194C243.005 255.753 245.388 256.163 247.835 256.603C249.912 256.947 251.937 257.549 253.864 258.397C255.796 259.238 257.493 260.538 258.809 262.184C260.088 263.832 260.905 265.79 261.174 267.859C261.427 269.922 261.322 272.014 260.863 274.042C260.658 275.019 260.405 275.985 260.103 276.937C259.798 277.89 259.456 278.828 259.078 279.751C258.937 280.092 258.553 280.707 258.224 281.322C257.895 281.937 257.583 282.565 257.617 282.928C257.59 282.664 257.543 282.403 257.477 282.146C257.375 281.791 257.231 281.448 257.05 281.126C256.822 280.725 256.534 280.362 256.196 280.05C255.973 279.846 255.733 279.663 255.478 279.503C254.891 279.121 254.233 278.859 253.544 278.735C253.093 278.652 252.635 278.624 252.177 278.649C252.177 278.649 252.041 280.357 251.776 282.449C251.556 284.522 251.165 286.573 250.606 288.581C250.606 288.581 249.159 288.244 247.929 286.245C246.699 284.247 245.683 280.592 246.55 273.961C241.725 275.408 237.156 275.331 233.513 274.208C229.871 273.085 227.108 270.903 225.938 268.149C225.558 267.243 225.335 266.278 225.281 265.297C225.187 263.338 225.534 261.382 226.297 259.575C225.537 259.845 224.798 260.168 224.085 260.544C223.232 260.998 222.42 261.527 221.66 262.124C221.21 262.474 220.783 262.85 220.379 263.251C219.604 264.009 218.898 264.833 218.269 265.715C217.804 266.369 217.376 267.049 216.988 267.752C216.634 268.405 216.327 269.033 216.019 269.674C215.712 270.314 215.327 271.172 215.041 271.809C214.755 272.445 214.55 272.987 214.55 272.987Z" fill="#D87D61" stroke="black" stroke-width="1.281" stroke-miterlimit="10" stroke-linecap="round"/>
<path d="M186.108 359.707L190.707 364.31L195.31 368.917" stroke="black" stroke-width="1.281" stroke-miterlimit="10" stroke-linecap="round"/>
<path d="M280.812 351.269C281.269 353.801 281.692 356.449 282.055 359.194C282.418 361.94 282.721 364.796 282.956 367.734C283.204 370.83 283.357 373.832 283.426 376.701C283.494 379.571 283.494 382.38 283.426 385.049" stroke="black" stroke-width="1.281" stroke-miterlimit="10" stroke-linecap="round"/>
<path d="M224.175 352.097C224.141 357.597 224.106 363.094 224.069 368.588C224.032 374.082 223.995 379.579 223.958 385.079" stroke="black" stroke-width="1.281" stroke-miterlimit="10" stroke-linecap="round"/>
<path d="M168.494 340.594C166.906 338.233 165.407 335.897 164.07 333.467C162.713 331.024 161.571 328.468 160.654 325.828C159.438 322.293 158.289 318.719 157.076 315.153C155.864 311.588 154.6 308.074 153.144 304.624C152.26 302.523 151.278 299.952 150.026 297.569C148.775 295.187 147.259 292.992 145.3 291.63C144.996 291.409 144.666 291.227 144.317 291.088C143.966 290.952 143.585 290.906 143.212 290.955C142.979 290.996 142.754 291.074 142.545 291.186C142.375 291.277 142.216 291.389 142.071 291.519L141.299 290.328L140.526 289.141C138.058 285.498 136.307 284.913 135.167 285.242C134.8 285.38 134.465 285.59 134.181 285.859C133.896 286.128 133.668 286.451 133.51 286.809C133.275 286.354 132.979 285.933 132.63 285.558C132.014 284.877 131.195 284.412 130.295 284.23C129.962 284.162 129.623 284.13 129.283 284.136C128.804 284.13 128.336 284.28 127.951 284.563C127.395 284.99 127.097 285.818 127.131 286.822C127.198 288.035 127.574 289.211 128.224 290.238C127.636 290.244 127.056 290.366 126.516 290.597C126.067 290.788 125.68 291.1 125.397 291.498C124.752 292.437 124.872 293.735 125.226 295.033C125.581 296.331 126.161 297.629 126.452 298.56C126.93 300.097 127.366 301.647 127.814 303.197C128.262 304.747 128.715 306.285 129.232 307.813C129.713 309.237 130.158 310.66 130.568 312.083C130.995 313.522 131.345 314.978 131.67 316.439C131.967 317.521 132.189 318.622 132.336 319.735C132.434 320.901 132.272 322.024 131.426 322.775C131.18 322.995 130.889 323.159 130.572 323.254C130.379 323.314 130.18 323.355 129.979 323.377C128.924 323.484 127.904 323.044 126.785 322.096C125.365 320.772 124.089 319.302 122.976 317.711C122.318 316.827 121.422 315.333 120.346 314.163C119.27 312.993 118.019 312.152 116.656 312.579C115.726 312.869 115.375 313.637 115.269 314.517C115.217 315.375 115.279 316.237 115.452 317.079C115.678 318.397 116.049 319.686 116.558 320.922C117.045 322.148 117.617 323.343 118.177 324.569C118.907 326.183 124.735 336.004 130.431 345.376C136.128 354.749 141.704 363.673 141.926 363.481L155.214 352.042L168.494 340.594Z" fill="#F2B3C1" stroke="black" stroke-width="1.281" stroke-miterlimit="10" stroke-linecap="round"/>
<path d="M128.207 290.246C129.116 292.078 130.034 294.042 130.935 296.135C131.836 298.227 132.716 300.456 133.557 302.813C134.347 305.012 135.034 307.143 135.636 309.218C136.238 311.293 136.759 313.245 137.203 315.128" stroke="black" stroke-width="1.281" stroke-miterlimit="10" stroke-linecap="round"/>
<path d="M133.493 286.835C134.676 289.17 135.863 291.681 137.016 294.363C138.169 297.044 139.288 299.914 140.342 302.945C140.974 304.773 141.551 306.566 142.072 308.313C142.593 310.059 143.058 311.759 143.476 313.411" stroke="black" stroke-width="1.281" stroke-miterlimit="10" stroke-linecap="round"/>
<path d="M142.054 291.545C142.942 293.845 143.815 296.206 144.672 298.628C145.529 301.051 146.361 303.532 147.17 306.071C147.494 307.079 147.806 308.082 148.113 309.081C148.421 310.081 148.715 311.071 149.001 312.07" stroke="black" stroke-width="1.281" stroke-miterlimit="10" stroke-linecap="round"/>
<path d="M324.682 478.088L326.471 472.635L328.256 467.178C328.429 466.622 328.712 466.107 329.088 465.663C329.465 465.22 329.927 464.856 330.447 464.595C331.411 464.093 332.533 463.992 333.572 464.311C334.611 464.631 335.482 465.346 335.998 466.303C336.5 467.213 336.659 468.274 336.446 469.292C336.44 469.298 336.437 469.307 336.437 469.315C336.437 469.324 336.44 469.332 336.446 469.339C336.453 469.344 336.462 469.347 336.472 469.347C336.481 469.347 336.49 469.344 336.497 469.339C337.005 468.395 337.829 467.66 338.824 467.264C339.772 466.871 340.829 466.827 341.806 467.14C342.783 467.453 343.618 468.102 344.162 468.972C344.708 469.822 344.958 470.83 344.871 471.837C344.869 471.852 344.873 471.868 344.881 471.881C344.89 471.895 344.903 471.904 344.918 471.909C344.933 471.914 344.949 471.913 344.963 471.908C344.978 471.902 344.99 471.892 344.999 471.879C345.516 471.097 346.301 470.53 347.206 470.287C348.007 470.095 348.846 470.143 349.62 470.423C350.394 470.703 351.069 471.203 351.562 471.862C351.979 472.425 352.25 473.082 352.352 473.775C352.407 474.148 352.407 474.526 352.352 474.898C352.294 475.272 352.191 475.638 352.044 475.987L349.482 482.298L346.899 488.609C344.55 487.431 342.165 486.258 339.742 485.091C337.32 483.924 334.863 482.762 332.372 481.606C331.08 481.003 329.799 480.412 328.529 479.834C327.26 479.257 325.977 478.674 324.682 478.088Z" fill="#F6991A" stroke="#070707" stroke-width="1.281" stroke-miterlimit="10" stroke-linecap="round"/>
<path d="M336.536 469.335L334.294 475.201L332.048 481.073" fill="#ECE7E1"/>
<path d="M336.536 469.335L334.294 475.201L332.048 481.073" stroke="black" stroke-width="1.281" stroke-miterlimit="10" stroke-linecap="round"/>
<path d="M344.905 471.999L342.381 478.336L339.858 484.672" fill="#ECE7E1"/>
<path d="M344.905 471.999L342.381 478.336L339.858 484.672" stroke="black" stroke-width="1.281" stroke-miterlimit="10" stroke-linecap="round"/>
<path d="M310.002 439.094H325.886C326.533 439.18 327.191 439.108 327.804 438.885C328.418 438.662 328.968 438.294 329.409 437.813C330.303 436.879 330.791 435.63 330.767 434.338C330.7 433.121 330.166 431.977 329.277 431.144C328.835 430.711 328.299 430.386 327.711 430.193C327.123 430.001 326.499 429.946 325.886 430.033" stroke="black" stroke-width="1.281" stroke-miterlimit="10" stroke-linecap="round"/>
<path d="M256.102 414.785C256.102 414.785 255.248 420.336 251.524 427.514C246.634 436.923 239.053 444.661 229.747 449.744" stroke="black" stroke-width="1.281" stroke-miterlimit="10" stroke-linecap="round"/>
<path d="M277.858 430.012H263.997H250.137" stroke="black" stroke-width="1.281" stroke-miterlimit="10" stroke-linecap="round"/>
<path d="M174.852 347.503L161.372 359.894L147.887 372.29" stroke="black" stroke-width="1.281" stroke-miterlimit="10" stroke-linecap="round"/>
<path d="M342.74 436.152L344.299 435.55L345.857 434.948" fill="#F2B3C1"/>
<path d="M342.74 436.152L344.299 435.55L345.857 434.948" stroke="black" stroke-width="1.281" stroke-miterlimit="10" stroke-linecap="round"/>
<path d="M345.443 440.273L346.724 439.705L348.005 439.133" fill="#F2B3C1"/>
<path d="M345.443 440.273L346.724 439.705L348.005 439.133" stroke="black" stroke-width="1.281" stroke-miterlimit="10" stroke-linecap="round"/>
<path d="M116.87 406.89H84.7764H52.6831V403.316V399.746H84.7764H116.87V403.316V406.89Z" fill="#DBCAF4" stroke="black" stroke-width="1.281" stroke-miterlimit="10" stroke-linecap="round"/>
<path d="M109.376 399.746H86.4802H63.5845V396.172V392.603H86.4802H109.376V396.172V399.746Z" fill="#F6C34C" stroke="#070707" stroke-width="1.281" stroke-miterlimit="10" stroke-linecap="round"/>
<defs>
<linearGradient id="paint0_linear_94_5" x1="52.6831" y1="322.391" x2="372.267" y2="322.391" gradientUnits="userSpaceOnUse">
<stop offset="0.11" stop-color="#FEC2D9"/>
<stop offset="0.38" stop-color="#DBCAF4"/>
<stop offset="0.65" stop-color="#A4C2FF"/>
<stop offset="0.97" stop-color="#C6FCDB"/>
</linearGradient>
<linearGradient id="paint1_linear_94_5" x1="90.4342" y1="316.725" x2="150.389" y2="316.725" gradientUnits="userSpaceOnUse">
<stop offset="0.18" stop-color="#FEC2D9"/>
<stop offset="0.51" stop-color="#E3DEDA"/>
<stop offset="0.82" stop-color="#C6FCDB"/>
</linearGradient>
<linearGradient id="paint2_linear_94_5" x1="216.438" y1="135.032" x2="163.665" y2="226.436" gradientUnits="userSpaceOnUse">
<stop offset="0.22" stop-color="#FEC2D9"/>
<stop offset="0.68" stop-color="#F6991A"/>
<stop offset="1" stop-color="#FC762B"/>
</linearGradient>
<linearGradient id="paint3_linear_94_5" x1="174.229" y1="316.545" x2="174.229" y2="289.478" gradientUnits="userSpaceOnUse">
<stop offset="0.11" stop-color="#FEC2D9"/>
<stop offset="0.57" stop-color="#A4C2FF"/>
<stop offset="0.97" stop-color="#C6FCDB"/>
</linearGradient>
<linearGradient id="paint4_linear_94_5" x1="160.633" y1="328.01" x2="174.669" y2="328.01" gradientUnits="userSpaceOnUse">
<stop offset="0.18" stop-color="#FEC2D9"/>
<stop offset="0.86" stop-color="#F6991A"/>
</linearGradient>
<linearGradient id="paint5_linear_94_5" x1="121.994" y1="195.094" x2="128.049" y2="184.607" gradientUnits="userSpaceOnUse">
<stop offset="0.11" stop-color="#FEC2D9"/>
<stop offset="0.38" stop-color="#DBCAF4"/>
<stop offset="0.65" stop-color="#A4C2FF"/>
<stop offset="0.97" stop-color="#C6FCDB"/>
</linearGradient>
<linearGradient id="paint6_linear_94_5" x1="192.291" y1="293.867" x2="201.07" y2="293.867" gradientUnits="userSpaceOnUse">
<stop offset="0.37" stop-color="#A4C2FF"/>
<stop offset="0.62" stop-color="#B5DEED"/>
<stop offset="0.86" stop-color="#C6FCDB"/>
</linearGradient>
<linearGradient id="paint7_linear_94_5" x1="75.9549" y1="256.573" x2="84.6401" y2="256.573" gradientUnits="userSpaceOnUse">
<stop offset="0.37" stop-color="#A4C2FF"/>
<stop offset="0.62" stop-color="#B5DEED"/>
<stop offset="0.86" stop-color="#C6FCDB"/>
</linearGradient>
<linearGradient id="paint8_linear_94_5" x1="75.5791" y1="219.104" x2="121.614" y2="219.104" gradientUnits="userSpaceOnUse">
<stop offset="0.14" stop-color="#A4C2FF"/>
<stop offset="0.89" stop-color="#FEC2D9"/>
</linearGradient>
</defs>
</svg>
