<svg width="298" height="214" viewBox="0 0 298 214" fill="none" xmlns="http://www.w3.org/2000/svg">
<path d="M168.514 -183.786C207.914 -150.586 238.714 -111.886 264.114 -67.2864C289.414 -22.7864 309.714 27.6136 289.114 62.2136C268.914 96.8136 208.314 115.614 168.214 141.014C128.514 166.014 109.314 197.914 81.914 208.514C54.814 219.114 19.914 209.214 -26.986 209.214C-73.586 209.214 -132.186 219.114 -156.486 196.214C-180.786 173.614 -171.586 118.414 -173.986 68.1136C-176.686 17.4136 -191.786 -28.4864 -183.586 -71.2864C-175.686 -114.086 -145.186 -154.186 -105.186 -187.386C-65.4859 -220.286 -16.086 -246.686 32.2141 -245.986C80.8141 -245.086 129.114 -217.286 168.514 -183.786Z" fill="#A6C3FF"/>
</svg>
