<svg width="655" height="566" viewBox="0 0 655 566" fill="none" xmlns="http://www.w3.org/2000/svg">
<path d="M419.004 115.429C463.001 144.505 518.751 149.855 569.925 176.003C621.515 202.05 668.84 248.389 651.262 285.945C633.685 323.097 551.099 351.061 506.582 388.617C462.585 425.769 456.24 472.108 429.821 508.856C397.474 531.571 351.5 562.161 314.16 565.19C271.827 557.517 234.903 514.611 194.235 485.132C153.982 455.248 110.401 439.196 82.7339 409.717C54.6507 380.642 42.8974 337.735 26.5675 286.752C10.2377 235.466 -10.3566 175.7 5.9732 128.15C22.7191 81.0032 75.9732 46.1732 132.972 23.559C189.554 0.944746 249.049 -9.04994 295.646 12.0499C341.827 33.4527 375.007 86.3538 419.004 115.429Z" fill="#FCDA69"/>
</svg>
