<svg width="40" height="40" viewBox="0 0 40 40" fill="none" xmlns="http://www.w3.org/2000/svg">
<g clip-path="url(#clip0_20_851)">
<path d="M20.0247 34H19.9848C19.8609 34 7.46512 33.976 4.33771 33.1268C3.49269 32.8991 2.72229 32.4535 2.10364 31.8345C1.48499 31.2155 1.0398 30.4449 0.812631 29.5998C0.250265 26.4272 -0.0213049 23.2099 0.00130331 19.988C-0.0132153 16.7608 0.265703 13.539 0.834614 10.3623C1.0682 9.51573 1.51545 8.74345 2.13344 8.11953C2.75143 7.49561 3.51942 7.04099 4.36369 6.79932C7.40517 6 19.4592 6 19.9708 6H20.0127C20.1386 6 32.5663 6.02398 35.6618 6.87325C37.3783 7.33885 38.7192 8.6797 39.1829 10.3962C39.7624 13.5815 40.0361 16.8127 39.9962 20.05C40.0102 23.2733 39.7306 26.4911 39.1609 29.6637C38.9307 30.5079 38.4838 31.2772 37.8643 31.8952C37.2449 32.5133 36.4745 32.9585 35.6298 33.1867C32.5923 33.992 20.5363 34 20.0247 34ZM16.028 14.0031L16.018 25.9929L26.4334 19.998L16.028 14.0031Z" fill="black"/>
</g>
<defs>
<clipPath id="clip0_20_851">
<rect width="40" height="40" fill="white"/>
</clipPath>
</defs>
</svg>
